<svg version="1.1" viewBox="0.0 0.0 960.0 288.0" fill="none" stroke="none" stroke-linecap="square" stroke-miterlimit="10" xmlns:xlink="http://www.w3.org/1999/xlink" xmlns="http://www.w3.org/2000/svg"><clipPath id="p.0"><path d="m0 0l960.0 0l0 288.0l-960.0 0l0 -288.0z" clip-rule="nonzero"/></clipPath><g clip-path="url(#p.0)"><path fill="#ffffff" d="m0 0l960.0 0l0 288.0l-960.0 0z" fill-rule="evenodd"/><path fill="#000000" fill-opacity="0.0" d="m40.041996 99.07874l890.4252 0" fill-rule="evenodd"/><path stroke="#000000" stroke-width="1.0" stroke-linejoin="round" stroke-linecap="butt" d="m40.041996 99.07874l884.4252 0" fill-rule="evenodd"/><path fill="#000000" stroke="#000000" stroke-width="1.0" stroke-linecap="butt" d="m924.46716 100.73048l4.538147 -1.6517334l-4.538147 -1.6517334z" fill-rule="evenodd"/><path fill="#000000" fill-opacity="0.0" d="m428.38583 42.09449l0 56.472443" fill-rule="evenodd"/><path stroke="#000000" stroke-width="1.0" stroke-linejoin="round" stroke-linecap="butt" stroke-dasharray="4.0,3.0" d="m428.38583 42.09449l0 56.472443" fill-rule="evenodd"/><path fill="#000000" fill-opacity="0.0" d="m40.041996 98.56693l295.68503 0l0 42.01574l-295.68503 0z" fill-rule="evenodd"/><path fill="#000000" d="m56.96387 122.04943l1.046875 3.4375l1.671875 0l-4.203125 -13.265625l-1.421875 0l-4.28125 13.265625l1.6875 0l1.0625 -3.4375l4.4375 0zm-3.984375 -1.46875l1.78125 -5.75l1.75 5.75l-3.53125 0zm15.336193 4.90625l1.53125 0l0 -9.859375l-1.6875 0l0 7.078125q-0.140625 0.3125 -0.34375 0.578125q-0.203125 0.265625 -0.484375 0.46875q-0.328125 0.234375 -0.78125 0.375q-0.4375 0.125 -1.0 0.125q-0.484375 0 -0.859375 -0.125q-0.359375 -0.140625 -0.625 -0.453125q-0.24999619 -0.3125 -0.3749962 -0.828125q-0.125 -0.53125 -0.125 -1.34375l0 -5.875l-1.6875 0l0 5.859375q0 1.109375 0.234375 1.890625q0.25 0.78125 0.6875 1.296875q0.453125 0.515625 1.078125 0.765625q0.6249962 0.234375 1.4062462 0.234375q0.96875 0 1.703125 -0.40625q0.734375 -0.40625 1.234375 -1.140625l0.09375 1.359375zm4.383072 -5.015625l0 0.203125q0 1.046875 0.28125 1.96875q0.28125 0.90625 0.796875 1.59375q0.5 0.671875 1.21875 1.0625q0.734375 0.375 1.625 0.375q0.921875 0 1.59375 -0.3125q0.6875 -0.3125 1.1875 -0.90625l0.0625 1.03125l1.546875 0l0 -14.0l-1.6875 0l0 5.125q-0.46875 -0.578125 -1.140625 -0.859375q-0.65625 -0.296875 -1.546875 -0.296875q-0.890625 0 -1.625 0.375q-0.734375 0.359375 -1.234375 1.03125q-0.515625 0.65625 -0.796875 1.59375q-0.28125 0.921875 -0.28125 2.015625zm1.6875 0.203125l0 -0.203125q0 -0.71875 0.15625 -1.359375q0.15625 -0.65625 0.484375 -1.15625q0.3125 -0.5 0.8125 -0.78125q0.515625 -0.296875 1.21875 -0.296875q0.828125 0 1.375 0.390625q0.5625 0.390625 0.890625 0.984375l0 4.578125q-0.328125 0.640625 -0.890625 1.03125q-0.546875 0.375 -1.390625 0.375q-0.703125 0 -1.203125 -0.28125q-0.5 -0.296875 -0.8125 -0.78125q-0.328125 -0.5 -0.484375 -1.140625q-0.15625 -0.640625 -0.15625 -1.359375zm10.086197 -5.046875l0 1.46875l3.359375 0l0 6.9375l-3.359375 0l0 1.453125l8.265625 0l0 -1.453125l-3.21875 0l0 -8.40625l-5.046875 0zm3.140625 -2.578125q0 0.40625 0.25 0.6875q0.25 0.265625 0.765625 0.265625q0.5 0 0.75 -0.265625q0.25 -0.28125 0.25 -0.6875q0 -0.234375 -0.078125 -0.421875q-0.0625 -0.1875 -0.203125 -0.328125q-0.125 -0.109375 -0.3125 -0.171875q-0.171875 -0.078125 -0.40625 -0.078125q-0.25 0 -0.4375 0.078125q-0.171875 0.0625 -0.296875 0.171875q-0.140625 0.140625 -0.21875 0.34375q-0.0625 0.1875 -0.0625 0.40625zm7.320572 7.421875l0 0.203125q0 1.0625 0.3125 1.96875q0.3125 0.90625 0.890625 1.59375q0.578125 0.671875 1.40625 1.0625q0.84375 0.375 1.890625 0.375q1.03125 0 1.859375 -0.375q0.828125 -0.390625 1.40625 -1.0625q0.578125 -0.6875 0.890625 -1.59375q0.3125 -0.90625 0.3125 -1.96875l0 -0.203125q0 -1.0625 -0.3125 -1.984375q-0.3125 -0.921875 -0.890625 -1.59375q-0.578125 -0.671875 -1.421875 -1.046875q-0.828125 -0.390625 -1.875 -0.390625q-1.03125 0 -1.859375 0.390625q-0.828125 0.375 -1.40625 1.046875q-0.578125 0.671875 -0.890625 1.59375q-0.3125 0.921875 -0.3125 1.984375zm1.6875 0.203125l0 -0.203125q0 -0.71875 0.171875 -1.375q0.171875 -0.671875 0.53125 -1.171875q0.34375 -0.5 0.859375 -0.796875q0.515625 -0.296875 1.21875 -0.296875q0.703125 0 1.21875 0.296875q0.53125 0.296875 0.890625 0.796875q0.34375 0.5 0.515625 1.171875q0.1875 0.65625 0.1875 1.375l0 0.203125q0 0.71875 -0.171875 1.390625q-0.171875 0.65625 -0.515625 1.15625q-0.359375 0.5 -0.890625 0.796875q-0.515625 0.28125 -1.203125 0.28125q-0.703125 0 -1.234375 -0.28125q-0.53125 -0.296875 -0.875 -0.796875q-0.359375 -0.5 -0.53125 -1.15625q-0.171875 -0.671875 -0.171875 -1.390625zm18.570572 0.828125l-1.6875 0q-0.078125 0.59375 -0.28125 1.109375q-0.203125 0.515625 -0.53125 0.890625q-0.34375 0.375 -0.828125 0.59375q-0.484375 0.203125 -1.15625 0.203125q-0.609375 0 -1.0625 -0.1875q-0.453125 -0.203125 -0.796875 -0.546875q-0.328125 -0.34375 -0.546875 -0.78125q-0.21875 -0.453125 -0.359375 -0.953125q-0.140625 -0.5 -0.203125 -1.015625q-0.046875 -0.53125 -0.046875 -1.03125l0 -1.859375q0 -0.5 0.046875 -1.015625q0.0625 -0.53125 0.203125 -1.03125q0.140625 -0.5 0.359375 -0.9375q0.21875 -0.453125 0.5625 -0.796875q0.328125 -0.328125 0.78125 -0.515625q0.46875 -0.203125 1.0625 -0.203125q0.671875 0 1.15625 0.21875q0.484375 0.21875 0.828125 0.609375q0.328125 0.390625 0.53125 0.921875q0.203125 0.515625 0.28125 1.109375l1.6875 0q-0.109375 -0.9375 -0.453125 -1.71875q-0.34375 -0.796875 -0.90625 -1.359375q-0.5625 -0.546875 -1.34375 -0.859375q-0.78125 -0.3125 -1.78125 -0.3125q-0.828125 0 -1.5 0.234375q-0.65625 0.234375 -1.171875 0.640625q-0.53125 0.421875 -0.90625 0.984375q-0.375 0.546875 -0.625 1.203125q-0.25 0.65625 -0.375 1.375q-0.125 0.71875 -0.140625 1.46875l0 1.84375q0.015625 0.734375 0.140625 1.453125q0.125 0.71875 0.375 1.375q0.25 0.65625 0.625 1.21875q0.375 0.546875 0.90625 0.96875q0.515625 0.40625 1.1875 0.640625q0.671875 0.234375 1.484375 0.234375q0.96875 0 1.734375 -0.296875q0.78125 -0.3125 1.359375 -0.875q0.5625 -0.546875 0.921875 -1.3125q0.359375 -0.765625 0.46875 -1.6875zm2.133072 -1.03125l0 0.203125q0 1.0625 0.3125 1.96875q0.3125 0.90625 0.890625 1.59375q0.578125 0.671875 1.40625 1.0625q0.84375 0.375 1.890625 0.375q1.03125 0 1.859375 -0.375q0.828125 -0.390625 1.40625 -1.0625q0.578125 -0.6875 0.890625 -1.59375q0.3125 -0.90625 0.3125 -1.96875l0 -0.203125q0 -1.0625 -0.3125 -1.984375q-0.3125 -0.921875 -0.890625 -1.59375q-0.578125 -0.671875 -1.421875 -1.046875q-0.828125 -0.390625 -1.875 -0.390625q-1.03125 0 -1.859375 0.390625q-0.828125 0.375 -1.40625 1.046875q-0.578125 0.671875 -0.890625 1.59375q-0.3125 0.921875 -0.3125 1.984375zm1.6875 0.203125l0 -0.203125q0 -0.71875 0.171875 -1.375q0.171875 -0.671875 0.53125 -1.171875q0.34375 -0.5 0.859375 -0.796875q0.515625 -0.296875 1.21875 -0.296875q0.703125 0 1.21875 0.296875q0.53125 0.296875 0.890625 0.796875q0.34375 0.5 0.515625 1.171875q0.1875 0.65625 0.1875 1.375l0 0.203125q0 0.71875 -0.171875 1.390625q-0.171875 0.65625 -0.515625 1.15625q-0.359375 0.5 -0.890625 0.796875q-0.515625 0.28125 -1.203125 0.28125q-0.703125 0 -1.234375 -0.28125q-0.53125 -0.296875 -0.875 -0.796875q-0.359375 -0.5 -0.53125 -1.15625q-0.171875 -0.671875 -0.171875 -1.390625zm9.976822 4.8125l1.6875 0l0 -7.0625q0.171875 -0.328125 0.40625 -0.59375q0.234375 -0.265625 0.515625 -0.453125q0.328125 -0.234375 0.71875 -0.359375q0.40625 -0.140625 0.875 -0.140625q0.546875 0 0.953125 0.125q0.421875 0.125 0.703125 0.40625q0.28125 0.296875 0.421875 0.75q0.15625 0.453125 0.15625 1.109375l0 6.21875l1.6875 0l0 -6.265625q0 -0.96875 -0.25 -1.6875q-0.234375 -0.71875 -0.6875 -1.1875q-0.4375 -0.453125 -1.078125 -0.671875q-0.625 -0.21875 -1.40625 -0.21875q-0.5625 0 -1.078125 0.171875q-0.515625 0.15625 -0.953125 0.4375q-0.296875 0.1875 -0.5625 0.453125q-0.25 0.265625 -0.46875 0.5625l-0.125 -1.453125l-1.515625 0l0 9.859375zm15.195572 -12.25l-1.703125 0l0 2.390625l-2.578125 0l0 1.3125l2.578125 0l0 5.34375q0 0.921875 0.234375 1.5625q0.25 0.640625 0.671875 1.046875q0.421875 0.40625 0.984375 0.59375q0.578125 0.1875 1.234375 0.1875q0.390625 0 0.78125 -0.046875q0.40625 -0.03125 0.75 -0.109375q0.359375 -0.0625 0.65625 -0.15625q0.296875 -0.09375 0.515625 -0.21875l-0.234375 -1.203125q-0.15625 0.046875 -0.40625 0.09375q-0.234375 0.046875 -0.515625 0.09375q-0.28125 0.046875 -0.578125 0.078125q-0.28125 0.03125 -0.546875 0.03125q-0.375 0 -0.71875 -0.09375q-0.328125 -0.09375 -0.578125 -0.3125q-0.265625 -0.21875 -0.40625 -0.59375q-0.140625 -0.375 -0.140625 -0.953125l0 -5.34375l3.75 0l0 -1.3125l-3.75 0l0 -2.390625zm11.554947 12.4375q1.4375 0 2.421875 -0.578125q0.984375 -0.578125 1.46875 -1.328125l-1.03125 -0.796875q-0.46875 0.59375 -1.171875 0.96875q-0.6875 0.359375 -1.59375 0.359375q-0.6875 0 -1.25 -0.25q-0.5625 -0.265625 -0.96875 -0.71875q-0.390625 -0.40625 -0.609375 -0.953125q-0.21875 -0.546875 -0.28125 -1.265625l0 -0.078125l7.03125 0l0 -0.75q0 -1.03125 -0.265625 -1.90625q-0.25 -0.890625 -0.78125 -1.546875q-0.53125 -0.640625 -1.328125 -1.0q-0.796875 -0.375 -1.859375 -0.375q-0.84375 0 -1.65625 0.34375q-0.796875 0.34375 -1.4375 0.984375q-0.625 0.65625 -1.015625 1.609375q-0.375 0.9375 -0.375 2.125l0 0.390625q0 1.03125 0.34375 1.90625q0.34375 0.875 0.96875 1.5q0.609375 0.640625 1.484375 1.0q0.875 0.359375 1.90625 0.359375zm-0.21875 -8.84375q0.65625 0 1.125 0.234375q0.46875 0.234375 0.765625 0.625q0.3125 0.375 0.484375 0.90625q0.171875 0.515625 0.171875 0.984375l0 0.078125l-5.296875 0q0.09375 -0.6875 0.34375 -1.203125q0.265625 -0.53125 0.625 -0.890625q0.359375 -0.359375 0.8125 -0.546875q0.453125 -0.1875 0.96875 -0.1875zm11.133072 2.453125l-2.609375 -3.65625l-1.9375 0l3.65625 4.875l-3.765625 4.984375l1.96875 0l2.71875 -3.75l2.734375 3.75l1.9375 0l-3.765625 -4.984375l3.671875 -4.875l-1.96875 0l-2.640625 3.65625zm11.117447 -6.046875l-1.703125 0l0 2.390625l-2.578125 0l0 1.3125l2.578125 0l0 5.34375q0 0.921875 0.234375 1.5625q0.25 0.640625 0.671875 1.046875q0.421875 0.40625 0.984375 0.59375q0.578125 0.1875 1.234375 0.1875q0.390625 0 0.78125 -0.046875q0.40625 -0.03125 0.75 -0.109375q0.359375 -0.0625 0.65625 -0.15625q0.296875 -0.09375 0.515625 -0.21875l-0.234375 -1.203125q-0.15625 0.046875 -0.40625 0.09375q-0.234375 0.046875 -0.515625 0.09375q-0.28125 0.046875 -0.578125 0.078125q-0.28125 0.03125 -0.546875 0.03125q-0.375 0 -0.71875 -0.09375q-0.328125 -0.09375 -0.578125 -0.3125q-0.265625 -0.21875 -0.40625 -0.59375q-0.140625 -0.375 -0.140625 -0.953125l0 -5.34375l3.75 0l0 -1.3125l-3.75 0l0 -2.390625z" fill-rule="nonzero"/><path fill="#000000" fill-opacity="0.0" d="m413.77692 98.56693l295.685 0l0 42.01574l-295.685 0z" fill-rule="evenodd"/><path fill="#000000" d="m428.18317 113.11193l-1.109375 0l0 2.515625l-2.75 0l0 0.90625l2.75 0l0 6.171875q0 0.8125 0.234375 1.375q0.234375 0.5625 0.640625 0.921875q0.40625 0.34375 0.96875 0.5q0.5625 0.171875 1.21875 0.171875q0.3125 0 0.640625 -0.03125q0.328125 -0.015625 0.625 -0.0625q0.234375 -0.046875 0.453125 -0.09375q0.21875 -0.0625 0.390625 -0.140625l-0.171875 -0.828125q-0.140625 0.015625 -0.328125 0.046875q-0.171875 0.03125 -0.375 0.0625q-0.265625 0.046875 -0.53125 0.0625q-0.25 0.015625 -0.515625 0.015625q-0.453125 0 -0.84375 -0.09375q-0.375 -0.109375 -0.671875 -0.34375q-0.296875 -0.234375 -0.46875 -0.609375q-0.15625 -0.375 -0.171875 -0.953125l0 -6.171875l3.65625 0l0 -0.90625l-3.65625 0l0.015625 -2.515625zm15.492432 4.984375l0 -0.984375l-8.125 0l0 0.984375l8.125 0zm0 3.734375l0 -0.96875l-8.125 0l0 0.96875l8.125 0zm8.258087 3.65625l0 -13.265625l-0.15625 0l-4.609375 1.921875l0 1.046875l3.671875 -1.578125l0 11.875l1.09375 0zm14.226807 -5.25l0 -2.765625q0 -1.28125 -0.34375 -2.421875q-0.328125 -1.140625 -1.03125 -1.875q-0.5 -0.546875 -1.203125 -0.84375q-0.703125 -0.296875 -1.59375 -0.296875q-1.0625 0 -1.859375 0.421875q-0.78125 0.421875 -1.28125 1.15625q-0.53125 0.734375 -0.78125 1.734375q-0.25 1.0 -0.25 2.125l0 2.765625q0 1.28125 0.328125 2.40625q0.328125 1.125 1.0625 1.890625q0.515625 0.5625 1.203125 0.859375q0.703125 0.28125 1.59375 0.28125q1.078125 0 1.859375 -0.4375q0.796875 -0.4375 1.296875 -1.171875q0.5 -0.734375 0.75 -1.71875q0.25 -0.984375 0.25 -2.109375zm-7.140625 0.796875q-0.0625 -0.359375 -0.09375 -0.71875q-0.015625 -0.359375 -0.015625 -0.71875l0 -2.3125q0 -0.890625 0.1875 -1.734375q0.1875 -0.84375 0.578125 -1.40625q0.390625 -0.546875 0.9375 -0.859375q0.546875 -0.3125 1.375 -0.3125q0.640625 0 1.125 0.203125q0.484375 0.1875 0.84375 0.546875q0.359375 0.375 0.59375 0.875q0.234375 0.5 0.34375 1.125l-5.875 5.3125zm6.046875 -0.625q0 0.921875 -0.1875 1.734375q-0.171875 0.796875 -0.59375 1.390625q-0.34375 0.546875 -0.921875 0.875q-0.5625 0.328125 -1.359375 0.328125q-0.609375 0 -1.09375 -0.1875q-0.484375 -0.1875 -0.828125 -0.515625q-0.359375 -0.34375 -0.609375 -0.84375q-0.234375 -0.5 -0.375 -1.109375l5.890625 -5.296875q0.03125 0.34375 0.046875 0.765625q0.03125 0.421875 0.03125 0.71875l0 2.140625z" fill-rule="nonzero"/><path fill="#000000" fill-opacity="0.0" d="m428.38583 8.301837l295.68503 0l0 42.015747l-295.68503 0z" fill-rule="evenodd"/><path fill="#000000" d="m443.15146 34.471836q-0.875 0 -1.484375 -0.34375q-0.59375 -0.34375 -0.96875 -0.90625q-0.390625 -0.5625 -0.578125 -1.265625q-0.171875 -0.71875 -0.171875 -1.46875l0 -0.390625q0 -0.734375 0.171875 -1.4375q0.1875 -0.71875 0.578125 -1.296875q0.375 -0.546875 0.96875 -0.890625q0.609375 -0.34375 1.46875 -0.34375q0.59375 0 1.09375 0.1875q0.5 0.1875 0.890625 0.53125q0.375 0.34375 0.59375 0.8125q0.21875 0.46875 0.265625 1.015625l1.03125 0q-0.03125 -0.75 -0.328125 -1.390625q-0.296875 -0.65625 -0.8125 -1.125q-0.515625 -0.453125 -1.21875 -0.703125q-0.6875 -0.265625 -1.515625 -0.265625q-1.078125 0 -1.890625 0.40625q-0.796875 0.40625 -1.3125 1.078125q-0.546875 0.6875 -0.8125 1.578125q-0.265625 0.890625 -0.265625 1.84375l0 0.390625q0 0.953125 0.265625 1.84375q0.265625 0.890625 0.8125 1.5625q0.53125 0.6875 1.328125 1.109375q0.8125 0.40625 1.890625 0.40625q0.75 0 1.4375 -0.25q0.6875 -0.25 1.21875 -0.671875q0.515625 -0.4375 0.84375 -1.015625q0.328125 -0.59375 0.359375 -1.296875l-1.03125 0q-0.046875 0.53125 -0.28125 0.953125q-0.234375 0.421875 -0.625 0.71875q-0.390625 0.3125 -0.890625 0.46875q-0.5 0.15625 -1.03125 0.15625zm10.836182 -11.625l-1.109375 0l0 2.515625l-2.75 0l0 0.90625l2.75 0l0 6.171875q0 0.8125 0.234375 1.375q0.234375 0.5625 0.640625 0.921875q0.40625 0.34375 0.96875 0.5q0.5625 0.171875 1.21875 0.171875q0.3125 0 0.640625 -0.03125q0.328125 -0.015625 0.625 -0.0625q0.234375 -0.046875 0.453125 -0.09375q0.21875 -0.0625 0.390625 -0.140625l-0.171875 -0.828125q-0.140625 0.015625 -0.328125 0.046875q-0.171875 0.03125 -0.375 0.0625q-0.265625 0.046875 -0.53125 0.0625q-0.25 0.015625 -0.515625 0.015625q-0.453125 0 -0.84375 -0.09375q-0.375 -0.109375 -0.671875 -0.34375q-0.296875 -0.234375 -0.46875 -0.609375q-0.15625 -0.375 -0.171875 -0.953125l0 -6.171875l3.65625 0l0 -0.90625l-3.65625 0l0.015625 -2.515625zm11.476837 6.53125l-3.046875 -4.015625l-1.296875 0l3.75 4.84375l-3.90625 5.015625l1.3125 0l3.203125 -4.1875l3.21875 4.1875l1.296875 0l-3.90625 -5.015625l3.75 -4.84375l-1.3125 0l-3.0625 4.015625zm10.461182 5.0625q0 0.375 0.234375 0.640625q0.25 0.25 0.671875 0.25q0.4375 0 0.6875 -0.25q0.265625 -0.265625 0.265625 -0.640625q0 -0.390625 -0.265625 -0.65625q-0.25 -0.28125 -0.6875 -0.28125q-0.421875 0 -0.671875 0.28125q-0.234375 0.265625 -0.234375 0.65625zm12.008087 0.03125q-0.875 0 -1.484375 -0.34375q-0.59375 -0.34375 -0.96875 -0.90625q-0.390625 -0.5625 -0.578125 -1.265625q-0.171875 -0.71875 -0.171875 -1.46875l0 -0.390625q0 -0.734375 0.171875 -1.4375q0.1875 -0.71875 0.578125 -1.296875q0.375 -0.546875 0.96875 -0.890625q0.609375 -0.34375 1.46875 -0.34375q0.59375 0 1.09375 0.1875q0.5 0.1875 0.890625 0.53125q0.375 0.34375 0.59375 0.8125q0.21875 0.46875 0.265625 1.015625l1.03125 0q-0.03125 -0.75 -0.328125 -1.390625q-0.296875 -0.65625 -0.8125 -1.125q-0.515625 -0.453125 -1.21875 -0.703125q-0.6875 -0.265625 -1.515625 -0.265625q-1.078125 0 -1.890625 0.40625q-0.796875 0.40625 -1.3125 1.078125q-0.546875 0.6875 -0.8125 1.578125q-0.265625 0.890625 -0.265625 1.84375l0 0.390625q0 0.953125 0.265625 1.84375q0.265625 0.890625 0.8125 1.5625q0.53125 0.6875 1.328125 1.109375q0.8125 0.40625 1.890625 0.40625q0.75 0 1.4375 -0.25q0.6875 -0.25 1.21875 -0.671875q0.515625 -0.4375 0.84375 -1.015625q0.328125 -0.59375 0.359375 -1.296875l-1.03125 0q-0.046875 0.53125 -0.28125 0.953125q-0.234375 0.421875 -0.625 0.71875q-0.390625 0.3125 -0.890625 0.46875q-0.5 0.15625 -1.03125 0.15625zm13.711182 -9.28125q-1.34375 -0.015625 -2.328125 0.546875q-0.984375 0.5625 -1.5625 1.578125l-0.015625 -0.4375l-0.0625 -1.515625l-1.03125 0l0 9.859375l1.125 0l-0.015625 -6.3125q0.1875 -0.671875 0.515625 -1.171875q0.34375 -0.5 0.8125 -0.828125q0.484375 -0.328125 1.09375 -0.484375q0.609375 -0.171875 1.296875 -0.171875q0.40625 0 0.78125 0.046875q0.390625 0.046875 0.75 0.125l0.15625 -1.046875q-0.28125 -0.09375 -0.703125 -0.140625q-0.40625 -0.046875 -0.8125 -0.046875zm8.883087 10.21875q1.234375 0 2.15625 -0.484375q0.9375 -0.484375 1.5 -1.265625l-0.703125 -0.53125q-0.515625 0.65625 -1.265625 1.0q-0.734375 0.34375 -1.640625 0.34375q-0.796875 0 -1.453125 -0.3125q-0.640625 -0.3125 -1.09375 -0.84375q-0.46875 -0.515625 -0.734375 -1.1875q-0.25 -0.671875 -0.28125 -1.46875l0 -0.296875l7.375 0l0 -0.65625q0 -0.9375 -0.265625 -1.765625q-0.265625 -0.828125 -0.78125 -1.453125q-0.515625 -0.609375 -1.28125 -0.953125q-0.765625 -0.34375 -1.734375 -0.34375q-0.921875 0 -1.71875 0.375q-0.796875 0.375 -1.390625 1.0625q-0.609375 0.671875 -0.953125 1.578125q-0.34375 0.90625 -0.34375 1.96875l0 0.390625q0 1.0 0.34375 1.875q0.34375 0.875 0.953125 1.546875q0.59375 0.65625 1.4375 1.046875q0.859375 0.375 1.875 0.375zm-0.203125 -9.28125q0.703125 0 1.25 0.265625q0.546875 0.265625 0.921875 0.71875q0.375 0.4375 0.59375 1.03125q0.21875 0.59375 0.21875 1.1875l0 0.09375l-6.25 0q0.09375 -0.703125 0.359375 -1.3125q0.28125 -0.609375 0.71875 -1.046875q0.40625 -0.4375 0.953125 -0.6875q0.5625 -0.25 1.234375 -0.25zm13.961182 9.09375l1.171875 0l0 -0.125q-0.125 -0.4375 -0.21875 -0.9375q-0.078125 -0.515625 -0.09375 -1.0l0 -4.765625q-0.015625 -0.8125 -0.3125 -1.40625q-0.28125 -0.609375 -0.78125 -1.015625q-0.515625 -0.390625 -1.203125 -0.578125q-0.6875 -0.203125 -1.46875 -0.203125q-0.78125 0 -1.46875 0.21875q-0.6875 0.21875 -1.203125 0.59375q-0.515625 0.390625 -0.828125 0.921875q-0.3125 0.53125 -0.34375 1.15625l1.09375 0.015625q0.015625 -0.46875 0.25 -0.828125q0.234375 -0.375 0.59375 -0.640625q0.375 -0.25 0.859375 -0.390625q0.484375 -0.140625 1.0 -0.140625q0.578125 0 1.078125 0.15625q0.5 0.15625 0.859375 0.4375q0.359375 0.28125 0.5625 0.703125q0.21875 0.421875 0.234375 0.984375l0 1.109375l-2.140625 0q-0.921875 0 -1.765625 0.171875q-0.828125 0.15625 -1.46875 0.53125q-0.625 0.375 -1.015625 0.96875q-0.375 0.59375 -0.375 1.453125q0 0.625 0.25 1.140625q0.265625 0.515625 0.703125 0.875q0.4375 0.359375 1.03125 0.578125q0.609375 0.203125 1.28125 0.203125q0.546875 0 1.046875 -0.125q0.515625 -0.109375 0.96875 -0.328125q0.453125 -0.203125 0.828125 -0.5q0.375 -0.3125 0.65625 -0.6875q0.015625 0.375 0.0625 0.75q0.0625 0.375 0.15625 0.703125zm-3.578125 -0.796875q-0.484375 0 -0.90625 -0.125q-0.421875 -0.140625 -0.734375 -0.390625q-0.3125 -0.25 -0.5 -0.609375q-0.171875 -0.359375 -0.171875 -0.796875q-0.015625 -0.546875 0.234375 -0.921875q0.25 -0.390625 0.671875 -0.65625q0.5 -0.328125 1.234375 -0.453125q0.734375 -0.125 1.546875 -0.140625l1.984375 0l0 2.15625q-0.21875 0.4375 -0.5625 0.796875q-0.328125 0.359375 -0.765625 0.609375q-0.4375 0.265625 -0.953125 0.40625q-0.515625 0.125 -1.078125 0.125zm11.648682 -11.578125l-1.109375 0l0 2.515625l-2.75 0l0 0.90625l2.75 0l0 6.171875q0 0.8125 0.234375 1.375q0.234375 0.5625 0.640625 0.921875q0.40625 0.34375 0.96875 0.5q0.5625 0.171875 1.21875 0.171875q0.3125 0 0.640625 -0.03125q0.328125 -0.015625 0.625 -0.0625q0.234375 -0.046875 0.453125 -0.09375q0.21875 -0.0625 0.390625 -0.140625l-0.171875 -0.828125q-0.140625 0.015625 -0.328125 0.046875q-0.171875 0.03125 -0.375 0.0625q-0.265625 0.046875 -0.53125 0.0625q-0.25 0.015625 -0.515625 0.015625q-0.453125 0 -0.84375 -0.09375q-0.375 -0.109375 -0.671875 -0.34375q-0.296875 -0.234375 -0.46875 -0.609375q-0.15625 -0.375 -0.171875 -0.953125l0 -6.171875l3.65625 0l0 -0.90625l-3.65625 0l0.015625 -2.515625zm11.758118 12.5625q1.234375 0 2.15625 -0.484375q0.9375 -0.484375 1.5 -1.265625l-0.703125 -0.53125q-0.515625 0.65625 -1.265625 1.0q-0.734375 0.34375 -1.640625 0.34375q-0.796875 0 -1.453125 -0.3125q-0.640625 -0.3125 -1.09375 -0.84375q-0.46875 -0.515625 -0.734375 -1.1875q-0.25 -0.671875 -0.28125 -1.46875l0 -0.296875l7.375 0l0 -0.65625q0 -0.9375 -0.265625 -1.765625q-0.265625 -0.828125 -0.78125 -1.453125q-0.515625 -0.609375 -1.28125 -0.953125q-0.765625 -0.34375 -1.734375 -0.34375q-0.921875 0 -1.71875 0.375q-0.796875 0.375 -1.390625 1.0625q-0.609375 0.671875 -0.953125 1.578125q-0.34375 0.90625 -0.34375 1.96875l0 0.390625q0 1.0 0.34375 1.875q0.34375 0.875 0.953125 1.546875q0.59375 0.65625 1.4375 1.046875q0.859375 0.375 1.875 0.375zm-0.203125 -9.28125q0.703125 0 1.25 0.265625q0.546875 0.265625 0.921875 0.71875q0.375 0.4375 0.59375 1.03125q0.21875 0.59375 0.21875 1.1875l0 0.09375l-6.25 0q0.09375 -0.703125 0.359375 -1.3125q0.28125 -0.609375 0.71875 -1.046875q0.40625 -0.4375 0.953125 -0.6875q0.5625 -0.25 1.234375 -0.25zm7.2111816 9.09375l4.171875 0q0.8125 -0.015625 1.5625 -0.265625q0.75 -0.265625 1.328125 -0.75q0.578125 -0.46875 0.90625 -1.15625q0.328125 -0.6875 0.328125 -1.578125q0 -0.59375 -0.203125 -1.109375q-0.1875 -0.53125 -0.53125 -0.9375q-0.359375 -0.40625 -0.84375 -0.703125q-0.484375 -0.296875 -1.015625 -0.421875l-0.015625 -0.03125q0.5 -0.203125 0.875 -0.453125q0.375 -0.25 0.671875 -0.59375q0.28125 -0.359375 0.4375 -0.796875q0.15625 -0.453125 0.171875 -1.0q0 -0.90625 -0.359375 -1.546875q-0.359375 -0.65625 -0.953125 -1.078125q-0.59375 -0.421875 -1.359375 -0.625q-0.75 -0.203125 -1.5625 -0.21875l-3.609375 0l0 13.265625zm1.078125 -6.375l3.203125 0q0.578125 0.015625 1.109375 0.203125q0.53125 0.171875 0.9375 0.5q0.40625 0.359375 0.640625 0.84375q0.234375 0.484375 0.234375 1.109375q0 0.640625 -0.25 1.15625q-0.234375 0.5 -0.65625 0.84375q-0.40625 0.359375 -0.953125 0.5625q-0.546875 0.1875 -1.15625 0.1875l-3.109375 0l0 -5.40625zm0 -0.953125l0 -4.96875l2.5625 0q0.578125 0.015625 1.140625 0.15625q0.5625 0.140625 1.0 0.421875q0.4375 0.296875 0.6875 0.765625q0.265625 0.46875 0.265625 1.140625q0 0.625 -0.25 1.09375q-0.25 0.453125 -0.671875 0.75q-0.421875 0.328125 -0.953125 0.484375q-0.53125 0.15625 -1.109375 0.15625l-2.671875 0zm16.773682 7.328125l1.015625 0l0 -9.859375l-1.09375 0l0 6.9375q-0.140625 0.484375 -0.390625 0.875q-0.25 0.390625 -0.609375 0.65625q-0.390625 0.296875 -0.90625 0.453125q-0.515625 0.15625 -1.15625 0.15625q-0.609375 0 -1.0625 -0.1875q-0.4375 -0.1875 -0.75 -0.578125q-0.296875 -0.375 -0.453125 -0.9375q-0.140625 -0.5625 -0.140625 -1.296875l0 -6.078125l-1.09375 0l0 6.0625q0.015625 0.953125 0.234375 1.703125q0.21875 0.734375 0.640625 1.234375q0.4375 0.5 1.0625 0.78125q0.625 0.265625 1.4375 0.265625q1.109375 0 1.921875 -0.453125q0.8125 -0.46875 1.296875 -1.296875l0.046875 1.5625zm7.0861816 0l1.140625 0l-0.015625 -8.953125l3.921875 0l0 -0.90625l-3.921875 0l0 -0.78125q0 -0.734375 0.21875 -1.265625q0.21875 -0.53125 0.609375 -0.859375q0.375 -0.296875 0.875 -0.421875q0.515625 -0.140625 1.15625 -0.140625q0.484375 0 0.921875 0.0625q0.453125 0.0625 0.84375 0.171875l0.140625 -0.9375q-0.234375 -0.0625 -0.46875 -0.09375q-0.234375 -0.046875 -0.46875 -0.078125q-0.265625 -0.03125 -0.53125 -0.046875q-0.265625 -0.03125 -0.546875 -0.03125q-0.796875 0 -1.5 0.1875q-0.6875 0.1875 -1.203125 0.625q-0.53125 0.4375 -0.84375 1.125q-0.296875 0.6875 -0.3125 1.703125l0 0.78125l-2.6875 0l0 0.90625l2.6875 0l-0.015625 8.953125zm11.195618 0l1.140625 0l-0.015625 -8.953125l3.921875 0l0 -0.90625l-3.921875 0l0 -0.78125q0 -0.734375 0.21875 -1.265625q0.21875 -0.53125 0.609375 -0.859375q0.375 -0.296875 0.875 -0.421875q0.515625 -0.140625 1.15625 -0.140625q0.484375 0 0.921875 0.0625q0.453125 0.0625 0.84375 0.171875l0.140625 -0.9375q-0.234375 -0.0625 -0.46875 -0.09375q-0.234375 -0.046875 -0.46875 -0.078125q-0.265625 -0.03125 -0.53125 -0.046875q-0.265625 -0.03125 -0.546875 -0.03125q-0.796875 0 -1.5 0.1875q-0.6875 0.1875 -1.203125 0.625q-0.53125 0.4375 -0.84375 1.125q-0.296875 0.6875 -0.3125 1.703125l0 0.78125l-2.6875 0l0 0.90625l2.6875 0l-0.015625 8.953125zm12.836182 0.1875q1.234375 0 2.15625 -0.484375q0.9375 -0.484375 1.5 -1.265625l-0.703125 -0.53125q-0.515625 0.65625 -1.265625 1.0q-0.734375 0.34375 -1.640625 0.34375q-0.796875 0 -1.453125 -0.3125q-0.640625 -0.3125 -1.09375 -0.84375q-0.46875 -0.515625 -0.734375 -1.1875q-0.25 -0.671875 -0.28125 -1.46875l0 -0.296875l7.375 0l0 -0.65625q0 -0.9375 -0.265625 -1.765625q-0.265625 -0.828125 -0.78125 -1.453125q-0.515625 -0.609375 -1.28125 -0.953125q-0.765625 -0.34375 -1.734375 -0.34375q-0.921875 0 -1.71875 0.375q-0.796875 0.375 -1.390625 1.0625q-0.609375 0.671875 -0.953125 1.578125q-0.34375 0.90625 -0.34375 1.96875l0 0.390625q0 1.0 0.34375 1.875q0.34375 0.875 0.953125 1.546875q0.59375 0.65625 1.4375 1.046875q0.859375 0.375 1.875 0.375zm-0.203125 -9.28125q0.703125 0 1.25 0.265625q0.546875 0.265625 0.921875 0.71875q0.375 0.4375 0.59375 1.03125q0.21875 0.59375 0.21875 1.1875l0 0.09375l-6.25 0q0.09375 -0.703125 0.359375 -1.3125q0.28125 -0.609375 0.71875 -1.046875q0.40625 -0.4375 0.953125 -0.6875q0.5625 -0.25 1.234375 -0.25zm13.711182 -0.9375q-1.34375 -0.015625 -2.328125 0.546875q-0.984375 0.5625 -1.5625 1.578125l-0.015625 -0.4375l-0.0625 -1.515625l-1.03125 0l0 9.859375l1.125 0l-0.015625 -6.3125q0.1875 -0.671875 0.515625 -1.171875q0.34375 -0.5 0.8125 -0.828125q0.484375 -0.328125 1.09375 -0.484375q0.609375 -0.171875 1.296875 -0.171875q0.40625 0 0.78125 0.046875q0.390625 0.046875 0.75 0.125l0.15625 -1.046875q-0.28125 -0.09375 -0.703125 -0.140625q-0.40625 -0.046875 -0.8125 -0.046875zm11.929932 6.765625q0 0.65625 -0.28125 1.125q-0.265625 0.46875 -0.703125 0.765625q-0.4375 0.296875 -1.015625 0.453125q-0.5625 0.140625 -1.140625 0.140625q-0.703125 0 -1.3125 -0.1875q-0.59375 -0.1875 -1.0625 -0.5625q-0.46875 -0.359375 -0.765625 -0.90625q-0.296875 -0.546875 -0.390625 -1.265625l-1.09375 0q0.03125 0.859375 0.359375 1.546875q0.34375 0.671875 0.9375 1.15625q0.640625 0.59375 1.515625 0.890625q0.890625 0.296875 1.8125 0.296875q0.78125 0 1.546875 -0.21875q0.765625 -0.21875 1.375 -0.65625q0.609375 -0.421875 0.96875 -1.0625q0.375 -0.65625 0.375 -1.53125q0 -0.875 -0.375 -1.53125q-0.359375 -0.65625 -0.9375 -1.09375q-0.609375 -0.484375 -1.34375 -0.78125q-0.71875 -0.3125 -1.453125 -0.546875q-0.53125 -0.15625 -1.109375 -0.359375q-0.578125 -0.21875 -1.0625 -0.546875q-0.484375 -0.328125 -0.796875 -0.78125q-0.296875 -0.453125 -0.296875 -1.109375q0 -0.625 0.265625 -1.078125q0.265625 -0.453125 0.703125 -0.765625q0.4375 -0.296875 0.96875 -0.453125q0.546875 -0.15625 1.109375 -0.15625q0.671875 0 1.21875 0.21875q0.546875 0.203125 0.953125 0.59375q0.40625 0.375 0.640625 0.90625q0.25 0.53125 0.328125 1.1875l1.109375 0q-0.03125 -0.875 -0.375 -1.59375q-0.34375 -0.71875 -0.921875 -1.21875q-0.578125 -0.5 -1.34375 -0.78125q-0.765625 -0.28125 -1.609375 -0.28125q-0.75 0 -1.5 0.234375q-0.75 0.21875 -1.34375 0.640625q-0.59375 0.4375 -0.96875 1.09375q-0.359375 0.640625 -0.359375 1.46875q0.015625 0.890625 0.40625 1.515625q0.390625 0.625 1.0 1.0625q0.5625 0.421875 1.265625 0.71875q0.703125 0.28125 1.375 0.484375q0.546875 0.171875 1.140625 0.40625q0.59375 0.21875 1.09375 0.546875q0.484375 0.34375 0.796875 0.828125q0.3125 0.484375 0.296875 1.1875zm3.3831177 -1.8125l0 0.296875q0 1.015625 0.296875 1.921875q0.296875 0.890625 0.875 1.5625q0.5625 0.6875 1.375 1.09375q0.828125 0.390625 1.859375 0.390625q1.03125 0 1.84375 -0.40625q0.8125 -0.40625 1.390625 -1.078125q0.546875 -0.6875 0.84375 -1.578125q0.3125 -0.890625 0.3125 -1.90625l0 -0.296875q0 -1.0 -0.3125 -1.90625q-0.296875 -0.90625 -0.859375 -1.578125q-0.5625 -0.6875 -1.390625 -1.078125q-0.8125 -0.390625 -1.84375 -0.390625q-1.03125 0 -1.84375 0.40625q-0.8125 0.390625 -1.375 1.0625q-0.578125 0.6875 -0.875 1.59375q-0.296875 0.890625 -0.296875 1.890625zm1.078125 0.296875l0 -0.296875q0.015625 -0.765625 0.21875 -1.5q0.21875 -0.734375 0.65625 -1.28125q0.40625 -0.5625 1.015625 -0.890625q0.625 -0.34375 1.421875 -0.34375q0.796875 0 1.40625 0.34375q0.625 0.328125 1.046875 0.890625q0.421875 0.546875 0.640625 1.28125q0.21875 0.734375 0.21875 1.5l0 0.296875q0 0.78125 -0.21875 1.515625q-0.21875 0.71875 -0.625 1.28125q-0.421875 0.5625 -1.046875 0.90625q-0.609375 0.328125 -1.40625 0.328125q-0.8125 0 -1.4375 -0.328125q-0.609375 -0.34375 -1.015625 -0.90625q-0.4375 -0.5625 -0.65625 -1.28125q-0.203125 -0.734375 -0.21875 -1.515625zm17.351807 4.78125l1.015625 0l0 -9.859375l-1.09375 0l0 6.9375q-0.140625 0.484375 -0.390625 0.875q-0.25 0.390625 -0.609375 0.65625q-0.390625 0.296875 -0.90625 0.453125q-0.515625 0.15625 -1.15625 0.15625q-0.609375 0 -1.0625 -0.1875q-0.4375 -0.1875 -0.75 -0.578125q-0.296875 -0.375 -0.453125 -0.9375q-0.140625 -0.5625 -0.140625 -1.296875l0 -6.078125l-1.09375 0l0 6.0625q0.015625 0.953125 0.234375 1.703125q0.21875 0.734375 0.640625 1.234375q0.4375 0.5 1.0625 0.78125q0.625 0.265625 1.4375 0.265625q1.109375 0 1.921875 -0.453125q0.8125 -0.46875 1.296875 -1.296875l0.046875 1.5625zm11.039307 -10.03125q-1.34375 -0.015625 -2.328125 0.546875q-0.984375 0.5625 -1.5625 1.578125l-0.015625 -0.4375l-0.0625 -1.515625l-1.03125 0l0 9.859375l1.125 0l-0.015625 -6.3125q0.1875 -0.671875 0.515625 -1.171875q0.34375 -0.5 0.8125 -0.828125q0.484375 -0.328125 1.09375 -0.484375q0.609375 -0.171875 1.296875 -0.171875q0.40625 0 0.78125 0.046875q0.390625 0.046875 0.75 0.125l0.15625 -1.046875q-0.28125 -0.09375 -0.703125 -0.140625q-0.40625 -0.046875 -0.8125 -0.046875zm8.679932 9.28125q-0.875 0 -1.484375 -0.34375q-0.59375 -0.34375 -0.96875 -0.90625q-0.390625 -0.5625 -0.578125 -1.265625q-0.171875 -0.71875 -0.171875 -1.46875l0 -0.390625q0 -0.734375 0.171875 -1.4375q0.1875 -0.71875 0.578125 -1.296875q0.375 -0.546875 0.96875 -0.890625q0.609375 -0.34375 1.46875 -0.34375q0.59375 0 1.09375 0.1875q0.5 0.1875 0.890625 0.53125q0.375 0.34375 0.59375 0.8125q0.21875 0.46875 0.265625 1.015625l1.03125 0q-0.03125 -0.75 -0.328125 -1.390625q-0.296875 -0.65625 -0.8125 -1.125q-0.515625 -0.453125 -1.21875 -0.703125q-0.6875 -0.265625 -1.515625 -0.265625q-1.078125 0 -1.890625 0.40625q-0.796875 0.40625 -1.3125 1.078125q-0.546875 0.6875 -0.8125 1.578125q-0.265625 0.890625 -0.265625 1.84375l0 0.390625q0 0.953125 0.265625 1.84375q0.265625 0.890625 0.8125 1.5625q0.53125 0.6875 1.328125 1.109375q0.8125 0.40625 1.890625 0.40625q0.75 0 1.4375 -0.25q0.6875 -0.25 1.21875 -0.671875q0.515625 -0.4375 0.84375 -1.015625q0.328125 -0.59375 0.359375 -1.296875l-1.03125 0q-0.046875 0.53125 -0.28125 0.953125q-0.234375 0.421875 -0.625 0.71875q-0.390625 0.3125 -0.890625 0.46875q-0.5 0.15625 -1.03125 0.15625zm11.398743 0.9375q1.234375 0 2.15625 -0.484375q0.9375 -0.484375 1.5 -1.265625l-0.703125 -0.53125q-0.515625 0.65625 -1.265625 1.0q-0.734375 0.34375 -1.640625 0.34375q-0.796875 0 -1.453125 -0.3125q-0.640625 -0.3125 -1.09375 -0.84375q-0.46875 -0.515625 -0.734375 -1.1875q-0.25 -0.671875 -0.28125 -1.46875l0 -0.296875l7.375 0l0 -0.65625q0 -0.9375 -0.265625 -1.765625q-0.265625 -0.828125 -0.78125 -1.453125q-0.515625 -0.609375 -1.28125 -0.953125q-0.765625 -0.34375 -1.734375 -0.34375q-0.921875 0 -1.71875 0.375q-0.796875 0.375 -1.390625 1.0625q-0.609375 0.671875 -0.953125 1.578125q-0.34375 0.90625 -0.34375 1.96875l0 0.390625q0 1.0 0.34375 1.875q0.34375 0.875 0.953125 1.546875q0.59375 0.65625 1.4375 1.046875q0.859375 0.375 1.875 0.375zm-0.203125 -9.28125q0.703125 0 1.25 0.265625q0.546875 0.265625 0.921875 0.71875q0.375 0.4375 0.59375 1.03125q0.21875 0.59375 0.21875 1.1875l0 0.09375l-6.25 0q0.09375 -0.703125 0.359375 -1.3125q0.28125 -0.609375 0.71875 -1.046875q0.40625 -0.4375 0.953125 -0.6875q0.5625 -0.25 1.234375 -0.25zm8.914307 3.734375l0 0.125q0 1.0625 0.140625 2.078125q0.140625 1.0 0.40625 1.9375q0.25 0.9375 0.609375 1.765625q0.375 0.84375 0.84375 1.546875q0.453125 0.71875 0.984375 1.265625q0.53125 0.546875 1.125 0.921875l0.265625 -0.703125q-0.515625 -0.390625 -0.96875 -0.921875q-0.4375 -0.53125 -0.796875 -1.1875q-0.359375 -0.65625 -0.640625 -1.4375q-0.28125 -0.78125 -0.484375 -1.640625q-0.203125 -0.84375 -0.296875 -1.75q-0.09375 -0.90625 -0.109375 -1.84375l0 -0.1875q0 -0.953125 0.109375 -1.875q0.109375 -0.9375 0.3125 -1.796875q0.203125 -0.90625 0.53125 -1.71875q0.328125 -0.8125 0.71875 -1.484375q0.34375 -0.578125 0.734375 -1.046875q0.40625 -0.484375 0.890625 -0.8125l-0.265625 -0.75q-0.59375 0.359375 -1.125 0.921875q-0.515625 0.546875 -0.96875 1.25q-0.46875 0.71875 -0.84375 1.5625q-0.359375 0.828125 -0.625 1.765625q-0.265625 0.9375 -0.40625 1.953125q-0.140625 1.015625 -0.140625 2.0625zm15.211182 0.125l0 -0.125q0 -1.09375 -0.15625 -2.09375q-0.140625 -1.0 -0.390625 -1.921875q-0.265625 -0.953125 -0.640625 -1.78125q-0.359375 -0.828125 -0.8125 -1.546875q-0.46875 -0.703125 -1.0 -1.25q-0.53125 -0.5625 -1.109375 -0.921875l-0.265625 0.703125q0.46875 0.359375 0.875 0.859375q0.421875 0.484375 0.765625 1.09375q0.390625 0.671875 0.703125 1.5q0.328125 0.8125 0.546875 1.734375q0.171875 0.78125 0.28125 1.703125q0.109375 0.90625 0.109375 1.890625l0 0.1875q0 0.90625 -0.09375 1.796875q-0.09375 0.890625 -0.28125 1.71875q-0.1875 0.875 -0.46875 1.671875q-0.28125 0.78125 -0.65625 1.453125q-0.359375 0.671875 -0.8125 1.21875q-0.453125 0.546875 -0.96875 0.921875l0.265625 0.703125q0.578125 -0.375 1.109375 -0.921875q0.53125 -0.546875 1.0 -1.265625q0.453125 -0.703125 0.828125 -1.546875q0.375 -0.828125 0.625 -1.765625q0.265625 -0.9375 0.40625 -1.9375q0.140625 -1.015625 0.140625 -2.078125z" fill-rule="nonzero"/><path fill="#000000" fill-opacity="0.0" d="m37.866142 226.98688l552.0 0" fill-rule="evenodd"/><path stroke="#000000" stroke-width="1.0" stroke-linejoin="round" stroke-linecap="butt" d="m41.656143 226.98688l544.42004 0" fill-rule="evenodd"/><path fill="#000000" stroke="#000000" stroke-width="1.0" stroke-linecap="butt" d="m41.656143 228.63188l-3.290001 0l0 -3.2900085l3.290001 0l0 3.2900085z" fill-rule="nonzero"/><path fill="#000000" stroke="#000000" stroke-width="1.0" stroke-linecap="butt" d="m586.0762 225.34187l3.289978 0l0 3.2900085l-3.289978 0l0 -3.2900085z" fill-rule="nonzero"/><path fill="#000000" fill-opacity="0.0" d="m148.99213 166.83464l0 56.472443" fill-rule="evenodd"/><path stroke="#000000" stroke-width="1.0" stroke-linejoin="round" stroke-linecap="butt" stroke-dasharray="4.0,3.0" d="m148.99213 166.83464l0 56.472443" fill-rule="evenodd"/><path fill="#000000" fill-opacity="0.0" d="m34.787403 230.49344l295.68503 0l0 42.015747l-295.68503 0z" fill-rule="evenodd"/><path fill="#000000" d="m51.70928 253.97594l1.046875 3.4374847l1.671875 0l-4.203125 -13.26561l-1.421875 0l-4.28125 13.26561l1.6875 0l1.0625 -3.4374847l4.4375 0zm-3.984375 -1.46875l1.78125 -5.75l1.75 5.75l-3.53125 0zm15.336197 4.9062347l1.5312462 0l0 -9.85936l-1.6874962 0l0 7.078125q-0.140625 0.3125 -0.34375 0.578125q-0.203125 0.265625 -0.484375 0.46875q-0.328125 0.234375 -0.78125 0.37498474q-0.4375 0.125 -1.0 0.125q-0.484375 0 -0.859375 -0.125q-0.359375 -0.14060974 -0.625 -0.45310974q-0.25 -0.3125 -0.375 -0.828125q-0.125 -0.53125 -0.125 -1.34375l0 -5.875l-1.6875 0l0 5.859375q0 1.109375 0.234375 1.890625q0.25 0.78123474 0.6875 1.2968597q0.453125 0.515625 1.078125 0.765625q0.625 0.234375 1.40625 0.234375q0.96875 0 1.703125 -0.40625q0.734375 -0.40625 1.234375 -1.140625l0.09375 1.359375zm4.383068 -5.0156097l0 0.203125q0 1.046875 0.28125 1.96875q0.28125 0.90625 0.796875 1.5937347q0.5 0.671875 1.21875 1.0625q0.734375 0.375 1.625 0.375q0.921875 0 1.59375 -0.3125q0.6875 -0.3125 1.1875 -0.90625l0.0625 1.03125l1.546875 0l0 -13.999985l-1.6875 0l0 5.125q-0.46875 -0.578125 -1.140625 -0.859375q-0.65625 -0.296875 -1.546875 -0.296875q-0.890625 0 -1.625 0.375q-0.734375 0.359375 -1.234375 1.03125q-0.515625 0.65625 -0.796875 1.59375q-0.28125 0.921875 -0.28125 2.015625zm1.6875 0.203125l0 -0.203125q0 -0.71875 0.15625 -1.359375q0.15625 -0.65625 0.484375 -1.15625q0.3125 -0.5 0.8125 -0.78125q0.515625 -0.296875 1.21875 -0.296875q0.828125 0 1.375 0.390625q0.5625 0.390625 0.890625 0.984375l0 4.578125q-0.328125 0.640625 -0.890625 1.03125q-0.546875 0.37498474 -1.390625 0.37498474q-0.703125 0 -1.203125 -0.28123474q-0.5 -0.296875 -0.8125 -0.78125q-0.328125 -0.5 -0.484375 -1.140625q-0.15625 -0.640625 -0.15625 -1.359375zm10.086197 -5.046875l0 1.46875l3.359375 0l0 6.9375l-3.359375 0l0 1.4531097l8.265625 0l0 -1.4531097l-3.21875 0l0 -8.40625l-5.046875 0zm3.140625 -2.578125q0 0.40625 0.25 0.6875q0.25 0.265625 0.765625 0.265625q0.5 0 0.75 -0.265625q0.25 -0.28125 0.25 -0.6875q0 -0.234375 -0.078125 -0.421875q-0.0625 -0.1875 -0.203125 -0.328125q-0.125 -0.109375 -0.3125 -0.171875q-0.171875 -0.078125 -0.40625 -0.078125q-0.25 0 -0.4375 0.078125q-0.171875 0.0625 -0.296875 0.171875q-0.140625 0.140625 -0.21875 0.34375q-0.0625 0.1875 -0.0625 0.40625zm7.320572 7.421875l0 0.203125q0 1.0625 0.3125 1.96875q0.3125 0.90625 0.890625 1.5937347q0.578125 0.671875 1.40625 1.0625q0.84375 0.375 1.890625 0.375q1.03125 0 1.859375 -0.375q0.828125 -0.390625 1.40625 -1.0625q0.578125 -0.68748474 0.890625 -1.5937347q0.3125 -0.90625 0.3125 -1.96875l0 -0.203125q0 -1.0625 -0.3125 -1.984375q-0.3125 -0.921875 -0.890625 -1.59375q-0.578125 -0.671875 -1.421875 -1.046875q-0.828125 -0.390625 -1.875 -0.390625q-1.03125 0 -1.859375 0.390625q-0.828125 0.375 -1.40625 1.046875q-0.578125 0.671875 -0.890625 1.59375q-0.3125 0.921875 -0.3125 1.984375zm1.6875 0.203125l0 -0.203125q0 -0.71875 0.171875 -1.375q0.171875 -0.671875 0.53125 -1.171875q0.34375 -0.5 0.859375 -0.796875q0.515625 -0.296875 1.21875 -0.296875q0.703125 0 1.21875 0.296875q0.53125 0.296875 0.890625 0.796875q0.34375 0.5 0.515625 1.171875q0.1875 0.65625 0.1875 1.375l0 0.203125q0 0.71875 -0.171875 1.390625q-0.171875 0.65625 -0.515625 1.15625q-0.359375 0.5 -0.890625 0.796875q-0.515625 0.28123474 -1.203125 0.28123474q-0.703125 0 -1.234375 -0.28123474q-0.53125 -0.296875 -0.875 -0.796875q-0.359375 -0.5 -0.53125 -1.15625q-0.171875 -0.671875 -0.171875 -1.390625zm9.961197 4.8124847l4.25 0q0.84375 -0.015625 1.640625 -0.265625q0.796875 -0.25 1.40625 -0.734375q0.609375 -0.46873474 0.96875 -1.1718597q0.375 -0.71875 0.359375 -1.65625q0 -0.59375 -0.171875 -1.09375q-0.171875 -0.515625 -0.5 -0.921875q-0.296875 -0.375 -0.765625 -0.6875q-0.453125 -0.3125 -0.96875 -0.421875l0 -0.03125q0.484375 -0.21875 0.828125 -0.453125q0.34375 -0.234375 0.625 -0.578125q0.28125 -0.34375 0.4375 -0.765625q0.15625 -0.421875 0.171875 -0.953125q0 -0.921875 -0.359375 -1.578125q-0.359375 -0.671875 -0.96875 -1.109375q-0.625 -0.421875 -1.40625 -0.625q-0.78125 -0.203125 -1.59375 -0.21875l-3.953125 0l0 13.26561zm1.703125 -6.2031097l2.6875 0q0.53125 0.015625 1.0 0.1875q0.46875 0.15625 0.8125 0.453125q0.34375 0.3125 0.53125 0.75q0.203125 0.4375 0.1875 1.0q0 0.5625 -0.21875 1.0q-0.203125 0.4375 -0.5625 0.734375q-0.375 0.296875 -0.84375 0.46875q-0.46875 0.171875 -1.0 0.171875l-2.59375 0l0 -4.765625zm0 -1.40625l0 -4.21875l2.296875 0q0.5 0.015625 0.96875 0.140625q0.46875 0.109375 0.828125 0.359375q0.359375 0.25 0.5625 0.640625q0.21875 0.390625 0.21875 0.953125q0 0.515625 -0.21875 0.90625q-0.21875 0.390625 -0.578125 0.65625q-0.34375 0.28125 -0.8125 0.421875q-0.453125 0.140625 -0.921875 0.140625l-2.34375 0zm16.008072 7.6093597l1.53125 0l0 -9.85936l-1.6875 0l0 7.078125q-0.140625 0.3125 -0.34375 0.578125q-0.203125 0.265625 -0.484375 0.46875q-0.328125 0.234375 -0.78125 0.37498474q-0.4375 0.125 -1.0 0.125q-0.484375 0 -0.859375 -0.125q-0.359375 -0.14060974 -0.625 -0.45310974q-0.25 -0.3125 -0.375 -0.828125q-0.125 -0.53125 -0.125 -1.34375l0 -5.875l-1.6875 0l0 5.859375q0 1.109375 0.234375 1.890625q0.25 0.78123474 0.6875 1.2968597q0.453125 0.515625 1.078125 0.765625q0.625 0.234375 1.40625 0.234375q0.96875 0 1.703125 -0.40625q0.734375 -0.40625 1.234375 -1.140625l0.09375 1.359375zm7.211197 0l1.703125 0l0 -8.54686l3.796875 0l0 -1.3125l-3.796875 0l0 -0.6875q0 -0.625 0.15625 -1.078125q0.15625 -0.46875 0.46875 -0.765625q0.296875 -0.28125 0.734375 -0.421875q0.4375 -0.140625 1.015625 -0.140625q0.5625 0 1.0625 0.09375q0.5 0.09375 0.875 0.21875l0.1875 -1.390625q-0.234375 -0.0625 -0.46875 -0.109375q-0.21875 -0.046875 -0.453125 -0.09375q-0.34375 -0.0625 -0.703125 -0.109375q-0.34375 -0.046875 -0.703125 -0.046875q-0.875 0 -1.59375 0.25q-0.703125 0.25 -1.203125 0.734375q-0.515625 0.484375 -0.796875 1.203125q-0.28125 0.703125 -0.28125 1.65625l0 0.6875l-2.703125 0l0 1.3125l2.703125 0l0 8.54686zm11.195572 0l1.703125 0l0 -8.54686l3.796875 0l0 -1.3125l-3.796875 0l0 -0.6875q0 -0.625 0.15625 -1.078125q0.15625 -0.46875 0.46875 -0.765625q0.296875 -0.28125 0.734375 -0.421875q0.4375 -0.140625 1.015625 -0.140625q0.5625 0 1.0625 0.09375q0.5 0.09375 0.875 0.21875l0.1875 -1.390625q-0.234375 -0.0625 -0.46875 -0.109375q-0.21875 -0.046875 -0.453125 -0.09375q-0.34375 -0.0625 -0.703125 -0.109375q-0.34375 -0.046875 -0.703125 -0.046875q-0.875 0 -1.59375 0.25q-0.703125 0.25 -1.203125 0.734375q-0.515625 0.484375 -0.796875 1.203125q-0.28125 0.703125 -0.28125 1.65625l0 0.6875l-2.703125 0l0 1.3125l2.703125 0l0 8.54686zm13.039322 0.1875q1.4375 0 2.421875 -0.578125q0.984375 -0.578125 1.46875 -1.3281097l-1.03125 -0.796875q-0.46875 0.59375 -1.171875 0.96875q-0.6875 0.35935974 -1.59375 0.35935974q-0.6875 0 -1.25 -0.24998474q-0.5625 -0.265625 -0.96875 -0.71875q-0.390625 -0.40625 -0.609375 -0.953125q-0.21875 -0.546875 -0.28125 -1.265625l0 -0.078125l7.03125 0l0 -0.75q0 -1.03125 -0.265625 -1.90625q-0.25 -0.890625 -0.78125 -1.546875q-0.53125 -0.640625 -1.328125 -1.0q-0.796875 -0.375 -1.859375 -0.375q-0.84375 0 -1.65625 0.34375q-0.796875 0.34375 -1.4375 0.984375q-0.625 0.65625 -1.015625 1.609375q-0.375 0.9375 -0.375 2.125l0 0.390625q0 1.03125 0.34375 1.90625q0.34375 0.875 0.96875 1.4999847q0.609375 0.640625 1.484375 1.0q0.875 0.359375 1.90625 0.359375zm-0.21875 -8.843735q0.65625 0 1.125 0.234375q0.46875 0.234375 0.765625 0.625q0.3125 0.375 0.484375 0.90625q0.171875 0.515625 0.171875 0.984375l0 0.078125l-5.296875 0q0.09375 -0.6875 0.34375 -1.203125q0.265625 -0.53125 0.625 -0.890625q0.359375 -0.359375 0.8125 -0.546875q0.453125 -0.1875 0.96875 -0.1875zm13.523697 -1.375q-1.078125 0 -1.921875 0.46875q-0.84375 0.46875 -1.4375 1.265625l-0.015625 -0.234375l-0.078125 -1.328125l-1.59375 0l0 9.85936l1.6875 0l0 -6.3281097q0.171875 -0.453125 0.421875 -0.8125q0.25 -0.375 0.578125 -0.625q0.375 -0.296875 0.875 -0.4375q0.5 -0.15625 1.125 -0.15625q0.484375 0 0.921875 0.046875q0.453125 0.046875 0.9375 0.15625l0.234375 -1.640625q-0.265625 -0.109375 -0.765625 -0.171875q-0.5 -0.0625 -0.96875 -0.0625z" fill-rule="nonzero"/><path fill="#000000" fill-opacity="0.0" d="m151.55905 166.83464l295.68503 0l0 42.015747l-295.68503 0z" fill-rule="evenodd"/><path fill="#000000" d="m169.19968 191.23901q0 0.34375 -0.15625 0.625q-0.15625 0.28125 -0.421875 0.5q-0.421875 0.328125 -1.0 0.484375q-0.5625 0.15625 -1.21875 0.15625q-0.484375 0 -1.0 -0.09375q-0.515625 -0.09375 -0.9375 -0.328125q-0.4375 -0.234375 -0.734375 -0.625q-0.296875 -0.390625 -0.34375 -0.96875l-1.09375 0q0.03125 0.671875 0.34375 1.21875q0.328125 0.546875 0.890625 0.921875q0.546875 0.375 1.296875 0.59375q0.75 0.21875 1.578125 0.21875q0.78125 0 1.515625 -0.1875q0.75 -0.203125 1.328125 -0.59375q0.453125 -0.34375 0.75 -0.84375q0.296875 -0.5 0.296875 -1.125q0 -0.6875 -0.3125 -1.15625q-0.296875 -0.484375 -0.8125 -0.8125q-0.515625 -0.34375 -1.203125 -0.5625q-0.6875 -0.21875 -1.4375 -0.375q-0.578125 -0.125 -1.109375 -0.265625q-0.53125 -0.15625 -0.921875 -0.390625q-0.375 -0.203125 -0.578125 -0.515625q-0.203125 -0.3125 -0.203125 -0.75q0 -0.421875 0.21875 -0.75q0.234375 -0.328125 0.609375 -0.53125q0.359375 -0.21875 0.828125 -0.3125q0.46875 -0.109375 0.96875 -0.109375q0.53125 0 1.03125 0.140625q0.5 0.125 0.890625 0.375q0.375 0.265625 0.609375 0.640625q0.25 0.375 0.265625 0.84375l1.09375 0q-0.03125 -0.703125 -0.34375 -1.25q-0.3125 -0.546875 -0.828125 -0.9375q-0.515625 -0.359375 -1.21875 -0.546875q-0.6875 -0.203125 -1.5 -0.203125q-0.703125 0 -1.375 0.1875q-0.671875 0.171875 -1.171875 0.5q-0.53125 0.359375 -0.84375 0.859375q-0.3125 0.5 -0.3125 1.140625q0 0.671875 0.3125 1.140625q0.3125 0.46875 0.828125 0.765625q0.546875 0.3125 1.171875 0.515625q0.625 0.203125 1.390625 0.359375q0.59375 0.125 1.140625 0.3125q0.5625 0.171875 0.953125 0.4375q0.359375 0.21875 0.5625 0.546875q0.203125 0.328125 0.203125 0.75zm7.961197 -9.859375l-1.109375 0l0 2.515625l-2.75 0l0 0.90625l2.75 0l0 6.171875q0 0.8125 0.234375 1.375q0.234375 0.5625 0.640625 0.921875q0.40625 0.34375 0.96875 0.5q0.5625 0.171875 1.21875 0.171875q0.3125 0 0.640625 -0.03125q0.328125 -0.015625 0.625 -0.0625q0.234375 -0.046875 0.453125 -0.09375q0.21875 -0.0625 0.390625 -0.140625l-0.171875 -0.828125q-0.140625 0.015625 -0.328125 0.046875q-0.171875 0.03125 -0.375 0.0625q-0.265625 0.046875 -0.53125 0.0625q-0.25 0.015625 -0.515625 0.015625q-0.453125 0 -0.84375 -0.09375q-0.375 -0.109375 -0.671875 -0.34375q-0.296875 -0.234375 -0.46875 -0.609375q-0.15625 -0.375 -0.171875 -0.953125l0 -6.171875l3.65625 0l0 -0.90625l-3.65625 0l0.015625 -2.515625zm14.320572 12.375l1.171875 0l0 -0.125q-0.125 -0.4375 -0.21875 -0.9375q-0.078125 -0.515625 -0.09375 -1.0l0 -4.765625q-0.015625 -0.8125 -0.3125 -1.40625q-0.28125 -0.609375 -0.78125 -1.015625q-0.515625 -0.390625 -1.203125 -0.578125q-0.6875 -0.203125 -1.46875 -0.203125q-0.78125 0 -1.46875 0.21875q-0.6875 0.21875 -1.203125 0.59375q-0.515625 0.390625 -0.828125 0.921875q-0.3125 0.53125 -0.34375 1.15625l1.09375 0.015625q0.015625 -0.46875 0.25 -0.828125q0.234375 -0.375 0.59375 -0.640625q0.375 -0.25 0.859375 -0.390625q0.484375 -0.140625 1.0 -0.140625q0.578125 0 1.078125 0.15625q0.5 0.15625 0.859375 0.4375q0.359375 0.28125 0.5625 0.703125q0.21875 0.421875 0.234375 0.984375l0 1.109375l-2.140625 0q-0.921875 0 -1.765625 0.171875q-0.828125 0.15625 -1.46875 0.53125q-0.625 0.375 -1.015625 0.96875q-0.375 0.59375 -0.375 1.453125q0 0.625 0.25 1.140625q0.265625 0.515625 0.703125 0.875q0.4375 0.359375 1.03125 0.578125q0.609375 0.203125 1.28125 0.203125q0.546875 0 1.046875 -0.125q0.515625 -0.109375 0.96875 -0.328125q0.453125 -0.203125 0.828125 -0.5q0.375 -0.3125 0.65625 -0.6875q0.015625 0.375 0.0625 0.75q0.0625 0.375 0.15625 0.703125zm-3.578125 -0.796875q-0.484375 0 -0.90625 -0.125q-0.421875 -0.140625 -0.734375 -0.390625q-0.3125 -0.25 -0.5 -0.609375q-0.171875 -0.359375 -0.171875 -0.796875q-0.015625 -0.546875 0.234375 -0.921875q0.25 -0.390625 0.671875 -0.65625q0.5 -0.328125 1.234375 -0.453125q0.734375 -0.125 1.546875 -0.140625l1.984375 0l0 2.15625q-0.21875 0.4375 -0.5625 0.796875q-0.328125 0.359375 -0.765625 0.609375q-0.4375 0.265625 -0.953125 0.40625q-0.515625 0.125 -1.078125 0.125zm14.523697 -9.234375q-1.34375 -0.015625 -2.328125 0.546875q-0.984375 0.5625 -1.5625 1.578125l-0.015625 -0.4375l-0.0625 -1.515625l-1.03125 0l0 9.859375l1.125 0l-0.015625 -6.3125q0.1875 -0.671875 0.515625 -1.171875q0.34375 -0.5 0.8125 -0.828125q0.484375 -0.328125 1.09375 -0.484375q0.609375 -0.171875 1.296875 -0.171875q0.40625 0 0.78125 0.046875q0.390625 0.046875 0.75 0.125l0.15625 -1.046875q-0.28125 -0.09375 -0.703125 -0.140625q-0.40625 -0.046875 -0.8125 -0.046875zm8.320572 -2.34375l-1.109375 0l0 2.515625l-2.75 0l0 0.90625l2.75 0l0 6.171875q0 0.8125 0.234375 1.375q0.234375 0.5625 0.640625 0.921875q0.40625 0.34375 0.96875 0.5q0.5625 0.171875 1.21875 0.171875q0.3125 0 0.640625 -0.03125q0.328125 -0.015625 0.625 -0.0625q0.234375 -0.046875 0.453125 -0.09375q0.21875 -0.0625 0.390625 -0.140625l-0.171875 -0.828125q-0.140625 0.015625 -0.328125 0.046875q-0.171875 0.03125 -0.375 0.0625q-0.265625 0.046875 -0.53125 0.0625q-0.25 0.015625 -0.515625 0.015625q-0.453125 0 -0.84375 -0.09375q-0.375 -0.109375 -0.671875 -0.34375q-0.296875 -0.234375 -0.46875 -0.609375q-0.15625 -0.375 -0.171875 -0.953125l0 -6.171875l3.65625 0l0 -0.90625l-3.65625 0l0.015625 -2.515625zm15.492447 4.984375l0 -0.984375l-8.125 0l0 0.984375l8.125 0zm0 3.734375l0 -0.96875l-8.125 0l0 0.96875l8.125 0zm3.867447 -3.140625l0.859375 0.25q0.421875 -0.390625 0.90625 -0.59375q0.484375 -0.203125 1.015625 -0.25q0.515625 -0.046875 0.984375 0.0625q0.46875 0.109375 0.90625 0.359375q0.53125 0.25 0.890625 0.6875q0.375 0.4375 0.546875 1.03125q0.15625 0.578125 0.15625 1.203125q0 0.625 -0.203125 1.203125q-0.1875 0.609375 -0.578125 1.046875q-0.375 0.4375 -0.96875 0.625q-0.53125 0.203125 -1.0625 0.203125q-0.53125 0 -1.046875 -0.21875q-0.75 -0.203125 -1.234375 -0.78125q-0.46875 -0.59375 -0.59375 -1.515625l-1.046875 0q0.09375 0.859375 0.421875 1.546875q0.34375 0.6875 0.875 1.15625q0.53125 0.46875 1.234375 0.71875q0.703125 0.25 1.53125 0.25q1.015625 0 1.75 -0.34375q0.75 -0.359375 1.25 -0.953125q0.484375 -0.59375 0.71875 -1.390625q0.234375 -0.8125 0.234375 -1.734375q0 -0.9375 -0.28125 -1.71875q-0.28125 -0.78125 -0.78125 -1.359375q-0.515625 -0.5625 -1.25 -0.875q-0.71875 -0.328125 -1.625 -0.328125q-0.71875 0 -1.359375 0.203125q-0.640625 0.203125 -1.125 0.53125l0.453125 -4.421875l5.703125 0l0 -1.0625l-6.640625 0l-0.640625 6.46875z" fill-rule="nonzero"/><path fill="#000000" fill-opacity="0.0" d="m353.39896 170.51443l0 56.472443" fill-rule="evenodd"/><path stroke="#000000" stroke-width="1.0" stroke-linejoin="round" stroke-linecap="butt" stroke-dasharray="4.0,3.0" d="m353.39896 170.51443l0 56.472443" fill-rule="evenodd"/><path fill="#000000" fill-opacity="0.0" d="m365.2047 166.83464l295.68506 0l0 42.015747l-295.68506 0z" fill-rule="evenodd"/><path fill="#000000" d="m380.17346 193.94214q1.234375 0 2.15625 -0.484375q0.9375 -0.484375 1.5 -1.265625l-0.703125 -0.53125q-0.515625 0.65625 -1.265625 1.0q-0.734375 0.34375 -1.640625 0.34375q-0.796875 0 -1.453125 -0.3125q-0.640625 -0.3125 -1.09375 -0.84375q-0.46875 -0.515625 -0.734375 -1.1875q-0.25 -0.671875 -0.28125 -1.46875l0 -0.296875l7.375 0l0 -0.65625q0 -0.9375 -0.265625 -1.765625q-0.265625 -0.828125 -0.78125 -1.453125q-0.515625 -0.609375 -1.28125 -0.953125q-0.765625 -0.34375 -1.734375 -0.34375q-0.921875 0 -1.71875 0.375q-0.796875 0.375 -1.390625 1.0625q-0.609375 0.671875 -0.953125 1.578125q-0.34375 0.90625 -0.34375 1.96875l0 0.390625q0 1.0 0.34375 1.875q0.34375 0.875 0.953125 1.546875q0.59375 0.65625 1.4375 1.046875q0.859375 0.375 1.875 0.375zm-0.203125 -9.28125q0.703125 0 1.25 0.265625q0.546875 0.265625 0.921875 0.71875q0.375 0.4375 0.59375 1.03125q0.21875 0.59375 0.21875 1.1875l0 0.09375l-6.25 0q0.09375 -0.703125 0.359375 -1.3125q0.28125 -0.609375 0.71875 -1.046875q0.40625 -0.4375 0.953125 -0.6875q0.5625 -0.25 1.234375 -0.25zm7.195587 9.09375l1.078125 0l0 -6.734375q0.15625 -0.484375 0.4375 -0.890625q0.296875 -0.421875 0.671875 -0.734375q0.40625 -0.328125 0.90625 -0.515625q0.5 -0.203125 1.078125 -0.203125q0.640625 -0.015625 1.109375 0.171875q0.46875 0.171875 0.78125 0.53125q0.3125 0.359375 0.453125 0.875q0.15625 0.515625 0.171875 1.203125l0 6.296875l1.09375 0l-0.015625 -6.328125q0 -0.875 -0.21875 -1.5625q-0.21875 -0.703125 -0.625 -1.1875q-0.4375 -0.46875 -1.0625 -0.703125q-0.625 -0.25 -1.4375 -0.25q-0.609375 0 -1.140625 0.171875q-0.53125 0.171875 -1.0 0.5q-0.375 0.265625 -0.6875 0.625q-0.3125 0.359375 -0.53125 0.796875l-0.0625 -1.921875l-1.0 0l0 9.859375zm10.867432 -5.015625l0 0.1875q0 0.953125 0.25 1.859375q0.25 0.90625 0.71875 1.59375q0.484375 0.703125 1.21875 1.140625q0.734375 0.421875 1.71875 0.421875q0.890625 0 1.671875 -0.375q0.796875 -0.375 1.296875 -1.0625l0.046875 1.25l1.015625 0l0 -14.0l-1.09375 0l0 5.46875q-0.484375 -0.703125 -1.25 -1.09375q-0.75 -0.40625 -1.671875 -0.40625q-1.015625 0 -1.75 0.421875q-0.734375 0.421875 -1.21875 1.140625q-0.46875 0.671875 -0.71875 1.578125q-0.234375 0.890625 -0.234375 1.875zm1.09375 0.1875l0 -0.1875q0 -0.734375 0.15625 -1.453125q0.15625 -0.71875 0.515625 -1.296875q0.359375 -0.59375 0.921875 -0.953125q0.578125 -0.359375 1.4375 -0.359375q0.953125 0 1.65625 0.515625q0.71875 0.515625 1.0625 1.34375l0 4.71875q-0.359375 0.8125 -1.09375 1.265625q-0.734375 0.453125 -1.640625 0.453125q-0.84375 0 -1.421875 -0.359375q-0.5625 -0.359375 -0.921875 -0.953125q-0.34375 -0.5625 -0.515625 -1.28125q-0.15625 -0.71875 -0.15625 -1.453125zm18.367462 -2.5625l0 -0.984375l-8.125 0l0 0.984375l8.125 0zm0 3.734375l0 -0.96875l-8.125 0l0 0.96875l8.125 0zm11.195557 -6.1875q0 -0.84375 -0.3125 -1.515625q-0.296875 -0.671875 -0.8125 -1.140625q-0.53125 -0.453125 -1.25 -0.703125q-0.703125 -0.25 -1.515625 -0.25q-0.828125 0 -1.53125 0.25q-0.703125 0.25 -1.21875 0.703125q-0.515625 0.46875 -0.8125 1.140625q-0.296875 0.671875 -0.296875 1.515625q0 0.546875 0.15625 1.015625q0.171875 0.46875 0.46875 0.84375q0.296875 0.390625 0.703125 0.6875q0.40625 0.296875 0.875 0.484375q-0.546875 0.1875 -1.015625 0.5q-0.46875 0.3125 -0.796875 0.734375q-0.34375 0.40625 -0.546875 0.9375q-0.1875 0.515625 -0.1875 1.125q0 0.90625 0.328125 1.59375q0.34375 0.6875 0.9375 1.15625q0.5625 0.46875 1.328125 0.71875q0.78125 0.234375 1.640625 0.234375q0.84375 0 1.609375 -0.234375q0.765625 -0.25 1.34375 -0.734375q0.578125 -0.453125 0.921875 -1.140625q0.34375 -0.703125 0.34375 -1.59375q0 -0.609375 -0.203125 -1.125q-0.203125 -0.53125 -0.546875 -0.9375q-0.34375 -0.421875 -0.8125 -0.734375q-0.46875 -0.3125 -1.015625 -0.5q0.390625 -0.140625 0.75 -0.375q0.359375 -0.234375 0.640625 -0.53125q0.390625 -0.421875 0.609375 -0.953125q0.21875 -0.546875 0.21875 -1.171875zm-0.734375 6.328125q0 0.671875 -0.265625 1.1875q-0.25 0.515625 -0.671875 0.859375q-0.421875 0.359375 -1.0 0.546875q-0.5625 0.171875 -1.1875 0.171875q-0.640625 0 -1.21875 -0.171875q-0.5625 -0.1875 -0.984375 -0.53125q-0.4375 -0.34375 -0.6875 -0.859375q-0.25 -0.53125 -0.25 -1.203125q0 -0.65625 0.25 -1.171875q0.25 -0.53125 0.6875 -0.90625q0.421875 -0.359375 0.984375 -0.546875q0.5625 -0.203125 1.203125 -0.203125q0.625 0 1.1875 0.203125q0.578125 0.1875 1.0 0.5625q0.4375 0.359375 0.6875 0.890625q0.265625 0.515625 0.265625 1.171875zm-0.34375 -6.34375q0 0.609375 -0.234375 1.09375q-0.21875 0.46875 -0.609375 0.796875q-0.375 0.328125 -0.890625 0.515625q-0.5 0.171875 -1.0625 0.171875q-0.578125 0 -1.078125 -0.171875q-0.5 -0.171875 -0.875 -0.515625q-0.390625 -0.328125 -0.609375 -0.796875q-0.21875 -0.484375 -0.21875 -1.09375q0 -0.609375 0.21875 -1.09375q0.21875 -0.5 0.59375 -0.84375q0.375 -0.34375 0.875 -0.515625q0.5 -0.1875 1.078125 -0.1875q0.5625 0 1.0625 0.1875q0.515625 0.1875 0.90625 0.53125q0.375 0.34375 0.609375 0.84375q0.234375 0.484375 0.234375 1.078125z" fill-rule="nonzero"/></g></svg>