<svg version="1.1" viewBox="0.0 0.0 960.0 336.0" fill="none" stroke="none" stroke-linecap="square" stroke-miterlimit="10" xmlns:xlink="http://www.w3.org/1999/xlink" xmlns="http://www.w3.org/2000/svg"><clipPath id="p.0"><path d="m0 0l960.0 0l0 336.0l-960.0 0l0 -336.0z" clip-rule="nonzero"/></clipPath><g clip-path="url(#p.0)"><path fill="#ffffff" d="m0 0l960.0 0l0 336.0l-960.0 0z" fill-rule="evenodd"/><path fill="#f3f3f3" d="m380.46982 87.56036l152.31497 0l0 91.71654l-152.31497 0z" fill-rule="evenodd"/><path fill="#000000" fill-opacity="0.0" d="m377.99738 185.40814l376.56696 0l0 42.015747l-376.56696 0z" fill-rule="evenodd"/><path fill="#000000" d="m393.65363 212.32814l-6.0625 0l0 -1.609375l1.625 -0.734375l0 -8.625l-1.625 -0.75l0 -1.609375l6.0625 0l0 1.609375l-1.625 0.75l0 8.625l1.625 0.734375l0 1.609375zm7.788513 -10.375q1.671875 0 2.640625 0.875q0.96875 0.875 0.96875 2.859375l0 6.640625l-2.796875 0l0 -5.9375q0 -1.09375 -0.40625 -1.640625q-0.390625 -0.5625 -1.234375 -0.5625q-1.265625 0 -1.734375 0.875q-0.453125 0.859375 -0.453125 2.484375l0 4.78125l-2.8125 0l0 -10.1875l2.171875 0l0.390625 1.359375l0.109375 0q0.328125 -0.5 0.796875 -0.84375q0.484375 -0.34375 1.078125 -0.515625q0.59375 -0.1875 1.28125 -0.1875zm12.017212 0q1.765625 0 2.78125 1.34375q1.03125 1.328125 1.03125 3.921875q0 1.71875 -0.5 2.921875q-0.484375 1.1875 -1.359375 1.78125q-0.875 0.59375 -2.03125 0.59375q-0.75 0 -1.296875 -0.1875q-0.53125 -0.203125 -0.90625 -0.484375q-0.359375 -0.296875 -0.625 -0.609375l-0.109375 0q0.046875 0.328125 0.078125 0.765625q0.03125 0.4375 0.03125 0.90625l0 3.90625l-2.8125 0l0 -14.671875l2.296875 0l0.390625 1.328125l0.125 0q0.28125 -0.4375 0.65625 -0.765625q0.390625 -0.34375 0.9375 -0.546875q0.5625 -0.203125 1.3125 -0.203125zm-0.9375 2.234375q-0.71875 0 -1.140625 0.3125q-0.421875 0.296875 -0.609375 0.890625q-0.1875 0.59375 -0.21875 1.515625l0 0.296875q0 0.96875 0.171875 1.65625q0.1875 0.671875 0.625 1.03125q0.4375 0.34375 1.1875 0.34375q0.640625 0 1.046875 -0.34375q0.421875 -0.359375 0.625 -1.03125q0.21875 -0.6875 0.21875 -1.6875q0 -1.5 -0.484375 -2.234375q-0.46875 -0.75 -1.421875 -0.75zm16.400116 -2.046875l0 10.1875l-2.171875 0l-0.34375 -1.3125l-0.171875 0q-0.3125 0.53125 -0.8125 0.875q-0.5 0.328125 -1.09375 0.46875q-0.578125 0.15625 -1.234375 0.15625q-1.078125 0 -1.890625 -0.390625q-0.8125 -0.390625 -1.265625 -1.203125q-0.453125 -0.828125 -0.453125 -2.140625l0 -6.640625l2.828125 0l0 5.9375q0 1.078125 0.375 1.625q0.390625 0.546875 1.234375 0.546875q0.859375 0 1.328125 -0.375q0.484375 -0.375 0.65625 -1.125q0.1875 -0.75 0.1875 -1.828125l0 -4.78125l2.828125 0zm7.126587 8.15625q0.46875 0 0.890625 -0.09375q0.4375 -0.09375 0.859375 -0.21875l0 2.0625q-0.453125 0.1875 -1.109375 0.328125q-0.65625 0.140625 -1.453125 0.140625q-0.90625 0 -1.625 -0.296875q-0.71875 -0.296875 -1.140625 -1.03125q-0.421875 -0.75 -0.421875 -2.046875l0 -4.90625l-1.328125 0l0 -1.171875l1.53125 -0.9375l0.8125 -2.140625l1.765625 0l0 2.15625l2.859375 0l0 2.09375l-2.859375 0l0 4.90625q0 0.578125 0.328125 0.875q0.34375 0.28125 0.890625 0.28125z" fill-rule="nonzero"/><path fill="#000000" fill-opacity="0.0" d="m532.7848 133.41864l108.5354 0" fill-rule="evenodd"/><path stroke="#000000" stroke-width="1.0" stroke-linejoin="round" stroke-linecap="butt" d="m532.7848 133.41864l102.5354 0" fill-rule="evenodd"/><path fill="#000000" stroke="#000000" stroke-width="1.0" stroke-linecap="butt" d="m635.3202 135.07037l4.538147 -1.6517334l-4.538147 -1.6517334z" fill-rule="evenodd"/><path fill="#000000" fill-opacity="0.0" d="m662.88715 112.41076l271.30707 0l0 42.015755l-271.30707 0z" fill-rule="evenodd"/><path fill="#000000" d="m683.07465 126.00263l-4.75 13.328133l-1.6875 0l-4.75 -13.328133l1.75 0l3.0 8.546883q0.21875 0.546875 0.359375 1.046875q0.15625 0.5 0.265625 0.96875q0.125 0.453125 0.21875 0.90625q0.09375 -0.453125 0.21875 -0.921875q0.125 -0.46875 0.28125 -0.96875q0.15625 -0.5 0.34375 -1.0625l2.984375 -8.515633l1.765625 0zm3.2406006 3.3281326l0 10.0l-1.65625 0l0 -10.0l1.65625 0zm-0.8125 -3.7500076q0.375 0 0.65625 0.25q0.296875 0.25 0.296875 0.796875q0 0.515625 -0.296875 0.78125q-0.28125 0.265625 -0.65625 0.265625q-0.40625 0 -0.6875 -0.265625q-0.28125 -0.265625 -0.28125 -0.78125q0 -0.546875 0.28125 -0.796875q0.28125 -0.25 0.6875 -0.25zm7.5164795 13.937508q-1.859375 0 -2.984375 -1.296875q-1.109375 -1.296875 -1.109375 -3.875q0 -2.578125 1.125 -3.890625q1.125 -1.3125 3.0 -1.3125q0.78125 0 1.359375 0.203125q0.578125 0.1875 1.0 0.53125q0.4375 0.328125 0.734375 0.734375l0.109375 0q-0.015625 -0.234375 -0.0625 -0.703125q-0.046875 -0.484375 -0.046875 -0.765625l0 -3.9843826l1.640625 0l0 14.171883l-1.328125 0l-0.234375 -1.34375l-0.078125 0q-0.296875 0.421875 -0.734375 0.78125q-0.421875 0.34375 -1.015625 0.546875q-0.59375 0.203125 -1.375 0.203125zm0.265625 -1.359375q1.59375 0 2.234375 -0.859375q0.640625 -0.875 0.640625 -2.640625l0 -0.296875q0 -1.859375 -0.625 -2.859375q-0.609375 -1.0 -2.265625 -1.0q-1.328125 0 -2.0 1.0625q-0.65625 1.046875 -0.65625 2.828125q0 1.78125 0.65625 2.78125q0.671875 0.984375 2.015625 0.984375zm11.536072 -9.015625q1.28125 0 2.203125 0.5625q0.921875 0.5625 1.421875 1.578125q0.5 1.015625 0.5 2.375l0 0.984375l-6.859375 0q0.046875 1.703125 0.875 2.59375q0.828125 0.875 2.3125 0.875q0.953125 0 1.6875 -0.171875q0.75 -0.171875 1.53125 -0.515625l0 1.4375q-0.765625 0.34375 -1.515625 0.5q-0.75 0.15625 -1.765625 0.15625q-1.421875 0 -2.515625 -0.578125q-1.09375 -0.578125 -1.703125 -1.71875q-0.59375 -1.15625 -0.59375 -2.8125q0 -1.640625 0.546875 -2.8125q0.546875 -1.1875 1.546875 -1.8125q1.0 -0.640625 2.328125 -0.640625zm-0.03125 1.34375q-1.171875 0 -1.859375 0.765625q-0.671875 0.75 -0.796875 2.09375l5.09375 0q0 -0.859375 -0.265625 -1.484375q-0.265625 -0.640625 -0.796875 -1.0q-0.53125 -0.375 -1.375 -0.375zm15.381531 3.828125q0 1.25 -0.328125 2.21875q-0.328125 0.953125 -0.9375 1.625q-0.609375 0.671875 -1.484375 1.015625q-0.859375 0.34375 -1.921875 0.34375q-0.984375 0 -1.828125 -0.34375q-0.828125 -0.34375 -1.453125 -1.015625q-0.609375 -0.671875 -0.953125 -1.625q-0.34375 -0.96875 -0.34375 -2.21875q0 -1.65625 0.546875 -2.796875q0.5625 -1.15625 1.609375 -1.765625q1.046875 -0.609375 2.484375 -0.609375q1.359375 0 2.390625 0.609375q1.046875 0.609375 1.625 1.765625q0.59375 1.140625 0.59375 2.796875zm-7.5625 0q0 1.171875 0.3125 2.046875q0.3125 0.859375 0.953125 1.328125q0.65625 0.46875 1.671875 0.46875q1.0 0 1.65625 -0.46875q0.65625 -0.46875 0.953125 -1.328125q0.3125 -0.875 0.3125 -2.046875q0 -1.203125 -0.3125 -2.03125q-0.3125 -0.84375 -0.96875 -1.296875q-0.640625 -0.46875 -1.65625 -0.46875q-1.53125 0 -2.234375 1.015625q-0.6875 1.0 -0.6875 2.78125zm18.74701 -8.312508q2.625 0 3.8125 1.03125q1.1875 1.0312576 1.1875 2.8906326q0 0.828125 -0.265625 1.578125q-0.265625 0.75 -0.890625 1.359375q-0.609375 0.59375 -1.640625 0.9375q-1.015625 0.34375 -2.515625 0.34375l-1.53125 0l0 5.1875l-1.671875 0l0 -13.328133l3.515625 0zm-0.140625 1.4375l-1.703125 0l0 5.2656326l1.34375 0q1.265625 0 2.109375 -0.265625q0.84375 -0.265625 1.25 -0.859375q0.40625 -0.609375 0.40625 -1.578125q0 -1.28125 -0.828125 -1.921875q-0.8125 -0.6406326 -2.578125 -0.6406326zm12.349548 1.7031326q0.28125 0 0.609375 0.03125q0.328125 0.03125 0.5625 0.078125l-0.203125 1.515625q-0.234375 -0.0625 -0.53125 -0.09375q-0.28125 -0.03125 -0.546875 -0.03125q-0.578125 0 -1.109375 0.25q-0.515625 0.234375 -0.9375 0.671875q-0.40625 0.4375 -0.640625 1.0625q-0.21875 0.609375 -0.21875 1.375l0 5.328125l-1.65625 0l0 -10.0l1.34375 0l0.1875 1.828125l0.078125 0q0.3125 -0.5625 0.765625 -1.015625q0.453125 -0.453125 1.03125 -0.71875q0.578125 -0.28125 1.265625 -0.28125zm11.362915 5.171875q0 1.25 -0.328125 2.21875q-0.328125 0.953125 -0.9375 1.625q-0.609375 0.671875 -1.484375 1.015625q-0.859375 0.34375 -1.921875 0.34375q-0.984375 0 -1.828125 -0.34375q-0.828125 -0.34375 -1.453125 -1.015625q-0.609375 -0.671875 -0.953125 -1.625q-0.34375 -0.96875 -0.34375 -2.21875q0 -1.65625 0.546875 -2.796875q0.5625 -1.15625 1.609375 -1.765625q1.046875 -0.609375 2.484375 -0.609375q1.359375 0 2.390625 0.609375q1.046875 0.609375 1.625 1.765625q0.59375 1.140625 0.59375 2.796875zm-7.5625 0q0 1.171875 0.3125 2.046875q0.3125 0.859375 0.953125 1.328125q0.65625 0.46875 1.671875 0.46875q1.0 0 1.65625 -0.46875q0.65625 -0.46875 0.953125 -1.328125q0.3125 -0.875 0.3125 -2.046875q0 -1.203125 -0.3125 -2.03125q-0.3125 -0.84375 -0.96875 -1.296875q-0.640625 -0.46875 -1.65625 -0.46875q-1.53125 0 -2.234375 1.015625q-0.6875 1.0 -0.6875 2.78125zm14.162048 5.203125q-1.328125 0 -2.359375 -0.53125q-1.03125 -0.546875 -1.625 -1.6875q-0.578125 -1.140625 -0.578125 -2.90625q0 -1.859375 0.609375 -3.015625q0.609375 -1.15625 1.65625 -1.6875q1.0625 -0.546875 2.40625 -0.546875q0.765625 0 1.46875 0.15625q0.71875 0.15625 1.171875 0.390625l-0.515625 1.359375q-0.4375 -0.171875 -1.046875 -0.3125q-0.59375 -0.15625 -1.109375 -0.15625q-1.0 0 -1.65625 0.4375q-0.65625 0.421875 -0.984375 1.265625q-0.3125 0.828125 -0.3125 2.078125q0 1.203125 0.3125 2.046875q0.328125 0.828125 0.953125 1.265625q0.640625 0.421875 1.59375 0.421875q0.828125 0 1.453125 -0.15625q0.625 -0.171875 1.140625 -0.421875l0 1.453125q-0.5 0.265625 -1.109375 0.40625q-0.609375 0.140625 -1.46875 0.140625zm8.814392 -10.375q1.28125 0 2.203125 0.5625q0.921875 0.5625 1.421875 1.578125q0.5 1.015625 0.5 2.375l0 0.984375l-6.859375 0q0.046875 1.703125 0.875 2.59375q0.828125 0.875 2.3125 0.875q0.953125 0 1.6875 -0.171875q0.75 -0.171875 1.53125 -0.515625l0 1.4375q-0.765625 0.34375 -1.515625 0.5q-0.75 0.15625 -1.765625 0.15625q-1.421875 0 -2.515625 -0.578125q-1.09375 -0.578125 -1.703125 -1.71875q-0.59375 -1.15625 -0.59375 -2.8125q0 -1.640625 0.546875 -2.8125q0.546875 -1.1875 1.546875 -1.8125q1.0 -0.640625 2.328125 -0.640625zm-0.03125 1.34375q-1.171875 0 -1.859375 0.765625q-0.671875 0.75 -0.796875 2.09375l5.09375 0q0 -0.859375 -0.265625 -1.484375q-0.265625 -0.640625 -0.796875 -1.0q-0.53125 -0.375 -1.375 -0.375zm13.19397 6.078125q0 0.96875 -0.484375 1.625q-0.484375 0.65625 -1.390625 1.0q-0.890625 0.328125 -2.109375 0.328125q-1.046875 0 -1.8125 -0.171875q-0.75 -0.171875 -1.328125 -0.46875l0 -1.484375q0.59375 0.296875 1.4375 0.546875q0.859375 0.25 1.734375 0.25q1.25 0 1.8125 -0.390625q0.5625 -0.40625 0.5625 -1.078125q0 -0.375 -0.21875 -0.671875q-0.203125 -0.296875 -0.734375 -0.59375q-0.53125 -0.296875 -1.515625 -0.671875q-0.96875 -0.375 -1.65625 -0.75q-0.6875 -0.375 -1.0625 -0.890625q-0.375 -0.53125 -0.375 -1.34375q0 -1.28125 1.03125 -1.96875q1.03125 -0.6875 2.71875 -0.6875q0.90625 0 1.703125 0.1875q0.796875 0.171875 1.484375 0.484375l-0.5625 1.3125q-0.625 -0.265625 -1.328125 -0.453125q-0.6875 -0.1875 -1.40625 -0.1875q-1.015625 0 -1.546875 0.328125q-0.53125 0.328125 -0.53125 0.890625q0 0.40625 0.234375 0.703125q0.25 0.28125 0.8125 0.5625q0.578125 0.265625 1.53125 0.625q0.953125 0.359375 1.625 0.734375q0.671875 0.375 1.015625 0.90625q0.359375 0.53125 0.359375 1.328125zm8.93634 0q0 0.96875 -0.484375 1.625q-0.484375 0.65625 -1.390625 1.0q-0.890625 0.328125 -2.109375 0.328125q-1.046875 0 -1.8125 -0.171875q-0.75 -0.171875 -1.328125 -0.46875l0 -1.484375q0.59375 0.296875 1.4375 0.546875q0.859375 0.25 1.734375 0.25q1.25 0 1.8125 -0.390625q0.5625 -0.40625 0.5625 -1.078125q0 -0.375 -0.21875 -0.671875q-0.203125 -0.296875 -0.734375 -0.59375q-0.53125 -0.296875 -1.515625 -0.671875q-0.96875 -0.375 -1.65625 -0.75q-0.6875 -0.375 -1.0625 -0.890625q-0.375 -0.53125 -0.375 -1.34375q0 -1.28125 1.03125 -1.96875q1.03125 -0.6875 2.71875 -0.6875q0.90625 0 1.703125 0.1875q0.796875 0.171875 1.484375 0.484375l-0.5625 1.3125q-0.625 -0.265625 -1.328125 -0.453125q-0.6875 -0.1875 -1.40625 -0.1875q-1.015625 0 -1.546875 0.328125q-0.53125 0.328125 -0.53125 0.890625q0 0.40625 0.234375 0.703125q0.25 0.28125 0.8125 0.5625q0.578125 0.265625 1.53125 0.625q0.953125 0.359375 1.625 0.734375q0.671875 0.375 1.015625 0.90625q0.359375 0.53125 0.359375 1.328125zm4.0769653 -7.234375l0 10.0l-1.65625 0l0 -10.0l1.65625 0zm-0.8125 -3.7500076q0.375 0 0.65625 0.25q0.296875 0.25 0.296875 0.796875q0 0.515625 -0.296875 0.78125q-0.28125 0.265625 -0.65625 0.265625q-0.40625 0 -0.6875 -0.265625q-0.28125 -0.265625 -0.28125 -0.78125q0 -0.546875 0.28125 -0.796875q0.28125 -0.25 0.6875 -0.25zm8.7977295 3.5625076q1.78125 0 2.6875 0.875q0.921875 0.859375 0.921875 2.796875l0 6.515625l-1.625 0l0 -6.40625q0 -1.203125 -0.546875 -1.796875q-0.53125 -0.609375 -1.6875 -0.609375q-1.65625 0 -2.296875 0.9375q-0.625 0.9375 -0.625 2.6875l0 5.1875l-1.65625 0l0 -10.0l1.328125 0l0.25 1.359375l0.09375 0q0.328125 -0.515625 0.828125 -0.859375q0.5 -0.34375 1.09375 -0.515625q0.59375 -0.171875 1.234375 -0.171875zm10.248291 0q1.0 0 1.78125 0.375q0.796875 0.375 1.359375 1.140625l0.09375 0l0.21875 -1.328125l1.3125 0l0 10.171875q0 1.40625 -0.484375 2.359375q-0.484375 0.96875 -1.484375 1.453125q-0.984375 0.5 -2.515625 0.5q-1.078125 0 -1.984375 -0.171875q-0.90625 -0.15625 -1.609375 -0.46875l0 -1.515625q0.703125 0.375 1.65625 0.578125q0.953125 0.203125 2.03125 0.203125q1.296875 0 2.03125 -0.75q0.734375 -0.75 0.734375 -2.0625l0 -0.390625q0 -0.21875 0.015625 -0.640625q0.015625 -0.421875 0.046875 -0.59375l-0.078125 0q-0.53125 0.765625 -1.3125 1.140625q-0.765625 0.375 -1.78125 0.375q-1.953125 0 -3.046875 -1.359375q-1.078125 -1.359375 -1.078125 -3.8125q0 -2.390625 1.078125 -3.796875q1.09375 -1.40625 3.015625 -1.40625zm0.234375 1.375q-0.84375 0 -1.4375 0.453125q-0.578125 0.453125 -0.890625 1.3125q-0.3125 0.859375 -0.3125 2.078125q0 1.859375 0.671875 2.84375q0.6875 0.96875 2.0 0.96875q0.765625 0 1.296875 -0.1875q0.546875 -0.203125 0.90625 -0.625q0.359375 -0.421875 0.515625 -1.0625q0.171875 -0.65625 0.171875 -1.5625l0 -0.390625q0 -1.359375 -0.3125 -2.1875q-0.296875 -0.84375 -0.953125 -1.234375q-0.65625 -0.40625 -1.65625 -0.40625zm14.199219 8.8125l-1.65625 0l0 -14.171883l1.65625 0l0 14.171883zm11.8602295 -5.015625q0 1.25 -0.328125 2.21875q-0.328125 0.953125 -0.9375 1.625q-0.609375 0.671875 -1.484375 1.015625q-0.859375 0.34375 -1.921875 0.34375q-0.984375 0 -1.828125 -0.34375q-0.828125 -0.34375 -1.453125 -1.015625q-0.609375 -0.671875 -0.953125 -1.625q-0.34375 -0.96875 -0.34375 -2.21875q0 -1.65625 0.546875 -2.796875q0.5625 -1.15625 1.609375 -1.765625q1.046875 -0.609375 2.484375 -0.609375q1.359375 0 2.390625 0.609375q1.046875 0.609375 1.625 1.765625q0.59375 1.140625 0.59375 2.796875zm-7.5625 0q0 1.171875 0.3125 2.046875q0.3125 0.859375 0.953125 1.328125q0.65625 0.46875 1.671875 0.46875q1.0 0 1.65625 -0.46875q0.65625 -0.46875 0.953125 -1.328125q0.3125 -0.875 0.3125 -2.046875q0 -1.203125 -0.3125 -2.03125q-0.3125 -0.84375 -0.96875 -1.296875q-0.640625 -0.46875 -1.65625 -0.46875q-1.53125 0 -2.234375 1.015625q-0.6875 1.0 -0.6875 2.78125zm13.693237 -5.171875q1.0 0 1.78125 0.375q0.796875 0.375 1.359375 1.140625l0.09375 0l0.21875 -1.328125l1.3125 0l0 10.171875q0 1.40625 -0.484375 2.359375q-0.484375 0.96875 -1.484375 1.453125q-0.984375 0.5 -2.515625 0.5q-1.078125 0 -1.984375 -0.171875q-0.90625 -0.15625 -1.609375 -0.46875l0 -1.515625q0.703125 0.375 1.65625 0.578125q0.953125 0.203125 2.03125 0.203125q1.296875 0 2.03125 -0.75q0.734375 -0.75 0.734375 -2.0625l0 -0.390625q0 -0.21875 0.015625 -0.640625q0.015625 -0.421875 0.046875 -0.59375l-0.078125 0q-0.53125 0.765625 -1.3125 1.140625q-0.765625 0.375 -1.78125 0.375q-1.953125 0 -3.046875 -1.359375q-1.078125 -1.359375 -1.078125 -3.8125q0 -2.390625 1.078125 -3.796875q1.09375 -1.40625 3.015625 -1.40625zm0.234375 1.375q-0.84375 0 -1.4375 0.453125q-0.578125 0.453125 -0.890625 1.3125q-0.3125 0.859375 -0.3125 2.078125q0 1.859375 0.671875 2.84375q0.6875 0.96875 2.0 0.96875q0.765625 0 1.296875 -0.1875q0.546875 -0.203125 0.90625 -0.625q0.359375 -0.421875 0.515625 -1.0625q0.171875 -0.65625 0.171875 -1.5625l0 -0.390625q0 -1.359375 -0.3125 -2.1875q-0.296875 -0.84375 -0.953125 -1.234375q-0.65625 -0.40625 -1.65625 -0.40625zm9.348633 -1.1875l0 10.0l-1.65625 0l0 -10.0l1.65625 0zm-0.8125 -3.7500076q0.375 0 0.65625 0.25q0.296875 0.25 0.296875 0.796875q0 0.515625 -0.296875 0.78125q-0.28125 0.265625 -0.65625 0.265625q-0.40625 0 -0.6875 -0.265625q-0.28125 -0.265625 -0.28125 -0.78125q0 -0.546875 0.28125 -0.796875q0.28125 -0.25 0.6875 -0.25zm7.9851685 13.937508q-1.328125 0 -2.359375 -0.53125q-1.03125 -0.546875 -1.625 -1.6875q-0.578125 -1.140625 -0.578125 -2.90625q0 -1.859375 0.609375 -3.015625q0.609375 -1.15625 1.65625 -1.6875q1.0625 -0.546875 2.40625 -0.546875q0.765625 0 1.46875 0.15625q0.71875 0.15625 1.171875 0.390625l-0.515625 1.359375q-0.4375 -0.171875 -1.046875 -0.3125q-0.59375 -0.15625 -1.109375 -0.15625q-1.0 0 -1.65625 0.4375q-0.65625 0.421875 -0.984375 1.265625q-0.3125 0.828125 -0.3125 2.078125q0 1.203125 0.3125 2.046875q0.328125 0.828125 0.953125 1.265625q0.640625 0.421875 1.59375 0.421875q0.828125 0 1.453125 -0.15625q0.625 -0.171875 1.140625 -0.421875l0 1.453125q-0.5 0.265625 -1.109375 0.40625q-0.609375 0.140625 -1.46875 0.140625z" fill-rule="nonzero"/><path fill="#000000" fill-opacity="0.0" d="m31.367455 2.3582678l143.81104 0l0 42.015747l-143.81104 0z" fill-rule="evenodd"/><path fill="#000000" d="m41.72683 15.918891l5.34375 0q1.59375 0 2.359375 0.14062405q0.78125 0.125 1.390625 0.546875q0.625 0.421875 1.03125 1.125q0.40625 0.6875 0.40625 1.546875q0 0.9375 -0.5 1.734375q-0.5 0.78125 -1.375 1.171875q1.21875 0.359375 1.875 1.21875q0.65625 0.84375 0.65625 2.0q0 0.921875 -0.421875 1.78125q-0.421875 0.859375 -1.15625 1.375q-0.734375 0.515625 -1.796875 0.625q-0.6875 0.078125 -3.265625 0.09375l-4.546875 0l0 -13.359374zm2.703125 2.234374l0 3.078125l1.765625 0q1.578125 0 1.953125 -0.046875q0.703125 -0.078125 1.09375 -0.46875q0.40625 -0.40625 0.40625 -1.046875q0 -0.625 -0.34375 -1.0q-0.34375 -0.390625 -1.015625 -0.484375q-0.40625 -0.03125 -2.3125 -0.03125l-1.546875 0zm0 5.296875l0 3.578125l2.5 0q1.453125 0 1.84375 -0.078125q0.609375 -0.109375 0.984375 -0.53125q0.375 -0.421875 0.375 -1.140625q0 -0.59375 -0.296875 -1.015625q-0.28125 -0.421875 -0.84375 -0.609375q-0.546875 -0.203125 -2.390625 -0.203125l-2.171875 0zm10.754196 5.828125l0 -13.359374l2.5625 0l0 13.359374l-2.5625 0zm4.589554 -4.96875q0 -1.28125 0.625 -2.46875q0.625 -1.203125 1.78125 -1.828125q1.15625 -0.625 2.578125 -0.625q2.1875 0 3.59375 1.421875q1.40625 1.421875 1.40625 3.609375q0 2.1875 -1.421875 3.640625q-1.421875 1.4375 -3.5625 1.4375q-1.328125 0 -2.546875 -0.59375q-1.203125 -0.609375 -1.828125 -1.765625q-0.625 -1.171875 -0.625 -2.828125zm2.625 0.125q0 1.453125 0.671875 2.21875q0.6875 0.75 1.6875 0.75q1.0 0 1.671875 -0.75q0.6875 -0.765625 0.6875 -2.234375q0 -1.421875 -0.6875 -2.1875q-0.671875 -0.765625 -1.671875 -0.765625q-1.0 0 -1.6875 0.765625q-0.671875 0.765625 -0.671875 2.203125zm9.255356 4.84375l0 -13.359374l2.5625 0l0 4.812499q1.171875 -1.34375 2.796875 -1.34375q1.765625 0 2.921875 1.28125q1.15625 1.28125 1.15625 3.671875q0 2.484375 -1.1875 3.828125q-1.171875 1.328125 -2.859375 1.328125q-0.828125 0 -1.640625 -0.40625q-0.796875 -0.421875 -1.375 -1.234375l0 1.421875l-2.375 0zm2.53125 -5.046875q0 1.5 0.484375 2.21875q0.65625 1.03125 1.765625 1.03125q0.84375 0 1.4375 -0.71875q0.59375 -0.734375 0.59375 -2.296875q0 -1.65625 -0.609375 -2.390625q-0.59375 -0.734375 -1.53125 -0.734375q-0.921875 0 -1.53125 0.71875q-0.609375 0.71875 -0.609375 2.171875zm13.485535 0.703125l2.625 -0.25q0.234375 1.3125 0.953125 1.9375q0.734375 0.609375 1.96875 0.609375q1.296875 0 1.953125 -0.546875q0.671875 -0.546875 0.671875 -1.28125q0 -0.484375 -0.28125 -0.8125q-0.28125 -0.328125 -0.96875 -0.578125q-0.484375 -0.15625 -2.171875 -0.578125q-2.15625 -0.546875 -3.03125 -1.328125q-1.234375 -1.09375 -1.234375 -2.6875q0 -1.015625 0.578125 -1.90625q0.578125 -0.890625 1.65625 -1.34375q1.09375 -0.46874905 2.640625 -0.46874905q2.515625 0 3.78125 1.109374q1.28125 1.09375 1.34375 2.9375l-2.703125 0.109375q-0.171875 -1.03125 -0.75 -1.46875q-0.5625 -0.453125 -1.703125 -0.453125q-1.171875 0 -1.84375 0.46875q-0.421875 0.3125 -0.421875 0.84375q0 0.46875 0.40625 0.796875q0.5 0.4375 2.46875 0.90625q1.96875 0.453125 2.90625 0.953125q0.953125 0.5 1.484375 1.359375q0.53125 0.859375 0.53125 2.125q0 1.15625 -0.640625 2.15625q-0.640625 1.0 -1.8125 1.484375q-1.15625 0.484375 -2.890625 0.484375q-2.53125 0 -3.890625 -1.171875q-1.359375 -1.171875 -1.625 -3.40625zm12.521698 -0.625q0 -1.28125 0.625 -2.46875q0.625 -1.203125 1.78125 -1.828125q1.15625 -0.625 2.578125 -0.625q2.1875 0 3.59375 1.421875q1.40625 1.421875 1.40625 3.609375q0 2.1875 -1.421875 3.640625q-1.421875 1.4375 -3.5625 1.4375q-1.328125 0 -2.546875 -0.59375q-1.203125 -0.609375 -1.828125 -1.765625q-0.625 -1.171875 -0.625 -2.828125zm2.625 0.125q0 1.453125 0.671875 2.21875q0.6875 0.75 1.6875 0.75q1.0 0 1.671875 -0.75q0.6875 -0.765625 0.6875 -2.234375q0 -1.421875 -0.6875 -2.1875q-0.671875 -0.765625 -1.671875 -0.765625q-1.0 0 -1.6875 0.765625q-0.671875 0.765625 -0.671875 2.203125zm15.724106 4.84375l0 -1.453125q-0.53125 0.78125 -1.390625 1.234375q-0.859375 0.4375 -1.8125 0.4375q-0.96875 0 -1.75 -0.421875q-0.765625 -0.4375 -1.125 -1.203125q-0.34375 -0.78125 -0.34375 -2.140625l0 -6.125l2.5625 0l0 4.4375q0 2.046875 0.140625 2.515625q0.140625 0.453125 0.515625 0.71875q0.375 0.265625 0.953125 0.265625q0.65625 0 1.171875 -0.359375q0.515625 -0.359375 0.703125 -0.890625q0.203125 -0.53125 0.203125 -2.609375l0 -4.078125l2.546875 0l0 9.671875l-2.375 0zm7.489731 0l-2.5625 0l0 -9.671875l2.375 0l0 1.375q0.609375 -0.984375 1.09375 -1.28125q0.484375 -0.3125 1.1093674 -0.3125q0.875 0 1.6875 0.484375l-0.796875 2.234375q-0.640625 -0.421875 -1.2031174 -0.421875q-0.53125 0 -0.90625 0.296875q-0.375 0.296875 -0.59375 1.078125q-0.203125 0.765625 -0.203125 3.234375l0 2.984375zm13.244637 -6.8125l-2.53125 0.453125q-0.125 -0.75 -0.578125 -1.125q-0.453125 -0.390625 -1.171875 -0.390625q-0.953125 0 -1.53125 0.65625q-0.5625 0.65625 -0.5625 2.203125q0 1.734375 0.578125 2.4375q0.578125 0.703125 1.546875 0.703125q0.734375 0 1.203125 -0.40625q0.46875 -0.421875 0.65625 -1.421875l2.515625 0.421875q-0.390625 1.734375 -1.515625 2.625q-1.109375 0.875 -2.96875 0.875q-2.125 0 -3.390625 -1.328125q-1.25 -1.34375 -1.25 -3.71875q0 -2.390625 1.265625 -3.71875q1.265625 -1.34375 3.421875 -1.34375q1.765625 0 2.796875 0.765625q1.046875 0.75 1.515625 2.3125zm7.531967 3.734375l2.546875 0.421875q-0.484375 1.40625 -1.546875 2.140625q-1.0625 0.734375 -2.65625 0.734375q-2.515625 0 -3.734375 -1.65625q-0.953125 -1.3125 -0.953125 -3.328125q0 -2.40625 1.25 -3.765625q1.265625 -1.359375 3.1875 -1.359375q2.15625 0 3.40625 1.421875q1.25 1.421875 1.1875 4.375l-6.40625 0q0.03125 1.140625 0.609375 1.78125q0.59375 0.625 1.484375 0.625q0.59375 0 1.0 -0.328125q0.421875 -0.328125 0.625 -1.0625zm0.15625 -2.59375q-0.03125 -1.109375 -0.578125 -1.6875q-0.546875 -0.578125 -1.328125 -0.578125q-0.84375 0 -1.390625 0.609375q-0.546875 0.609375 -0.53125 1.65625l3.828125 0z" fill-rule="nonzero"/><path fill="#000000" fill-opacity="0.0" d="m25.805775 112.44095l181.10237 0l0 42.015747l-181.10237 0z" fill-rule="evenodd"/><path fill="#000000" d="m36.180775 139.36095l0 -13.359375l9.15625 0l0 2.265625l-6.453125 0l0 3.15625l5.5625 0l0 2.265625l-5.5625 0l0 5.671875l-2.703125 0zm11.364731 -10.984375l0 -2.375l2.5625 0l0 2.375l-2.5625 0zm0 10.984375l0 -9.671875l2.5625 0l0 9.671875l-2.5625 0zm5.183304 0l0 -13.359375l2.5625 0l0 13.359375l-2.5625 0zm10.777054 -3.078125l2.5468712 0.421875q-0.484375 1.40625 -1.546875 2.140625q-1.0624962 0.734375 -2.6562462 0.734375q-2.515625 0 -3.734375 -1.65625q-0.953125 -1.3125 -0.953125 -3.328125q0 -2.40625 1.25 -3.765625q1.265625 -1.359375 3.1875 -1.359375q2.15625 0 3.4062462 1.421875q1.25 1.421875 1.1875 4.375l-6.406246 0q0.03125 1.140625 0.609375 1.78125q0.59375 0.625 1.484375 0.625q0.59375 0 1.0 -0.328125q0.421875 -0.328125 0.625 -1.0625zm0.15625 -2.59375q-0.03125 -1.109375 -0.578125 -1.6875q-0.546875 -0.578125 -1.328125 -0.578125q-0.84375 0 -1.390625 0.609375q-0.546875 0.609375 -0.53125 1.65625l3.828125 0zm4.6413383 5.671875l0 -13.359375l4.328125 0q2.453125 0 3.203125 0.203125q1.140625 0.296875 1.921875 1.3125q0.78125 1.0 0.78125 2.59375q0 1.234375 -0.453125 2.078125q-0.453125 0.828125 -1.140625 1.3125q-0.6875 0.46875 -1.390625 0.625q-0.96875 0.203125 -2.796875 0.203125l-1.765625 0l0 5.03125l-2.6875 0zm2.6875 -11.09375l0 3.78125l1.484375 0q1.59375 0 2.125 -0.203125q0.546875 -0.203125 0.84375 -0.65625q0.3125 -0.453125 0.3125 -1.03125q0 -0.734375 -0.4375 -1.203125q-0.421875 -0.484375 -1.078125 -0.59375q-0.484375 -0.09375 -1.9375 -0.09375l-1.3125 0zm11.646698 4.375l-2.328125 -0.421875q0.40625 -1.40625 1.359375 -2.078125q0.953125 -0.671875 2.84375 -0.671875q1.703125 0 2.546875 0.40625q0.84375 0.40625 1.171875 1.03125q0.34375 0.625 0.34375 2.28125l-0.015625 3.0q0 1.265625 0.109375 1.875q0.125 0.609375 0.46875 1.296875l-2.53125 0q-0.109375 -0.25 -0.25 -0.75q-0.0625 -0.234375 -0.09375 -0.3125q-0.65625 0.640625 -1.40625 0.96875q-0.734375 0.3125 -1.59375 0.3125q-1.484375 0 -2.34375 -0.8125q-0.859375 -0.8125 -0.859375 -2.046875q0 -0.828125 0.390625 -1.46875q0.390625 -0.640625 1.09375 -0.96875q0.703125 -0.34375 2.03125 -0.609375q1.796875 -0.328125 2.484375 -0.625l0 -0.25q0 -0.75 -0.359375 -1.0625q-0.359375 -0.3125 -1.375 -0.3125q-0.6875 0 -1.078125 0.28125q-0.375 0.265625 -0.609375 0.9375zm3.421875 2.078125q-0.484375 0.15625 -1.5625 0.390625q-1.0625 0.21875 -1.390625 0.4375q-0.5 0.359375 -0.5 0.90625q0 0.53125 0.40625 0.9375q0.40625 0.390625 1.015625 0.390625q0.703125 0 1.328125 -0.46875q0.46875 -0.34375 0.609375 -0.84375q0.09375 -0.328125 0.09375 -1.25l0 -0.5zm9.485092 -5.03125l0 2.03125l-1.75 0l0 3.90625q0 1.1875 0.046875 1.390625q0.046875 0.1875 0.21875 0.3125q0.1875 0.125 0.4375 0.125q0.359375 0 1.03125 -0.25l0.21875 2.0q-0.890625 0.375 -2.015625 0.375q-0.703125 0 -1.265625 -0.234375q-0.546875 -0.234375 -0.8125 -0.59375q-0.25 -0.375 -0.34375 -1.0q-0.09375 -0.453125 -0.09375 -1.8125l0 -4.21875l-1.171875 0l0 -2.03125l1.171875 0l0 -1.921875l2.578125 -1.5l0 3.421875l1.75 0zm4.322052 -3.6875l0 4.921875q1.234375 -1.453125 2.953125 -1.453125q0.890625 0 1.59375 0.328125q0.71875 0.328125 1.078125 0.84375q0.359375 0.5 0.484375 1.125q0.140625 0.609375 0.140625 1.921875l0 5.671875l-2.5625 0l0 -5.109375q0 -1.515625 -0.15625 -1.921875q-0.140625 -0.421875 -0.515625 -0.65625q-0.359375 -0.25 -0.90625 -0.25q-0.640625 0 -1.140625 0.3125q-0.5 0.3125 -0.734375 0.9375q-0.234375 0.625 -0.234375 1.84375l0 4.84375l-2.5625 0l0 -13.359375l2.5625 0zm13.360535 9.015625l2.625 -0.25q0.234375 1.3125 0.953125 1.9375q0.734375 0.609375 1.96875 0.609375q1.296875 0 1.953125 -0.546875q0.671875 -0.546875 0.671875 -1.28125q0 -0.484375 -0.28125 -0.8125q-0.28125 -0.328125 -0.96875 -0.578125q-0.484375 -0.15625 -2.171875 -0.578125q-2.15625 -0.546875 -3.03125 -1.328125q-1.234375 -1.09375 -1.234375 -2.6875q0 -1.015625 0.578125 -1.90625q0.578125 -0.890625 1.65625 -1.34375q1.09375 -0.46875 2.640625 -0.46875q2.515625 0 3.78125 1.109375q1.28125 1.09375 1.34375 2.9375l-2.703125 0.109375q-0.171875 -1.03125 -0.75 -1.46875q-0.5625 -0.453125 -1.703125 -0.453125q-1.171875 0 -1.84375 0.46875q-0.421875 0.3125 -0.421875 0.84375q0 0.46875 0.40625 0.796875q0.5 0.4375 2.46875 0.90625q1.96875 0.453125 2.90625 0.953125q0.953125 0.5 1.484375 1.359375q0.53125 0.859375 0.53125 2.125q0 1.15625 -0.640625 2.15625q-0.640625 1.0 -1.8125 1.484375q-1.15625 0.484375 -2.890625 0.484375q-2.53125 0 -3.890625 -1.171875q-1.359375 -1.171875 -1.625 -3.40625zm12.521698 -0.625q0 -1.28125 0.625 -2.46875q0.625 -1.203125 1.78125 -1.828125q1.15625 -0.625 2.578125 -0.625q2.1875 0 3.59375 1.421875q1.40625 1.421875 1.40625 3.609375q0 2.1875 -1.421875 3.640625q-1.421875 1.4375 -3.5625 1.4375q-1.328125 0 -2.546875 -0.59375q-1.203125 -0.609375 -1.828125 -1.765625q-0.625 -1.171875 -0.625 -2.828125zm2.625 0.125q0 1.453125 0.671875 2.21875q0.6875 0.75 1.6875 0.75q1.0 0 1.671875 -0.75q0.6875 -0.765625 0.6875 -2.234375q0 -1.421875 -0.6875 -2.1875q-0.671875 -0.765625 -1.671875 -0.765625q-1.0 0 -1.6875 0.765625q-0.671875 0.765625 -0.671875 2.203125zm15.724106 4.84375l0 -1.453125q-0.53125 0.78125 -1.390625 1.234375q-0.859375 0.4375 -1.8125 0.4375q-0.96875 0 -1.75 -0.421875q-0.765625 -0.4375 -1.125 -1.203125q-0.34375 -0.78125 -0.34375 -2.140625l0 -6.125l2.5625 0l0 4.4375q0 2.046875 0.140625 2.515625q0.140625 0.453125 0.515625 0.71875q0.375 0.265625 0.953125 0.265625q0.65625 0 1.171875 -0.359375q0.515625 -0.359375 0.703125 -0.890625q0.203125 -0.53125 0.203125 -2.609375l0 -4.078125l2.546875 0l0 9.671875l-2.375 0zm7.489731 0l-2.5625 0l0 -9.671875l2.375 0l0 1.375q0.609375 -0.984375 1.09375 -1.28125q0.484375 -0.3125 1.109375 -0.3125q0.875 0 1.6875 0.484375l-0.796875 2.234375q-0.640625 -0.421875 -1.203125 -0.421875q-0.53125 0 -0.90625 0.296875q-0.375 0.296875 -0.59375 1.078125q-0.203125 0.765625 -0.203125 3.234375l0 2.984375zm13.244644 -6.8125l-2.53125 0.453125q-0.125 -0.75 -0.578125 -1.125q-0.453125 -0.390625 -1.171875 -0.390625q-0.953125 0 -1.53125 0.65625q-0.5625 0.65625 -0.5625 2.203125q0 1.734375 0.578125 2.4375q0.578125 0.703125 1.546875 0.703125q0.734375 0 1.203125 -0.40625q0.46875 -0.421875 0.65625 -1.421875l2.515625 0.421875q-0.390625 1.734375 -1.515625 2.625q-1.109375 0.875 -2.96875 0.875q-2.125 0 -3.390625 -1.328125q-1.25 -1.34375 -1.25 -3.71875q0 -2.390625 1.265625 -3.71875q1.265625 -1.34375 3.421875 -1.34375q1.765625 0 2.796875 0.765625q1.046875 0.75 1.515625 2.3125zm7.531967 3.734375l2.546875 0.421875q-0.484375 1.40625 -1.546875 2.140625q-1.0625 0.734375 -2.65625 0.734375q-2.515625 0 -3.734375 -1.65625q-0.953125 -1.3125 -0.953125 -3.328125q0 -2.40625 1.25 -3.765625q1.265625 -1.359375 3.1875 -1.359375q2.15625 0 3.40625 1.421875q1.25 1.421875 1.1875 4.375l-6.40625 0q0.03125 1.140625 0.609375 1.78125q0.59375 0.625 1.484375 0.625q0.59375 0 1.0 -0.328125q0.421875 -0.328125 0.625 -1.0625zm0.15625 -2.59375q-0.03125 -1.109375 -0.578125 -1.6875q-0.546875 -0.578125 -1.328125 -0.578125q-0.84375 0 -1.390625 0.609375q-0.546875 0.609375 -0.53125 1.65625l3.828125 0z" fill-rule="nonzero"/><path fill="#000000" fill-opacity="0.0" d="m27.44357 189.59317l177.82677 0l0 42.015747l-177.82677 0z" fill-rule="evenodd"/><path fill="#000000" d="m37.115444 212.16942l2.625 -0.25q0.234375 1.3125 0.953125 1.9375q0.734375 0.609375 1.96875 0.609375q1.296875 0 1.953125 -0.546875q0.671875 -0.546875 0.671875 -1.28125q0 -0.484375 -0.28125 -0.8125q-0.28125 -0.328125 -0.96875 -0.578125q-0.484375 -0.15625 -2.171875 -0.578125q-2.15625 -0.546875 -3.03125 -1.328125q-1.234375 -1.09375 -1.234375 -2.6875q0 -1.015625 0.578125 -1.90625q0.578125 -0.890625 1.65625 -1.34375q1.09375 -0.46875 2.640625 -0.46875q2.515625 0 3.78125 1.109375q1.28125 1.09375 1.34375 2.9375l-2.703125 0.109375q-0.171875 -1.03125 -0.75 -1.46875q-0.5625 -0.453125 -1.703125 -0.453125q-1.171875 0 -1.84375 0.46875q-0.421875 0.3125 -0.421875 0.84375q0 0.46875 0.40625 0.796875q0.5 0.4375 2.46875 0.90625q1.96875 0.453125 2.90625 0.953125q0.953125 0.5 1.484375 1.359375q0.53125 0.859375 0.53125 2.125q0 1.15625 -0.640625 2.15625q-0.640625 1.0 -1.8125 1.484375q-1.15625 0.484375 -2.890625 0.484375q-2.53125 0 -3.890625 -1.171875q-1.359375 -1.171875 -1.625 -3.40625zm17.552948 -5.328125l0 2.03125l-1.75 0l0 3.90625q0 1.1875 0.046875 1.390625q0.046875 0.1875 0.21875 0.3125q0.1875 0.125 0.4375 0.125q0.359375 0 1.03125 -0.25l0.21875 2.0q-0.890625 0.375 -2.015625 0.375q-0.703125 0 -1.265625 -0.234375q-0.546875 -0.234375 -0.8125 -0.59375q-0.25 -0.375 -0.34375 -1.0q-0.09375 -0.453125 -0.09375 -1.8125l0 -4.21875l-1.171875 0l0 -2.03125l1.171875 0l0 -1.921875l2.578125 -1.5l0 3.421875l1.75 0zm4.228302 9.671875l-2.5625 0l0 -9.671875l2.375 0l0 1.375q0.609375 -0.984375 1.09375 -1.28125q0.484375 -0.3125 1.109375 -0.3125q0.875 0 1.6875 0.484375l-0.796875 2.234375q-0.640625 -0.421875 -1.203125 -0.421875q-0.53125 0 -0.90625 0.296875q-0.375 0.296875 -0.59375 1.078125q-0.203125 0.765625 -0.203125 3.234375l0 2.984375zm10.400898 -3.078125l2.546875 0.421875q-0.484375 1.40625 -1.546875 2.140625q-1.0625 0.734375 -2.65625 0.734375q-2.515625 0 -3.7343788 -1.65625q-0.953125 -1.3125 -0.953125 -3.328125q0 -2.40625 1.2500038 -3.765625q1.265625 -1.359375 3.1875 -1.359375q2.15625 0 3.40625 1.421875q1.25 1.421875 1.1875 4.375l-6.40625 0q0.03125 1.140625 0.609375 1.78125q0.59375 0.625 1.484375 0.625q0.59375 0 1.0 -0.328125q0.421875 -0.328125 0.625 -1.0625zm0.15625 -2.59375q-0.03125 -1.109375 -0.578125 -1.6875q-0.546875 -0.578125 -1.328125 -0.578125q-0.84375 0 -1.390625 0.609375q-0.546875 0.609375 -0.53125 1.65625l3.828125 0zm6.531967 -1.046875l-2.328125 -0.421875q0.40625 -1.40625 1.359375 -2.078125q0.953125 -0.671875 2.84375 -0.671875q1.703125 0 2.546875 0.40625q0.84375 0.40625 1.171875 1.03125q0.34375 0.625 0.34375 2.28125l-0.015625 3.0q0 1.265625 0.109375 1.875q0.125 0.609375 0.46875 1.296875l-2.53125 0q-0.109375 -0.25 -0.25 -0.75q-0.0625 -0.234375 -0.09375 -0.3125q-0.65625 0.640625 -1.40625 0.96875q-0.734375 0.3125 -1.59375 0.3125q-1.484375 0 -2.34375 -0.8125q-0.859375 -0.8125 -0.859375 -2.046875q0 -0.828125 0.390625 -1.46875q0.390625 -0.640625 1.09375 -0.96875q0.703125 -0.34375 2.03125 -0.609375q1.796875 -0.328125 2.484375 -0.625l0 -0.25q0 -0.75 -0.359375 -1.0625q-0.359375 -0.3125 -1.375 -0.3125q-0.6875 0 -1.078125 0.28125q-0.375 0.265625 -0.609375 0.9375zm3.421875 2.078125q-0.484375 0.15625 -1.5625 0.390625q-1.0625 0.21875 -1.390625 0.4375q-0.5 0.359375 -0.5 0.90625q0 0.53125 0.40625 0.9375q0.40625 0.390625 1.015625 0.390625q0.703125 0 1.328125 -0.46875q0.46875 -0.34375 0.609375 -0.84375q0.09375 -0.328125 0.09375 -1.25l0 -0.5zm4.844467 -5.03125l2.359375 0l0 1.3125q1.265625 -1.53125 3.015625 -1.53125q0.9375 0 1.609375 0.390625q0.6875 0.375 1.125 1.140625q0.640625 -0.765625 1.375 -1.140625q0.75 -0.390625 1.578125 -0.390625q1.0625 0 1.796875 0.4375q0.75 0.421875 1.109375 1.265625q0.265625 0.625 0.265625 2.0l0 6.1875l-2.5625 0l0 -5.53125q0 -1.4375 -0.265625 -1.859375q-0.34375 -0.546875 -1.09375 -0.546875q-0.53125 0 -1.015625 0.328125q-0.46875 0.328125 -0.671875 0.96875q-0.203125 0.625 -0.203125 2.0l0 4.640625l-2.5625 0l0 -5.296875q0 -1.421875 -0.140625 -1.828125q-0.140625 -0.40625 -0.421875 -0.609375q-0.28125 -0.203125 -0.78125 -0.203125q-0.59375 0 -1.0625 0.328125q-0.46875 0.3125 -0.6875 0.921875q-0.203125 0.59375 -0.203125 1.984375l0 4.703125l-2.5625 0l0 -9.671875zm21.302948 5.328125l2.625 -0.25q0.234375 1.3125 0.953125 1.9375q0.734375 0.609375 1.96875 0.609375q1.296875 0 1.953125 -0.546875q0.671875 -0.546875 0.671875 -1.28125q0 -0.484375 -0.28125 -0.8125q-0.28125 -0.328125 -0.96875 -0.578125q-0.484375 -0.15625 -2.171875 -0.578125q-2.15625 -0.546875 -3.03125 -1.328125q-1.234375 -1.09375 -1.234375 -2.6875q0 -1.015625 0.578125 -1.90625q0.578125 -0.890625 1.65625 -1.34375q1.09375 -0.46875 2.640625 -0.46875q2.515625 0 3.78125 1.109375q1.28125 1.09375 1.34375 2.9375l-2.703125 0.109375q-0.171875 -1.03125 -0.75 -1.46875q-0.5625 -0.453125 -1.703125 -0.453125q-1.171875 0 -1.84375 0.46875q-0.421875 0.3125 -0.421875 0.84375q0 0.46875 0.40625 0.796875q0.5 0.4375 2.46875 0.90625q1.96875 0.453125 2.90625 0.953125q0.953125 0.5 1.484375 1.359375q0.53125 0.859375 0.53125 2.125q0 1.15625 -0.640625 2.15625q-0.640625 1.0 -1.8125 1.484375q-1.15625 0.484375 -2.890625 0.484375q-2.53125 0 -3.890625 -1.171875q-1.359375 -1.171875 -1.625 -3.40625zm12.521698 -0.625q0 -1.28125 0.625 -2.46875q0.625 -1.203125 1.78125 -1.828125q1.15625 -0.625 2.578125 -0.625q2.1875 0 3.59375 1.421875q1.40625 1.421875 1.40625 3.609375q0 2.1875 -1.421875 3.640625q-1.421875 1.4375 -3.5625 1.4375q-1.328125 0 -2.546875 -0.59375q-1.203125 -0.609375 -1.828125 -1.765625q-0.625 -1.171875 -0.625 -2.828125zm2.625 0.125q0 1.453125 0.671875 2.21875q0.6875 0.75 1.6875 0.75q1.0 0 1.671875 -0.75q0.6875 -0.765625 0.6875 -2.234375q0 -1.421875 -0.6875 -2.1875q-0.671875 -0.765625 -1.671875 -0.765625q-1.0 0 -1.6875 0.765625q-0.671875 0.765625 -0.671875 2.203125zm15.724106 4.84375l0 -1.453125q-0.53125 0.78125 -1.390625 1.234375q-0.859375 0.4375 -1.8125 0.4375q-0.96875 0 -1.75 -0.421875q-0.765625 -0.4375 -1.125 -1.203125q-0.34375 -0.78125 -0.34375 -2.140625l0 -6.125l2.5625 0l0 4.4375q0 2.046875 0.140625 2.515625q0.140625 0.453125 0.515625 0.71875q0.375 0.265625 0.953125 0.265625q0.65625 0 1.171875 -0.359375q0.515625 -0.359375 0.703125 -0.890625q0.203125 -0.53125 0.203125 -2.609375l0 -4.078125l2.546875 0l0 9.671875l-2.375 0zm7.489731 0l-2.5625 0l0 -9.671875l2.375 0l0 1.375q0.609375 -0.984375 1.09375 -1.28125q0.484375 -0.3125 1.109375 -0.3125q0.875 0 1.6875 0.484375l-0.796875 2.234375q-0.640625 -0.421875 -1.203125 -0.421875q-0.53125 0 -0.90625 0.296875q-0.375 0.296875 -0.59375 1.078125q-0.203125 0.765625 -0.203125 3.234375l0 2.984375zm13.244644 -6.8125l-2.53125 0.453125q-0.125 -0.75 -0.578125 -1.125q-0.453125 -0.390625 -1.171875 -0.390625q-0.953125 0 -1.53125 0.65625q-0.5625 0.65625 -0.5625 2.203125q0 1.734375 0.578125 2.4375q0.578125 0.703125 1.546875 0.703125q0.734375 0 1.203125 -0.40625q0.46875 -0.421875 0.65625 -1.421875l2.515625 0.421875q-0.390625 1.734375 -1.515625 2.625q-1.109375 0.875 -2.96875 0.875q-2.125 0 -3.390625 -1.328125q-1.25 -1.34375 -1.25 -3.71875q0 -2.390625 1.265625 -3.71875q1.265625 -1.34375 3.421875 -1.34375q1.765625 0 2.796875 0.765625q1.046875 0.75 1.515625 2.3125zm7.531967 3.734375l2.546875 0.421875q-0.484375 1.40625 -1.546875 2.140625q-1.0625 0.734375 -2.65625 0.734375q-2.515625 0 -3.734375 -1.65625q-0.953125 -1.3125 -0.953125 -3.328125q0 -2.40625 1.25 -3.765625q1.265625 -1.359375 3.1875 -1.359375q2.15625 0 3.40625 1.421875q1.25 1.421875 1.1875 4.375l-6.40625 0q0.03125 1.140625 0.609375 1.78125q0.59375 0.625 1.484375 0.625q0.59375 0 1.0 -0.328125q0.421875 -0.328125 0.625 -1.0625zm0.15625 -2.59375q-0.03125 -1.109375 -0.578125 -1.6875q-0.546875 -0.578125 -1.328125 -0.578125q-0.84375 0 -1.390625 0.609375q-0.546875 0.609375 -0.53125 1.65625l3.828125 0z" fill-rule="nonzero"/><path fill="#000000" fill-opacity="0.0" d="m31.367455 291.62598l177.82678 0l0 42.015747l-177.82678 0z" fill-rule="evenodd"/><path fill="#000000" d="m41.711205 305.1866l2.6875 0l0 7.234375q0 1.71875 0.109375 2.234375q0.171875 0.828125 0.8125 1.328125q0.65625 0.484375 1.78125 0.484375q1.15625 0 1.734375 -0.46875q0.59375 -0.46875 0.703125 -1.140625q0.125 -0.6875 0.125 -2.28125l0 -7.390625l2.6875 0l0 7.015625q0 2.40625 -0.21875 3.40625q-0.21875 0.984375 -0.8125 1.671875q-0.578125 0.6875 -1.5625 1.09375q-0.984375 0.40625 -2.5625 0.40625q-1.921875 0 -2.90625 -0.4375q-0.984375 -0.453125 -1.5625 -1.15625q-0.578125 -0.703125 -0.75 -1.484375q-0.265625 -1.140625 -0.265625 -3.390625l0 -7.125zm13.488571 13.359375l0 -13.359375l5.6875 0q2.140625 0 3.109375 0.359375q0.96875 0.359375 1.546875 1.28125q0.578125 0.921875 0.578125 2.109375q0 1.5 -0.890625 2.484375q-0.875 0.96875 -2.625 1.234375q0.875 0.5 1.4375 1.125q0.578125 0.609375 1.53125 2.15625l1.640625 2.609375l-3.234375 0l-1.9375 -2.90625q-1.046875 -1.5625 -1.4375 -1.96875q-0.375 -0.40625 -0.8125 -0.546875q-0.421875 -0.15625 -1.34375 -0.15625l-0.546875 0l0 5.578125l-2.703125 0zm2.703125 -7.703125l2.0 0q1.9375 0 2.421875 -0.15625q0.484375 -0.171875 0.75 -0.578125q0.28125 -0.40625 0.28125 -1.0q0 -0.671875 -0.359375 -1.078125q-0.359375 -0.421875 -1.015625 -0.53125q-0.328125 -0.046875 -1.96875 -0.046875l-2.109375 0l0 3.390625zm10.847946 7.703125l0 -13.25l2.6875 0l0 11.0l6.703125 0l0 2.25l-9.390625 0zm15.476425 -4.34375l2.625 -0.25q0.234375 1.3125 0.953125 1.9375q0.734375 0.609375 1.96875 0.609375q1.296875 0 1.953125 -0.546875q0.671875 -0.546875 0.671875 -1.28125q0 -0.484375 -0.28125 -0.8125q-0.28125 -0.328125 -0.96875 -0.578125q-0.484375 -0.15625 -2.171875 -0.578125q-2.15625 -0.546875 -3.03125 -1.328125q-1.234375 -1.09375 -1.234375 -2.6875q0 -1.015625 0.578125 -1.90625q0.578125 -0.890625 1.65625 -1.34375q1.09375 -0.46875 2.640625 -0.46875q2.515625 0 3.78125 1.109375q1.28125 1.09375 1.34375 2.9375l-2.703125 0.109375q-0.171875 -1.03125 -0.75 -1.46875q-0.5625 -0.453125 -1.703125 -0.453125q-1.171875 0 -1.84375 0.46875q-0.421875 0.3125 -0.421875 0.84375q0 0.46875 0.40625 0.796875q0.5 0.4375 2.46875 0.90625q1.96875 0.453125 2.90625 0.953125q0.953125 0.5 1.484375 1.359375q0.53125 0.859375 0.53125 2.125q0 1.15625 -0.640625 2.15625q-0.640625 1.0 -1.8125 1.484375q-1.15625 0.484375 -2.890625 0.484375q-2.53125 0 -3.890625 -1.171875q-1.359375 -1.171875 -1.625 -3.40625zm12.521698 -0.625q0 -1.28125 0.625 -2.46875q0.625 -1.203125 1.78125 -1.828125q1.15625 -0.625 2.578125 -0.625q2.1875 0 3.59375 1.421875q1.40625 1.421875 1.40625 3.609375q0 2.1875 -1.421875 3.640625q-1.421875 1.4375 -3.5625 1.4375q-1.328125 0 -2.546875 -0.59375q-1.203125 -0.609375 -1.828125 -1.765625q-0.625 -1.171875 -0.625 -2.828125zm2.625 0.125q0 1.453125 0.671875 2.21875q0.6875 0.75 1.6875 0.75q1.0 0 1.671875 -0.75q0.6875 -0.765625 0.6875 -2.234375q0 -1.421875 -0.6875 -2.1875q-0.671875 -0.765625 -1.671875 -0.765625q-1.0 0 -1.6875 0.765625q-0.671875 0.765625 -0.671875 2.203125zm15.724106 4.84375l0 -1.453125q-0.53125 0.78125 -1.390625 1.234375q-0.859375 0.4375 -1.8125 0.4375q-0.96875 0 -1.75 -0.421875q-0.765625 -0.4375 -1.125 -1.203125q-0.34375 -0.78125 -0.34375 -2.140625l0 -6.125l2.5625 0l0 4.4375q0 2.046875 0.140625 2.515625q0.140625 0.453125 0.515625 0.71875q0.375 0.265625 0.953125 0.265625q0.65625 0 1.171875 -0.359375q0.515625 -0.359375 0.703125 -0.890625q0.203125 -0.53125 0.203125 -2.609375l0 -4.078125l2.546875 0l0 9.671875l-2.375 0zm7.489731 0l-2.5625 0l0 -9.671875l2.375 0l0 1.375q0.609375 -0.984375 1.09375 -1.28125q0.484375 -0.3125 1.109375 -0.3125q0.875 0 1.6875 0.484375l-0.796875 2.234375q-0.640625 -0.421875 -1.203125 -0.421875q-0.53125 0 -0.90625 0.296875q-0.375 0.296875 -0.59375 1.078125q-0.203125 0.765625 -0.203125 3.234375l0 2.984375zm13.244637 -6.8125l-2.53125 0.453125q-0.125 -0.75 -0.578125 -1.125q-0.453125 -0.390625 -1.171875 -0.390625q-0.953125 0 -1.53125 0.65625q-0.5625 0.65625 -0.5625 2.203125q0 1.734375 0.578125 2.4375q0.578125 0.703125 1.546875 0.703125q0.734375 0 1.203125 -0.40625q0.46875 -0.421875 0.65625 -1.421875l2.515625 0.421875q-0.390625 1.734375 -1.515625 2.625q-1.109375 0.875 -2.96875 0.875q-2.125 0 -3.390625 -1.328125q-1.2499924 -1.34375 -1.2499924 -3.71875q0 -2.390625 1.2656174 -3.71875q1.265625 -1.34375 3.421875 -1.34375q1.765625 0 2.796875 0.765625q1.046875 0.75 1.515625 2.3125zm7.531967 3.734375l2.546875 0.421875q-0.484375 1.40625 -1.546875 2.140625q-1.0625 0.734375 -2.65625 0.734375q-2.515625 0 -3.734375 -1.65625q-0.953125 -1.3125 -0.953125 -3.328125q0 -2.40625 1.25 -3.765625q1.265625 -1.359375 3.1875 -1.359375q2.15625 0 3.40625 1.421875q1.25 1.421875 1.1875 4.375l-6.40625 0q0.03125 1.140625 0.609375 1.78125q0.59375 0.625 1.484375 0.625q0.59375 0 1.0 -0.328125q0.421875 -0.328125 0.625 -1.0625zm0.15625 -2.59375q-0.03125 -1.109375 -0.578125 -1.6875q-0.546875 -0.578125 -1.328125 -0.578125q-0.84375 0 -1.390625 0.609375q-0.546875 0.609375 -0.53125 1.65625l3.828125 0z" fill-rule="nonzero"/><path fill="#000000" fill-opacity="0.0" d="m206.90814 133.44882l173.5748 -0.03149414" fill-rule="evenodd"/><path stroke="#000000" stroke-width="1.0" stroke-linejoin="round" stroke-linecap="butt" d="m206.90814 133.44882l167.5748 -0.030410767" fill-rule="evenodd"/><path fill="#000000" stroke="#000000" stroke-width="1.0" stroke-linecap="butt" d="m374.48325 135.07014l4.537781 -1.6525574l-4.538391 -1.6509094z" fill-rule="evenodd"/><path fill="#000000" fill-opacity="0.0" d="m272.4908 23.284777l0 289.70078" fill-rule="evenodd"/><path stroke="#000000" stroke-width="1.0" stroke-linejoin="round" stroke-linecap="butt" d="m272.4908 23.284777l0 289.70078" fill-rule="evenodd"/><path fill="#000000" fill-opacity="0.0" d="m175.17848 23.366142l97.82677 0" fill-rule="evenodd"/><path stroke="#000000" stroke-width="1.0" stroke-linejoin="round" stroke-linecap="butt" d="m175.17848 23.366142l97.82677 0" fill-rule="evenodd"/><path fill="#000000" fill-opacity="0.0" d="m209.19423 312.63385l63.307083 0" fill-rule="evenodd"/><path stroke="#000000" stroke-width="1.0" stroke-linejoin="round" stroke-linecap="butt" d="m209.19423 312.63385l63.307083 0" fill-rule="evenodd"/><path fill="#000000" fill-opacity="0.0" d="m205.27034 210.60104l67.27559 0" fill-rule="evenodd"/><path stroke="#000000" stroke-width="1.0" stroke-linejoin="round" stroke-linecap="butt" d="m205.27034 210.60104l67.27559 0" fill-rule="evenodd"/></g></svg>