<svg version="1.1" viewBox="0.0 0.0 960.0 288.0" fill="none" stroke="none" stroke-linecap="square" stroke-miterlimit="10" xmlns:xlink="http://www.w3.org/1999/xlink" xmlns="http://www.w3.org/2000/svg"><clipPath id="p.0"><path d="m0 0l960.0 0l0 288.0l-960.0 0l0 -288.0z" clip-rule="nonzero"/></clipPath><g clip-path="url(#p.0)"><path fill="#ffffff" d="m0 0l960.0 0l0 288.0l-960.0 0z" fill-rule="evenodd"/><path fill="#f3f3f3" d="m354.1786 96.755585l176.09448 0l0 106.04724l-176.09448 0z" fill-rule="evenodd"/><path fill="#000000" fill-opacity="0.0" d="m351.32004 209.88303l435.3701 0l0 48.566925l-435.3701 0z" fill-rule="evenodd"/><path fill="#000000" d="m378.1794 233.88274q0 1.78125 -0.453125 3.25q-0.4375 1.453125 -1.328125 2.515625q-0.890625 1.046875 -2.28125 1.609375q-1.375 0.5625 -3.28125 0.5625q-1.875 0 -3.265625 -0.5625q-1.390625 -0.5625 -2.28125 -1.609375q-0.890625 -1.0625 -1.34375 -2.515625q-0.4375 -1.46875 -0.4375 -3.28125q0 -2.390625 0.78125 -4.15625q0.796875 -1.78125 2.421875 -2.75q1.625 -0.984375 4.15625 -0.984375q2.5 0 4.125 0.984375q1.640625 0.96875 2.40625 2.75q0.78125 1.78125 0.78125 4.1875zm-11.203125 0q0 1.59375 0.390625 2.765625q0.40625 1.15625 1.265625 1.78125q0.875 0.609375 2.203125 0.609375q1.390625 0 2.234375 -0.609375q0.859375 -0.625 1.25 -1.78125q0.390625 -1.171875 0.390625 -2.765625q0 -2.421875 -0.890625 -3.796875q-0.890625 -1.390625 -2.953125 -1.390625q-1.359375 0 -2.234375 0.625q-0.859375 0.625 -1.265625 1.78125q-0.390625 1.15625 -0.390625 2.78125zm24.833893 -4.0625l0 11.78125l-2.5 0l-0.40625 -1.515625l-0.1875 0q-0.375 0.609375 -0.953125 1.0q-0.5625 0.390625 -1.25 0.5625q-0.671875 0.171875 -1.421875 0.171875q-1.265625 0 -2.203125 -0.453125q-0.9375 -0.453125 -1.46875 -1.40625q-0.515625 -0.953125 -0.515625 -2.453125l0 -7.6875l3.28125 0l0 6.859375q0 1.25 0.4375 1.890625q0.4375 0.640625 1.40625 0.640625q1.0 0 1.546875 -0.4375q0.546875 -0.453125 0.765625 -1.3125q0.21875 -0.859375 0.21875 -2.109375l0 -5.53125l3.25 0zm8.244476 9.421875q0.546875 0 1.03125 -0.09375q0.5 -0.109375 1.0 -0.265625l0 2.390625q-0.515625 0.21875 -1.28125 0.375q-0.765625 0.171875 -1.671875 0.171875q-1.0625 0 -1.890625 -0.34375q-0.828125 -0.34375 -1.3125 -1.1875q-0.484375 -0.859375 -0.484375 -2.375l0 -5.671875l-1.53125 0l0 -1.359375l1.765625 -1.078125l0.921875 -2.484375l2.0625 0l0 2.5l3.296875 0l0 2.421875l-3.296875 0l0 5.671875q0 0.671875 0.375 1.0q0.390625 0.328125 1.015625 0.328125zm10.896149 -9.640625q2.0625 0 3.25 1.546875q1.1875 1.546875 1.1875 4.546875q0 1.984375 -0.578125 3.359375q-0.578125 1.375 -1.59375 2.078125q-1.015625 0.6875 -2.34375 0.6875q-0.859375 0 -1.484375 -0.21875q-0.625 -0.234375 -1.046875 -0.5625q-0.421875 -0.34375 -0.734375 -0.703125l-0.125 0q0.046875 0.375 0.078125 0.890625q0.046875 0.5 0.046875 1.046875l0 4.5l-3.25 0l0 -16.953125l2.65625 0l0.453125 1.53125l0.140625 0q0.328125 -0.5 0.765625 -0.875q0.453125 -0.390625 1.078125 -0.625q0.640625 -0.25 1.5 -0.25zm-1.078125 2.59375q-0.8125 0 -1.3125 0.34375q-0.5 0.34375 -0.71875 1.03125q-0.203125 0.6875 -0.234375 1.75l0 0.34375q0 1.125 0.203125 1.921875q0.21875 0.78125 0.71875 1.1875q0.5 0.40625 1.375 0.40625q0.734375 0 1.21875 -0.40625q0.484375 -0.40625 0.71875 -1.1875q0.234375 -0.796875 0.234375 -1.9375q0 -1.75 -0.546875 -2.59375q-0.546875 -0.859375 -1.65625 -0.859375zm18.965454 -2.375l0 11.78125l-2.5 0l-0.40625 -1.515625l-0.1875 0q-0.375 0.609375 -0.953125 1.0q-0.5625 0.390625 -1.25 0.5625q-0.671875 0.171875 -1.421875 0.171875q-1.265625 0 -2.203125 -0.453125q-0.9375 -0.453125 -1.46875 -1.40625q-0.515625 -0.953125 -0.515625 -2.453125l0 -7.6875l3.28125 0l0 6.859375q0 1.25 0.4375 1.890625q0.4375 0.640625 1.40625 0.640625q1.0 0 1.546875 -0.4375q0.546875 -0.453125 0.765625 -1.3125q0.21875 -0.859375 0.21875 -2.109375l0 -5.53125l3.25 0zm8.244507 9.421875q0.546875 0 1.03125 -0.09375q0.5 -0.109375 1.0 -0.265625l0 2.390625q-0.515625 0.21875 -1.28125 0.375q-0.765625 0.171875 -1.671875 0.171875q-1.0625 0 -1.890625 -0.34375q-0.828125 -0.34375 -1.3125 -1.1875q-0.484375 -0.859375 -0.484375 -2.375l0 -5.671875l-1.53125 0l0 -1.359375l1.765625 -1.078125l0.921875 -2.484375l2.0625 0l0 2.5l3.296875 0l0 2.421875l-3.296875 0l0 5.671875q0 0.671875 0.375 1.0q0.390625 0.328125 1.015625 0.328125z" fill-rule="nonzero"/><path fill="#000000" fill-opacity="0.0" d="m273.30054 149.84892l80.88187 -0.06300354" fill-rule="evenodd"/><path stroke="#000000" stroke-width="1.1548556430446193" stroke-linejoin="round" stroke-linecap="butt" d="m273.30054 149.84892l73.95276 -0.05760193" fill-rule="evenodd"/><path fill="#000000" stroke="#000000" stroke-width="1.1548556430446193" stroke-linecap="butt" d="m347.25476 151.69884l5.23938 -1.9115906l-5.24234 -1.9034424z" fill-rule="evenodd"/><path fill="#000000" fill-opacity="0.0" d="m11.757217 125.56545l261.54333 0l0 48.566933l-261.54333 0z" fill-rule="evenodd"/><path fill="#000000" d="m35.710342 141.87767l-5.515625 15.40625l-1.9375 0l-5.5 -15.40625l2.03125 0l3.46875 9.875q0.234375 0.640625 0.40625 1.21875q0.171875 0.578125 0.3125 1.109375q0.140625 0.53125 0.25 1.046875q0.109375 -0.515625 0.25 -1.046875q0.140625 -0.546875 0.328125 -1.125q0.1875 -0.59375 0.390625 -1.234375l3.453125 -9.84375l2.0625 0zm3.7280884 3.84375l0 11.5625l-1.90625 0l0 -11.5625l1.90625 0zm-0.921875 -4.34375q0.421875 0 0.75 0.296875q0.34375 0.28125 0.34375 0.921875q0 0.59375 -0.34375 0.90625q-0.328125 0.296875 -0.75 0.296875q-0.484375 0 -0.8125 -0.296875q-0.3125 -0.3125 -0.3125 -0.90625q0 -0.640625 0.3125 -0.921875q0.328125 -0.296875 0.8125 -0.296875zm8.692139 16.125q-2.15625 0 -3.453125 -1.5q-1.296875 -1.5 -1.296875 -4.484375q0 -2.96875 1.296875 -4.484375q1.3125 -1.53125 3.46875 -1.53125q0.90625 0 1.578125 0.234375q0.671875 0.21875 1.15625 0.609375q0.5 0.390625 0.84375 0.859375l0.140625 0q-0.03125 -0.28125 -0.09375 -0.828125q-0.046875 -0.546875 -0.046875 -0.875l0 -4.625l1.90625 0l0 16.40625l-1.53125 0l-0.28125 -1.546875l-0.09375 0q-0.34375 0.484375 -0.84375 0.890625q-0.484375 0.390625 -1.171875 0.640625q-0.671875 0.234375 -1.578125 0.234375zm0.296875 -1.578125q1.828125 0 2.578125 -1.0q0.75 -1.0 0.75 -3.03125l0 -0.34375q0 -2.15625 -0.71875 -3.3125q-0.703125 -1.15625 -2.625 -1.15625q-1.53125 0 -2.296875 1.21875q-0.765625 1.21875 -0.765625 3.265625q0 2.078125 0.765625 3.21875q0.765625 1.140625 2.3125 1.140625zm13.333008 -10.421875q1.5 0 2.5625 0.65625q1.0625 0.640625 1.625 1.8125q0.578125 1.171875 0.578125 2.75l0 1.140625l-7.90625 0q0.03125 1.96875 0.984375 3.0q0.96875 1.015625 2.703125 1.015625q1.09375 0 1.9375 -0.203125q0.859375 -0.203125 1.765625 -0.59375l0 1.65625q-0.875 0.390625 -1.75 0.578125q-0.859375 0.1875 -2.046875 0.1875q-1.640625 0 -2.90625 -0.671875q-1.25 -0.671875 -1.953125 -2.0q-0.703125 -1.328125 -0.703125 -3.25q0 -1.890625 0.625 -3.25q0.640625 -1.359375 1.796875 -2.09375q1.15625 -0.734375 2.6875 -0.734375zm-0.015625 1.546875q-1.359375 0 -2.15625 0.875q-0.78125 0.875 -0.9375 2.4375l5.890625 0q0 -1.0 -0.296875 -1.734375q-0.296875 -0.734375 -0.921875 -1.15625q-0.609375 -0.421875 -1.578125 -0.421875zm17.779404 4.4375q0 1.4375 -0.375 2.546875q-0.375 1.109375 -1.078125 1.890625q-0.703125 0.78125 -1.71875 1.1875q-1.0 0.390625 -2.21875 0.390625q-1.15625 0 -2.125 -0.390625q-0.96875 -0.40625 -1.6875 -1.1875q-0.703125 -0.78125 -1.109375 -1.890625q-0.390625 -1.109375 -0.390625 -2.546875q0 -1.921875 0.640625 -3.25q0.65625 -1.328125 1.859375 -2.03125q1.203125 -0.703125 2.875 -0.703125q1.578125 0 2.765625 0.703125q1.203125 0.703125 1.875 2.03125q0.6875 1.328125 0.6875 3.25zm-8.734375 0q0 1.359375 0.34375 2.359375q0.359375 1.0 1.109375 1.546875q0.765625 0.53125 1.921875 0.53125q1.171875 0 1.921875 -0.53125q0.765625 -0.546875 1.109375 -1.546875q0.359375 -1.0 0.359375 -2.359375q0 -1.390625 -0.375 -2.359375q-0.359375 -0.96875 -1.109375 -1.5q-0.734375 -0.53125 -1.921875 -0.53125q-1.765625 0 -2.5625 1.171875q-0.796875 1.15625 -0.796875 3.21875zm21.680664 -9.609375q3.015625 0 4.390625 1.1875q1.390625 1.1875 1.390625 3.34375q0 0.953125 -0.3125 1.828125q-0.3125 0.875 -1.03125 1.5625q-0.703125 0.6875 -1.890625 1.09375q-1.1875 0.390625 -2.921875 0.390625l-1.765625 0l0 6.0l-1.9375 0l0 -15.40625l4.078125 0zm-0.171875 1.65625l-1.96875 0l0 6.09375l1.5625 0q1.46875 0 2.4375 -0.3125q0.96875 -0.3125 1.4375 -1.0q0.484375 -0.703125 0.484375 -1.8125q0 -1.5 -0.953125 -2.234375q-0.953125 -0.734375 -3.0 -0.734375zm14.289108 1.96875q0.3125 0 0.6875 0.03125q0.390625 0.03125 0.671875 0.09375l-0.25 1.75q-0.28125 -0.0625 -0.609375 -0.109375q-0.328125 -0.046875 -0.640625 -0.046875q-0.65625 0 -1.265625 0.28125q-0.609375 0.28125 -1.09375 0.796875q-0.46875 0.5 -0.734375 1.21875q-0.265625 0.703125 -0.265625 1.59375l0 6.171875l-1.90625 0l0 -11.5625l1.5625 0l0.21875 2.109375l0.078125 0q0.375 -0.640625 0.890625 -1.171875q0.515625 -0.53125 1.1875 -0.84375q0.671875 -0.3125 1.46875 -0.3125zm13.136353 5.984375q0 1.4375 -0.375 2.546875q-0.375 1.109375 -1.078125 1.890625q-0.703125 0.78125 -1.71875 1.1875q-1.0 0.390625 -2.21875 0.390625q-1.15625 0 -2.125 -0.390625q-0.96875 -0.40625 -1.6875 -1.1875q-0.703125 -0.78125 -1.109375 -1.890625q-0.390625 -1.109375 -0.390625 -2.546875q0 -1.921875 0.640625 -3.25q0.65625 -1.328125 1.859375 -2.03125q1.203125 -0.703125 2.875 -0.703125q1.578125 0 2.765625 0.703125q1.203125 0.703125 1.875 2.03125q0.6875 1.328125 0.6875 3.25zm-8.734375 0q0 1.359375 0.34375 2.359375q0.359375 1.0 1.109375 1.546875q0.765625 0.53125 1.921875 0.53125q1.171875 0 1.921875 -0.53125q0.765625 -0.546875 1.109375 -1.546875q0.359375 -1.0 0.359375 -2.359375q0 -1.390625 -0.375 -2.359375q-0.359375 -0.96875 -1.109375 -1.5q-0.734375 -0.53125 -1.921875 -0.53125q-1.765625 0 -2.5625 1.171875q-0.796875 1.15625 -0.796875 3.21875zm16.367233 6.015625q-1.53125 0 -2.734375 -0.625q-1.1875 -0.625 -1.875 -1.9375q-0.671875 -1.328125 -0.671875 -3.375q0 -2.140625 0.703125 -3.46875q0.71875 -1.34375 1.9375 -1.96875q1.21875 -0.625 2.78125 -0.625q0.875 0 1.6875 0.1875q0.828125 0.171875 1.34375 0.4375l-0.578125 1.578125q-0.515625 -0.203125 -1.21875 -0.375q-0.6875 -0.171875 -1.28125 -0.171875q-1.171875 0 -1.921875 0.5q-0.75 0.5 -1.125 1.46875q-0.359375 0.96875 -0.359375 2.421875q0 1.375 0.359375 2.34375q0.375 0.96875 1.09375 1.46875q0.734375 0.5 1.84375 0.5q0.953125 0 1.671875 -0.1875q0.71875 -0.203125 1.328125 -0.484375l0 1.6875q-0.578125 0.296875 -1.28125 0.453125q-0.703125 0.171875 -1.703125 0.171875zm10.185608 -12.0q1.5 0 2.5625 0.65625q1.0625 0.640625 1.625 1.8125q0.578125 1.171875 0.578125 2.75l0 1.140625l-7.90625 0q0.03125 1.96875 0.984375 3.0q0.96875 1.015625 2.703125 1.015625q1.09375 0 1.9375 -0.203125q0.859375 -0.203125 1.765625 -0.59375l0 1.65625q-0.875 0.390625 -1.75 0.578125q-0.859375 0.1875 -2.046875 0.1875q-1.640625 0 -2.90625 -0.671875q-1.25 -0.671875 -1.953125 -2.0q-0.703125 -1.328125 -0.703125 -3.25q0 -1.890625 0.625 -3.25q0.640625 -1.359375 1.796875 -2.09375q1.15625 -0.734375 2.6875 -0.734375zm-0.015625 1.546875q-1.359375 0 -2.15625 0.875q-0.78125 0.875 -0.9375 2.4375l5.890625 0q0 -1.0 -0.296875 -1.734375q-0.296875 -0.734375 -0.921875 -1.15625q-0.609375 -0.421875 -1.578125 -0.421875zm15.248154 7.046875q0 1.109375 -0.5625 1.875q-0.546875 0.75 -1.59375 1.140625q-1.03125 0.390625 -2.453125 0.390625q-1.21875 0 -2.09375 -0.203125q-0.859375 -0.1875 -1.53125 -0.53125l0 -1.734375q0.6875 0.34375 1.671875 0.640625q0.984375 0.296875 2.0 0.296875q1.4375 0 2.078125 -0.46875q0.65625 -0.46875 0.65625 -1.234375q0 -0.4375 -0.234375 -0.78125q-0.234375 -0.34375 -0.859375 -0.6875q-0.609375 -0.34375 -1.75 -0.78125q-1.125 -0.4375 -1.921875 -0.859375q-0.796875 -0.4375 -1.234375 -1.03125q-0.4375 -0.609375 -0.4375 -1.5625q0 -1.46875 1.203125 -2.265625q1.203125 -0.796875 3.140625 -0.796875q1.0625 0 1.96875 0.203125q0.921875 0.203125 1.71875 0.578125l-0.640625 1.5q-0.734375 -0.296875 -1.53125 -0.515625q-0.796875 -0.21875 -1.640625 -0.21875q-1.171875 0 -1.796875 0.390625q-0.609375 0.375 -0.609375 1.015625q0 0.484375 0.28125 0.8125q0.28125 0.328125 0.9375 0.640625q0.671875 0.3125 1.765625 0.75q1.09375 0.40625 1.875 0.84375q0.78125 0.4375 1.1875 1.046875q0.40625 0.609375 0.40625 1.546875zm10.335892 0q0 1.109375 -0.5625 1.875q-0.546875 0.75 -1.59375 1.140625q-1.03125 0.390625 -2.453125 0.390625q-1.21875 0 -2.09375 -0.203125q-0.859375 -0.1875 -1.53125 -0.53125l0 -1.734375q0.6875 0.34375 1.671875 0.640625q0.984375 0.296875 2.0 0.296875q1.4375 0 2.078125 -0.46875q0.65625 -0.46875 0.65625 -1.234375q0 -0.4375 -0.234375 -0.78125q-0.234375 -0.34375 -0.859375 -0.6875q-0.609375 -0.34375 -1.75 -0.78125q-1.125 -0.4375 -1.921875 -0.859375q-0.796875 -0.4375 -1.234375 -1.03125q-0.4375 -0.609375 -0.4375 -1.5625q0 -1.46875 1.203125 -2.265625q1.203125 -0.796875 3.140625 -0.796875q1.0625 0 1.96875 0.203125q0.921875 0.203125 1.71875 0.578125l-0.640625 1.5q-0.734375 -0.296875 -1.53125 -0.515625q-0.796875 -0.21875 -1.640625 -0.21875q-1.171875 0 -1.796875 0.390625q-0.609375 0.375 -0.609375 1.015625q0 0.484375 0.28125 0.8125q0.28125 0.328125 0.9375 0.640625q0.671875 0.3125 1.765625 0.75q1.09375 0.40625 1.875 0.84375q0.78125 0.4375 1.1875 1.046875q0.40625 0.609375 0.40625 1.546875zm4.7108917 -8.375l0 11.5625l-1.90625 0l0 -11.5625l1.90625 0zm-0.921875 -4.34375q0.421875 0 0.75 0.296875q0.34375 0.28125 0.34375 0.921875q0 0.59375 -0.34375 0.90625q-0.328125 0.296875 -0.75 0.296875q-0.484375 0 -0.8125 -0.296875q-0.3125 -0.3125 -0.3125 -0.90625q0 -0.640625 0.3125 -0.921875q0.328125 -0.296875 0.8125 -0.296875zm10.160889 4.125q2.0625 0 3.125 1.0q1.0625 1.0 1.0625 3.25l0 7.53125l-1.890625 0l0 -7.40625q0 -1.390625 -0.625 -2.078125q-0.625 -0.703125 -1.953125 -0.703125q-1.921875 0 -2.65625 1.078125q-0.734375 1.078125 -0.734375 3.109375l0 6.0l-1.90625 0l0 -11.5625l1.53125 0l0.28125 1.578125l0.109375 0q0.390625 -0.609375 0.953125 -1.0q0.578125 -0.40625 1.265625 -0.59375q0.703125 -0.203125 1.4375 -0.203125zm11.866501 0q1.140625 0 2.046875 0.4375q0.921875 0.421875 1.578125 1.3125l0.109375 0l0.25 -1.53125l1.515625 0l0 11.75q0 1.640625 -0.5625 2.75q-0.5625 1.125 -1.703125 1.671875q-1.140625 0.5625 -2.921875 0.5625q-1.25 0 -2.296875 -0.1875q-1.046875 -0.171875 -1.859375 -0.546875l0 -1.734375q0.8125 0.421875 1.90625 0.65625q1.109375 0.25 2.359375 0.25q1.5 0 2.34375 -0.875q0.859375 -0.875 0.859375 -2.390625l0 -0.453125q0 -0.25 0.015625 -0.734375q0.03125 -0.5 0.046875 -0.6875l-0.09375 0q-0.59375 0.890625 -1.5 1.328125q-0.890625 0.421875 -2.078125 0.421875q-2.234375 0 -3.5 -1.578125q-1.265625 -1.578125 -1.265625 -4.40625q0 -2.75 1.265625 -4.375q1.265625 -1.640625 3.484375 -1.640625zm0.25 1.59375q-0.96875 0 -1.65625 0.515625q-0.671875 0.515625 -1.03125 1.515625q-0.34375 1.0 -0.34375 2.421875q0 2.125 0.78125 3.265625q0.78125 1.125 2.296875 1.125q0.890625 0 1.515625 -0.21875q0.625 -0.234375 1.03125 -0.71875q0.40625 -0.484375 0.59375 -1.234375q0.203125 -0.75 0.203125 -1.796875l0 -0.453125q0 -1.578125 -0.359375 -2.546875q-0.34375 -0.96875 -1.109375 -1.421875q-0.75 -0.453125 -1.921875 -0.453125zm16.427689 10.1875l-1.90625 0l0 -16.40625l1.90625 0l0 16.40625zm13.723389 -5.796875q0 1.4375 -0.375 2.546875q-0.375 1.109375 -1.078125 1.890625q-0.703125 0.78125 -1.71875 1.1875q-1.0 0.390625 -2.21875 0.390625q-1.15625 0 -2.125 -0.390625q-0.96875 -0.40625 -1.6875 -1.1875q-0.703125 -0.78125 -1.109375 -1.890625q-0.390625 -1.109375 -0.390625 -2.546875q0 -1.921875 0.640625 -3.25q0.65625 -1.328125 1.859375 -2.03125q1.203125 -0.703125 2.875 -0.703125q1.578125 0 2.765625 0.703125q1.203125 0.703125 1.875 2.03125q0.6875 1.328125 0.6875 3.25zm-8.734375 0q0 1.359375 0.34375 2.359375q0.359375 1.0 1.109375 1.546875q0.765625 0.53125 1.921875 0.53125q1.171875 0 1.921875 -0.53125q0.765625 -0.546875 1.109375 -1.546875q0.359375 -1.0 0.359375 -2.359375q0 -1.390625 -0.375 -2.359375q-0.359375 -0.96875 -1.109375 -1.5q-0.734375 -0.53125 -1.921875 -0.53125q-1.765625 0 -2.5625 1.171875q-0.796875 1.15625 -0.796875 3.21875zm15.835983 -5.984375q1.140625 0 2.046875 0.4375q0.921875 0.421875 1.578125 1.3125l0.109375 0l0.25 -1.53125l1.515625 0l0 11.75q0 1.640625 -0.5625 2.75q-0.5625 1.125 -1.703125 1.671875q-1.140625 0.5625 -2.921875 0.5625q-1.25 0 -2.296875 -0.1875q-1.046875 -0.171875 -1.859375 -0.546875l0 -1.734375q0.8125 0.421875 1.90625 0.65625q1.109375 0.25 2.359375 0.25q1.5 0 2.34375 -0.875q0.859375 -0.875 0.859375 -2.390625l0 -0.453125q0 -0.25 0.015625 -0.734375q0.03125 -0.5 0.046875 -0.6875l-0.09375 0q-0.59375 0.890625 -1.5 1.328125q-0.890625 0.421875 -2.078125 0.421875q-2.234375 0 -3.5 -1.578125q-1.265625 -1.578125 -1.265625 -4.40625q0 -2.75 1.265625 -4.375q1.265625 -1.640625 3.484375 -1.640625zm0.25 1.59375q-0.96875 0 -1.65625 0.515625q-0.671875 0.515625 -1.03125 1.515625q-0.34375 1.0 -0.34375 2.421875q0 2.125 0.78125 3.265625q0.78125 1.125 2.296875 1.125q0.890625 0 1.515625 -0.21875q0.625 -0.234375 1.03125 -0.71875q0.40625 -0.484375 0.59375 -1.234375q0.203125 -0.75 0.203125 -1.796875l0 -0.453125q0 -1.578125 -0.359375 -2.546875q-0.34375 -0.96875 -1.109375 -1.421875q-0.75 -0.453125 -1.921875 -0.453125zm10.817383 -1.375l0 11.5625l-1.90625 0l0 -11.5625l1.90625 0zm-0.921875 -4.34375q0.421875 0 0.75 0.296875q0.34375 0.28125 0.34375 0.921875q0 0.59375 -0.34375 0.90625q-0.328125 0.296875 -0.75 0.296875q-0.484375 0 -0.8125 -0.296875q-0.3125 -0.3125 -0.3125 -0.90625q0 -0.640625 0.3125 -0.921875q0.328125 -0.296875 0.8125 -0.296875zm9.223389 16.125q-1.53125 0 -2.734375 -0.625q-1.1875 -0.625 -1.875 -1.9375q-0.671875 -1.328125 -0.671875 -3.375q0 -2.140625 0.703125 -3.46875q0.71875 -1.34375 1.9375 -1.96875q1.21875 -0.625 2.78125 -0.625q0.875 0 1.6875 0.1875q0.828125 0.171875 1.34375 0.4375l-0.578125 1.578125q-0.515625 -0.203125 -1.21875 -0.375q-0.6875 -0.171875 -1.28125 -0.171875q-1.171875 0 -1.921875 0.5q-0.75 0.5 -1.125 1.46875q-0.359375 0.96875 -0.359375 2.421875q0 1.375 0.359375 2.34375q0.375 0.96875 1.09375 1.46875q0.734375 0.5 1.84375 0.5q0.953125 0 1.671875 -0.1875q0.71875 -0.203125 1.328125 -0.484375l0 1.6875q-0.578125 0.296875 -1.28125 0.453125q-0.703125 0.171875 -1.703125 0.171875z" fill-rule="nonzero"/><path fill="#000000" fill-opacity="0.0" d="m757.0451 15.871596l166.2677 0l0 48.566925l-166.2677 0z" fill-rule="evenodd"/><path fill="#000000" d="m769.6232 32.136936l6.171875 0q1.84375 0 2.734375 0.15625q0.90625 0.15625 1.609375 0.640625q0.71875 0.484375 1.1875 1.296875q0.484375 0.796875 0.484375 1.796875q0 1.09375 -0.59375 2.0q-0.578125 0.90625 -1.578125 1.359375q1.40625 0.40625 2.15625 1.40625q0.765625 0.984375 0.765625 2.3125q0 1.0625 -0.5 2.0625q-0.484375 0.984375 -1.328125 1.578125q-0.84375 0.59375 -2.09375 0.734375q-0.78125 0.09375 -3.75 0.109375l-5.265625 0l0 -15.453125zm3.125 2.578125l0 3.578125l2.046875 0q1.8125 0 2.265625 -0.0625q0.796875 -0.09375 1.25 -0.546875q0.453125 -0.46875 0.453125 -1.203125q0 -0.71875 -0.390625 -1.171875q-0.390625 -0.453125 -1.171875 -0.546875q-0.46875 -0.046875 -2.671875 -0.046875l-1.78125 0zm0 6.140625l0 4.125l2.890625 0q1.671875 0 2.125 -0.09375q0.703125 -0.125 1.140625 -0.609375q0.4375 -0.484375 0.4375 -1.3125q0 -0.703125 -0.34375 -1.1875q-0.328125 -0.484375 -0.96875 -0.703125q-0.640625 -0.21875 -2.765625 -0.21875l-2.515625 0zm19.786194 6.734375l0 -1.671875q-0.609375 0.890625 -1.609375 1.40625q-0.984375 0.515625 -2.09375 0.515625q-1.125 0 -2.03125 -0.484375q-0.890625 -0.5 -1.296875 -1.390625q-0.390625 -0.90625 -0.390625 -2.484375l0 -7.078125l2.96875 0l0 5.140625q0 2.359375 0.15625 2.890625q0.15625 0.53125 0.59375 0.84375q0.4375 0.3125 1.09375 0.3125q0.765625 0 1.359375 -0.40625q0.609375 -0.421875 0.828125 -1.03125q0.21875 -0.625 0.21875 -3.03125l0 -4.71875l2.953125 0l0 11.1875l-2.75 0zm4.524536 -11.1875l1.640625 0l0 -0.84375q0 -1.40625 0.296875 -2.09375q0.3125 -0.703125 1.109375 -1.140625q0.8125 -0.4375019 2.046875 -0.4375019q1.265625 0 2.46875 0.3750019l-0.390625 2.0625q-0.703125 -0.171875 -1.359375 -0.171875q-0.640625 0 -0.921875 0.3125q-0.28125 0.296875 -0.28125 1.140625l0 0.796875l2.203125 0l0 2.328125l-2.203125 0l0 8.859375l-2.96875 0l0 -8.859375l-1.640625 0l0 -2.328125zm7.185669 0l1.640625 0l0 -0.84375q0 -1.40625 0.296875 -2.09375q0.3125 -0.703125 1.109375 -1.140625q0.8125 -0.4375019 2.046875 -0.4375019q1.265625 0 2.46875 0.3750019l-0.390625 2.0625q-0.703125 -0.171875 -1.359375 -0.171875q-0.640625 0 -0.921875 0.3125q-0.28125 0.296875 -0.28125 1.140625l0 0.796875l2.203125 0l0 2.328125l-2.203125 0l0 8.859375l-2.96875 0l0 -8.859375l-1.640625 0l0 -2.328125zm14.966919 7.625l2.953125 0.5q-0.578125 1.625 -1.8125 2.46875q-1.21875 0.84375 -3.0625 0.84375q-2.921875 0 -4.3125 -1.90625q-1.109375 -1.53125 -1.109375 -3.859375q0 -2.78125 1.453125 -4.34375q1.453125 -1.578125 3.671875 -1.578125q2.5 0 3.9375 1.65625q1.453125 1.640625 1.390625 5.046875l-7.421875 0q0.03125 1.3125 0.71875 2.046875q0.6875 0.734375 1.703125 0.734375q0.703125 0 1.171875 -0.375q0.46875 -0.390625 0.71875 -1.234375zm0.171875 -2.984375q-0.03125 -1.296875 -0.671875 -1.953125q-0.625 -0.671875 -1.53125 -0.671875q-0.96875 0 -1.609375 0.703125q-0.625 0.703125 -0.625 1.921875l4.4375 0zm8.188232 6.546875l-2.96875 0l0 -11.1875l2.75 0l0 1.59375q0.703125 -1.125 1.265625 -1.484375q0.5625 -0.359375 1.28125 -0.359375q1.015625 0 1.953125 0.546875l-0.921875 2.59375q-0.75 -0.484375 -1.390625 -0.484375q-0.609375 0 -1.046875 0.34375q-0.4375 0.328125 -0.6875 1.234375q-0.234375 0.890625 -0.234375 3.75l0 3.453125zm15.048706 0l0 -12.828125l-4.578125 0l0 -2.625l12.265625 0l0 2.625l-4.5625 0l0 12.828125l-3.125 0zm10.297791 -7.78125l-2.6875 -0.484375q0.453125 -1.625 1.546875 -2.390625q1.109375 -0.78125 3.296875 -0.78125q1.984375 0 2.953125 0.46875q0.96875 0.46875 1.359375 1.1875q0.390625 0.71875 0.390625 2.640625l-0.03125 3.46875q0 1.46875 0.140625 2.171875q0.15625 0.703125 0.546875 1.5l-2.9375 0q-0.109375 -0.296875 -0.28125 -0.875q-0.078125 -0.265625 -0.109375 -0.34375q-0.75 0.734375 -1.625 1.109375q-0.859375 0.359375 -1.84375 0.359375q-1.71875 0 -2.71875 -0.9375q-1.0 -0.9375 -1.0 -2.375q0 -0.9375 0.453125 -1.671875q0.453125 -0.75 1.265625 -1.140625q0.828125 -0.40625 2.359375 -0.703125q2.078125 -0.390625 2.875 -0.71875l0 -0.296875q0 -0.859375 -0.421875 -1.21875q-0.421875 -0.359375 -1.59375 -0.359375q-0.78125 0 -1.234375 0.3125q-0.4375 0.296875 -0.703125 1.078125zm3.953125 2.40625q-0.5625 0.1875 -1.796875 0.453125q-1.234375 0.265625 -1.609375 0.515625q-0.578125 0.40625 -0.578125 1.046875q0 0.625 0.453125 1.078125q0.46875 0.453125 1.1875 0.453125q0.796875 0 1.53125 -0.53125q0.53125 -0.40625 0.703125 -0.984375q0.109375 -0.375 0.109375 -1.4375l0 -0.59375zm8.672607 5.375l-2.96875 0l0 -11.1875l2.75 0l0 1.59375q0.703125 -1.125 1.265625 -1.484375q0.5625 -0.359375 1.28125 -0.359375q1.015625 0 1.953125 0.546875l-0.921875 2.59375q-0.75 -0.484375 -1.390625 -0.484375q-0.609375 0 -1.046875 0.34375q-0.4375 0.328125 -0.6875 1.234375q-0.234375 0.890625 -0.234375 3.75l0 3.453125zm5.287964 0.734375l3.375 0.421875q0.078125 0.578125 0.390625 0.796875q0.421875 0.328125 1.328125 0.328125q1.15625 0 1.734375 -0.359375q0.390625 -0.21875 0.59375 -0.734375q0.140625 -0.375 0.140625 -1.359375l0 -1.640625q-1.328125 1.8125 -3.359375 1.8125q-2.25 0 -3.5625 -1.90625q-1.03125 -1.5 -1.03125 -3.75q0 -2.8125 1.34375 -4.296875q1.359375 -1.484375 3.375 -1.484375q2.078125 0 3.421875 1.8125l0 -1.5625l2.765625 0l0 10.03125q0 1.984375 -0.328125 2.96875q-0.328125 0.984375 -0.921875 1.53125q-0.578125 0.5625 -1.5625 0.875q-0.984375 0.328125 -2.5 0.328125q-2.84375 0 -4.03125 -0.984375q-1.1875 -0.96875 -1.1875 -2.46875q0 -0.140625 0.015625 -0.359375zm2.640625 -6.5625q0 1.78125 0.6875 2.609375q0.6875 0.828125 1.703125 0.828125q1.078125 0 1.828125 -0.84375q0.75 -0.859375 0.75 -2.515625q0 -1.734375 -0.71875 -2.578125q-0.71875 -0.84375 -1.8125 -0.84375q-1.0625 0 -1.75 0.828125q-0.6875 0.828125 -0.6875 2.515625zm17.290161 2.265625l2.953125 0.5q-0.578125 1.625 -1.8125 2.46875q-1.21875 0.84375 -3.0625 0.84375q-2.921875 0 -4.3125 -1.90625q-1.109375 -1.53125 -1.109375 -3.859375q0 -2.78125 1.453125 -4.34375q1.453125 -1.578125 3.671875 -1.578125q2.5 0 3.9375 1.65625q1.453125 1.640625 1.390625 5.046875l-7.421875 0q0.03125 1.3125 0.71875 2.046875q0.6875 0.734375 1.703125 0.734375q0.703125 0 1.171875 -0.375q0.46875 -0.390625 0.71875 -1.234375zm0.171875 -2.984375q-0.03125 -1.296875 -0.671875 -1.953125q-0.625 -0.671875 -1.53125 -0.671875q-0.96875 0 -1.609375 0.703125q-0.625 0.703125 -0.625 1.921875l4.4375 0zm10.485107 -4.640625l0 2.359375l-2.03125 0l0 4.515625q0 1.359375 0.046875 1.59375q0.0625 0.21875 0.265625 0.375q0.21875 0.140625 0.515625 0.140625q0.40625 0 1.1875 -0.28125l0.25 2.296875q-1.03125 0.4375 -2.34375 0.4375q-0.796875 0 -1.4375 -0.265625q-0.640625 -0.265625 -0.953125 -0.6875q-0.296875 -0.4375 -0.40625 -1.15625q-0.09375 -0.515625 -0.09375 -2.09375l0 -4.875l-1.359375 0l0 -2.359375l1.359375 0l0 -2.21875l2.96875 -1.734375l0 3.953125l2.03125 0z" fill-rule="nonzero"/><path fill="#000000" fill-opacity="0.0" d="m750.6149 124.10888l209.3858 0l0 48.566933l-209.3858 0z" fill-rule="evenodd"/><path fill="#000000" d="m763.2087 155.82735l0 -15.453125l10.59375 0l0 2.625l-7.484375 0l0 3.65625l6.453125 0l0 2.609375l-6.453125 0l0 6.5625l-3.109375 0zm13.133911 -12.703125l0 -2.75l2.96875 0l0 2.75l-2.96875 0zm0 12.703125l0 -11.1875l2.96875 0l0 11.1875l-2.96875 0zm5.995056 0l0 -15.453125l2.96875 0l0 15.453125l-2.96875 0zm12.479492 -3.5625l2.953125 0.5q-0.578125 1.625 -1.8125 2.46875q-1.21875 0.84375 -3.0625 0.84375q-2.921875 0 -4.3125 -1.90625q-1.109375 -1.53125 -1.109375 -3.859375q0 -2.78125 1.453125 -4.34375q1.453125 -1.578125 3.671875 -1.578125q2.5 0 3.9375 1.65625q1.453125 1.640625 1.390625 5.046875l-7.421875 0q0.03125 1.3125 0.71875 2.046875q0.6875 0.734375 1.703125 0.734375q0.703125 0 1.171875 -0.375q0.46875 -0.390625 0.71875 -1.234375zm0.171875 -2.984375q-0.03125 -1.296875 -0.671875 -1.953125q-0.625 -0.671875 -1.53125 -0.671875q-0.96875 0 -1.609375 0.703125q-0.625 0.703125 -0.625 1.921875l4.4375 0zm5.3601074 6.546875l0 -15.453125l5.015625 0q2.84375 0 3.703125 0.234375q1.328125 0.359375 2.21875 1.53125q0.90625 1.15625 0.90625 3.0q0 1.421875 -0.515625 2.390625q-0.515625 0.96875 -1.3125 1.515625q-0.796875 0.546875 -1.625 0.734375q-1.109375 0.21875 -3.234375 0.21875l-2.03125 0l0 5.828125l-3.125 0zm3.125 -12.828125l0 4.375l1.703125 0q1.84375 0 2.46875 -0.234375q0.625 -0.25 0.96875 -0.765625q0.359375 -0.515625 0.359375 -1.203125q0 -0.84375 -0.5 -1.390625q-0.484375 -0.546875 -1.25 -0.6875q-0.5625 -0.09375 -2.25 -0.09375l-1.5 0zm13.470581 5.046875l-2.6875 -0.484375q0.453125 -1.625 1.546875 -2.390625q1.109375 -0.78125 3.296875 -0.78125q1.984375 0 2.953125 0.46875q0.96875 0.46875 1.359375 1.1875q0.390625 0.71875 0.390625 2.640625l-0.03125 3.46875q0 1.46875 0.140625 2.171875q0.15625 0.703125 0.546875 1.5l-2.9375 0q-0.109375 -0.296875 -0.28125 -0.875q-0.078125 -0.265625 -0.109375 -0.34375q-0.75 0.734375 -1.625 1.109375q-0.859375 0.359375 -1.84375 0.359375q-1.71875 0 -2.71875 -0.9375q-1.0 -0.9375 -1.0 -2.375q0 -0.9375 0.453125 -1.671875q0.453125 -0.75 1.265625 -1.140625q0.828125 -0.40625 2.359375 -0.703125q2.078125 -0.390625 2.875 -0.71875l0 -0.296875q0 -0.859375 -0.421875 -1.21875q-0.421875 -0.359375 -1.59375 -0.359375q-0.78125 0 -1.234375 0.3125q-0.4375 0.296875 -0.703125 1.078125zm3.953125 2.40625q-0.5625 0.1875 -1.796875 0.453125q-1.234375 0.265625 -1.609375 0.515625q-0.578125 0.40625 -0.578125 1.046875q0 0.625 0.453125 1.078125q0.46875 0.453125 1.1875 0.453125q0.796875 0 1.53125 -0.53125q0.53125 -0.40625 0.703125 -0.984375q0.109375 -0.375 0.109375 -1.4375l0 -0.59375zm10.969482 -5.8125l0 2.359375l-2.03125 0l0 4.515625q0 1.359375 0.046875 1.59375q0.0625 0.21875 0.265625 0.375q0.21875 0.140625 0.515625 0.140625q0.40625 0 1.1875 -0.28125l0.25 2.296875q-1.03125 0.4375 -2.34375 0.4375q-0.796875 0 -1.4375 -0.265625q-0.640625 -0.265625 -0.953125 -0.6875q-0.296875 -0.4375 -0.40625 -1.15625q-0.09375 -0.515625 -0.09375 -2.09375l0 -4.875l-1.359375 0l0 -2.359375l1.359375 0l0 -2.21875l2.96875 -1.734375l0 3.953125l2.03125 0zm4.998169 -4.265625l0 5.6875q1.4375 -1.671875 3.421875 -1.671875q1.015625 0 1.84375 0.375q0.828125 0.375 1.234375 0.96875q0.421875 0.59375 0.578125 1.3125q0.15625 0.703125 0.15625 2.21875l0 6.5625l-2.96875 0l0 -5.90625q0 -1.765625 -0.171875 -2.234375q-0.171875 -0.484375 -0.59375 -0.75q-0.421875 -0.28125 -1.0625 -0.28125q-0.75 0 -1.328125 0.359375q-0.578125 0.359375 -0.84375 1.078125q-0.265625 0.71875 -0.265625 2.125l0 5.609375l-2.96875 0l0 -15.453125l2.96875 0zm19.722778 15.453125l0 -12.828125l-4.578125 0l0 -2.625l12.265625 0l0 2.625l-4.5625 0l0 12.828125l-3.125 0zm10.2977295 -7.78125l-2.6875 -0.484375q0.453125 -1.625 1.546875 -2.390625q1.109375 -0.78125 3.296875 -0.78125q1.984375 0 2.953125 0.46875q0.96875 0.46875 1.359375 1.1875q0.390625 0.71875 0.390625 2.640625l-0.03125 3.46875q0 1.46875 0.140625 2.171875q0.15625 0.703125 0.546875 1.5l-2.9375 0q-0.109375 -0.296875 -0.28125 -0.875q-0.078125 -0.265625 -0.109375 -0.34375q-0.75 0.734375 -1.625 1.109375q-0.859375 0.359375 -1.84375 0.359375q-1.71875 0 -2.71875 -0.9375q-1.0 -0.9375 -1.0 -2.375q0 -0.9375 0.453125 -1.671875q0.453125 -0.75 1.265625 -1.140625q0.828125 -0.40625 2.359375 -0.703125q2.078125 -0.390625 2.875 -0.71875l0 -0.296875q0 -0.859375 -0.421875 -1.21875q-0.421875 -0.359375 -1.59375 -0.359375q-0.78125 0 -1.234375 0.3125q-0.4375 0.296875 -0.703125 1.078125zm3.953125 2.40625q-0.5625 0.1875 -1.796875 0.453125q-1.234375 0.265625 -1.609375 0.515625q-0.578125 0.40625 -0.578125 1.046875q0 0.625 0.453125 1.078125q0.46875 0.453125 1.1875 0.453125q0.796875 0 1.53125 -0.53125q0.53125 -0.40625 0.703125 -0.984375q0.109375 -0.375 0.109375 -1.4375l0 -0.59375zm8.672607 5.375l-2.96875 0l0 -11.1875l2.75 0l0 1.59375q0.703125 -1.125 1.265625 -1.484375q0.5625 -0.359375 1.28125 -0.359375q1.015625 0 1.953125 0.546875l-0.921875 2.59375q-0.75 -0.484375 -1.390625 -0.484375q-0.609375 0 -1.046875 0.34375q-0.4375 0.328125 -0.6875 1.234375q-0.234375 0.890625 -0.234375 3.75l0 3.453125zm5.288025 0.734375l3.375 0.421875q0.078125 0.578125 0.390625 0.796875q0.421875 0.328125 1.328125 0.328125q1.15625 0 1.734375 -0.359375q0.390625 -0.21875 0.59375 -0.734375q0.140625 -0.375 0.140625 -1.359375l0 -1.640625q-1.328125 1.8125 -3.359375 1.8125q-2.25 0 -3.5625 -1.90625q-1.03125 -1.5 -1.03125 -3.75q0 -2.8125 1.34375 -4.296875q1.359375 -1.484375 3.375 -1.484375q2.078125 0 3.421875 1.8125l0 -1.5625l2.765625 0l0 10.03125q0 1.984375 -0.328125 2.96875q-0.328125 0.984375 -0.921875 1.53125q-0.578125 0.5625 -1.5625 0.875q-0.984375 0.328125 -2.5 0.328125q-2.84375 0 -4.03125 -0.984375q-1.1875 -0.96875 -1.1875 -2.46875q0 -0.140625 0.015625 -0.359375zm2.640625 -6.5625q0 1.78125 0.6875 2.609375q0.6875 0.828125 1.703125 0.828125q1.078125 0 1.828125 -0.84375q0.75 -0.859375 0.75 -2.515625q0 -1.734375 -0.71875 -2.578125q-0.71875 -0.84375 -1.8125 -0.84375q-1.0625 0 -1.75 0.828125q-0.6875 0.828125 -0.6875 2.515625zm17.290161 2.265625l2.953125 0.5q-0.578125 1.625 -1.8125 2.46875q-1.21875 0.84375 -3.0625 0.84375q-2.921875 0 -4.3125 -1.90625q-1.109375 -1.53125 -1.109375 -3.859375q0 -2.78125 1.453125 -4.34375q1.453125 -1.578125 3.671875 -1.578125q2.5 0 3.9375 1.65625q1.453125 1.640625 1.390625 5.046875l-7.421875 0q0.03125 1.3125 0.71875 2.046875q0.6875 0.734375 1.703125 0.734375q0.703125 0 1.171875 -0.375q0.46875 -0.390625 0.71875 -1.234375zm0.171875 -2.984375q-0.03125 -1.296875 -0.671875 -1.953125q-0.625 -0.671875 -1.53125 -0.671875q-0.96875 0 -1.609375 0.703125q-0.625 0.703125 -0.625 1.921875l4.4375 0zm10.485107 -4.640625l0 2.359375l-2.03125 0l0 4.515625q0 1.359375 0.046875 1.59375q0.0625 0.21875 0.265625 0.375q0.21875 0.140625 0.515625 0.140625q0.40625 0 1.1875 -0.28125l0.25 2.296875q-1.03125 0.4375 -2.34375 0.4375q-0.796875 0 -1.4375 -0.265625q-0.640625 -0.265625 -0.953125 -0.6875q-0.296875 -0.4375 -0.40625 -1.15625q-0.09375 -0.515625 -0.09375 -2.09375l0 -4.875l-1.359375 0l0 -2.359375l1.359375 0l0 -2.21875l2.96875 -1.734375l0 3.953125l2.03125 0z" fill-rule="nonzero"/><path fill="#000000" fill-opacity="0.0" d="m752.5085 232.34464l205.60626 0l0 48.566925l-205.60626 0z" fill-rule="evenodd"/><path fill="#000000" d="m764.28973 259.03186l3.03125 -0.296875q0.28125 1.53125 1.109375 2.25q0.84375 0.71875 2.265625 0.71875q1.5 0 2.265625 -0.640625q0.765625 -0.640625 0.765625 -1.484375q0 -0.546875 -0.328125 -0.9375q-0.3125 -0.390625 -1.109375 -0.671875q-0.546875 -0.1875 -2.5 -0.671875q-2.515625 -0.625 -3.515625 -1.53125q-1.421875 -1.265625 -1.421875 -3.109375q0 -1.171875 0.65625 -2.203125q0.671875 -1.03125 1.921875 -1.5625q1.265625 -0.53125 3.046875 -0.53125q2.921875 0 4.390625 1.28125q1.46875 1.265625 1.53125 3.390625l-3.109375 0.140625q-0.203125 -1.1875 -0.859375 -1.703125q-0.65625 -0.53125 -1.984375 -0.53125q-1.359375 0 -2.125 0.5625q-0.5 0.34375 -0.5 0.953125q0 0.546875 0.46875 0.9375q0.59375 0.5 2.859375 1.03125q2.28125 0.53125 3.375 1.109375q1.09375 0.578125 1.703125 1.578125q0.625 0.984375 0.625 2.453125q0 1.328125 -0.75 2.484375q-0.734375 1.15625 -2.078125 1.734375q-1.34375 0.5625 -3.359375 0.5625q-2.9375 0 -4.515625 -1.359375q-1.5625 -1.359375 -1.859375 -3.953125zm20.298645 -6.15625l0 2.359375l-2.03125 0l0 4.515625q0 1.359375 0.046875 1.59375q0.0625 0.21875 0.265625 0.375q0.21875 0.140625 0.515625 0.140625q0.40625 0 1.1875 -0.28125l0.25 2.296875q-1.03125 0.4375 -2.34375 0.4375q-0.796875 0 -1.4375 -0.265625q-0.640625 -0.265625 -0.953125 -0.6875q-0.296875 -0.4375 -0.40625 -1.15625q-0.09375 -0.515625 -0.09375 -2.09375l0 -4.875l-1.359375 0l0 -2.359375l1.359375 0l0 -2.21875l2.96875 -1.734375l0 3.953125l2.03125 0zm4.888855 11.1875l-2.96875 0l0 -11.1875l2.75 0l0 1.59375q0.703125 -1.125 1.265625 -1.484375q0.5625 -0.359375 1.28125 -0.359375q1.015625 0 1.953125 0.546875l-0.921875 2.59375q-0.75 -0.484375 -1.390625 -0.484375q-0.609375 0 -1.046875 0.34375q-0.4375 0.328125 -0.6875 1.234375q-0.234375 0.890625 -0.234375 3.75l0 3.453125zm12.037964 -3.5625l2.953125 0.5q-0.578125 1.625 -1.8125 2.46875q-1.21875 0.84375 -3.0625 0.84375q-2.921875 0 -4.3125 -1.90625q-1.109375 -1.53125 -1.109375 -3.859375q0 -2.78125 1.453125 -4.34375q1.453125 -1.578125 3.671875 -1.578125q2.5 0 3.9375 1.65625q1.453125 1.640625 1.390625 5.046875l-7.421875 0q0.03125 1.3125 0.71875 2.046875q0.6875 0.734375 1.703125 0.734375q0.703125 0 1.171875 -0.375q0.46875 -0.390625 0.71875 -1.234375zm0.171875 -2.984375q-0.03125 -1.296875 -0.671875 -1.953125q-0.625 -0.671875 -1.53125 -0.671875q-0.96875 0 -1.609375 0.703125q-0.625 0.703125 -0.625 1.921875l4.4375 0zm7.5632324 -1.234375l-2.6875 -0.484375q0.453125 -1.625 1.546875 -2.390625q1.109375 -0.78125 3.296875 -0.78125q1.984375 0 2.953125 0.46875q0.96875 0.46875 1.359375 1.1875q0.390625 0.71875 0.390625 2.640625l-0.03125 3.46875q0 1.46875 0.140625 2.171875q0.15625 0.703125 0.546875 1.5l-2.9375 0q-0.109375 -0.296875 -0.28125 -0.875q-0.078125 -0.265625 -0.109375 -0.34375q-0.75 0.734375 -1.625 1.109375q-0.859375 0.359375 -1.84375 0.359375q-1.71875 0 -2.71875 -0.9375q-1.0 -0.9375 -1.0 -2.375q0 -0.9375 0.453125 -1.671875q0.453125 -0.75 1.265625 -1.140625q0.828125 -0.40625 2.359375 -0.703125q2.078125 -0.390625 2.875 -0.71875l0 -0.296875q0 -0.859375 -0.421875 -1.21875q-0.421875 -0.359375 -1.59375 -0.359375q-0.78125 0 -1.234375 0.3125q-0.4375 0.296875 -0.703125 1.078125zm3.953125 2.40625q-0.5625 0.1875 -1.796875 0.453125q-1.234375 0.265625 -1.609375 0.515625q-0.578125 0.40625 -0.578125 1.046875q0 0.625 0.453125 1.078125q0.46875 0.453125 1.1875 0.453125q0.796875 0 1.53125 -0.53125q0.53125 -0.40625 0.703125 -0.984375q0.109375 -0.375 0.109375 -1.4375l0 -0.59375zm5.6101074 -5.8125l2.734375 0l0 1.53125q1.453125 -1.78125 3.484375 -1.78125q1.078125 0 1.859375 0.4375q0.796875 0.4375 1.296875 1.34375q0.734375 -0.90625 1.59375 -1.34375q0.859375 -0.4375 1.828125 -0.4375q1.21875 0 2.078125 0.5q0.859375 0.5 1.28125 1.46875q0.296875 0.71875 0.296875 2.3125l0 7.15625l-2.953125 0l0 -6.390625q0 -1.671875 -0.3125 -2.15625q-0.40625 -0.625 -1.265625 -0.625q-0.609375 0 -1.171875 0.375q-0.546875 0.375 -0.796875 1.109375q-0.234375 0.734375 -0.234375 2.3125l0 5.375l-2.953125 0l0 -6.125q0 -1.640625 -0.15625 -2.109375q-0.15625 -0.484375 -0.5 -0.703125q-0.328125 -0.234375 -0.890625 -0.234375q-0.6875 0 -1.234375 0.375q-0.546875 0.359375 -0.796875 1.0625q-0.234375 0.6875 -0.234375 2.296875l0 5.4375l-2.953125 0l0 -11.1875zm28.900269 11.1875l0 -12.828125l-4.578125 0l0 -2.625l12.265625 0l0 2.625l-4.5625 0l0 12.828125l-3.125 0zm10.2977295 -7.78125l-2.6875 -0.484375q0.453125 -1.625 1.546875 -2.390625q1.109375 -0.78125 3.296875 -0.78125q1.984375 0 2.953125 0.46875q0.96875 0.46875 1.359375 1.1875q0.390625 0.71875 0.390625 2.640625l-0.03125 3.46875q0 1.46875 0.140625 2.171875q0.15625 0.703125 0.546875 1.5l-2.9375 0q-0.109375 -0.296875 -0.28125 -0.875q-0.078125 -0.265625 -0.109375 -0.34375q-0.75 0.734375 -1.625 1.109375q-0.859375 0.359375 -1.84375 0.359375q-1.71875 0 -2.71875 -0.9375q-1.0 -0.9375 -1.0 -2.375q0 -0.9375 0.453125 -1.671875q0.453125 -0.75 1.265625 -1.140625q0.828125 -0.40625 2.359375 -0.703125q2.078125 -0.390625 2.875 -0.71875l0 -0.296875q0 -0.859375 -0.421875 -1.21875q-0.421875 -0.359375 -1.59375 -0.359375q-0.78125 0 -1.234375 0.3125q-0.4375 0.296875 -0.703125 1.078125zm3.953125 2.40625q-0.5625 0.1875 -1.796875 0.453125q-1.234375 0.265625 -1.609375 0.515625q-0.578125 0.40625 -0.578125 1.046875q0 0.625 0.453125 1.078125q0.46875 0.453125 1.1875 0.453125q0.796875 0 1.53125 -0.53125q0.53125 -0.40625 0.703125 -0.984375q0.109375 -0.375 0.109375 -1.4375l0 -0.59375zm8.672607 5.375l-2.96875 0l0 -11.1875l2.75 0l0 1.59375q0.703125 -1.125 1.265625 -1.484375q0.5625 -0.359375 1.28125 -0.359375q1.015625 0 1.953125 0.546875l-0.921875 2.59375q-0.75 -0.484375 -1.390625 -0.484375q-0.609375 0 -1.046875 0.34375q-0.4375 0.328125 -0.6875 1.234375q-0.234375 0.890625 -0.234375 3.75l0 3.453125zm5.288025 0.734375l3.375 0.421875q0.078125 0.578125 0.390625 0.796875q0.421875 0.328125 1.328125 0.328125q1.15625 0 1.734375 -0.359375q0.390625 -0.21875 0.59375 -0.734375q0.140625 -0.375 0.140625 -1.359375l0 -1.640625q-1.328125 1.8125 -3.359375 1.8125q-2.25 0 -3.5625 -1.90625q-1.03125 -1.5 -1.03125 -3.75q0 -2.8125 1.34375 -4.296875q1.359375 -1.484375 3.375 -1.484375q2.078125 0 3.421875 1.8125l0 -1.5625l2.765625 0l0 10.03125q0 1.984375 -0.328125 2.96875q-0.328125 0.984375 -0.921875 1.53125q-0.578125 0.5625 -1.5625 0.875q-0.984375 0.328125 -2.5 0.328125q-2.84375 0 -4.03125 -0.984375q-1.1875 -0.96875 -1.1875 -2.46875q0 -0.140625 0.015625 -0.359375zm2.640625 -6.5625q0 1.78125 0.6875 2.609375q0.6875 0.828125 1.703125 0.828125q1.078125 0 1.828125 -0.84375q0.75 -0.859375 0.75 -2.515625q0 -1.734375 -0.71875 -2.578125q-0.71875 -0.84375 -1.8125 -0.84375q-1.0625 0 -1.75 0.828125q-0.6875 0.828125 -0.6875 2.515625zm17.290161 2.265625l2.953125 0.5q-0.578125 1.625 -1.8125 2.46875q-1.21875 0.84375 -3.0625 0.84375q-2.921875 0 -4.3125 -1.90625q-1.109375 -1.53125 -1.109375 -3.859375q0 -2.78125 1.453125 -4.34375q1.453125 -1.578125 3.671875 -1.578125q2.5 0 3.9375 1.65625q1.453125 1.640625 1.390625 5.046875l-7.421875 0q0.03125 1.3125 0.71875 2.046875q0.6875 0.734375 1.703125 0.734375q0.703125 0 1.171875 -0.375q0.46875 -0.390625 0.71875 -1.234375zm0.171875 -2.984375q-0.03125 -1.296875 -0.671875 -1.953125q-0.625 -0.671875 -1.53125 -0.671875q-0.96875 0 -1.609375 0.703125q-0.625 0.703125 -0.625 1.921875l4.4375 0zm10.485107 -4.640625l0 2.359375l-2.03125 0l0 4.515625q0 1.359375 0.046875 1.59375q0.0625 0.21875 0.265625 0.375q0.21875 0.140625 0.515625 0.140625q0.40625 0 1.1875 -0.28125l0.25 2.296875q-1.03125 0.4375 -2.34375 0.4375q-0.796875 0 -1.4375 -0.265625q-0.640625 -0.265625 -0.953125 -0.6875q-0.296875 -0.4375 -0.40625 -1.15625q-0.09375 -0.515625 -0.09375 -2.09375l0 -4.875l-1.359375 0l0 -2.359375l1.359375 0l0 -2.21875l2.96875 -1.734375l0 3.953125l2.03125 0z" fill-rule="nonzero"/><path fill="#000000" fill-opacity="0.0" d="m560.34717 148.39235l190.26776 0" fill-rule="evenodd"/><path stroke="#000000" stroke-width="1.1548556430446193" stroke-linejoin="round" stroke-linecap="butt" d="m560.34717 148.39233l183.33862 0" fill-rule="evenodd"/><path fill="#000000" stroke="#000000" stroke-width="1.1548556430446193" stroke-linecap="butt" d="m743.6858 150.29985l5.2408447 -1.9075165l-5.2408447 -1.9075165z" fill-rule="evenodd"/><path fill="#000000" fill-opacity="0.0" d="m667.88403 41.247887l0 217.19684" fill-rule="evenodd"/><path stroke="#000000" stroke-width="1.1548556430446193" stroke-linejoin="round" stroke-linecap="butt" d="m667.88403 41.247887l0 217.19684" fill-rule="evenodd"/><path fill="#000000" fill-opacity="0.0" d="m667.2923 41.247887l96.31494 0" fill-rule="evenodd"/><path stroke="#000000" stroke-width="1.1548556430446193" stroke-linejoin="round" stroke-linecap="butt" d="m667.2923 41.247887l96.31494 0" fill-rule="evenodd"/><path fill="#000000" fill-opacity="0.0" d="m667.67163 258.0168l89.35431 0" fill-rule="evenodd"/><path stroke="#000000" stroke-width="1.1548556430446193" stroke-linejoin="round" stroke-linecap="butt" d="m667.67163 258.0168l89.35431 0" fill-rule="evenodd"/></g></svg>