<svg version="1.1" viewBox="0.0 0.0 1152.0 576.0" fill="none" stroke="none" stroke-linecap="square" stroke-miterlimit="10" xmlns:xlink="http://www.w3.org/1999/xlink" xmlns="http://www.w3.org/2000/svg"><clipPath id="p.0"><path d="m0 0l1152.0 0l0 576.0l-1152.0 0l0 -576.0z" clip-rule="nonzero"/></clipPath><g clip-path="url(#p.0)"><path fill="#ffffff" d="m0 0l1152.0 0l0 576.0l-1152.0 0z" fill-rule="evenodd"/><path fill="#000000" fill-opacity="0.0" d="m58.053806 66.91076l487.43307 0l0 182.70865l-487.43307 0z" fill-rule="evenodd"/><path stroke="#000000" stroke-width="1.0" stroke-linejoin="round" stroke-linecap="butt" d="m58.053806 66.91076l487.43307 0l0 182.70865l-487.43307 0z" fill-rule="evenodd"/><path fill="#000000" fill-opacity="0.0" d="m55.09055 28.249344l401.6693 0l0 42.015747l-401.6693 0z" fill-rule="evenodd"/><path fill="#000000" d="m64.76243 50.825592l2.625 -0.25q0.234375 1.3125 0.953125 1.9375q0.734375 0.609375 1.96875 0.609375q1.296875 0 1.953125 -0.546875q0.671875 -0.546875 0.671875 -1.28125q0 -0.484375 -0.28125 -0.8125q-0.28125 -0.328125 -0.96875 -0.578125q-0.484375 -0.15625 -2.171875 -0.578125q-2.15625 -0.546875 -3.03125 -1.328125q-1.234375 -1.09375 -1.234375 -2.6875q0 -1.015625 0.578125 -1.90625q0.578125 -0.890625 1.65625 -1.34375q1.09375 -0.46875 2.640625 -0.46875q2.515625 0 3.78125 1.109375q1.28125 1.09375 1.34375 2.9375l-2.703125 0.109375q-0.171875 -1.03125 -0.75 -1.46875q-0.5625 -0.453125 -1.703125 -0.453125q-1.171875 0 -1.84375 0.46875q-0.421875 0.3125 -0.421875 0.84375q0 0.46875 0.40625 0.796875q0.5 0.4375 2.46875 0.90625q1.96875 0.453125 2.90625 0.953125q0.953125 0.5 1.484375 1.359375q0.53125 0.859375 0.53125 2.125q0 1.15625 -0.640625 2.15625q-0.640625 1.0 -1.8125 1.484375q-1.15625 0.484375 -2.890625 0.484375q-2.53125 0 -3.890625 -1.171875q-1.359375 -1.171875 -1.625 -3.40625zm18.709198 1.265625l2.546875 0.421875q-0.484375 1.40625 -1.546875 2.140625q-1.0625 0.734375 -2.65625 0.734375q-2.515625 0 -3.734375 -1.65625q-0.953125 -1.3125 -0.953125 -3.328125q0 -2.40625 1.25 -3.765625q1.265625 -1.359375 3.1875 -1.359375q2.15625 0 3.40625 1.421875q1.25 1.421875 1.1875 4.375l-6.40625 0q0.03125 1.140625 0.609375 1.78125q0.59375 0.625 1.484375 0.625q0.59375 0 1.0 -0.328125q0.421875 -0.328125 0.625 -1.0625zm0.15625 -2.59375q-0.03125 -1.109375 -0.578125 -1.6875q-0.546875 -0.578125 -1.328125 -0.578125q-0.84375 0 -1.390625 0.609375q-0.546875 0.609375 -0.53125 1.65625l3.828125 0zm7.078842 5.671875l-2.5625 0l0 -9.671875l2.375 0l0 1.375q0.609375 -0.984375 1.09375 -1.28125q0.484375 -0.3125 1.109375 -0.3125q0.875 0 1.6875 0.484375l-0.796875 2.234375q-0.640625 -0.421875 -1.203125 -0.421875q-0.53125 0 -0.90625 0.296875q-0.375 0.296875 -0.59375 1.078125q-0.203125 0.765625 -0.203125 3.234375l0 2.984375zm7.463394 0l-3.90625 -9.671875l2.6875 0l1.828125 4.9375l0.53125 1.640625q0.203125 -0.625 0.265625 -0.828125q0.125 -0.40625 0.265625 -0.8125l1.84375 -4.9375l2.625 0l-3.84375 9.671875l-2.296875 0zm13.313217 -3.078125l2.546875 0.421875q-0.484375 1.40625 -1.546875 2.140625q-1.0625 0.734375 -2.65625 0.734375q-2.515625 0 -3.734375 -1.65625q-0.953125 -1.3125 -0.953125 -3.328125q0 -2.40625 1.25 -3.765625q1.265625 -1.359375 3.1875 -1.359375q2.15625 0 3.40625 1.421875q1.25 1.421875 1.1875 4.375l-6.40625 0q0.03125 1.140625 0.609375 1.78125q0.59375 0.625 1.484375 0.625q0.59375 0 1.0 -0.328125q0.421875 -0.328125 0.625 -1.0625zm0.15625 -2.59375q-0.03125 -1.109375 -0.578125 -1.6875q-0.546875 -0.578125 -1.328125 -0.578125q-0.84375 0 -1.390625 0.609375q-0.546875 0.609375 -0.53125 1.65625l3.828125 0zm7.078842 5.671875l-2.5625 0l0 -9.671875l2.375 0l0 1.375q0.609375 -0.984375 1.09375 -1.28125q0.484375 -0.3125 1.109375 -0.3125q0.875 0 1.6875 0.484375l-0.796875 2.234375q-0.640625 -0.421875 -1.203125 -0.421875q-0.53125 0 -0.90625 0.296875q-0.375 0.296875 -0.59375 1.078125q-0.203125 0.765625 -0.203125 3.234375l0 2.984375z" fill-rule="nonzero"/><path fill="#cfe2f3" d="m750.66144 158.26509l0 0c0 -15.020401 12.176453 -27.196854 27.196838 -27.196854l0 0c7.2130737 0 14.130676 2.8653717 19.23108 7.9657745c5.100403 5.100403 7.9657593 12.018021 7.9657593 19.23108l0 0c0 15.020401 -12.176453 27.196854 -27.196838 27.196854l0 0c-15.020386 0 -27.196838 -12.176453 -27.196838 -27.196854z" fill-rule="evenodd"/><path fill="#000000" fill-opacity="0.0" d="m827.8478 131.70079l124.81891 0l0 42.015747l-124.81891 0z" fill-rule="evenodd"/><path fill="#000000" d="m844.5353 158.62079l-4.390625 -11.671875l-0.0625 0q0.03125 0.359375 0.0625 0.9375q0.03125 0.578125 0.046875 1.265625q0.015625 0.6875 0.015625 1.390625l0 8.078125l-1.546875 0l0 -13.328125l2.484375 0l4.09375 10.921875l0.078125 0l4.1875 -10.921875l2.453125 0l0 13.328125l-1.65625 0l0 -8.1875q0 -0.65625 0.015625 -1.296875q0.015625 -0.640625 0.046875 -1.203125q0.046875 -0.578125 0.0625 -0.96875l-0.078125 0l-4.4375 11.65625l-1.375 0zm19.514954 -5.015625q0 1.25 -0.328125 2.21875q-0.328125 0.953125 -0.9375 1.625q-0.609375 0.671875 -1.484375 1.015625q-0.859375 0.34375 -1.921875 0.34375q-0.984375 0 -1.828125 -0.34375q-0.828125 -0.34375 -1.453125 -1.015625q-0.609375 -0.671875 -0.953125 -1.625q-0.34375 -0.96875 -0.34375 -2.21875q0 -1.65625 0.546875 -2.796875q0.5625 -1.15625 1.609375 -1.765625q1.046875 -0.609375 2.484375 -0.609375q1.359375 0 2.390625 0.609375q1.046875 0.609375 1.625 1.765625q0.59375 1.140625 0.59375 2.796875zm-7.5625 0q0 1.171875 0.3125 2.046875q0.3125 0.859375 0.953125 1.328125q0.65625 0.46875 1.671875 0.46875q1.0 0 1.65625 -0.46875q0.65625 -0.46875 0.953125 -1.328125q0.3125 -0.875 0.3125 -2.046875q0 -1.203125 -0.3125 -2.03125q-0.3125 -0.84375 -0.96875 -1.296875q-0.640625 -0.46875 -1.65625 -0.46875q-1.53125 0 -2.234375 1.015625q-0.6875 1.0 -0.6875 2.78125zm22.005798 -1.65625q0 1.609375 -0.4375 2.9375q-0.4375 1.328125 -1.296875 2.25q-0.859375 0.90625 -2.15625 1.328125l3.203125 3.328125l-2.421875 0l-2.5625 -3.0q-0.109375 0 -0.234375 0q-0.125 0.015625 -0.234375 0.015625q-1.5625 0 -2.71875 -0.484375q-1.15625 -0.5 -1.921875 -1.40625q-0.765625 -0.90625 -1.140625 -2.171875q-0.375 -1.28125 -0.375 -2.828125q0 -2.046875 0.671875 -3.578125q0.671875 -1.53125 2.03125 -2.390625q1.375 -0.859375 3.46875 -0.859375q2.0 0 3.359375 0.859375q1.359375 0.84375 2.0625 2.390625q0.703125 1.53125 0.703125 3.609375zm-10.53125 0q0 1.671875 0.46875 2.890625q0.46875 1.203125 1.4375 1.859375q0.984375 0.65625 2.484375 0.65625q1.515625 0 2.46875 -0.65625q0.96875 -0.65625 1.421875 -1.859375q0.46875 -1.21875 0.46875 -2.890625q0 -2.53125 -1.046875 -3.953125q-1.03125 -1.421875 -3.296875 -1.421875q-1.515625 0 -2.5 0.640625q-0.96875 0.640625 -1.4375 1.84375q-0.46875 1.203125 -0.46875 2.890625zm21.999268 -6.65625q1.65625 0 2.734375 0.421875q1.078125 0.421875 1.59375 1.265625q0.515625 0.84375 0.515625 2.109375q0 1.0625 -0.390625 1.78125q-0.390625 0.703125 -1.0 1.125q-0.59375 0.40625 -1.265625 0.65625l3.65625 5.96875l-1.96875 0l-3.21875 -5.5l-2.65625 0l0 5.5l-1.671875 0l0 -13.328125l3.671875 0zm-0.09375 1.46875l-1.90625 0l0 4.9375l2.0 0q1.625 0 2.359375 -0.640625q0.75 -0.640625 0.75 -1.890625q0 -0.875 -0.34375 -1.390625q-0.34375 -0.53125 -1.046875 -0.765625q-0.703125 -0.25 -1.8125 -0.25zm11.666687 1.671875q1.28125 0 2.203125 0.5625q0.921875 0.5625 1.421875 1.578125q0.5 1.015625 0.5 2.375l0 0.984375l-6.859375 0q0.046875 1.703125 0.875 2.59375q0.828125 0.875 2.3125 0.875q0.953125 0 1.6875 -0.171875q0.75 -0.171875 1.53125 -0.515625l0 1.4375q-0.765625 0.34375 -1.515625 0.5q-0.75 0.15625 -1.765625 0.15625q-1.421875 0 -2.515625 -0.578125q-1.09375 -0.578125 -1.703125 -1.71875q-0.59375 -1.15625 -0.59375 -2.8125q0 -1.640625 0.546875 -2.8125q0.546875 -1.1875 1.546875 -1.8125q1.0 -0.640625 2.328125 -0.640625zm-0.03125 1.34375q-1.171875 0 -1.859375 0.765625q-0.671875 0.75 -0.796875 2.09375l5.09375 0q0 -0.859375 -0.265625 -1.484375q-0.265625 -0.640625 -0.796875 -1.0q-0.53125 -0.375 -1.375 -0.375zm8.334656 8.84375l-1.65625 0l0 -14.171875l1.65625 0l0 14.171875zm6.9539185 -10.171875q1.828125 0 2.703125 0.8125q0.875 0.796875 0.875 2.546875l0 6.8125l-1.1875 0l-0.328125 -1.421875l-0.0625 0q-0.4375 0.546875 -0.890625 0.90625q-0.453125 0.359375 -1.046875 0.53125q-0.59375 0.171875 -1.421875 0.171875q-0.90625 0 -1.625 -0.3125q-0.71875 -0.328125 -1.125 -0.984375q-0.40625 -0.65625 -0.40625 -1.671875q0 -1.484375 1.171875 -2.296875q1.171875 -0.8125 3.625 -0.890625l1.6875 -0.0625l0 -0.59375q0 -1.25 -0.546875 -1.734375q-0.53125 -0.484375 -1.515625 -0.484375q-0.78125 0 -1.5 0.234375q-0.703125 0.234375 -1.3125 0.53125l-0.515625 -1.234375q0.65625 -0.34375 1.546875 -0.59375q0.90625 -0.265625 1.875 -0.265625zm0.484375 5.34375q-1.859375 0.078125 -2.578125 0.59375q-0.71875 0.515625 -0.71875 1.46875q0 0.84375 0.5 1.234375q0.515625 0.390625 1.328125 0.390625q1.265625 0 2.09375 -0.6875q0.84375 -0.703125 0.84375 -2.171875l0 -0.890625l-1.46875 0.0625zm4.6224365 -5.171875l1.75 0l2.171875 5.6875q0.1875 0.5 0.34375 0.96875q0.15625 0.46875 0.28125 0.90625q0.140625 0.4375 0.21875 0.859375l0.0625 0q0.125 -0.46875 0.359375 -1.21875q0.25 -0.765625 0.5 -1.53125l2.046875 -5.671875l1.765625 0l-4.3125 11.375q-0.359375 0.9375 -0.828125 1.640625q-0.46875 0.703125 -1.15625 1.078125q-0.6875 0.390625 -1.65625 0.390625q-0.4375 0 -0.78125 -0.046875q-0.328125 -0.046875 -0.578125 -0.109375l0 -1.3125q0.203125 0.046875 0.484375 0.078125q0.296875 0.046875 0.625 0.046875q0.578125 0 0.984375 -0.21875q0.421875 -0.21875 0.71875 -0.625q0.3125 -0.390625 0.515625 -0.9375l0.515625 -1.328125l-4.03125 -10.03125z" fill-rule="nonzero"/><path fill="#000000" fill-opacity="0.0" d="m723.0866 373.13647l109.543274 0l0 54.393707l-109.543274 0z" fill-rule="evenodd"/><path stroke="#000000" stroke-width="1.0" stroke-linejoin="round" stroke-linecap="butt" d="m723.0866 373.13647l109.543274 0l0 54.393707l-109.543274 0z" fill-rule="evenodd"/><path fill="#000000" d="m734.1156 402.95645l1.65625 -0.140625q0.125 1.0 0.546875 1.640625q0.4375 0.640625 1.34375 1.046875q0.921875 0.390625 2.0625 0.390625q1.0 0 1.78125 -0.296875q0.78125 -0.296875 1.15625 -0.8125q0.375 -0.53125 0.375 -1.15625q0 -0.625 -0.375 -1.09375q-0.359375 -0.46875 -1.1875 -0.796875q-0.546875 -0.203125 -2.390625 -0.640625q-1.828125 -0.453125 -2.5625 -0.84375q-0.96875 -0.5 -1.4375 -1.234375q-0.46875 -0.75 -0.46875 -1.671875q0 -1.0 0.578125 -1.875q0.578125 -0.890625 1.671875 -1.34375q1.109375 -0.453125 2.453125 -0.453125q1.484375 0 2.609375 0.484375q1.140625 0.46875 1.75 1.40625q0.609375 0.921875 0.65625 2.09375l-1.6875 0.125q-0.140625 -1.265625 -0.9375 -1.90625q-0.78125 -0.65625 -2.3125 -0.65625q-1.609375 0 -2.34375 0.59375q-0.734375 0.59375 -0.734375 1.421875q0 0.71875 0.53125 1.171875q0.5 0.46875 2.65625 0.96875q2.15625 0.484375 2.953125 0.84375q1.171875 0.53125 1.71875 1.359375q0.5625 0.828125 0.5625 1.90625q0 1.0625 -0.609375 2.015625q-0.609375 0.9375 -1.75 1.46875q-1.140625 0.515625 -2.578125 0.515625q-1.8125 0 -3.046875 -0.53125q-1.21875 -0.53125 -1.921875 -1.59375q-0.6875 -1.0625 -0.71875 -2.40625zm19.162292 4.296875l0 -1.421875q-1.125 1.640625 -3.0625 1.640625q-0.859375 0 -1.609375 -0.328125q-0.734375 -0.328125 -1.09375 -0.828125q-0.359375 -0.5 -0.5 -1.21875q-0.109375 -0.46875 -0.109375 -1.53125l0 -5.984375l1.640625 0l0 5.359375q0 1.28125 0.109375 1.734375q0.15625 0.640625 0.65625 1.015625q0.5 0.375 1.234375 0.375q0.734375 0 1.375 -0.375q0.65625 -0.390625 0.921875 -1.03125q0.265625 -0.65625 0.265625 -1.890625l0 -5.1875l1.640625 0l0 9.671875l-1.46875 0zm5.5476074 0l-1.515625 0l0 -13.359375l1.640625 0l0 4.765625q1.046875 -1.296875 2.65625 -1.296875q0.890625 0 1.6875 0.359375q0.796875 0.359375 1.3125 1.015625q0.515625 0.640625 0.796875 1.5625q0.296875 0.921875 0.296875 1.96875q0 2.484375 -1.234375 3.84375q-1.21875 1.359375 -2.953125 1.359375q-1.703125 0 -2.6875 -1.4375l0 1.21875zm-0.015625 -4.90625q0 1.734375 0.484375 2.515625q0.765625 1.265625 2.09375 1.265625q1.078125 0 1.859375 -0.9375q0.78125 -0.9375 0.78125 -2.78125q0 -1.890625 -0.75 -2.796875q-0.75 -0.90625 -1.828125 -0.90625q-1.0625 0 -1.859375 0.9375q-0.78125 0.9375 -0.78125 2.703125zm8.235107 2.015625l1.625 -0.25q0.125 0.96875 0.75 1.5q0.625 0.515625 1.75 0.515625q1.125 0 1.671875 -0.453125q0.546875 -0.46875 0.546875 -1.09375q0 -0.546875 -0.484375 -0.875q-0.328125 -0.21875 -1.671875 -0.546875q-1.8125 -0.46875 -2.515625 -0.796875q-0.6875 -0.328125 -1.046875 -0.90625q-0.359375 -0.59375 -0.359375 -1.3125q0 -0.640625 0.296875 -1.1875q0.296875 -0.5625 0.8125 -0.921875q0.375 -0.28125 1.03125 -0.46875q0.671875 -0.203125 1.421875 -0.203125q1.140625 0 2.0 0.328125q0.859375 0.328125 1.265625 0.890625q0.421875 0.5625 0.578125 1.5l-1.609375 0.21875q-0.109375 -0.75 -0.640625 -1.171875q-0.515625 -0.421875 -1.46875 -0.421875q-1.140625 0 -1.625 0.375q-0.46875 0.375 -0.46875 0.875q0 0.3125 0.1875 0.578125q0.203125 0.265625 0.640625 0.4375q0.234375 0.09375 1.4375 0.421875q1.75 0.453125 2.4375 0.75q0.6875 0.296875 1.078125 0.859375q0.390625 0.5625 0.390625 1.40625q0 0.828125 -0.484375 1.546875q-0.46875 0.71875 -1.375 1.125q-0.90625 0.390625 -2.046875 0.390625q-1.875 0 -2.875 -0.78125q-0.984375 -0.78125 -1.25 -2.328125zm16.296875 -0.65625l1.609375 0.21875q-0.265625 1.65625 -1.359375 2.609375q-1.078125 0.9375 -2.671875 0.9375q-1.984375 0 -3.1875 -1.296875q-1.203125 -1.296875 -1.203125 -3.71875q0 -1.578125 0.515625 -2.75q0.515625 -1.171875 1.578125 -1.75q1.0625 -0.59375 2.3125 -0.59375q1.578125 0 2.578125 0.796875q1.0 0.796875 1.28125 2.265625l-1.59375 0.234375q-0.234375 -0.96875 -0.8125 -1.453125q-0.578125 -0.5 -1.390625 -0.5q-1.234375 0 -2.015625 0.890625q-0.78125 0.890625 -0.78125 2.8125q0 1.953125 0.75 2.84375q0.75 0.875 1.953125 0.875q0.96875 0 1.609375 -0.59375q0.65625 -0.59375 0.828125 -1.828125zm3.0 3.546875l0 -9.671875l1.46875 0l0 1.46875q0.5625 -1.03125 1.03125 -1.359375q0.484375 -0.328125 1.0625 -0.328125q0.828125 0 1.6875 0.53125l-0.5625 1.515625q-0.609375 -0.359375 -1.203125 -0.359375q-0.546875 0 -0.96875 0.328125q-0.421875 0.328125 -0.609375 0.890625q-0.28125 0.875 -0.28125 1.921875l0 5.0625l-1.625 0zm6.2282715 -11.46875l0 -1.890625l1.640625 0l0 1.890625l-1.640625 0zm0 11.46875l0 -9.671875l1.640625 0l0 9.671875l-1.640625 0zm5.6448364 0l-1.515625 0l0 -13.359375l1.640625 0l0 4.765625q1.046875 -1.296875 2.65625 -1.296875q0.890625 0 1.6875 0.359375q0.796875 0.359375 1.3125 1.015625q0.515625 0.640625 0.796875 1.5625q0.296875 0.921875 0.296875 1.96875q0 2.484375 -1.234375 3.84375q-1.21875 1.359375 -2.953125 1.359375q-1.703125 0 -2.6875 -1.4375l0 1.21875zm-0.015625 -4.90625q0 1.734375 0.484375 2.515625q0.765625 1.265625 2.09375 1.265625q1.078125 0 1.859375 -0.9375q0.78125 -0.9375 0.78125 -2.78125q0 -1.890625 -0.75 -2.796875q-0.75 -0.90625 -1.828125 -0.90625q-1.0625 0 -1.859375 0.9375q-0.78125 0.9375 -0.78125 2.703125zm15.516357 1.796875l1.6875 0.203125q-0.40625 1.484375 -1.484375 2.3125q-1.078125 0.8125 -2.765625 0.8125q-2.125 0 -3.375 -1.296875q-1.234375 -1.3125 -1.234375 -3.671875q0 -2.453125 1.25 -3.796875q1.265625 -1.34375 3.265625 -1.34375q1.9375 0 3.15625 1.328125q1.234375 1.3125 1.234375 3.703125q0 0.15625 0 0.4375l-7.21875 0q0.09375 1.59375 0.90625 2.453125q0.8125 0.84375 2.015625 0.84375q0.90625 0 1.546875 -0.46875q0.640625 -0.484375 1.015625 -1.515625zm-5.390625 -2.65625l5.40625 0q-0.109375 -1.21875 -0.625 -1.828125q-0.78125 -0.953125 -2.03125 -0.953125q-1.125 0 -1.90625 0.765625q-0.765625 0.75 -0.84375 2.015625zm9.125671 5.765625l0 -9.671875l1.46875 0l0 1.46875q0.5625 -1.03125 1.03125 -1.359375q0.484375 -0.328125 1.0625 -0.328125q0.828125 0 1.6875 0.53125l-0.5625 1.515625q-0.609375 -0.359375 -1.203125 -0.359375q-0.546875 0 -0.96875 0.328125q-0.421875 0.328125 -0.609375 0.890625q-0.28125 0.875 -0.28125 1.921875l0 5.0625l-1.625 0z" fill-rule="nonzero"/><path fill="#000000" fill-opacity="0.0" d="m777.8583 185.46194l0 93.83688l0.06298828 0l0 93.848145" fill-rule="evenodd"/><path stroke="#000000" stroke-width="1.0" stroke-linejoin="round" stroke-linecap="butt" d="m777.8583 185.46194l0 93.83688l0.06298828 0l0 90.42108" fill-rule="evenodd"/><path fill="#000000" stroke="#000000" stroke-width="1.0" stroke-linecap="butt" d="m777.92126 369.7199l-1.1245728 -1.1246033l1.1245728 3.0897827l1.1245728 -3.0897827z" fill-rule="evenodd"/><path fill="#000000" fill-opacity="0.0" d="m545.48816 373.13647l109.543335 0l0 54.393707l-109.543335 0z" fill-rule="evenodd"/><path stroke="#000000" stroke-width="1.0" stroke-linejoin="round" stroke-linecap="butt" d="m545.48816 373.13647l109.543335 0l0 54.393707l-109.543335 0z" fill-rule="evenodd"/><path fill="#000000" d="m556.51715 402.95645l1.65625 -0.140625q0.125 1.0 0.546875 1.640625q0.4375 0.640625 1.34375 1.046875q0.921875 0.390625 2.0625 0.390625q1.0 0 1.78125 -0.296875q0.78125 -0.296875 1.15625 -0.8125q0.375 -0.53125 0.375 -1.15625q0 -0.625 -0.375 -1.09375q-0.359375 -0.46875 -1.1875 -0.796875q-0.546875 -0.203125 -2.390625 -0.640625q-1.828125 -0.453125 -2.5625 -0.84375q-0.96875 -0.5 -1.4375 -1.234375q-0.46875 -0.75 -0.46875 -1.671875q0 -1.0 0.578125 -1.875q0.578125 -0.890625 1.671875 -1.34375q1.109375 -0.453125 2.453125 -0.453125q1.484375 0 2.609375 0.484375q1.140625 0.46875 1.75 1.40625q0.609375 0.921875 0.65625 2.09375l-1.6875 0.125q-0.140625 -1.265625 -0.9375 -1.90625q-0.78125 -0.65625 -2.3125 -0.65625q-1.609375 0 -2.34375 0.59375q-0.734375 0.59375 -0.734375 1.421875q0 0.71875 0.53125 1.171875q0.5 0.46875 2.65625 0.96875q2.15625 0.484375 2.953125 0.84375q1.171875 0.53125 1.71875 1.359375q0.5625 0.828125 0.5625 1.90625q0 1.0625 -0.609375 2.015625q-0.609375 0.9375 -1.75 1.46875q-1.140625 0.515625 -2.578125 0.515625q-1.8125 0 -3.046875 -0.53125q-1.21875 -0.53125 -1.921875 -1.59375q-0.6875 -1.0625 -0.71875 -2.40625zm19.162292 4.296875l0 -1.421875q-1.125 1.640625 -3.0625 1.640625q-0.859375 0 -1.609375 -0.328125q-0.734375 -0.328125 -1.09375 -0.828125q-0.359375 -0.5 -0.5 -1.21875q-0.109375 -0.46875 -0.109375 -1.53125l0 -5.984375l1.640625 0l0 5.359375q0 1.28125 0.109375 1.734375q0.15625 0.640625 0.65625 1.015625q0.5 0.375 1.234375 0.375q0.734375 0 1.375 -0.375q0.65625 -0.390625 0.921875 -1.03125q0.265625 -0.65625 0.265625 -1.890625l0 -5.1875l1.640625 0l0 9.671875l-1.46875 0zm5.5476074 0l-1.515625 0l0 -13.359375l1.640625 0l0 4.765625q1.046875 -1.296875 2.65625 -1.296875q0.890625 0 1.6875 0.359375q0.796875 0.359375 1.3125 1.015625q0.515625 0.640625 0.796875 1.5625q0.296875 0.921875 0.296875 1.96875q0 2.484375 -1.234375 3.84375q-1.21875 1.359375 -2.953125 1.359375q-1.703125 0 -2.6875 -1.4375l0 1.21875zm-0.015625 -4.90625q0 1.734375 0.484375 2.515625q0.765625 1.265625 2.09375 1.265625q1.078125 0 1.859375 -0.9375q0.78125 -0.9375 0.78125 -2.78125q0 -1.890625 -0.75 -2.796875q-0.75 -0.90625 -1.828125 -0.90625q-1.0625 0 -1.859375 0.9375q-0.78125 0.9375 -0.78125 2.703125zm8.235107 2.015625l1.625 -0.25q0.125 0.96875 0.75 1.5q0.625 0.515625 1.75 0.515625q1.125 0 1.671875 -0.453125q0.546875 -0.46875 0.546875 -1.09375q0 -0.546875 -0.484375 -0.875q-0.328125 -0.21875 -1.671875 -0.546875q-1.8125 -0.46875 -2.515625 -0.796875q-0.6875 -0.328125 -1.046875 -0.90625q-0.359375 -0.59375 -0.359375 -1.3125q0 -0.640625 0.296875 -1.1875q0.296875 -0.5625 0.8125 -0.921875q0.375 -0.28125 1.03125 -0.46875q0.671875 -0.203125 1.421875 -0.203125q1.140625 0 2.0 0.328125q0.859375 0.328125 1.265625 0.890625q0.421875 0.5625 0.578125 1.5l-1.609375 0.21875q-0.109375 -0.75 -0.640625 -1.171875q-0.515625 -0.421875 -1.46875 -0.421875q-1.140625 0 -1.625 0.375q-0.46875 0.375 -0.46875 0.875q0 0.3125 0.1875 0.578125q0.203125 0.265625 0.640625 0.4375q0.234375 0.09375 1.4375 0.421875q1.75 0.453125 2.4375 0.75q0.6875 0.296875 1.078125 0.859375q0.390625 0.5625 0.390625 1.40625q0 0.828125 -0.484375 1.546875q-0.46875 0.71875 -1.375 1.125q-0.90625 0.390625 -2.046875 0.390625q-1.875 0 -2.875 -0.78125q-0.984375 -0.78125 -1.25 -2.328125zm16.296875 -0.65625l1.609375 0.21875q-0.265625 1.65625 -1.359375 2.609375q-1.078125 0.9375 -2.671875 0.9375q-1.984375 0 -3.1875 -1.296875q-1.203125 -1.296875 -1.203125 -3.71875q0 -1.578125 0.515625 -2.75q0.515625 -1.171875 1.578125 -1.75q1.0625 -0.59375 2.3125 -0.59375q1.578125 0 2.578125 0.796875q1.0 0.796875 1.28125 2.265625l-1.59375 0.234375q-0.234375 -0.96875 -0.8125 -1.453125q-0.578125 -0.5 -1.390625 -0.5q-1.234375 0 -2.015625 0.890625q-0.78125 0.890625 -0.78125 2.8125q0 1.953125 0.75 2.84375q0.75 0.875 1.953125 0.875q0.96875 0 1.609375 -0.59375q0.65625 -0.59375 0.828125 -1.828125zm3.0 3.546875l0 -9.671875l1.46875 0l0 1.46875q0.5625 -1.03125 1.03125 -1.359375q0.484375 -0.328125 1.0625 -0.328125q0.828125 0 1.6875 0.53125l-0.5625 1.515625q-0.609375 -0.359375 -1.203125 -0.359375q-0.546875 0 -0.96875 0.328125q-0.421875 0.328125 -0.609375 0.890625q-0.28125 0.875 -0.28125 1.921875l0 5.0625l-1.625 0zm6.2282715 -11.46875l0 -1.890625l1.640625 0l0 1.890625l-1.640625 0zm0 11.46875l0 -9.671875l1.640625 0l0 9.671875l-1.640625 0zm5.6448364 0l-1.515625 0l0 -13.359375l1.640625 0l0 4.765625q1.046875 -1.296875 2.65625 -1.296875q0.890625 0 1.6875 0.359375q0.796875 0.359375 1.3125 1.015625q0.515625 0.640625 0.796875 1.5625q0.296875 0.921875 0.296875 1.96875q0 2.484375 -1.234375 3.84375q-1.21875 1.359375 -2.953125 1.359375q-1.703125 0 -2.6875 -1.4375l0 1.21875zm-0.015625 -4.90625q0 1.734375 0.484375 2.515625q0.765625 1.265625 2.09375 1.265625q1.078125 0 1.859375 -0.9375q0.78125 -0.9375 0.78125 -2.78125q0 -1.890625 -0.75 -2.796875q-0.75 -0.90625 -1.828125 -0.90625q-1.0625 0 -1.859375 0.9375q-0.78125 0.9375 -0.78125 2.703125zm15.516357 1.796875l1.6875 0.203125q-0.40625 1.484375 -1.484375 2.3125q-1.078125 0.8125 -2.765625 0.8125q-2.125 0 -3.375 -1.296875q-1.234375 -1.3125 -1.234375 -3.671875q0 -2.453125 1.25 -3.796875q1.265625 -1.34375 3.265625 -1.34375q1.9375 0 3.15625 1.328125q1.234375 1.3125 1.234375 3.703125q0 0.15625 0 0.4375l-7.21875 0q0.09375 1.59375 0.90625 2.453125q0.8125 0.84375 2.015625 0.84375q0.90625 0 1.546875 -0.46875q0.640625 -0.484375 1.015625 -1.515625zm-5.390625 -2.65625l5.40625 0q-0.109375 -1.21875 -0.625 -1.828125q-0.78125 -0.953125 -2.03125 -0.953125q-1.125 0 -1.90625 0.765625q-0.765625 0.75 -0.84375 2.015625zm9.125732 5.765625l0 -9.671875l1.46875 0l0 1.46875q0.5625 -1.03125 1.03125 -1.359375q0.484375 -0.328125 1.0625 -0.328125q0.828125 0 1.6875 0.53125l-0.5625 1.515625q-0.609375 -0.359375 -1.203125 -0.359375q-0.546875 0 -0.96875 0.328125q-0.421875 0.328125 -0.609375 0.890625q-0.28125 0.875 -0.28125 1.921875l0 5.0625l-1.625 0z" fill-rule="nonzero"/><path fill="#000000" fill-opacity="0.0" d="m777.8583 185.46194l0 93.83688l-177.60632 0l0 93.848145" fill-rule="evenodd"/><path stroke="#000000" stroke-width="1.0" stroke-linejoin="round" stroke-linecap="butt" d="m777.8583 185.46194l0 93.83688l-177.60632 0l0 90.42108" fill-rule="evenodd"/><path fill="#000000" stroke="#000000" stroke-width="1.0" stroke-linecap="butt" d="m600.25195 369.7199l-1.1245728 -1.1246033l1.1245728 3.0897827l1.1245728 -3.0897827z" fill-rule="evenodd"/><path fill="#000000" fill-opacity="0.0" d="m359.958 373.13647l109.543304 0l0 54.393707l-109.543304 0z" fill-rule="evenodd"/><path stroke="#000000" stroke-width="1.0" stroke-linejoin="round" stroke-linecap="butt" d="m359.958 373.13647l109.543304 0l0 54.393707l-109.543304 0z" fill-rule="evenodd"/><path fill="#000000" d="m370.98697 402.95645l1.65625 -0.140625q0.125 1.0 0.546875 1.640625q0.4375 0.640625 1.34375 1.046875q0.921875 0.390625 2.0625 0.390625q1.0 0 1.78125 -0.296875q0.78125 -0.296875 1.15625 -0.8125q0.375 -0.53125 0.375 -1.15625q0 -0.625 -0.375 -1.09375q-0.359375 -0.46875 -1.1875 -0.796875q-0.546875 -0.203125 -2.390625 -0.640625q-1.828125 -0.453125 -2.5625 -0.84375q-0.96875 -0.5 -1.4375 -1.234375q-0.46875 -0.75 -0.46875 -1.671875q0 -1.0 0.578125 -1.875q0.578125 -0.890625 1.671875 -1.34375q1.109375 -0.453125 2.453125 -0.453125q1.484375 0 2.609375 0.484375q1.140625 0.46875 1.75 1.40625q0.609375 0.921875 0.65625 2.09375l-1.6875 0.125q-0.140625 -1.265625 -0.9375 -1.90625q-0.78125 -0.65625 -2.3125 -0.65625q-1.609375 0 -2.34375 0.59375q-0.734375 0.59375 -0.734375 1.421875q0 0.71875 0.53125 1.171875q0.5 0.46875 2.65625 0.96875q2.15625 0.484375 2.953125 0.84375q1.171875 0.53125 1.71875 1.359375q0.5625 0.828125 0.5625 1.90625q0 1.0625 -0.609375 2.015625q-0.609375 0.9375 -1.75 1.46875q-1.140625 0.515625 -2.578125 0.515625q-1.8125 0 -3.046875 -0.53125q-1.21875 -0.53125 -1.921875 -1.59375q-0.6875 -1.0625 -0.71875 -2.40625zm19.162323 4.296875l0 -1.421875q-1.125 1.640625 -3.0625 1.640625q-0.859375 0 -1.609375 -0.328125q-0.734375 -0.328125 -1.09375 -0.828125q-0.359375 -0.5 -0.5 -1.21875q-0.109375 -0.46875 -0.109375 -1.53125l0 -5.984375l1.640625 0l0 5.359375q0 1.28125 0.109375 1.734375q0.15625 0.640625 0.65625 1.015625q0.5 0.375 1.234375 0.375q0.734375 0 1.375 -0.375q0.65625 -0.390625 0.921875 -1.03125q0.265625 -0.65625 0.265625 -1.890625l0 -5.1875l1.640625 0l0 9.671875l-1.46875 0zm5.547577 0l-1.515625 0l0 -13.359375l1.640625 0l0 4.765625q1.046875 -1.296875 2.65625 -1.296875q0.890625 0 1.6875 0.359375q0.796875 0.359375 1.3125 1.015625q0.515625 0.640625 0.796875 1.5625q0.296875 0.921875 0.296875 1.96875q0 2.484375 -1.234375 3.84375q-1.21875 1.359375 -2.953125 1.359375q-1.703125 0 -2.6875 -1.4375l0 1.21875zm-0.015625 -4.90625q0 1.734375 0.484375 2.515625q0.765625 1.265625 2.09375 1.265625q1.078125 0 1.859375 -0.9375q0.78125 -0.9375 0.78125 -2.78125q0 -1.890625 -0.75 -2.796875q-0.75 -0.90625 -1.828125 -0.90625q-1.0625 0 -1.859375 0.9375q-0.78125 0.9375 -0.78125 2.703125zm8.235107 2.015625l1.625 -0.25q0.125 0.96875 0.75 1.5q0.625 0.515625 1.75 0.515625q1.125 0 1.671875 -0.453125q0.546875 -0.46875 0.546875 -1.09375q0 -0.546875 -0.484375 -0.875q-0.328125 -0.21875 -1.671875 -0.546875q-1.8125 -0.46875 -2.515625 -0.796875q-0.6875 -0.328125 -1.046875 -0.90625q-0.359375 -0.59375 -0.359375 -1.3125q0 -0.640625 0.296875 -1.1875q0.296875 -0.5625 0.8125 -0.921875q0.375 -0.28125 1.03125 -0.46875q0.671875 -0.203125 1.421875 -0.203125q1.140625 0 2.0 0.328125q0.859375 0.328125 1.265625 0.890625q0.421875 0.5625 0.578125 1.5l-1.609375 0.21875q-0.109375 -0.75 -0.640625 -1.171875q-0.515625 -0.421875 -1.46875 -0.421875q-1.140625 0 -1.625 0.375q-0.46875 0.375 -0.46875 0.875q0 0.3125 0.1875 0.578125q0.203125 0.265625 0.640625 0.4375q0.234375 0.09375 1.4375 0.421875q1.75 0.453125 2.4375 0.75q0.6875 0.296875 1.078125 0.859375q0.390625 0.5625 0.390625 1.40625q0 0.828125 -0.484375 1.546875q-0.46875 0.71875 -1.375 1.125q-0.90625 0.390625 -2.046875 0.390625q-1.875 0 -2.875 -0.78125q-0.984375 -0.78125 -1.25 -2.328125zm16.296875 -0.65625l1.609375 0.21875q-0.265625 1.65625 -1.359375 2.609375q-1.078125 0.9375 -2.671875 0.9375q-1.984375 0 -3.1875 -1.296875q-1.203125 -1.296875 -1.203125 -3.71875q0 -1.578125 0.515625 -2.75q0.515625 -1.171875 1.578125 -1.75q1.0625 -0.59375 2.3125 -0.59375q1.578125 0 2.578125 0.796875q1.0 0.796875 1.28125 2.265625l-1.59375 0.234375q-0.234375 -0.96875 -0.8125 -1.453125q-0.578125 -0.5 -1.390625 -0.5q-1.234375 0 -2.015625 0.890625q-0.78125 0.890625 -0.78125 2.8125q0 1.953125 0.75 2.84375q0.75 0.875 1.953125 0.875q0.96875 0 1.609375 -0.59375q0.65625 -0.59375 0.828125 -1.828125zm3.0 3.546875l0 -9.671875l1.46875 0l0 1.46875q0.5625 -1.03125 1.03125 -1.359375q0.484375 -0.328125 1.0625 -0.328125q0.828125 0 1.6875 0.53125l-0.5625 1.515625q-0.609375 -0.359375 -1.203125 -0.359375q-0.546875 0 -0.96875 0.328125q-0.421875 0.328125 -0.609375 0.890625q-0.28125 0.875 -0.28125 1.921875l0 5.0625l-1.625 0zm6.228302 -11.46875l0 -1.890625l1.640625 0l0 1.890625l-1.640625 0zm0 11.46875l0 -9.671875l1.640625 0l0 9.671875l-1.640625 0zm5.644806 0l-1.515625 0l0 -13.359375l1.640625 0l0 4.765625q1.046875 -1.296875 2.65625 -1.296875q0.890625 0 1.6875 0.359375q0.796875 0.359375 1.3125 1.015625q0.515625 0.640625 0.796875 1.5625q0.296875 0.921875 0.296875 1.96875q0 2.484375 -1.234375 3.84375q-1.21875 1.359375 -2.953125 1.359375q-1.703125 0 -2.6875 -1.4375l0 1.21875zm-0.015625 -4.90625q0 1.734375 0.484375 2.515625q0.765625 1.265625 2.09375 1.265625q1.078125 0 1.859375 -0.9375q0.78125 -0.9375 0.78125 -2.78125q0 -1.890625 -0.75 -2.796875q-0.75 -0.90625 -1.828125 -0.90625q-1.0625 0 -1.859375 0.9375q-0.78125 0.9375 -0.78125 2.703125zm15.516357 1.796875l1.6875 0.203125q-0.40625 1.484375 -1.484375 2.3125q-1.078125 0.8125 -2.765625 0.8125q-2.125 0 -3.375 -1.296875q-1.234375 -1.3125 -1.234375 -3.671875q0 -2.453125 1.25 -3.796875q1.265625 -1.34375 3.265625 -1.34375q1.9375 0 3.15625 1.328125q1.234375 1.3125 1.234375 3.703125q0 0.15625 0 0.4375l-7.21875 0q0.09375 1.59375 0.90625 2.453125q0.8125 0.84375 2.015625 0.84375q0.90625 0 1.546875 -0.46875q0.640625 -0.484375 1.015625 -1.515625zm-5.390625 -2.65625l5.40625 0q-0.109375 -1.21875 -0.625 -1.828125q-0.78125 -0.953125 -2.03125 -0.953125q-1.125 0 -1.90625 0.765625q-0.765625 0.75 -0.84375 2.015625zm9.125702 5.765625l0 -9.671875l1.46875 0l0 1.46875q0.5625 -1.03125 1.03125 -1.359375q0.484375 -0.328125 1.0625 -0.328125q0.828125 0 1.6875 0.53125l-0.5625 1.515625q-0.609375 -0.359375 -1.203125 -0.359375q-0.546875 0 -0.96875 0.328125q-0.421875 0.328125 -0.609375 0.890625q-0.28125 0.875 -0.28125 1.921875l0 5.0625l-1.625 0z" fill-rule="nonzero"/><path fill="#000000" fill-opacity="0.0" d="m174.42781 373.13647l109.54332 0l0 54.393707l-109.54332 0z" fill-rule="evenodd"/><path stroke="#000000" stroke-width="1.0" stroke-linejoin="round" stroke-linecap="butt" d="m174.42781 373.13647l109.54332 0l0 54.393707l-109.54332 0z" fill-rule="evenodd"/><path fill="#000000" d="m185.45679 402.95645l1.65625 -0.140625q0.125 1.0 0.546875 1.640625q0.4375 0.640625 1.34375 1.046875q0.921875 0.390625 2.0625 0.390625q1.0 0 1.78125 -0.296875q0.78125 -0.296875 1.15625 -0.8125q0.375 -0.53125 0.375 -1.15625q0 -0.625 -0.375 -1.09375q-0.359375 -0.46875 -1.1875 -0.796875q-0.546875 -0.203125 -2.390625 -0.640625q-1.828125 -0.453125 -2.5625 -0.84375q-0.96875 -0.5 -1.4375 -1.234375q-0.46875 -0.75 -0.46875 -1.671875q0 -1.0 0.578125 -1.875q0.578125 -0.890625 1.671875 -1.34375q1.109375 -0.453125 2.453125 -0.453125q1.484375 0 2.609375 0.484375q1.140625 0.46875 1.75 1.40625q0.609375 0.921875 0.65625 2.09375l-1.6875 0.125q-0.140625 -1.265625 -0.9375 -1.90625q-0.78125 -0.65625 -2.3125 -0.65625q-1.609375 0 -2.34375 0.59375q-0.734375 0.59375 -0.734375 1.421875q0 0.71875 0.53125 1.171875q0.5 0.46875 2.65625 0.96875q2.15625 0.484375 2.953125 0.84375q1.171875 0.53125 1.71875 1.359375q0.5625 0.828125 0.5625 1.90625q0 1.0625 -0.609375 2.015625q-0.609375 0.9375 -1.75 1.46875q-1.140625 0.515625 -2.578125 0.515625q-1.8125 0 -3.046875 -0.53125q-1.21875 -0.53125 -1.921875 -1.59375q-0.6875 -1.0625 -0.71875 -2.40625zm19.162323 4.296875l0 -1.421875q-1.125 1.640625 -3.0625 1.640625q-0.859375 0 -1.609375 -0.328125q-0.734375 -0.328125 -1.09375 -0.828125q-0.359375 -0.5 -0.5 -1.21875q-0.109375 -0.46875 -0.109375 -1.53125l0 -5.984375l1.640625 0l0 5.359375q0 1.28125 0.109375 1.734375q0.15625 0.640625 0.65625 1.015625q0.5 0.375 1.234375 0.375q0.734375 0 1.375 -0.375q0.65625 -0.390625 0.921875 -1.03125q0.265625 -0.65625 0.265625 -1.890625l0 -5.1875l1.640625 0l0 9.671875l-1.46875 0zm5.547592 0l-1.515625 0l0 -13.359375l1.640625 0l0 4.765625q1.046875 -1.296875 2.65625 -1.296875q0.890625 0 1.6875 0.359375q0.796875 0.359375 1.3125 1.015625q0.515625 0.640625 0.796875 1.5625q0.296875 0.921875 0.296875 1.96875q0 2.484375 -1.234375 3.84375q-1.21875 1.359375 -2.953125 1.359375q-1.703125 0 -2.6875 -1.4375l0 1.21875zm-0.015625 -4.90625q0 1.734375 0.484375 2.515625q0.765625 1.265625 2.09375 1.265625q1.078125 0 1.859375 -0.9375q0.78125 -0.9375 0.78125 -2.78125q0 -1.890625 -0.75 -2.796875q-0.75 -0.90625 -1.828125 -0.90625q-1.0625 0 -1.859375 0.9375q-0.78125 0.9375 -0.78125 2.703125zm8.235092 2.015625l1.625 -0.25q0.125 0.96875 0.75 1.5q0.625 0.515625 1.75 0.515625q1.125 0 1.671875 -0.453125q0.546875 -0.46875 0.546875 -1.09375q0 -0.546875 -0.484375 -0.875q-0.328125 -0.21875 -1.671875 -0.546875q-1.8125 -0.46875 -2.515625 -0.796875q-0.6875 -0.328125 -1.046875 -0.90625q-0.359375 -0.59375 -0.359375 -1.3125q0 -0.640625 0.296875 -1.1875q0.296875 -0.5625 0.8125 -0.921875q0.375 -0.28125 1.03125 -0.46875q0.671875 -0.203125 1.421875 -0.203125q1.140625 0 2.0 0.328125q0.859375 0.328125 1.265625 0.890625q0.421875 0.5625 0.578125 1.5l-1.609375 0.21875q-0.109375 -0.75 -0.640625 -1.171875q-0.515625 -0.421875 -1.46875 -0.421875q-1.140625 0 -1.625 0.375q-0.46875 0.375 -0.46875 0.875q0 0.3125 0.1875 0.578125q0.203125 0.265625 0.640625 0.4375q0.234375 0.09375 1.4375 0.421875q1.75 0.453125 2.4375 0.75q0.6875 0.296875 1.078125 0.859375q0.390625 0.5625 0.390625 1.40625q0 0.828125 -0.484375 1.546875q-0.46875 0.71875 -1.375 1.125q-0.90625 0.390625 -2.046875 0.390625q-1.875 0 -2.875 -0.78125q-0.984375 -0.78125 -1.25 -2.328125zm16.296875 -0.65625l1.609375 0.21875q-0.265625 1.65625 -1.359375 2.609375q-1.078125 0.9375 -2.671875 0.9375q-1.984375 0 -3.1875 -1.296875q-1.203125 -1.296875 -1.203125 -3.71875q0 -1.578125 0.515625 -2.75q0.515625 -1.171875 1.578125 -1.75q1.0625 -0.59375 2.3125 -0.59375q1.578125 0 2.578125 0.796875q1.0 0.796875 1.28125 2.265625l-1.59375 0.234375q-0.234375 -0.96875 -0.8125 -1.453125q-0.578125 -0.5 -1.390625 -0.5q-1.234375 0 -2.015625 0.890625q-0.78125 0.890625 -0.78125 2.8125q0 1.953125 0.75 2.84375q0.75 0.875 1.953125 0.875q0.96875 0 1.609375 -0.59375q0.65625 -0.59375 0.828125 -1.828125zm3.0 3.546875l0 -9.671875l1.46875 0l0 1.46875q0.5625 -1.03125 1.03125 -1.359375q0.484375 -0.328125 1.0625 -0.328125q0.828125 0 1.6875 0.53125l-0.5625 1.515625q-0.609375 -0.359375 -1.203125 -0.359375q-0.546875 0 -0.96875 0.328125q-0.421875 0.328125 -0.609375 0.890625q-0.28125 0.875 -0.28125 1.921875l0 5.0625l-1.625 0zm6.228302 -11.46875l0 -1.890625l1.640625 0l0 1.890625l-1.640625 0zm0 11.46875l0 -9.671875l1.640625 0l0 9.671875l-1.640625 0zm5.644821 0l-1.515625 0l0 -13.359375l1.640625 0l0 4.765625q1.046875 -1.296875 2.65625 -1.296875q0.890625 0 1.6875 0.359375q0.796875 0.359375 1.3125 1.015625q0.515625 0.640625 0.79685974 1.5625q0.296875 0.921875 0.296875 1.96875q0 2.484375 -1.2343597 3.84375q-1.21875 1.359375 -2.953125 1.359375q-1.703125 0 -2.6875 -1.4375l0 1.21875zm-0.015625 -4.90625q0 1.734375 0.484375 2.515625q0.765625 1.265625 2.09375 1.265625q1.078125 0 1.859375 -0.9375q0.78125 -0.9375 0.78125 -2.78125q0 -1.890625 -0.75 -2.796875q-0.75 -0.90625 -1.828125 -0.90625q-1.0625 0 -1.859375 0.9375q-0.78125 0.9375 -0.78125 2.703125zm15.516342 1.796875l1.6875 0.203125q-0.40625 1.484375 -1.484375 2.3125q-1.078125 0.8125 -2.765625 0.8125q-2.125 0 -3.375 -1.296875q-1.234375 -1.3125 -1.234375 -3.671875q0 -2.453125 1.25 -3.796875q1.265625 -1.34375 3.265625 -1.34375q1.9375 0 3.15625 1.328125q1.234375 1.3125 1.234375 3.703125q0 0.15625 0 0.4375l-7.21875 0q0.09375 1.59375 0.90625 2.453125q0.8125 0.84375 2.015625 0.84375q0.90625 0 1.546875 -0.46875q0.640625 -0.484375 1.015625 -1.515625zm-5.390625 -2.65625l5.40625 0q-0.109375 -1.21875 -0.625 -1.828125q-0.78125 -0.953125 -2.03125 -0.953125q-1.125 0 -1.90625 0.765625q-0.765625 0.75 -0.84375 2.015625zm9.125702 5.765625l0 -9.671875l1.46875 0l0 1.46875q0.5625 -1.03125 1.03125 -1.359375q0.484375 -0.328125 1.0625 -0.328125q0.828125 0 1.6875 0.53125l-0.5625 1.515625q-0.609375 -0.359375 -1.203125 -0.359375q-0.546875 0 -0.96875 0.328125q-0.421875 0.328125 -0.609375 0.890625q-0.28125 0.875 -0.28125 1.921875l0 5.0625l-1.625 0z" fill-rule="nonzero"/><path fill="#000000" fill-opacity="0.0" d="m900.68506 373.13647l109.543274 0l0 54.393707l-109.543274 0z" fill-rule="evenodd"/><path stroke="#000000" stroke-width="1.0" stroke-linejoin="round" stroke-linecap="butt" d="m900.68506 373.13647l109.543274 0l0 54.393707l-109.543274 0z" fill-rule="evenodd"/><path fill="#000000" d="m911.714 402.95645l1.65625 -0.140625q0.125 1.0 0.546875 1.640625q0.4375 0.640625 1.34375 1.046875q0.921875 0.390625 2.0625 0.390625q1.0 0 1.78125 -0.296875q0.78125 -0.296875 1.15625 -0.8125q0.375 -0.53125 0.375 -1.15625q0 -0.625 -0.375 -1.09375q-0.359375 -0.46875 -1.1875 -0.796875q-0.546875 -0.203125 -2.390625 -0.640625q-1.828125 -0.453125 -2.5625 -0.84375q-0.96875 -0.5 -1.4375 -1.234375q-0.46875 -0.75 -0.46875 -1.671875q0 -1.0 0.578125 -1.875q0.578125 -0.890625 1.671875 -1.34375q1.109375 -0.453125 2.453125 -0.453125q1.484375 0 2.609375 0.484375q1.140625 0.46875 1.75 1.40625q0.609375 0.921875 0.65625 2.09375l-1.6875 0.125q-0.140625 -1.265625 -0.9375 -1.90625q-0.78125 -0.65625 -2.3125 -0.65625q-1.609375 0 -2.34375 0.59375q-0.734375 0.59375 -0.734375 1.421875q0 0.71875 0.53125 1.171875q0.5 0.46875 2.65625 0.96875q2.15625 0.484375 2.953125 0.84375q1.171875 0.53125 1.71875 1.359375q0.5625 0.828125 0.5625 1.90625q0 1.0625 -0.609375 2.015625q-0.609375 0.9375 -1.75 1.46875q-1.140625 0.515625 -2.578125 0.515625q-1.8125 0 -3.046875 -0.53125q-1.21875 -0.53125 -1.921875 -1.59375q-0.6875 -1.0625 -0.71875 -2.40625zm19.162354 4.296875l0 -1.421875q-1.125 1.640625 -3.0625 1.640625q-0.859375 0 -1.609375 -0.328125q-0.734375 -0.328125 -1.09375 -0.828125q-0.359375 -0.5 -0.5 -1.21875q-0.109375 -0.46875 -0.109375 -1.53125l0 -5.984375l1.640625 0l0 5.359375q0 1.28125 0.109375 1.734375q0.15625 0.640625 0.65625 1.015625q0.5 0.375 1.234375 0.375q0.734375 0 1.375 -0.375q0.65625 -0.390625 0.921875 -1.03125q0.265625 -0.65625 0.265625 -1.890625l0 -5.1875l1.640625 0l0 9.671875l-1.46875 0zm5.5475464 0l-1.515625 0l0 -13.359375l1.640625 0l0 4.765625q1.046875 -1.296875 2.65625 -1.296875q0.890625 0 1.6875 0.359375q0.796875 0.359375 1.3125 1.015625q0.515625 0.640625 0.796875 1.5625q0.296875 0.921875 0.296875 1.96875q0 2.484375 -1.234375 3.84375q-1.21875 1.359375 -2.953125 1.359375q-1.703125 0 -2.6875 -1.4375l0 1.21875zm-0.015625 -4.90625q0 1.734375 0.484375 2.515625q0.765625 1.265625 2.09375 1.265625q1.078125 0 1.859375 -0.9375q0.78125 -0.9375 0.78125 -2.78125q0 -1.890625 -0.75 -2.796875q-0.75 -0.90625 -1.828125 -0.90625q-1.0625 0 -1.859375 0.9375q-0.78125 0.9375 -0.78125 2.703125zm8.235107 2.015625l1.625 -0.25q0.125 0.96875 0.75 1.5q0.625 0.515625 1.75 0.515625q1.125 0 1.671875 -0.453125q0.546875 -0.46875 0.546875 -1.09375q0 -0.546875 -0.484375 -0.875q-0.328125 -0.21875 -1.671875 -0.546875q-1.8125 -0.46875 -2.515625 -0.796875q-0.6875 -0.328125 -1.046875 -0.90625q-0.359375 -0.59375 -0.359375 -1.3125q0 -0.640625 0.296875 -1.1875q0.296875 -0.5625 0.8125 -0.921875q0.375 -0.28125 1.03125 -0.46875q0.671875 -0.203125 1.421875 -0.203125q1.140625 0 2.0 0.328125q0.859375 0.328125 1.265625 0.890625q0.421875 0.5625 0.578125 1.5l-1.609375 0.21875q-0.109375 -0.75 -0.640625 -1.171875q-0.515625 -0.421875 -1.46875 -0.421875q-1.140625 0 -1.625 0.375q-0.46875 0.375 -0.46875 0.875q0 0.3125 0.1875 0.578125q0.203125 0.265625 0.640625 0.4375q0.234375 0.09375 1.4375 0.421875q1.75 0.453125 2.4375 0.75q0.6875 0.296875 1.078125 0.859375q0.390625 0.5625 0.390625 1.40625q0 0.828125 -0.484375 1.546875q-0.46875 0.71875 -1.375 1.125q-0.90625 0.390625 -2.046875 0.390625q-1.875 0 -2.875 -0.78125q-0.984375 -0.78125 -1.25 -2.328125zm16.296875 -0.65625l1.609375 0.21875q-0.265625 1.65625 -1.359375 2.609375q-1.078125 0.9375 -2.671875 0.9375q-1.984375 0 -3.1875 -1.296875q-1.203125 -1.296875 -1.203125 -3.71875q0 -1.578125 0.515625 -2.75q0.515625 -1.171875 1.578125 -1.75q1.0625 -0.59375 2.3125 -0.59375q1.578125 0 2.578125 0.796875q1.0 0.796875 1.28125 2.265625l-1.59375 0.234375q-0.234375 -0.96875 -0.8125 -1.453125q-0.578125 -0.5 -1.390625 -0.5q-1.234375 0 -2.015625 0.890625q-0.78125 0.890625 -0.78125 2.8125q0 1.953125 0.75 2.84375q0.75 0.875 1.953125 0.875q0.96875 0 1.609375 -0.59375q0.65625 -0.59375 0.828125 -1.828125zm3.0 3.546875l0 -9.671875l1.46875 0l0 1.46875q0.5625 -1.03125 1.03125 -1.359375q0.484375 -0.328125 1.0625 -0.328125q0.828125 0 1.6875 0.53125l-0.5625 1.515625q-0.609375 -0.359375 -1.203125 -0.359375q-0.546875 0 -0.96875 0.328125q-0.421875 0.328125 -0.609375 0.890625q-0.28125 0.875 -0.28125 1.921875l0 5.0625l-1.625 0zm6.2283325 -11.46875l0 -1.890625l1.640625 0l0 1.890625l-1.640625 0zm0 11.46875l0 -9.671875l1.640625 0l0 9.671875l-1.640625 0zm5.6447754 0l-1.515625 0l0 -13.359375l1.640625 0l0 4.765625q1.046875 -1.296875 2.65625 -1.296875q0.890625 0 1.6875 0.359375q0.796875 0.359375 1.3125 1.015625q0.515625 0.640625 0.796875 1.5625q0.296875 0.921875 0.296875 1.96875q0 2.484375 -1.234375 3.84375q-1.21875 1.359375 -2.953125 1.359375q-1.703125 0 -2.6875 -1.4375l0 1.21875zm-0.015625 -4.90625q0 1.734375 0.484375 2.515625q0.765625 1.265625 2.09375 1.265625q1.078125 0 1.859375 -0.9375q0.78125 -0.9375 0.78125 -2.78125q0 -1.890625 -0.75 -2.796875q-0.75 -0.90625 -1.828125 -0.90625q-1.0625 0 -1.859375 0.9375q-0.78125 0.9375 -0.78125 2.703125zm15.516357 1.796875l1.6875 0.203125q-0.40625 1.484375 -1.484375 2.3125q-1.078125 0.8125 -2.765625 0.8125q-2.125 0 -3.375 -1.296875q-1.234375 -1.3125 -1.234375 -3.671875q0 -2.453125 1.25 -3.796875q1.265625 -1.34375 3.265625 -1.34375q1.9375 0 3.15625 1.328125q1.234375 1.3125 1.234375 3.703125q0 0.15625 0 0.4375l-7.21875 0q0.09375 1.59375 0.90625 2.453125q0.8125 0.84375 2.015625 0.84375q0.90625 0 1.546875 -0.46875q0.640625 -0.484375 1.015625 -1.515625zm-5.390625 -2.65625l5.40625 0q-0.109375 -1.21875 -0.625 -1.828125q-0.78125 -0.953125 -2.03125 -0.953125q-1.125 0 -1.90625 0.765625q-0.765625 0.75 -0.84375 2.015625zm9.125732 5.765625l0 -9.671875l1.46875 0l0 1.46875q0.5625 -1.03125 1.03125 -1.359375q0.484375 -0.328125 1.0625 -0.328125q0.828125 0 1.6875 0.53125l-0.5625 1.515625q-0.609375 -0.359375 -1.203125 -0.359375q-0.546875 0 -0.96875 0.328125q-0.421875 0.328125 -0.609375 0.890625q-0.28125 0.875 -0.28125 1.921875l0 5.0625l-1.625 0z" fill-rule="nonzero"/><path fill="#000000" fill-opacity="0.0" d="m777.8504 185.45145l0 93.84253l177.60626 0l0 93.8425" fill-rule="evenodd"/><path stroke="#000000" stroke-width="1.0" stroke-linejoin="round" stroke-linecap="butt" d="m777.8504 185.45145l0 93.84253l177.60626 0l0 90.415436" fill-rule="evenodd"/><path fill="#000000" stroke="#000000" stroke-width="1.0" stroke-linecap="butt" d="m955.45667 369.7094l-1.1245728 -1.1246033l1.1245728 3.0897827l1.1246338 -3.0897827z" fill-rule="evenodd"/><path fill="#000000" fill-opacity="0.0" d="m777.8583 185.46194l0 93.83688l-363.11813 0l0 93.848145" fill-rule="evenodd"/><path stroke="#000000" stroke-width="1.0" stroke-linejoin="round" stroke-linecap="butt" d="m777.8583 185.46194l0 93.83688l-363.11813 0l0 90.42108" fill-rule="evenodd"/><path fill="#000000" stroke="#000000" stroke-width="1.0" stroke-linecap="butt" d="m414.74014 369.7199l-1.1245728 -1.1246033l1.1245728 3.0897827l1.1246033 -3.0897827z" fill-rule="evenodd"/><path fill="#000000" fill-opacity="0.0" d="m777.8583 185.46194l0 93.83688l-548.66144 0l0 93.848145" fill-rule="evenodd"/><path stroke="#000000" stroke-width="1.0" stroke-linejoin="round" stroke-linecap="butt" d="m777.8583 185.46194l0 93.83688l-548.66144 0l0 90.42108" fill-rule="evenodd"/><path fill="#000000" stroke="#000000" stroke-width="1.0" stroke-linecap="butt" d="m229.19685 369.7199l-1.124588 -1.1246033l1.124588 3.0897827l1.1245728 -3.0897827z" fill-rule="evenodd"/><path fill="#d9d2e9" d="m67.67454 133.66667l148.50394 0l0 49.19684l-148.50394 0z" fill-rule="evenodd"/><path fill="#000000" d="m122.32221 161.37634q0 0.265625 -0.125 0.484375q-0.109375 0.21875 -0.328125 0.390625q-0.328125 0.25 -0.78125 0.375q-0.4375 0.125 -0.953125 0.125q-0.390625 0 -0.796875 -0.0625q-0.390625 -0.078125 -0.734375 -0.265625q-0.328125 -0.1875 -0.5625 -0.484375q-0.234375 -0.3125 -0.28125 -0.765625l-0.859375 0q0.015625 0.53125 0.265625 0.96875q0.265625 0.421875 0.703125 0.71875q0.4375 0.296875 1.015625 0.46875q0.59375 0.15625 1.25 0.15625q0.609375 0 1.1875 -0.140625q0.59375 -0.15625 1.03125 -0.46875q0.375 -0.265625 0.59375 -0.65625q0.234375 -0.390625 0.234375 -0.890625q0 -0.53125 -0.25 -0.90625q-0.234375 -0.375 -0.625 -0.640625q-0.40625 -0.265625 -0.953125 -0.4375q-0.53125 -0.171875 -1.125 -0.296875q-0.453125 -0.09375 -0.875 -0.203125q-0.40625 -0.125 -0.71875 -0.3125q-0.296875 -0.15625 -0.453125 -0.40625q-0.15625 -0.25 -0.15625 -0.578125q0 -0.34375 0.171875 -0.59375q0.1875 -0.25 0.46875 -0.421875q0.28125 -0.171875 0.65625 -0.25q0.375 -0.09375 0.765625 -0.09375q0.40625 0 0.796875 0.109375q0.390625 0.109375 0.703125 0.3125q0.296875 0.203125 0.484375 0.5q0.203125 0.28125 0.203125 0.65625l0.859375 0q-0.015625 -0.546875 -0.265625 -0.96875q-0.25 -0.4375 -0.65625 -0.734375q-0.40625 -0.296875 -0.953125 -0.453125q-0.546875 -0.15625 -1.171875 -0.15625q-0.5625 0 -1.09375 0.15625q-0.515625 0.140625 -0.90625 0.390625q-0.421875 0.28125 -0.671875 0.671875q-0.25 0.390625 -0.25 0.890625q0 0.53125 0.25 0.90625q0.25 0.359375 0.65625 0.609375q0.421875 0.25 0.90625 0.40625q0.5 0.15625 1.09375 0.28125q0.484375 0.09375 0.90625 0.234375q0.4375 0.140625 0.75 0.34375q0.28125 0.1875 0.4375 0.4375q0.15625 0.25 0.15625 0.59375zm2.9514313 -2.015625l0 0.234375q0 0.78125 0.234375 1.5q0.25 0.703125 0.703125 1.234375q0.421875 0.53125 1.0625 0.84375q0.65625 0.3125 1.4687576 0.3125q0.8125 0 1.453125 -0.3125q0.640625 -0.3125 1.078125 -0.84375q0.4375 -0.53125 0.671875 -1.234375q0.234375 -0.71875 0.234375 -1.5l0 -0.234375q0 -0.796875 -0.234375 -1.5q-0.234375 -0.71875 -0.671875 -1.25q-0.453125 -0.53125 -1.09375 -0.84375q-0.640625 -0.3125 -1.453125 -0.3125q-0.8125076 0 -1.4531326 0.328125q-0.640625 0.3125 -1.078125 0.828125q-0.4375 0.546875 -0.6875 1.265625q-0.234375 0.703125 -0.234375 1.484375zm0.859375 0.234375l0 -0.234375q0 -0.609375 0.171875 -1.171875q0.171875 -0.578125 0.5 -1.015625q0.328125 -0.453125 0.8125 -0.71875q0.48438263 -0.265625 1.1093826 -0.265625q0.640625 0 1.109375 0.265625q0.484375 0.265625 0.828125 0.71875q0.3125 0.4375 0.484375 1.015625q0.171875 0.5625 0.1875 1.171875l0 0.234375q-0.015625 0.609375 -0.1875 1.1875q-0.15625 0.5625 -0.484375 1.0q-0.328125 0.453125 -0.8125 0.71875q-0.484375 0.25 -1.109375 0.25q-0.640625 0 -1.1250076 -0.25q-0.484375 -0.265625 -0.8125 -0.703125q-0.328125 -0.453125 -0.5 -1.015625q-0.171875 -0.578125 -0.171875 -1.1875zm13.623314 3.75l0.796875 0l0 -7.75l-0.859375 0l0 5.453125q-0.09375 0.390625 -0.296875 0.703125q-0.203125 0.296875 -0.484375 0.5q-0.3125 0.234375 -0.71875 0.359375q-0.40625 0.125 -0.90625 0.125q-0.484375 0 -0.828125 -0.140625q-0.34375 -0.15625 -0.59375 -0.453125q-0.234375 -0.3125 -0.34375 -0.75q-0.109375 -0.4375 -0.109375 -1.015625l0 -4.78125l-0.859375 0l0 4.765625q0 0.75 0.171875 1.328125q0.171875 0.578125 0.515625 0.96875q0.328125 0.40625 0.8125 0.625q0.5 0.203125 1.140625 0.203125q0.875 0 1.515625 -0.359375q0.640625 -0.359375 1.015625 -1.0l0.03125 1.21875zm8.670181 -7.890625q-1.046875 0 -1.828125 0.453125q-0.765625 0.4375 -1.21875 1.21875l-0.015625 -0.34375l-0.046875 -1.1875l-0.8125 0l0 7.75l0.890625 0l-0.015625 -4.953125q0.140625 -0.53125 0.40625 -0.921875q0.265625 -0.390625 0.640625 -0.65625q0.375 -0.265625 0.84375 -0.390625q0.484375 -0.125 1.03125 -0.125q0.3125 0 0.609375 0.046875q0.296875 0.03125 0.59375 0.09375l0.109375 -0.828125q-0.21875 -0.078125 -0.546875 -0.109375q-0.328125 -0.046875 -0.640625 -0.046875zm6.8264313 7.296875q-0.6875 0 -1.171875 -0.265625q-0.46875 -0.265625 -0.765625 -0.71875q-0.296875 -0.4375 -0.4375 -1.0q-0.140625 -0.5625 -0.140625 -1.140625l0 -0.296875q0 -0.578125 0.140625 -1.140625q0.140625 -0.5625 0.4375 -1.015625q0.296875 -0.4375 0.765625 -0.703125q0.484375 -0.28125 1.15625 -0.28125q0.46875 0 0.859375 0.15625q0.40625 0.15625 0.703125 0.421875q0.296875 0.265625 0.46875 0.640625q0.171875 0.359375 0.203125 0.796875l0.8125 0q-0.015625 -0.59375 -0.25 -1.09375q-0.234375 -0.515625 -0.640625 -0.875q-0.40625 -0.375 -0.953125 -0.578125q-0.546875 -0.203125 -1.203125 -0.203125q-0.84375 0 -1.484375 0.328125q-0.625 0.3125 -1.03125 0.84375q-0.421875 0.546875 -0.640625 1.25q-0.203125 0.703125 -0.203125 1.453125l0 0.296875q0 0.75 0.203125 1.453125q0.21875 0.6875 0.640625 1.21875q0.421875 0.546875 1.046875 0.875q0.625 0.3125 1.484375 0.3125q0.578125 0 1.125 -0.1875q0.546875 -0.203125 0.953125 -0.53125q0.40625 -0.34375 0.65625 -0.796875q0.265625 -0.46875 0.296875 -1.015625l-0.8125 0q-0.03125 0.40625 -0.21875 0.75q-0.1875 0.328125 -0.484375 0.5625q-0.3125 0.234375 -0.703125 0.359375q-0.390625 0.125 -0.8125 0.125zm8.951431 0.734375q0.96875 0 1.6875 -0.375q0.734375 -0.375 1.1875 -1.0l-0.546875 -0.40625q-0.421875 0.515625 -1.0 0.78125q-0.578125 0.265625 -1.296875 0.265625q-0.625 0 -1.140625 -0.234375q-0.5 -0.25 -0.859375 -0.671875q-0.359375 -0.40625 -0.5625 -0.9375q-0.203125 -0.53125 -0.234375 -1.140625l0 -0.234375l5.796875 0l0 -0.53125q0 -0.734375 -0.21875 -1.375q-0.203125 -0.65625 -0.59375 -1.140625q-0.421875 -0.46875 -1.015625 -0.75q-0.59375 -0.28125 -1.359375 -0.28125q-0.734375 0 -1.359375 0.3125q-0.625 0.296875 -1.09375 0.828125q-0.46875 0.53125 -0.734375 1.25q-0.265625 0.703125 -0.265625 1.53125l0 0.3125q0 0.78125 0.265625 1.46875q0.265625 0.6875 0.734375 1.21875q0.484375 0.515625 1.140625 0.8125q0.671875 0.296875 1.46875 0.296875zm-0.15625 -7.296875q0.546875 0 0.96875 0.21875q0.4375 0.203125 0.734375 0.5625q0.296875 0.34375 0.46875 0.8125q0.171875 0.46875 0.171875 0.9375l0 0.078125l-4.90625 0q0.078125 -0.5625 0.28125 -1.03125q0.21875 -0.484375 0.5625 -0.828125q0.328125 -0.34375 0.75 -0.546875q0.4375 -0.203125 0.96875 -0.203125z" fill-rule="nonzero"/><path fill="#000000" fill-opacity="0.0" d="m216.17848 158.26509l534.4882 0" fill-rule="evenodd"/><path stroke="#000000" stroke-width="1.0" stroke-linejoin="round" stroke-linecap="butt" d="m216.17848 158.26509l528.4882 0" fill-rule="evenodd"/><path fill="#000000" stroke="#000000" stroke-width="1.0" stroke-linecap="butt" d="m744.6667 159.91682l4.538086 -1.6517334l-4.538086 -1.6517334z" fill-rule="evenodd"/><path fill="#d9d9d9" d="m262.2546 143.83989l92.06299 0l0 28.850403l-92.06299 0z" fill-rule="evenodd"/><path fill="#000000" d="m286.0619 155.14365q1.25 0 1.875 0.375q0.640625 0.359375 0.640625 1.265625q0 0.390625 -0.140625 0.703125q-0.140625 0.296875 -0.421875 0.5q-0.28125 0.203125 -0.703125 0.28125l0 0.046875q0.421875 0.0625 0.765625 0.25q0.34375 0.171875 0.53125 0.5q0.203125 0.3125 0.203125 0.84375q0 0.609375 -0.28125 1.03125q-0.28125 0.421875 -0.796875 0.640625q-0.515625 0.21875 -1.234375 0.21875l-2.34375 0l0 -6.65625l1.90625 0zm0.15625 2.828125q0.859375 0 1.171875 -0.265625q0.328125 -0.28125 0.328125 -0.828125q0 -0.546875 -0.390625 -0.78125q-0.390625 -0.234375 -1.234375 -0.234375l-1.09375 0l0 2.109375l1.21875 0zm-1.21875 0.703125l0 2.421875l1.34375 0q0.875 0 1.21875 -0.34375q0.359375 -0.359375 0.359375 -0.90625q0 -0.359375 -0.15625 -0.609375q-0.15625 -0.265625 -0.515625 -0.40625q-0.359375 -0.15625 -0.984375 -0.15625l-1.265625 0zm5.9226685 -1.875l0 5.0l-0.8125 0l0 -5.0l0.8125 0zm-0.390625 -1.875q0.1875 0 0.328125 0.125q0.140625 0.125 0.140625 0.390625q0 0.265625 -0.140625 0.40625q-0.140625 0.125 -0.328125 0.125q-0.21875 0 -0.359375 -0.125q-0.125 -0.140625 -0.125 -0.40625q0 -0.265625 0.125 -0.390625q0.140625 -0.125 0.359375 -0.125zm4.3910217 1.78125q0.890625 0 1.34375 0.4375q0.46875 0.4375 0.46875 1.40625l0 3.25l-0.8125 0l0 -3.203125q0 -0.609375 -0.28125 -0.90625q-0.265625 -0.296875 -0.84375 -0.296875q-0.828125 0 -1.15625 0.46875q-0.3125 0.46875 -0.3125 1.34375l0 2.59375l-0.8125 0l0 -5.0l0.65625 0l0.125 0.6875l0.046875 0q0.171875 -0.265625 0.40625 -0.4375q0.25 -0.171875 0.546875 -0.25q0.296875 -0.09375 0.625 -0.09375zm5.249176 0.015625q0.90625 0 1.34375 0.40625q0.453125 0.390625 0.453125 1.265625l0 3.40625l-0.609375 0l-0.15625 -0.703125l-0.03125 0q-0.21875 0.265625 -0.453125 0.453125q-0.21875 0.171875 -0.515625 0.25q-0.296875 0.09375 -0.71875 0.09375q-0.4375 0 -0.796875 -0.15625q-0.359375 -0.15625 -0.578125 -0.484375q-0.203125 -0.34375 -0.203125 -0.84375q0 -0.75 0.59375 -1.15625q0.59375 -0.40625 1.8125 -0.4375l0.84375 -0.03125l0 -0.296875q0 -0.625 -0.265625 -0.859375q-0.265625 -0.25 -0.765625 -0.25q-0.390625 0 -0.75 0.125q-0.34375 0.109375 -0.65625 0.25l-0.25 -0.609375q0.328125 -0.171875 0.765625 -0.296875q0.453125 -0.125 0.9375 -0.125zm0.234375 2.65625q-0.921875 0.046875 -1.28125 0.3125q-0.359375 0.25 -0.359375 0.734375q0 0.421875 0.25 0.625q0.265625 0.1875 0.65625 0.1875q0.640625 0 1.0625 -0.34375q0.421875 -0.359375 0.421875 -1.09375l0 -0.4375l-0.75 0.015625zm5.4361877 -2.671875q0.140625 0 0.296875 0.015625q0.171875 0.015625 0.296875 0.046875l-0.109375 0.75q-0.125 -0.03125 -0.265625 -0.046875q-0.140625 -0.015625 -0.28125 -0.015625q-0.28125 0 -0.546875 0.125q-0.265625 0.109375 -0.46875 0.328125q-0.203125 0.21875 -0.328125 0.53125q-0.109375 0.3125 -0.109375 0.6875l0 2.671875l-0.8125 0l0 -5.0l0.671875 0l0.09375 0.921875l0.03125 0q0.15625 -0.28125 0.375 -0.515625q0.234375 -0.234375 0.515625 -0.359375q0.296875 -0.140625 0.640625 -0.140625zm0.74316406 0.09375l0.875 0l1.078125 2.84375q0.09375 0.25 0.171875 0.484375q0.078125 0.234375 0.140625 0.453125q0.0625 0.21875 0.109375 0.421875l0.03125 0q0.0625 -0.234375 0.171875 -0.609375q0.125 -0.375 0.265625 -0.765625l1.015625 -2.828125l0.875 0l-2.140625 5.6875q-0.1875 0.46875 -0.421875 0.8125q-0.234375 0.359375 -0.578125 0.546875q-0.34375 0.1875 -0.828125 0.1875q-0.21875 0 -0.390625 -0.03125q-0.171875 -0.015625 -0.28125 -0.03125l0 -0.65625q0.09375 0.015625 0.234375 0.03125q0.15625 0.015625 0.3125 0.015625q0.28125 0 0.484375 -0.109375q0.21875 -0.09375 0.359375 -0.296875q0.15625 -0.203125 0.265625 -0.46875l0.265625 -0.671875l-2.015625 -5.015625zm9.729523 5.09375q-0.9375 0 -1.5 -0.640625q-0.546875 -0.65625 -0.546875 -1.9375q0 -1.296875 0.5625 -1.953125q0.5625 -0.65625 1.5 -0.65625q0.390625 0 0.671875 0.109375q0.296875 0.09375 0.5 0.265625q0.21875 0.15625 0.375 0.359375l0.046875 0q0 -0.125 -0.03125 -0.359375q-0.015625 -0.234375 -0.015625 -0.375l0 -2.0l0.8125 0l0 7.09375l-0.65625 0l-0.125 -0.671875l-0.03125 0q-0.15625 0.21875 -0.375 0.390625q-0.203125 0.171875 -0.5 0.28125q-0.296875 0.09375 -0.6875 0.09375zm0.140625 -0.6875q0.78125 0 1.09375 -0.421875q0.328125 -0.4375 0.328125 -1.3125l0 -0.15625q0 -0.9375 -0.3125 -1.421875q-0.296875 -0.5 -1.125 -0.5q-0.65625 0 -1.0 0.53125q-0.328125 0.515625 -0.328125 1.40625q0 0.890625 0.328125 1.390625q0.34375 0.484375 1.015625 0.484375zm5.721161 -4.484375q0.90625 0 1.34375 0.40625q0.453125 0.390625 0.453125 1.265625l0 3.40625l-0.609375 0l-0.15625 -0.703125l-0.03125 0q-0.21875 0.265625 -0.453125 0.453125q-0.21875 0.171875 -0.515625 0.25q-0.296875 0.09375 -0.71875 0.09375q-0.4375 0 -0.796875 -0.15625q-0.359375 -0.15625 -0.578125 -0.484375q-0.203125 -0.34375 -0.203125 -0.84375q0 -0.75 0.59375 -1.15625q0.59375 -0.40625 1.8125 -0.4375l0.84375 -0.03125l0 -0.296875q0 -0.625 -0.265625 -0.859375q-0.265625 -0.25 -0.765625 -0.25q-0.390625 0 -0.75 0.125q-0.34375 0.109375 -0.65625 0.25l-0.25 -0.609375q0.328125 -0.171875 0.765625 -0.296875q0.453125 -0.125 0.9375 -0.125zm0.234375 2.65625q-0.921875 0.046875 -1.28125 0.3125q-0.359375 0.25 -0.359375 0.734375q0 0.421875 0.25 0.625q0.265625 0.1875 0.65625 0.1875q0.640625 0 1.0625 -0.34375q0.421875 -0.359375 0.421875 -1.09375l0 -0.4375l-0.75 0.015625zm4.7799683 1.84375q0.1875 0 0.375 -0.03125q0.203125 -0.03125 0.3125 -0.078125l0 0.625q-0.125 0.078125 -0.375 0.109375q-0.234375 0.046875 -0.453125 0.046875q-0.390625 0 -0.734375 -0.125q-0.328125 -0.140625 -0.53125 -0.46875q-0.203125 -0.34375 -0.203125 -0.953125l0 -2.90625l-0.703125 0l0 -0.390625l0.71875 -0.328125l0.3125 -1.0625l0.484375 0l0 1.140625l1.453125 0l0 0.640625l-1.453125 0l0 2.890625q0 0.453125 0.21875 0.671875q0.234375 0.21875 0.578125 0.21875zm3.5862122 -4.5q0.90625 0 1.34375 0.40625q0.453125 0.390625 0.453125 1.265625l0 3.40625l-0.609375 0l-0.15625 -0.703125l-0.03125 0q-0.21875 0.265625 -0.453125 0.453125q-0.21875 0.171875 -0.515625 0.25q-0.296875 0.09375 -0.71875 0.09375q-0.4375 0 -0.796875 -0.15625q-0.359375 -0.15625 -0.578125 -0.484375q-0.203125 -0.34375 -0.203125 -0.84375q0 -0.75 0.59375 -1.15625q0.59375 -0.40625 1.8125 -0.4375l0.84375 -0.03125l0 -0.296875q0 -0.625 -0.265625 -0.859375q-0.265625 -0.25 -0.765625 -0.25q-0.390625 0 -0.75 0.125q-0.34375 0.109375 -0.65625 0.25l-0.25 -0.609375q0.328125 -0.171875 0.765625 -0.296875q0.453125 -0.125 0.9375 -0.125zm0.234375 2.65625q-0.921875 0.046875 -1.28125 0.3125q-0.359375 0.25 -0.359375 0.734375q0 0.421875 0.25 0.625q0.265625 0.1875 0.65625 0.1875q0.640625 0 1.0625 -0.34375q0.421875 -0.359375 0.421875 -1.09375l0 -0.4375l-0.75 0.015625z" fill-rule="nonzero"/><path fill="#d9ead3" d="m574.93964 142.02887l136.66144 0l0 32.472443l-136.66144 0z" fill-rule="evenodd"/><path fill="#000000" d="m593.99274 158.5051l0 -0.8125l-3.171875 0l0 -2.4375l3.640625 0l0 -0.828125l-4.59375 0l0 7.578125l4.640625 0l0 -0.8125l-3.6875 0l0 -2.6875l3.171875 0zm2.2229004 3.5l0.96875 0l0 -4.03125q0.09375 -0.1875 0.21875 -0.328125q0.140625 -0.15625 0.296875 -0.28125q0.1875 -0.125 0.40625 -0.203125q0.234375 -0.078125 0.5 -0.078125q0.3125 0 0.546875 0.078125q0.234375 0.078125 0.40625 0.234375q0.15625 0.15625 0.234375 0.421875q0.09375 0.265625 0.09375 0.640625l0 3.546875l0.96875 0l0 -3.578125q0 -0.5625 -0.140625 -0.96875q-0.140625 -0.40625 -0.390625 -0.671875q-0.265625 -0.265625 -0.625 -0.390625q-0.359375 -0.125 -0.796875 -0.125q-0.328125 0 -0.625 0.09375q-0.296875 0.09375 -0.546875 0.265625q-0.15625 0.109375 -0.3125 0.265625q-0.140625 0.140625 -0.265625 0.3125l-0.078125 -0.828125l-0.859375 0l0 5.625zm8.785461 -0.671875q-0.453125 0 -0.75 -0.171875q-0.296875 -0.1875 -0.484375 -0.484375q-0.1875 -0.28125 -0.265625 -0.640625q-0.078125 -0.375 -0.078125 -0.734375l0 -0.21875q0 -0.359375 0.078125 -0.71875q0.078125 -0.359375 0.265625 -0.65625q0.1875 -0.28125 0.484375 -0.453125q0.3125 -0.1875 0.75 -0.1875q0.296875 0 0.546875 0.09375q0.25 0.09375 0.4375 0.265625q0.1875 0.171875 0.28125 0.40625q0.109375 0.21875 0.125 0.484375l0.90625 0q0 -0.4375 -0.171875 -0.8125q-0.171875 -0.375 -0.46875 -0.640625q-0.3125 -0.28125 -0.734375 -0.4375q-0.421875 -0.15625 -0.921875 -0.15625q-0.625 0 -1.109375 0.234375q-0.484375 0.21875 -0.796875 0.609375q-0.328125 0.390625 -0.484375 0.90625q-0.15625 0.5 -0.15625 1.0625l0 0.21875q0 0.5625 0.15625 1.078125q0.15625 0.5 0.484375 0.875q0.3125 0.390625 0.796875 0.625q0.484375 0.234375 1.109375 0.234375q0.453125 0 0.859375 -0.15625q0.421875 -0.15625 0.734375 -0.421875q0.3125 -0.25 0.5 -0.59375q0.203125 -0.34375 0.203125 -0.71875l-0.90625 0q-0.015625 0.234375 -0.140625 0.4375q-0.109375 0.203125 -0.296875 0.34375q-0.1875 0.15625 -0.4375 0.25q-0.25 0.078125 -0.515625 0.078125zm3.7385254 -2.1875l0 0.109375q0 0.609375 0.171875 1.125q0.171875 0.515625 0.515625 0.90625q0.328125 0.390625 0.796875 0.609375q0.484375 0.21875 1.078125 0.21875q0.59375 0 1.0625 -0.21875q0.46875 -0.21875 0.8125 -0.609375q0.328125 -0.390625 0.5 -0.90625q0.171875 -0.515625 0.171875 -1.125l0 -0.109375q0 -0.609375 -0.171875 -1.125q-0.171875 -0.53125 -0.5 -0.921875q-0.34375 -0.390625 -0.828125 -0.609375q-0.46875 -0.21875 -1.0625 -0.21875q-0.59375 0 -1.0625 0.21875q-0.46875 0.21875 -0.796875 0.609375q-0.34375 0.390625 -0.515625 0.921875q-0.171875 0.515625 -0.171875 1.125zm0.953125 0.109375l0 -0.109375q0 -0.421875 0.09375 -0.796875q0.109375 -0.375 0.3125 -0.65625q0.203125 -0.296875 0.484375 -0.453125q0.296875 -0.171875 0.703125 -0.171875q0.40625 0 0.703125 0.171875q0.296875 0.15625 0.5 0.453125q0.203125 0.28125 0.296875 0.65625q0.109375 0.375 0.109375 0.796875l0 0.109375q0 0.40625 -0.109375 0.796875q-0.09375 0.375 -0.296875 0.65625q-0.203125 0.28125 -0.5 0.453125q-0.296875 0.171875 -0.6875 0.171875q-0.40625 0 -0.703125 -0.171875q-0.296875 -0.171875 -0.5 -0.453125q-0.203125 -0.28125 -0.3125 -0.65625q-0.09375 -0.390625 -0.09375 -0.796875zm5.5197754 -0.109375l0 0.109375q0 0.59375 0.15625 1.125q0.171875 0.515625 0.46875 0.90625q0.28125 0.390625 0.6875 0.609375q0.421875 0.21875 0.9375 0.21875q0.515625 0 0.90625 -0.171875q0.390625 -0.1875 0.671875 -0.53125l0.046875 0.59375l0.875 0l0 -8.0l-0.953125 0l0 2.921875q-0.28125 -0.3125 -0.65625 -0.484375q-0.375 -0.171875 -0.890625 -0.171875q-0.5 0 -0.921875 0.21875q-0.421875 0.203125 -0.703125 0.59375q-0.296875 0.375 -0.46875 0.90625q-0.15625 0.53125 -0.15625 1.15625zm0.96875 0.109375l0 -0.109375q0 -0.40625 0.078125 -0.78125q0.09375 -0.375 0.28125 -0.65625q0.1875 -0.28125 0.46875 -0.453125q0.296875 -0.171875 0.703125 -0.171875q0.46875 0 0.78125 0.234375q0.328125 0.21875 0.515625 0.5625l0 2.609375q-0.1875 0.359375 -0.515625 0.578125q-0.3125 0.21875 -0.796875 0.21875q-0.40625 0 -0.6875 -0.15625q-0.28125 -0.171875 -0.46875 -0.453125q-0.1875 -0.28125 -0.28125 -0.640625q-0.078125 -0.375 -0.078125 -0.78125zm8.0979 2.859375q0.828125 0 1.375 -0.328125q0.5625 -0.34375 0.84375 -0.765625l-0.578125 -0.453125q-0.265625 0.34375 -0.671875 0.546875q-0.40625 0.203125 -0.921875 0.203125q-0.390625 0 -0.71875 -0.140625q-0.3125 -0.140625 -0.53125 -0.40625q-0.234375 -0.234375 -0.359375 -0.546875q-0.125 -0.3125 -0.15625 -0.71875l0 -0.046875l4.015625 0l0 -0.421875q0 -0.59375 -0.15625 -1.09375q-0.140625 -0.5 -0.4375 -0.875q-0.3125 -0.375 -0.765625 -0.578125q-0.453125 -0.21875 -1.0625 -0.21875q-0.484375 0 -0.953125 0.203125q-0.453125 0.1875 -0.8125 0.5625q-0.359375 0.375 -0.578125 0.921875q-0.21875 0.53125 -0.21875 1.21875l0 0.203125q0 0.59375 0.1875 1.09375q0.203125 0.5 0.5625 0.859375q0.359375 0.375 0.84375 0.578125q0.5 0.203125 1.09375 0.203125zm-0.125 -5.046875q0.375 0 0.640625 0.140625q0.265625 0.125 0.4375 0.34375q0.1875 0.21875 0.28125 0.515625q0.09375 0.296875 0.09375 0.5625l0 0.046875l-3.015625 0q0.046875 -0.390625 0.1875 -0.6875q0.15625 -0.296875 0.359375 -0.515625q0.203125 -0.203125 0.453125 -0.296875q0.265625 -0.109375 0.5625 -0.109375zm3.8479614 2.078125l0 0.109375q0 0.59375 0.15625 1.125q0.171875 0.515625 0.46875 0.90625q0.28125 0.390625 0.6875 0.609375q0.421875 0.21875 0.9375 0.21875q0.515625 0 0.90625 -0.171875q0.390625 -0.1875 0.671875 -0.53125l0.046875 0.59375l0.875 0l0 -8.0l-0.953125 0l0 2.921875q-0.28125 -0.3125 -0.65625 -0.484375q-0.375 -0.171875 -0.890625 -0.171875q-0.5 0 -0.921875 0.21875q-0.421875 0.203125 -0.703125 0.59375q-0.296875 0.375 -0.46875 0.90625q-0.15625 0.53125 -0.15625 1.15625zm0.96875 0.109375l0 -0.109375q0 -0.40625 0.078125 -0.78125q0.09375 -0.375 0.28125 -0.65625q0.1875 -0.28125 0.46875 -0.453125q0.296875 -0.171875 0.703125 -0.171875q0.46875 0 0.78125 0.234375q0.328125 0.21875 0.515625 0.5625l0 2.609375q-0.1875 0.359375 -0.515625 0.578125q-0.3125 0.21875 -0.796875 0.21875q-0.40625 0 -0.6875 -0.15625q-0.28125 -0.171875 -0.46875 -0.453125q-0.1875 -0.28125 -0.28125 -0.640625q-0.078125 -0.375 -0.078125 -0.78125zm7.4729004 2.75l0.828125 0l2.390625 -7.578125l-1.015625 0l-1.6875 5.640625l-0.109375 0.390625l-0.109375 -0.375l-1.65625 -5.65625l-1.03125 0l2.390625 7.578125zm4.6916504 -5.625l0 0.828125l1.90625 0l0 3.96875l-1.90625 0l0 0.828125l4.703125 0l0 -0.828125l-1.828125 0l0 -4.796875l-2.875 0zm1.78125 -1.484375q0 0.234375 0.140625 0.390625q0.140625 0.15625 0.4375 0.15625q0.28125 0 0.421875 -0.15625q0.15625 -0.15625 0.15625 -0.390625q0 -0.125 -0.046875 -0.234375q-0.03125 -0.109375 -0.125 -0.1875q-0.0625 -0.0625 -0.171875 -0.09375q-0.09375 -0.046875 -0.234375 -0.046875q-0.140625 0 -0.25 0.046875q-0.09375 0.03125 -0.171875 0.09375q-0.078125 0.078125 -0.125 0.1875q-0.03125 0.109375 -0.03125 0.234375zm4.2697754 4.25l0 0.109375q0 0.59375 0.15625 1.125q0.171875 0.515625 0.46875 0.90625q0.28125 0.390625 0.6875 0.609375q0.421875 0.21875 0.9375 0.21875q0.515625 0 0.90625 -0.171875q0.390625 -0.1875 0.671875 -0.53125l0.046875 0.59375l0.875 0l0 -8.0l-0.953125 0l0 2.921875q-0.28125 -0.3125 -0.65625 -0.484375q-0.375 -0.171875 -0.890625 -0.171875q-0.5 0 -0.921875 0.21875q-0.421875 0.203125 -0.703125 0.59375q-0.296875 0.375 -0.46875 0.90625q-0.15625 0.53125 -0.15625 1.15625zm0.96875 0.109375l0 -0.109375q0 -0.40625 0.078125 -0.78125q0.09375 -0.375 0.28125 -0.65625q0.1875 -0.28125 0.46875 -0.453125q0.296875 -0.171875 0.703125 -0.171875q0.46875 0 0.78125 0.234375q0.328125 0.21875 0.515625 0.5625l0 2.609375q-0.1875 0.359375 -0.515625 0.578125q-0.3125 0.21875 -0.796875 0.21875q-0.40625 0 -0.6875 -0.15625q-0.28125 -0.171875 -0.46875 -0.453125q-0.1875 -0.28125 -0.28125 -0.640625q-0.078125 -0.375 -0.078125 -0.78125zm8.097961 2.859375q0.828125 0 1.375 -0.328125q0.5625 -0.34375 0.84375 -0.765625l-0.578125 -0.453125q-0.265625 0.34375 -0.671875 0.546875q-0.40625 0.203125 -0.921875 0.203125q-0.390625 0 -0.71875 -0.140625q-0.3125 -0.140625 -0.53125 -0.40625q-0.234375 -0.234375 -0.359375 -0.546875q-0.125 -0.3125 -0.15625 -0.71875l0 -0.046875l4.015625 0l0 -0.421875q0 -0.59375 -0.15625 -1.09375q-0.140625 -0.5 -0.4375 -0.875q-0.3125 -0.375 -0.765625 -0.578125q-0.453125 -0.21875 -1.0625 -0.21875q-0.484375 0 -0.953125 0.203125q-0.453125 0.1875 -0.8125 0.5625q-0.359375 0.375 -0.578125 0.921875q-0.21875 0.53125 -0.21875 1.21875l0 0.203125q0 0.59375 0.1875 1.09375q0.203125 0.5 0.5625 0.859375q0.359375 0.375 0.84375 0.578125q0.5 0.203125 1.09375 0.203125zm-0.125 -5.046875q0.375 0 0.640625 0.140625q0.265625 0.125 0.4375 0.34375q0.1875 0.21875 0.28125 0.515625q0.09375 0.296875 0.09375 0.5625l0 0.046875l-3.015625 0q0.046875 -0.390625 0.1875 -0.6875q0.15625 -0.296875 0.359375 -0.515625q0.203125 -0.203125 0.453125 -0.296875q0.265625 -0.109375 0.5625 -0.109375zm3.7697754 2.078125l0 0.109375q0 0.609375 0.171875 1.125q0.171875 0.515625 0.515625 0.90625q0.328125 0.390625 0.796875 0.609375q0.484375 0.21875 1.078125 0.21875q0.59375 0 1.0625 -0.21875q0.46875 -0.21875 0.8125 -0.609375q0.328125 -0.390625 0.5 -0.90625q0.171875 -0.515625 0.171875 -1.125l0 -0.109375q0 -0.609375 -0.171875 -1.125q-0.171875 -0.53125 -0.5 -0.921875q-0.34375 -0.390625 -0.828125 -0.609375q-0.46875 -0.21875 -1.0625 -0.21875q-0.59375 0 -1.0625 0.21875q-0.46875 0.21875 -0.796875 0.609375q-0.34375 0.390625 -0.515625 0.921875q-0.171875 0.515625 -0.171875 1.125zm0.953125 0.109375l0 -0.109375q0 -0.421875 0.09375 -0.796875q0.109375 -0.375 0.3125 -0.65625q0.203125 -0.296875 0.484375 -0.453125q0.296875 -0.171875 0.703125 -0.171875q0.40625 0 0.703125 0.171875q0.296875 0.15625 0.5 0.453125q0.203125 0.28125 0.296875 0.65625q0.109375 0.375 0.109375 0.796875l0 0.109375q0 0.40625 -0.109375 0.796875q-0.09375 0.375 -0.296875 0.65625q-0.203125 0.28125 -0.5 0.453125q-0.296875 0.171875 -0.6875 0.171875q-0.40625 0 -0.703125 -0.171875q-0.296875 -0.171875 -0.5 -0.453125q-0.203125 -0.28125 -0.3125 -0.65625q-0.09375 -0.390625 -0.09375 -0.796875zm10.613525 0.46875l-0.96875 0q-0.046875 0.34375 -0.15625 0.640625q-0.109375 0.296875 -0.3125 0.5q-0.1875 0.21875 -0.46875 0.34375q-0.28125 0.125 -0.65625 0.125q-0.34375 0 -0.609375 -0.109375q-0.25 -0.125 -0.453125 -0.3125q-0.1875 -0.203125 -0.3125 -0.453125q-0.125 -0.25 -0.203125 -0.546875q-0.078125 -0.28125 -0.109375 -0.578125q-0.03125 -0.296875 -0.03125 -0.578125l0 -1.078125q0 -0.28125 0.03125 -0.578125q0.03125 -0.296875 0.109375 -0.578125q0.078125 -0.296875 0.203125 -0.546875q0.125 -0.25 0.328125 -0.453125q0.1875 -0.1875 0.4375 -0.296875q0.265625 -0.109375 0.609375 -0.109375q0.375 0 0.65625 0.125q0.28125 0.125 0.46875 0.34375q0.203125 0.234375 0.3125 0.53125q0.109375 0.296875 0.15625 0.640625l0.96875 0q-0.0625 -0.546875 -0.265625 -0.984375q-0.1875 -0.453125 -0.515625 -0.78125q-0.3125 -0.3125 -0.765625 -0.484375q-0.453125 -0.1875 -1.015625 -0.1875q-0.46875 0 -0.859375 0.140625q-0.375 0.125 -0.671875 0.359375q-0.296875 0.234375 -0.515625 0.5625q-0.21875 0.3125 -0.359375 0.6875q-0.140625 0.375 -0.21875 0.796875q-0.0625 0.40625 -0.0625 0.828125l0 1.0625q0 0.421875 0.0625 0.828125q0.078125 0.40625 0.21875 0.78125q0.140625 0.375 0.359375 0.703125q0.21875 0.3125 0.515625 0.546875q0.296875 0.234375 0.671875 0.375q0.390625 0.125 0.859375 0.125q0.546875 0 0.984375 -0.171875q0.453125 -0.1875 0.78125 -0.5q0.328125 -0.3125 0.53125 -0.75q0.203125 -0.4375 0.265625 -0.96875zm2.4572754 -2.515625l0 -3.203125l-0.96875 0l0 8.0l0.96875 0l0 -4.09375q0.09375 -0.15625 0.21875 -0.296875q0.140625 -0.140625 0.296875 -0.25q0.203125 -0.125 0.4375 -0.203125q0.234375 -0.078125 0.484375 -0.078125q0.328125 0 0.5625 0.09375q0.25 0.09375 0.40625 0.265625q0.15625 0.171875 0.234375 0.421875q0.078125 0.25 0.078125 0.59375l0 3.546875l0.96875 0l0 -3.546875q0 -0.5625 -0.140625 -0.96875q-0.140625 -0.421875 -0.390625 -0.6875q-0.265625 -0.28125 -0.625 -0.40625q-0.359375 -0.125 -0.796875 -0.125q-0.34375 0 -0.640625 0.09375q-0.296875 0.09375 -0.546875 0.28125q-0.15625 0.109375 -0.296875 0.25q-0.140625 0.140625 -0.25 0.3125zm9.129211 4.796875l0.875 0l0 -5.625l-0.96875 0l0 4.03125q-0.078125 0.1875 -0.203125 0.34375q-0.109375 0.140625 -0.265625 0.25q-0.1875 0.140625 -0.4375 0.21875q-0.25 0.078125 -0.578125 0.078125q-0.28125 0 -0.484375 -0.078125q-0.203125 -0.078125 -0.359375 -0.25q-0.140625 -0.1875 -0.21875 -0.484375q-0.0625 -0.296875 -0.0625 -0.765625l0 -3.34375l-0.96875 0l0 3.34375q0 0.625 0.140625 1.078125q0.140625 0.453125 0.390625 0.734375q0.25 0.296875 0.609375 0.4375q0.359375 0.140625 0.796875 0.140625q0.5625 0 0.984375 -0.234375q0.421875 -0.234375 0.703125 -0.65625l0.046875 0.78125zm2.6916504 0l0.96875 0l0 -4.03125q0.09375 -0.1875 0.21875 -0.328125q0.140625 -0.15625 0.296875 -0.28125q0.1875 -0.125 0.40625 -0.203125q0.234375 -0.078125 0.5 -0.078125q0.3125 0 0.546875 0.078125q0.234375 0.078125 0.40625 0.234375q0.15625 0.15625 0.234375 0.421875q0.09375 0.265625 0.09375 0.640625l0 3.546875l0.96875 0l0 -3.578125q0 -0.5625 -0.140625 -0.96875q-0.140625 -0.40625 -0.390625 -0.671875q-0.265625 -0.265625 -0.625 -0.390625q-0.359375 -0.125 -0.796875 -0.125q-0.328125 0 -0.625 0.09375q-0.296875 0.09375 -0.546875 0.265625q-0.15625 0.109375 -0.3125 0.265625q-0.140625 0.140625 -0.265625 0.3125l-0.078125 -0.828125l-0.859375 0l0 5.625zm8.082275 -2.625l2.0625 2.625l1.21875 0l-2.625 -3.28125l2.28125 -2.34375l-1.171875 0l-1.84375 1.84375l-0.625 0.6875l0 -4.90625l-0.96875 0l0 8.0l0.96875 0l0 -1.953125l0.703125 -0.671875z" fill-rule="nonzero"/><path fill="#cfe2f3" d="m393.99213 139.93983l124.81891 0l0 45.51181l-124.81891 0z" fill-rule="evenodd"/><path fill="#000000" d="m418.84207 169.61574l3.1875 0q0.875 -0.015625 1.609375 -0.234375q0.75 -0.234375 1.359375 -0.65625q0.578125 -0.390625 1.046875 -0.9375q0.46875 -0.5625 0.765625 -1.21875q0.3125 -0.640625 0.46875 -1.390625q0.171875 -0.75 0.171875 -1.546875l0 -1.296875q-0.015625 -0.8125 -0.1875 -1.5625q-0.15625 -0.765625 -0.46875 -1.421875q-0.328125 -0.71875 -0.859375 -1.296875q-0.515625 -0.578125 -1.203125 -0.96875q-0.5625 -0.328125 -1.25 -0.515625q-0.671875 -0.203125 -1.453125 -0.21875l-3.1875 0l0 13.265625zm1.09375 -12.328125l2.09375 0q0.59375 0.015625 1.09375 0.15625q0.515625 0.125 0.9375 0.359375q0.625 0.328125 1.078125 0.890625q0.453125 0.546875 0.734375 1.21875q0.234375 0.53125 0.359375 1.15625q0.125 0.609375 0.125 1.234375l0 1.328125q0 0.640625 -0.125 1.25q-0.109375 0.59375 -0.328125 1.125q-0.234375 0.578125 -0.609375 1.078125q-0.375 0.484375 -0.859375 0.84375q-0.484375 0.34375 -1.09375 0.546875q-0.59375 0.1875 -1.3125 0.203125l-2.09375 0l0 -11.390625zm14.445587 12.515625q1.234375 0 2.15625 -0.484375q0.9375 -0.484375 1.5 -1.265625l-0.703125 -0.53125q-0.515625 0.65625 -1.265625 1.0q-0.734375 0.34375 -1.640625 0.34375q-0.796875 0 -1.453125 -0.3125q-0.640625 -0.3125 -1.09375 -0.84375q-0.46875 -0.515625 -0.734375 -1.1875q-0.25 -0.671875 -0.28125 -1.46875l0 -0.296875l7.375 0l0 -0.65625q0 -0.9375 -0.265625 -1.765625q-0.265625 -0.828125 -0.78125 -1.453125q-0.515625 -0.609375 -1.28125 -0.953125q-0.765625 -0.34375 -1.734375 -0.34375q-0.921875 0 -1.71875 0.375q-0.796875 0.375 -1.390625 1.0625q-0.609375 0.671875 -0.953125 1.578125q-0.34375 0.90625 -0.34375 1.96875l0 0.390625q0 1.0 0.34375 1.875q0.34375 0.875 0.953125 1.546875q0.59375 0.65625 1.4375 1.046875q0.859375 0.375 1.875 0.375zm-0.203125 -9.28125q0.703125 0 1.25 0.265625q0.546875 0.265625 0.921875 0.71875q0.375 0.4375 0.59375 1.03125q0.21875 0.59375 0.21875 1.1875l0 0.09375l-6.25 0q0.09375 -0.703125 0.359375 -1.3125q0.28125 -0.609375 0.71875 -1.046875q0.40625 -0.4375 0.953125 -0.6875q0.5625 -0.25 1.234375 -0.25zm7.2268066 -0.765625l-0.984375 0l0 9.859375l1.03125 0l0 -7.515625q0.078125 -0.265625 0.1875 -0.53125q0.109375 -0.28125 0.296875 -0.5q0.203125 -0.25 0.515625 -0.390625q0.3125 -0.140625 0.796875 -0.140625q0.421875 -0.015625 0.703125 0.125q0.28125 0.140625 0.4375 0.359375q0.171875 0.234375 0.234375 0.546875q0.0625 0.296875 0.0625 0.609375l0 7.4375l1.03125 0l0.015625 -7.421875q0 -0.046875 -0.015625 -0.078125q0 -0.046875 0 -0.09375q0.0625 -0.265625 0.171875 -0.53125q0.125 -0.265625 0.328125 -0.46875q0.21875 -0.21875 0.515625 -0.34375q0.3125 -0.140625 0.765625 -0.140625q0.453125 -0.015625 0.734375 0.140625q0.28125 0.140625 0.453125 0.390625q0.15625 0.25 0.21875 0.578125q0.0625 0.3125 0.0625 0.640625l0 7.328125l1.03125 0l0.015625 -7.328125q0 -0.5625 -0.125 -1.046875q-0.109375 -0.5 -0.390625 -0.875q-0.25 -0.359375 -0.6875 -0.5625q-0.4375 -0.21875 -1.046875 -0.21875q-0.4375 0 -0.796875 0.109375q-0.34375 0.109375 -0.625 0.28125q-0.25 0.171875 -0.453125 0.40625q-0.203125 0.21875 -0.34375 0.484375q-0.09375 -0.265625 -0.234375 -0.484375q-0.140625 -0.234375 -0.359375 -0.40625q-0.25 -0.1875 -0.59375 -0.28125q-0.328125 -0.109375 -0.765625 -0.109375q-0.8125 0 -1.34375 0.359375q-0.515625 0.34375 -0.8125 0.921875l-0.03125 -1.109375zm17.836182 9.859375l1.015625 0l0 -9.859375l-1.09375 0l0 6.9375q-0.140625 0.484375 -0.390625 0.875q-0.25 0.390625 -0.609375 0.65625q-0.39059448 0.296875 -0.9062195 0.453125q-0.515625 0.15625 -1.15625 0.15625q-0.609375 0 -1.0625 -0.1875q-0.4375 -0.1875 -0.75 -0.578125q-0.296875 -0.375 -0.453125 -0.9375q-0.140625 -0.5625 -0.140625 -1.296875l0 -6.078125l-1.09375 0l0 6.0625q0.015625 0.953125 0.234375 1.703125q0.21875 0.734375 0.640625 1.234375q0.4375 0.5 1.0625 0.78125q0.625 0.265625 1.4375 0.265625q1.109375 0 1.921875 -0.453125q0.8124695 -0.46875 1.2968445 -1.296875l0.046875 1.5625zm8.445587 -5.84375l-3.046875 -4.015625l-1.296875 0l3.75 4.84375l-3.90625 5.015625l1.3125 0l3.203125 -4.1875l3.21875 4.1875l1.296875 0l-3.90625 -5.015625l3.75 -4.84375l-1.3125 0l-3.0625 4.015625zm11.476807 6.03125q1.234375 0 2.15625 -0.484375q0.9375 -0.484375 1.5 -1.265625l-0.703125 -0.53125q-0.515625 0.65625 -1.265625 1.0q-0.734375 0.34375 -1.640625 0.34375q-0.796875 0 -1.453125 -0.3125q-0.640625 -0.3125 -1.09375 -0.84375q-0.46875 -0.515625 -0.734375 -1.1875q-0.25 -0.671875 -0.28125 -1.46875l0 -0.296875l7.375 0l0 -0.65625q0 -0.9375 -0.265625 -1.765625q-0.265625 -0.828125 -0.78125 -1.453125q-0.515625 -0.609375 -1.28125 -0.953125q-0.765625 -0.34375 -1.734375 -0.34375q-0.921875 0 -1.71875 0.375q-0.796875 0.375 -1.390625 1.0625q-0.609375 0.671875 -0.953125 1.578125q-0.34375 0.90625 -0.34375 1.96875l0 0.390625q0 1.0 0.34375 1.875q0.34375 0.875 0.953125 1.546875q0.59375 0.65625 1.4375 1.046875q0.859375 0.375 1.875 0.375zm-0.203125 -9.28125q0.703125 0 1.25 0.265625q0.546875 0.265625 0.921875 0.71875q0.375 0.4375 0.59375 1.03125q0.21875 0.59375 0.21875 1.1875l0 0.09375l-6.25 0q0.09375 -0.703125 0.359375 -1.3125q0.28125 -0.609375 0.71875 -1.046875q0.40625 -0.4375 0.953125 -0.6875q0.5625 -0.25 1.234375 -0.25zm13.711212 -0.9375q-1.34375 -0.015625 -2.328125 0.546875q-0.984375 0.5625 -1.5625 1.578125l-0.015625 -0.4375l-0.0625 -1.515625l-1.03125 0l0 9.859375l1.125 0l-0.015625 -6.3125q0.1875 -0.671875 0.515625 -1.171875q0.34375 -0.5 0.8125 -0.828125q0.484375 -0.328125 1.09375 -0.484375q0.609375 -0.171875 1.296875 -0.171875q0.40625 0 0.78125 0.046875q0.390625 0.046875 0.75 0.125l0.15625 -1.046875q-0.28125 -0.09375 -0.703125 -0.140625q-0.40625 -0.046875 -0.8125 -0.046875z" fill-rule="nonzero"/></g></svg>