<?xml version="1.0" encoding="UTF-8"?>
<!-- Generator: Adobe Illustrator 25.4.1, SVG Export Plug-In . SVG Version: 6.00 Build 0)  -->
<svg xmlns="http://www.w3.org/2000/svg" xmlns:xlink="http://www.w3.org/1999/xlink" version="1.1" id="Capa_1" x="0px" y="0px" viewBox="0 0 512 512" style="enable-background:new 0 0 512 512;" xml:space="preserve" width="512" height="512">
<g>
	<path id="path4797" style="fill:#82B1EA;" d="M482.854,137.3L370.343,93.68l-94.745,43.701c57.071,9.36,100.62,58.9,100.62,118.62   c-0.042,29.37-10.834,57.709-30.339,79.667l-31.662,42.64l-91,54.254l19.875,79.116C247.369,511.89,251.671,512,256,512   c141.385,0,256-114.615,256-256C512,213.157,501.459,172.782,482.854,137.3L482.854,137.3z"/>
	<path id="path3923" style="fill:#006BDA;" d="M256,0C163.962,0,83.281,48.579,38.165,121.486L51.09,221.999l86.974,56.814   c0.463,7.488-2.277-22.275-2.283-22.813c0.001-66.395,53.824-120.218,120.219-120.219c6.233,0.05,19.107,1.307,25.257,2.321   l201.597-0.803C440.062,55.688,354.542,0,256,0z"/>
	<path id="path3923-1" style="fill:#3699F8;" d="M38.165,121.486C13.975,160.576,0,206.653,0,256   c0,137.056,107.705,248.954,243.093,255.677l102.787-176.01c-22.783,25.747-55.499,40.508-89.879,40.551   c-57.562-0.047-107.013-40.89-117.936-97.406L38.165,121.486z"/>
	<circle id="path4162" style="fill:#FFFFFF;" cx="256" cy="256" r="120.22"/>
	<circle id="path3956" style="fill:#0088F7;" cx="256" cy="256" r="99.2"/>
</g>















</svg>
