<svg id="Layer_1" enable-background="new -822 823.1 56.7 56.7" height="56.7" viewBox="-822 823.1 56.7 56.7" width="56.7" xmlns="http://www.w3.org/2000/svg"><g><path d="m-795.2 846.5c-.7-.1-1.5-.2-2.2 0-1.7.5-2.9 2-3.4 4.2-.3 1.6-.2 3.4.2 4.8.7 2.2 2.3 3.5 4.3 3.4 1.9 0 3.5-1.2 4.3-3.4.5-1.4.6-3.2.2-4.8-.5-2.2-1.8-3.8-3.4-4.2z"/><path d="m-793.7 828.3c-13.6 0-24.6 11-24.6 24.6s11 24.6 24.6 24.6 24.6-11 24.6-24.6c.1-13.6-11-24.6-24.6-24.6zm-12.3 33.1h-3.2v-12.4h3.2zm-1.6-14.1c-.9 0-1.7-.8-1.7-1.7s.8-1.7 1.7-1.7 1.7.8 1.7 1.7-.8 1.7-1.7 1.7zm14.8 13.4c-.8.4-1.5.6-2.7.7-.6.1-1.1 0-1.7 0-1.2-.1-1.9-.3-2.7-.7-2.8-1.3-4.4-4.2-4.4-7.9s1.6-6.7 4.4-8.1c1.1-.5 2.2-.8 3.5-.8s2.4.3 3.5.8c2.8 1.4 4.4 4.4 4.4 8.1.1 3.7-1.5 6.6-4.3 7.9zm15.8-2.3c-.8 1.7-2.5 2.8-4.9 3-.5.1-1.6.1-1.9 0-1.4-.2-2.7-.4-3.8-1 0 0 .7-2.5.7-2.5 1.8.6 4.3 1.4 6 .7.9-.5 1.4-1.3 1.2-2.3-.2-1.1-.9-1.7-3-2.5-2.3-.9-3.7-1.9-4.3-3.3-.3-.7-.4-1.6-.2-2.3.3-2.1 2-3.6 4.5-4.1.7-.1 2.3-.1 3.1 0 1.1.2 2.4.6 2.4.8 0 .1-.7 2.4-.7 2.4-1.1-.4-2.3-.7-3.4-.8-1.5 0-3.1.9-2.8 2.4.2 1 .8 1.4 3.1 2.4 1.7.7 2.5 1.2 3.2 1.9 1 1 1.3 2.1 1.3 3.2 0 .8-.1 1.2-.5 2z"/></g></svg>