<svg version="1.1" viewBox="0.0 0.0 960.0 540.0" fill="none" stroke="none" stroke-linecap="square" stroke-miterlimit="10" xmlns:xlink="http://www.w3.org/1999/xlink" xmlns="http://www.w3.org/2000/svg"><clipPath id="p.0"><path d="m0 0l960.0 0l0 540.0l-960.0 0l0 -540.0z" clip-rule="nonzero"/></clipPath><g clip-path="url(#p.0)"><path fill="#ffffff" d="m0 0l960.0 0l0 540.0l-960.0 0z" fill-rule="evenodd"/><path fill="#000000" fill-opacity="0.0" d="m414.48032 47.435696l534.7716 0l0 468.7559l-534.7716 0z" fill-rule="evenodd"/><path stroke="#000000" stroke-width="1.0" stroke-linejoin="round" stroke-linecap="butt" stroke-dasharray="4.0,3.0" d="m414.48032 47.435696l534.7716 0l0 468.7559l-534.7716 0z" fill-rule="evenodd"/><path fill="#d9ead3" d="m714.30707 133.87927l210.96063 0l0 83.43306l-210.96063 0z" fill-rule="evenodd"/><path fill="#000000" fill-opacity="0.0" d="m732.7664 154.58792l165.10236 0l0 42.015747l-165.10236 0z" fill-rule="evenodd"/><path fill="#000000" d="m746.61017 181.50792l1.453125 0l4.1875 -13.265625l-1.796875 0l-2.9375 9.890625l-0.1875 0.65625l-0.203125 -0.640625l-2.90625 -9.90625l-1.8125 0l4.203125 13.265625zm8.195557 -9.859375l0 1.46875l3.359375 0l0 6.9375l-3.359375 0l0 1.453125l8.265625 0l0 -1.453125l-3.21875 0l0 -8.40625l-5.046875 0zm3.140625 -2.578125q0 0.40625 0.25 0.6875q0.25 0.265625 0.765625 0.265625q0.5 0 0.75 -0.265625q0.25 -0.28125 0.25 -0.6875q0 -0.234375 -0.078125 -0.421875q-0.0625 -0.1875 -0.203125 -0.328125q-0.125 -0.109375 -0.3125 -0.171875q-0.171875 -0.078125 -0.40625 -0.078125q-0.25 0 -0.4375 0.078125q-0.171875 0.0625 -0.296875 0.171875q-0.140625 0.140625 -0.21875 0.34375q-0.0625 0.1875 -0.0625 0.40625zm7.4768066 7.421875l0 0.203125q0 1.046875 0.28125 1.96875q0.28125 0.90625 0.796875 1.59375q0.5 0.671875 1.21875 1.0625q0.734375 0.375 1.625 0.375q0.921875 0 1.59375 -0.3125q0.6875 -0.3125 1.1875 -0.90625l0.0625 1.03125l1.546875 0l0 -14.0l-1.6875 0l0 5.125q-0.46875 -0.578125 -1.140625 -0.859375q-0.65625 -0.296875 -1.546875 -0.296875q-0.890625 0 -1.625 0.375q-0.734375 0.359375 -1.234375 1.03125q-0.515625 0.65625 -0.796875 1.59375q-0.28125 0.921875 -0.28125 2.015625zm1.6875 0.203125l0 -0.203125q0 -0.71875 0.15625 -1.359375q0.15625 -0.65625 0.484375 -1.15625q0.3125 -0.5 0.8125 -0.78125q0.515625 -0.296875 1.21875 -0.296875q0.828125 0 1.375 0.390625q0.5625 0.390625 0.890625 0.984375l0 4.578125q-0.328125 0.640625 -0.890625 1.03125q-0.546875 0.375 -1.390625 0.375q-0.703125 0 -1.203125 -0.28125q-0.5 -0.296875 -0.8125 -0.78125q-0.328125 -0.5 -0.484375 -1.140625q-0.15625 -0.640625 -0.15625 -1.359375zm14.179993 5.0q1.4375 0 2.421875 -0.578125q0.984375 -0.578125 1.46875 -1.328125l-1.03125 -0.796875q-0.46875 0.59375 -1.171875 0.96875q-0.6875 0.359375 -1.59375 0.359375q-0.6875 0 -1.25 -0.25q-0.5625 -0.265625 -0.96875 -0.71875q-0.390625 -0.40625 -0.609375 -0.953125q-0.21875 -0.546875 -0.28125 -1.265625l0 -0.078125l7.03125 0l0 -0.75q0 -1.03125 -0.265625 -1.90625q-0.25 -0.890625 -0.78125 -1.546875q-0.53125 -0.640625 -1.328125 -1.0q-0.796875 -0.375 -1.859375 -0.375q-0.84375 0 -1.65625 0.34375q-0.796875 0.34375 -1.4375 0.984375q-0.625 0.65625 -1.015625 1.609375q-0.375 0.9375 -0.375 2.125l0 0.390625q0 1.03125 0.34375 1.90625q0.34375 0.875 0.96875 1.5q0.609375 0.640625 1.484375 1.0q0.875 0.359375 1.90625 0.359375zm-0.21875 -8.84375q0.65625 0 1.125 0.234375q0.46875 0.234375 0.765625 0.625q0.3125 0.375 0.484375 0.90625q0.171875 0.515625 0.171875 0.984375l0 0.078125l-5.296875 0q0.09375 -0.6875 0.34375 -1.203125q0.265625 -0.53125 0.625 -0.890625q0.359375 -0.359375 0.8125 -0.546875q0.453125 -0.1875 0.96875 -0.1875zm6.5861816 3.640625l0 0.203125q0 1.0625 0.3125 1.96875q0.3125 0.90625 0.890625 1.59375q0.578125 0.671875 1.40625 1.0625q0.84375 0.375 1.890625 0.375q1.03125 0 1.859375 -0.375q0.828125 -0.390625 1.40625 -1.0625q0.578125 -0.6875 0.890625 -1.59375q0.3125 -0.90625 0.3125 -1.96875l0 -0.203125q0 -1.0625 -0.3125 -1.984375q-0.3125 -0.921875 -0.890625 -1.59375q-0.578125 -0.671875 -1.421875 -1.046875q-0.828125 -0.390625 -1.875 -0.390625q-1.03125 0 -1.859375 0.390625q-0.828125 0.375 -1.40625 1.046875q-0.578125 0.671875 -0.890625 1.59375q-0.3125 0.921875 -0.3125 1.984375zm1.6875 0.203125l0 -0.203125q0 -0.71875 0.171875 -1.375q0.171875 -0.671875 0.53125 -1.171875q0.34375 -0.5 0.859375 -0.796875q0.515625 -0.296875 1.21875 -0.296875q0.703125 0 1.21875 0.296875q0.53125 0.296875 0.890625 0.796875q0.34375 0.5 0.515625 1.171875q0.1875 0.65625 0.1875 1.375l0 0.203125q0 0.71875 -0.171875 1.390625q-0.171875 0.65625 -0.515625 1.15625q-0.359375 0.5 -0.890625 0.796875q-0.515625 0.28125 -1.203125 0.28125q-0.703125 0 -1.234375 -0.28125q-0.53125 -0.296875 -0.875 -0.796875q-0.359375 -0.5 -0.53125 -1.15625q-0.171875 -0.671875 -0.171875 -1.390625zm14.367432 -0.59375l2.609375 5.40625l1.78125 0l0 -0.109375l-2.8125 -5.671875q0.546875 -0.234375 1.0 -0.5625q0.46875 -0.34375 0.796875 -0.78125q0.328125 -0.4375 0.5 -0.96875q0.1875 -0.546875 0.1875 -1.1875q0 -1.0 -0.34375 -1.734375q-0.34375 -0.75 -0.953125 -1.25q-0.625 -0.484375 -1.453125 -0.734375q-0.8125 -0.25 -1.75 -0.265625l-3.875 0l0 13.265625l1.671875 0l0 -5.40625l2.640625 0zm-2.640625 -1.390625l0 -5.078125l2.203125 0q0.625 0 1.125 0.171875q0.515625 0.15625 0.890625 0.484375q0.375 0.328125 0.578125 0.8125q0.21875 0.46875 0.21875 1.109375q0 0.59375 -0.21875 1.0625q-0.21875 0.453125 -0.59375 0.78125q-0.375 0.3125 -0.875 0.484375q-0.5 0.15625 -1.078125 0.171875l-2.25 0zm13.804932 6.984375q1.4375 0 2.421875 -0.578125q0.984375 -0.578125 1.46875 -1.328125l-1.03125 -0.796875q-0.46875 0.59375 -1.171875 0.96875q-0.6875 0.359375 -1.59375 0.359375q-0.6875 0 -1.25 -0.25q-0.5625 -0.265625 -0.96875 -0.71875q-0.390625 -0.40625 -0.609375 -0.953125q-0.21875 -0.546875 -0.28125 -1.265625l0 -0.078125l7.03125 0l0 -0.75q0 -1.03125 -0.265625 -1.90625q-0.25 -0.890625 -0.78125 -1.546875q-0.53125 -0.640625 -1.328125 -1.0q-0.796875 -0.375 -1.859375 -0.375q-0.84375 0 -1.65625 0.34375q-0.796875 0.34375 -1.4375 0.984375q-0.625 0.65625 -1.015625 1.609375q-0.375 0.9375 -0.375 2.125l0 0.390625q0 1.03125 0.34375 1.90625q0.34375 0.875 0.96875 1.5q0.609375 0.640625 1.484375 1.0q0.875 0.359375 1.90625 0.359375zm-0.21875 -8.84375q0.65625 0 1.125 0.234375q0.46875 0.234375 0.765625 0.625q0.3125 0.375 0.484375 0.90625q0.171875 0.515625 0.171875 0.984375l0 0.078125l-5.296875 0q0.09375 -0.6875 0.34375 -1.203125q0.265625 -0.53125 0.625 -0.890625q0.359375 -0.359375 0.8125 -0.546875q0.453125 -0.1875 0.96875 -0.1875zm7.0549927 8.65625l1.6875 0l0 -7.0625q0.171875 -0.328125 0.40625 -0.59375q0.234375 -0.265625 0.515625 -0.453125q0.328125 -0.234375 0.71875 -0.359375q0.40625 -0.140625 0.875 -0.140625q0.546875 0 0.953125 0.125q0.421875 0.125 0.703125 0.40625q0.28125 0.296875 0.421875 0.75q0.15625 0.453125 0.15625 1.109375l0 6.21875l1.6875 0l0 -6.265625q0 -0.96875 -0.25 -1.6875q-0.234375 -0.71875 -0.6875 -1.1875q-0.4375 -0.453125 -1.078125 -0.671875q-0.625 -0.21875 -1.40625 -0.21875q-0.5625 0 -1.078125 0.171875q-0.515625 0.15625 -0.953125 0.4375q-0.296875 0.1875 -0.5625 0.453125q-0.25 0.265625 -0.46875 0.5625l-0.125 -1.453125l-1.515625 0l0 9.859375zm10.883057 -5.015625l0 0.203125q0 1.046875 0.28125 1.96875q0.28125 0.90625 0.796875 1.59375q0.5 0.671875 1.21875 1.0625q0.734375 0.375 1.625 0.375q0.921875 0 1.59375 -0.3125q0.6875 -0.3125 1.1875 -0.90625l0.0625 1.03125l1.546875 0l0 -14.0l-1.6875 0l0 5.125q-0.46875 -0.578125 -1.140625 -0.859375q-0.65625 -0.296875 -1.546875 -0.296875q-0.890625 0 -1.625 0.375q-0.734375 0.359375 -1.234375 1.03125q-0.515625 0.65625 -0.796875 1.59375q-0.28125 0.921875 -0.28125 2.015625zm1.6875 0.203125l0 -0.203125q0 -0.71875 0.15625 -1.359375q0.15625 -0.65625 0.484375 -1.15625q0.3125 -0.5 0.8125 -0.78125q0.515625 -0.296875 1.21875 -0.296875q0.828125 0 1.375 0.390625q0.5625 0.390625 0.890625 0.984375l0 4.578125q-0.328125 0.640625 -0.890625 1.03125q-0.546875 0.375 -1.390625 0.375q-0.703125 0 -1.203125 -0.28125q-0.5 -0.296875 -0.8125 -0.78125q-0.328125 -0.5 -0.484375 -1.140625q-0.15625 -0.640625 -0.15625 -1.359375zm14.179932 5.0q1.4375 0 2.421875 -0.578125q0.984375 -0.578125 1.46875 -1.328125l-1.03125 -0.796875q-0.46875 0.59375 -1.171875 0.96875q-0.6875 0.359375 -1.59375 0.359375q-0.6875 0 -1.25 -0.25q-0.5625 -0.265625 -0.96875 -0.71875q-0.390625 -0.40625 -0.609375 -0.953125q-0.21875 -0.546875 -0.28125 -1.265625l0 -0.078125l7.03125 0l0 -0.75q0 -1.03125 -0.265625 -1.90625q-0.25 -0.890625 -0.78125 -1.546875q-0.53125 -0.640625 -1.328125 -1.0q-0.796875 -0.375 -1.859375 -0.375q-0.84375 0 -1.65625 0.34375q-0.796875 0.34375 -1.4375 0.984375q-0.625 0.65625 -1.015625 1.609375q-0.375 0.9375 -0.375 2.125l0 0.390625q0 1.03125 0.34375 1.90625q0.34375 0.875 0.96875 1.5q0.609375 0.640625 1.484375 1.0q0.875 0.359375 1.90625 0.359375zm-0.21875 -8.84375q0.65625 0 1.125 0.234375q0.46875 0.234375 0.765625 0.625q0.3125 0.375 0.484375 0.90625q0.171875 0.515625 0.171875 0.984375l0 0.078125l-5.296875 0q0.09375 -0.6875 0.34375 -1.203125q0.265625 -0.53125 0.625 -0.890625q0.359375 -0.359375 0.8125 -0.546875q0.453125 -0.1875 0.96875 -0.1875zm13.523682 -1.375q-1.078125 0 -1.921875 0.46875q-0.84375 0.46875 -1.4375 1.265625l-0.015625 -0.234375l-0.078125 -1.328125l-1.59375 0l0 9.859375l1.6875 0l0 -6.328125q0.171875 -0.453125 0.421875 -0.8125q0.25 -0.375 0.578125 -0.625q0.375 -0.296875 0.875 -0.4375q0.5 -0.15625 1.125 -0.15625q0.484375 0 0.921875 0.046875q0.453125 0.046875 0.9375 0.15625l0.234375 -1.640625q-0.265625 -0.109375 -0.765625 -0.171875q-0.5 -0.0625 -0.96875 -0.0625zm9.086243 10.21875q1.4375 0 2.421875 -0.578125q0.984375 -0.578125 1.46875 -1.328125l-1.03125 -0.796875q-0.46875 0.59375 -1.171875 0.96875q-0.6875 0.359375 -1.59375 0.359375q-0.6875 0 -1.25 -0.25q-0.5625 -0.265625 -0.96875 -0.71875q-0.390625 -0.40625 -0.609375 -0.953125q-0.21875 -0.546875 -0.28125 -1.265625l0 -0.078125l7.03125 0l0 -0.75q0 -1.03125 -0.265625 -1.90625q-0.25 -0.890625 -0.78125 -1.546875q-0.53125 -0.640625 -1.328125 -1.0q-0.796875 -0.375 -1.859375 -0.375q-0.84375 0 -1.65625 0.34375q-0.796875 0.34375 -1.4375 0.984375q-0.625 0.65625 -1.015625 1.609375q-0.375 0.9375 -0.375 2.125l0 0.390625q0 1.03125 0.34375 1.90625q0.34375 0.875 0.96875 1.5q0.609375 0.640625 1.484375 1.0q0.875 0.359375 1.90625 0.359375zm-0.21875 -8.84375q0.65625 0 1.125 0.234375q0.46875 0.234375 0.765625 0.625q0.3125 0.375 0.484375 0.90625q0.171875 0.515625 0.171875 0.984375l0 0.078125l-5.296875 0q0.09375 -0.6875 0.34375 -1.203125q0.265625 -0.53125 0.625 -0.890625q0.359375 -0.359375 0.8125 -0.546875q0.453125 -0.1875 0.96875 -0.1875zm13.523682 -1.375q-1.078125 0 -1.921875 0.46875q-0.84375 0.46875 -1.4375 1.265625l-0.015625 -0.234375l-0.078125 -1.328125l-1.59375 0l0 9.859375l1.6875 0l0 -6.328125q0.171875 -0.453125 0.421875 -0.8125q0.25 -0.375 0.578125 -0.625q0.375 -0.296875 0.875 -0.4375q0.5 -0.15625 1.125 -0.15625q0.484375 0 0.921875 0.046875q0.453125 0.046875 0.9375 0.15625l0.234375 -1.640625q-0.265625 -0.109375 -0.765625 -0.171875q-0.5 -0.0625 -0.96875 -0.0625z" fill-rule="nonzero"/><path fill="#d9ead3" d="m714.30707 240.0971l210.96063 0l0 83.433075l-210.96063 0z" fill-rule="evenodd"/><path fill="#000000" fill-opacity="0.0" d="m732.7664 260.8058l165.10236 0l0 42.015747l-165.10236 0z" fill-rule="evenodd"/><path fill="#000000" d="m746.61017 287.72577l1.453125 0l4.1875 -13.265625l-1.796875 0l-2.9375 9.890625l-0.1875 0.65625l-0.203125 -0.640625l-2.90625 -9.90625l-1.8125 0l4.203125 13.265625zm8.195557 -9.859375l0 1.46875l3.359375 0l0 6.9375l-3.359375 0l0 1.453125l8.265625 0l0 -1.453125l-3.21875 0l0 -8.40625l-5.046875 0zm3.140625 -2.578125q0 0.40625 0.25 0.6875q0.25 0.265625 0.765625 0.265625q0.5 0 0.75 -0.265625q0.25 -0.28125 0.25 -0.6875q0 -0.234375 -0.078125 -0.421875q-0.0625 -0.1875 -0.203125 -0.328125q-0.125 -0.109375 -0.3125 -0.171875q-0.171875 -0.078125 -0.40625 -0.078125q-0.25 0 -0.4375 0.078125q-0.171875 0.0625 -0.296875 0.171875q-0.140625 0.140625 -0.21875 0.34375q-0.0625 0.1875 -0.0625 0.40625zm7.4768066 7.421875l0 0.203125q0 1.046875 0.28125 1.96875q0.28125 0.90625 0.796875 1.59375q0.5 0.671875 1.21875 1.0625q0.734375 0.375 1.625 0.375q0.921875 0 1.59375 -0.3125q0.6875 -0.3125 1.1875 -0.90625l0.0625 1.03125l1.546875 0l0 -14.0l-1.6875 0l0 5.125q-0.46875 -0.578125 -1.140625 -0.859375q-0.65625 -0.296875 -1.546875 -0.296875q-0.890625 0 -1.625 0.375q-0.734375 0.359375 -1.234375 1.03125q-0.515625 0.65625 -0.796875 1.59375q-0.28125 0.921875 -0.28125 2.015625zm1.6875 0.203125l0 -0.203125q0 -0.71875 0.15625 -1.359375q0.15625 -0.65625 0.484375 -1.15625q0.3125 -0.5 0.8125 -0.78125q0.515625 -0.296875 1.21875 -0.296875q0.828125 0 1.375 0.390625q0.5625 0.390625 0.890625 0.984375l0 4.578125q-0.328125 0.640625 -0.890625 1.03125q-0.546875 0.375 -1.390625 0.375q-0.703125 0 -1.203125 -0.28125q-0.5 -0.296875 -0.8125 -0.78125q-0.328125 -0.5 -0.484375 -1.140625q-0.15625 -0.640625 -0.15625 -1.359375zm14.179993 5.0q1.4375 0 2.421875 -0.578125q0.984375 -0.578125 1.46875 -1.328125l-1.03125 -0.796875q-0.46875 0.59375 -1.171875 0.96875q-0.6875 0.359375 -1.59375 0.359375q-0.6875 0 -1.25 -0.25q-0.5625 -0.265625 -0.96875 -0.71875q-0.390625 -0.40625 -0.609375 -0.953125q-0.21875 -0.546875 -0.28125 -1.265625l0 -0.078125l7.03125 0l0 -0.75q0 -1.03125 -0.265625 -1.90625q-0.25 -0.890625 -0.78125 -1.546875q-0.53125 -0.640625 -1.328125 -1.0q-0.796875 -0.375 -1.859375 -0.375q-0.84375 0 -1.65625 0.34375q-0.796875 0.34375 -1.4375 0.984375q-0.625 0.65625 -1.015625 1.609375q-0.375 0.9375 -0.375 2.125l0 0.390625q0 1.03125 0.34375 1.90625q0.34375 0.875 0.96875 1.5q0.609375 0.640625 1.484375 1.0q0.875 0.359375 1.90625 0.359375zm-0.21875 -8.84375q0.65625 0 1.125 0.234375q0.46875 0.234375 0.765625 0.625q0.3125 0.375 0.484375 0.90625q0.171875 0.515625 0.171875 0.984375l0 0.078125l-5.296875 0q0.09375 -0.6875 0.34375 -1.203125q0.265625 -0.53125 0.625 -0.890625q0.359375 -0.359375 0.8125 -0.546875q0.453125 -0.1875 0.96875 -0.1875zm6.5861816 3.640625l0 0.203125q0 1.0625 0.3125 1.96875q0.3125 0.90625 0.890625 1.59375q0.578125 0.671875 1.40625 1.0625q0.84375 0.375 1.890625 0.375q1.03125 0 1.859375 -0.375q0.828125 -0.390625 1.40625 -1.0625q0.578125 -0.6875 0.890625 -1.59375q0.3125 -0.90625 0.3125 -1.96875l0 -0.203125q0 -1.0625 -0.3125 -1.984375q-0.3125 -0.921875 -0.890625 -1.59375q-0.578125 -0.671875 -1.421875 -1.046875q-0.828125 -0.390625 -1.875 -0.390625q-1.03125 0 -1.859375 0.390625q-0.828125 0.375 -1.40625 1.046875q-0.578125 0.671875 -0.890625 1.59375q-0.3125 0.921875 -0.3125 1.984375zm1.6875 0.203125l0 -0.203125q0 -0.71875 0.171875 -1.375q0.171875 -0.671875 0.53125 -1.171875q0.34375 -0.5 0.859375 -0.796875q0.515625 -0.296875 1.21875 -0.296875q0.703125 0 1.21875 0.296875q0.53125 0.296875 0.890625 0.796875q0.34375 0.5 0.515625 1.171875q0.1875 0.65625 0.1875 1.375l0 0.203125q0 0.71875 -0.171875 1.390625q-0.171875 0.65625 -0.515625 1.15625q-0.359375 0.5 -0.890625 0.796875q-0.515625 0.28125 -1.203125 0.28125q-0.703125 0 -1.234375 -0.28125q-0.53125 -0.296875 -0.875 -0.796875q-0.359375 -0.5 -0.53125 -1.15625q-0.171875 -0.671875 -0.171875 -1.390625zm14.367432 -0.59375l2.609375 5.40625l1.78125 0l0 -0.109375l-2.8125 -5.671875q0.546875 -0.234375 1.0 -0.5625q0.46875 -0.34375 0.796875 -0.78125q0.328125 -0.4375 0.5 -0.96875q0.1875 -0.546875 0.1875 -1.1875q0 -1.0 -0.34375 -1.734375q-0.34375 -0.75 -0.953125 -1.25q-0.625 -0.484375 -1.453125 -0.734375q-0.8125 -0.25 -1.75 -0.265625l-3.875 0l0 13.265625l1.671875 0l0 -5.40625l2.640625 0zm-2.640625 -1.390625l0 -5.078125l2.203125 0q0.625 0 1.125 0.171875q0.515625 0.15625 0.890625 0.484375q0.375 0.328125 0.578125 0.8125q0.21875 0.46875 0.21875 1.109375q0 0.59375 -0.21875 1.0625q-0.21875 0.453125 -0.59375 0.78125q-0.375 0.3125 -0.875 0.484375q-0.5 0.15625 -1.078125 0.171875l-2.25 0zm13.804932 6.984375q1.4375 0 2.421875 -0.578125q0.984375 -0.578125 1.46875 -1.328125l-1.03125 -0.796875q-0.46875 0.59375 -1.171875 0.96875q-0.6875 0.359375 -1.59375 0.359375q-0.6875 0 -1.25 -0.25q-0.5625 -0.265625 -0.96875 -0.71875q-0.390625 -0.40625 -0.609375 -0.953125q-0.21875 -0.546875 -0.28125 -1.265625l0 -0.078125l7.03125 0l0 -0.75q0 -1.03125 -0.265625 -1.90625q-0.25 -0.890625 -0.78125 -1.546875q-0.53125 -0.640625 -1.328125 -1.0q-0.796875 -0.375 -1.859375 -0.375q-0.84375 0 -1.65625 0.34375q-0.796875 0.34375 -1.4375 0.984375q-0.625 0.65625 -1.015625 1.609375q-0.375 0.9375 -0.375 2.125l0 0.390625q0 1.03125 0.34375 1.90625q0.34375 0.875 0.96875 1.5q0.609375 0.640625 1.484375 1.0q0.875 0.359375 1.90625 0.359375zm-0.21875 -8.84375q0.65625 0 1.125 0.234375q0.46875 0.234375 0.765625 0.625q0.3125 0.375 0.484375 0.90625q0.171875 0.515625 0.171875 0.984375l0 0.078125l-5.296875 0q0.09375 -0.6875 0.34375 -1.203125q0.265625 -0.53125 0.625 -0.890625q0.359375 -0.359375 0.8125 -0.546875q0.453125 -0.1875 0.96875 -0.1875zm7.0549927 8.65625l1.6875 0l0 -7.0625q0.171875 -0.328125 0.40625 -0.59375q0.234375 -0.265625 0.515625 -0.453125q0.328125 -0.234375 0.71875 -0.359375q0.40625 -0.140625 0.875 -0.140625q0.546875 0 0.953125 0.125q0.421875 0.125 0.703125 0.40625q0.28125 0.296875 0.421875 0.75q0.15625 0.453125 0.15625 1.109375l0 6.21875l1.6875 0l0 -6.265625q0 -0.96875 -0.25 -1.6875q-0.234375 -0.71875 -0.6875 -1.1875q-0.4375 -0.453125 -1.078125 -0.671875q-0.625 -0.21875 -1.40625 -0.21875q-0.5625 0 -1.078125 0.171875q-0.515625 0.15625 -0.953125 0.4375q-0.296875 0.1875 -0.5625 0.453125q-0.25 0.265625 -0.46875 0.5625l-0.125 -1.453125l-1.515625 0l0 9.859375zm10.883057 -5.015625l0 0.203125q0 1.046875 0.28125 1.96875q0.28125 0.90625 0.796875 1.59375q0.5 0.671875 1.21875 1.0625q0.734375 0.375 1.625 0.375q0.921875 0 1.59375 -0.3125q0.6875 -0.3125 1.1875 -0.90625l0.0625 1.03125l1.546875 0l0 -14.0l-1.6875 0l0 5.125q-0.46875 -0.578125 -1.140625 -0.859375q-0.65625 -0.296875 -1.546875 -0.296875q-0.890625 0 -1.625 0.375q-0.734375 0.359375 -1.234375 1.03125q-0.515625 0.65625 -0.796875 1.59375q-0.28125 0.921875 -0.28125 2.015625zm1.6875 0.203125l0 -0.203125q0 -0.71875 0.15625 -1.359375q0.15625 -0.65625 0.484375 -1.15625q0.3125 -0.5 0.8125 -0.78125q0.515625 -0.296875 1.21875 -0.296875q0.828125 0 1.375 0.390625q0.5625 0.390625 0.890625 0.984375l0 4.578125q-0.328125 0.640625 -0.890625 1.03125q-0.546875 0.375 -1.390625 0.375q-0.703125 0 -1.203125 -0.28125q-0.5 -0.296875 -0.8125 -0.78125q-0.328125 -0.5 -0.484375 -1.140625q-0.15625 -0.640625 -0.15625 -1.359375zm14.179932 5.0q1.4375 0 2.421875 -0.578125q0.984375 -0.578125 1.46875 -1.328125l-1.03125 -0.796875q-0.46875 0.59375 -1.171875 0.96875q-0.6875 0.359375 -1.59375 0.359375q-0.6875 0 -1.25 -0.25q-0.5625 -0.265625 -0.96875 -0.71875q-0.390625 -0.40625 -0.609375 -0.953125q-0.21875 -0.546875 -0.28125 -1.265625l0 -0.078125l7.03125 0l0 -0.75q0 -1.03125 -0.265625 -1.90625q-0.25 -0.890625 -0.78125 -1.546875q-0.53125 -0.640625 -1.328125 -1.0q-0.796875 -0.375 -1.859375 -0.375q-0.84375 0 -1.65625 0.34375q-0.796875 0.34375 -1.4375 0.984375q-0.625 0.65625 -1.015625 1.609375q-0.375 0.9375 -0.375 2.125l0 0.390625q0 1.03125 0.34375 1.90625q0.34375 0.875 0.96875 1.5q0.609375 0.640625 1.484375 1.0q0.875 0.359375 1.90625 0.359375zm-0.21875 -8.84375q0.65625 0 1.125 0.234375q0.46875 0.234375 0.765625 0.625q0.3125 0.375 0.484375 0.90625q0.171875 0.515625 0.171875 0.984375l0 0.078125l-5.296875 0q0.09375 -0.6875 0.34375 -1.203125q0.265625 -0.53125 0.625 -0.890625q0.359375 -0.359375 0.8125 -0.546875q0.453125 -0.1875 0.96875 -0.1875zm13.523682 -1.375q-1.078125 0 -1.921875 0.46875q-0.84375 0.46875 -1.4375 1.265625l-0.015625 -0.234375l-0.078125 -1.328125l-1.59375 0l0 9.859375l1.6875 0l0 -6.328125q0.171875 -0.453125 0.421875 -0.8125q0.25 -0.375 0.578125 -0.625q0.375 -0.296875 0.875 -0.4375q0.5 -0.15625 1.125 -0.15625q0.484375 0 0.921875 0.046875q0.453125 0.046875 0.9375 0.15625l0.234375 -1.640625q-0.265625 -0.109375 -0.765625 -0.171875q-0.5 -0.0625 -0.96875 -0.0625zm9.086243 10.21875q1.4375 0 2.421875 -0.578125q0.984375 -0.578125 1.46875 -1.328125l-1.03125 -0.796875q-0.46875 0.59375 -1.171875 0.96875q-0.6875 0.359375 -1.59375 0.359375q-0.6875 0 -1.25 -0.25q-0.5625 -0.265625 -0.96875 -0.71875q-0.390625 -0.40625 -0.609375 -0.953125q-0.21875 -0.546875 -0.28125 -1.265625l0 -0.078125l7.03125 0l0 -0.75q0 -1.03125 -0.265625 -1.90625q-0.25 -0.890625 -0.78125 -1.546875q-0.53125 -0.640625 -1.328125 -1.0q-0.796875 -0.375 -1.859375 -0.375q-0.84375 0 -1.65625 0.34375q-0.796875 0.34375 -1.4375 0.984375q-0.625 0.65625 -1.015625 1.609375q-0.375 0.9375 -0.375 2.125l0 0.390625q0 1.03125 0.34375 1.90625q0.34375 0.875 0.96875 1.5q0.609375 0.640625 1.484375 1.0q0.875 0.359375 1.90625 0.359375zm-0.21875 -8.84375q0.65625 0 1.125 0.234375q0.46875 0.234375 0.765625 0.625q0.3125 0.375 0.484375 0.90625q0.171875 0.515625 0.171875 0.984375l0 0.078125l-5.296875 0q0.09375 -0.6875 0.34375 -1.203125q0.265625 -0.53125 0.625 -0.890625q0.359375 -0.359375 0.8125 -0.546875q0.453125 -0.1875 0.96875 -0.1875zm13.523682 -1.375q-1.078125 0 -1.921875 0.46875q-0.84375 0.46875 -1.4375 1.265625l-0.015625 -0.234375l-0.078125 -1.328125l-1.59375 0l0 9.859375l1.6875 0l0 -6.328125q0.171875 -0.453125 0.421875 -0.8125q0.25 -0.375 0.578125 -0.625q0.375 -0.296875 0.875 -0.4375q0.5 -0.15625 1.125 -0.15625q0.484375 0 0.921875 0.046875q0.453125 0.046875 0.9375 0.15625l0.234375 -1.640625q-0.265625 -0.109375 -0.765625 -0.171875q-0.5 -0.0625 -0.96875 -0.0625z" fill-rule="nonzero"/><path fill="#d9ead3" d="m714.30707 346.31497l210.96063 0l0 83.433044l-210.96063 0z" fill-rule="evenodd"/><path fill="#000000" fill-opacity="0.0" d="m732.7664 367.02362l165.10236 0l0 42.015747l-165.10236 0z" fill-rule="evenodd"/><path fill="#000000" d="m746.61017 393.94363l1.453125 0l4.1875 -13.265625l-1.796875 0l-2.9375 9.890625l-0.1875 0.65625l-0.203125 -0.640625l-2.90625 -9.90625l-1.8125 0l4.203125 13.265625zm8.195557 -9.859375l0 1.46875l3.359375 0l0 6.9375l-3.359375 0l0 1.453125l8.265625 0l0 -1.453125l-3.21875 0l0 -8.40625l-5.046875 0zm3.140625 -2.578125q0 0.40625 0.25 0.6875q0.25 0.265625 0.765625 0.265625q0.5 0 0.75 -0.265625q0.25 -0.28125 0.25 -0.6875q0 -0.234375 -0.078125 -0.421875q-0.0625 -0.1875 -0.203125 -0.328125q-0.125 -0.109375 -0.3125 -0.171875q-0.171875 -0.078125 -0.40625 -0.078125q-0.25 0 -0.4375 0.078125q-0.171875 0.0625 -0.296875 0.171875q-0.140625 0.140625 -0.21875 0.34375q-0.0625 0.1875 -0.0625 0.40625zm7.4768066 7.421875l0 0.203125q0 1.046875 0.28125 1.96875q0.28125 0.90625 0.796875 1.59375q0.5 0.671875 1.21875 1.0625q0.734375 0.375 1.625 0.375q0.921875 0 1.59375 -0.3125q0.6875 -0.3125 1.1875 -0.90625l0.0625 1.03125l1.546875 0l0 -14.0l-1.6875 0l0 5.125q-0.46875 -0.578125 -1.140625 -0.859375q-0.65625 -0.296875 -1.546875 -0.296875q-0.890625 0 -1.625 0.375q-0.734375 0.359375 -1.234375 1.03125q-0.515625 0.65625 -0.796875 1.59375q-0.28125 0.921875 -0.28125 2.015625zm1.6875 0.203125l0 -0.203125q0 -0.71875 0.15625 -1.359375q0.15625 -0.65625 0.484375 -1.15625q0.3125 -0.5 0.8125 -0.78125q0.515625 -0.296875 1.21875 -0.296875q0.828125 0 1.375 0.390625q0.5625 0.390625 0.890625 0.984375l0 4.578125q-0.328125 0.640625 -0.890625 1.03125q-0.546875 0.375 -1.390625 0.375q-0.703125 0 -1.203125 -0.28125q-0.5 -0.296875 -0.8125 -0.78125q-0.328125 -0.5 -0.484375 -1.140625q-0.15625 -0.640625 -0.15625 -1.359375zm14.179993 5.0q1.4375 0 2.421875 -0.578125q0.984375 -0.578125 1.46875 -1.328125l-1.03125 -0.796875q-0.46875 0.59375 -1.171875 0.96875q-0.6875 0.359375 -1.59375 0.359375q-0.6875 0 -1.25 -0.25q-0.5625 -0.265625 -0.96875 -0.71875q-0.390625 -0.40625 -0.609375 -0.953125q-0.21875 -0.546875 -0.28125 -1.265625l0 -0.078125l7.03125 0l0 -0.75q0 -1.03125 -0.265625 -1.90625q-0.25 -0.890625 -0.78125 -1.546875q-0.53125 -0.640625 -1.328125 -1.0q-0.796875 -0.375 -1.859375 -0.375q-0.84375 0 -1.65625 0.34375q-0.796875 0.34375 -1.4375 0.984375q-0.625 0.65625 -1.015625 1.609375q-0.375 0.9375 -0.375 2.125l0 0.390625q0 1.03125 0.34375 1.90625q0.34375 0.875 0.96875 1.5q0.609375 0.640625 1.484375 1.0q0.875 0.359375 1.90625 0.359375zm-0.21875 -8.84375q0.65625 0 1.125 0.234375q0.46875 0.234375 0.765625 0.625q0.3125 0.375 0.484375 0.90625q0.171875 0.515625 0.171875 0.984375l0 0.078125l-5.296875 0q0.09375 -0.6875 0.34375 -1.203125q0.265625 -0.53125 0.625 -0.890625q0.359375 -0.359375 0.8125 -0.546875q0.453125 -0.1875 0.96875 -0.1875zm6.5861816 3.640625l0 0.203125q0 1.0625 0.3125 1.96875q0.3125 0.90625 0.890625 1.59375q0.578125 0.671875 1.40625 1.0625q0.84375 0.375 1.890625 0.375q1.03125 0 1.859375 -0.375q0.828125 -0.390625 1.40625 -1.0625q0.578125 -0.6875 0.890625 -1.59375q0.3125 -0.90625 0.3125 -1.96875l0 -0.203125q0 -1.0625 -0.3125 -1.984375q-0.3125 -0.921875 -0.890625 -1.59375q-0.578125 -0.671875 -1.421875 -1.046875q-0.828125 -0.390625 -1.875 -0.390625q-1.03125 0 -1.859375 0.390625q-0.828125 0.375 -1.40625 1.046875q-0.578125 0.671875 -0.890625 1.59375q-0.3125 0.921875 -0.3125 1.984375zm1.6875 0.203125l0 -0.203125q0 -0.71875 0.171875 -1.375q0.171875 -0.671875 0.53125 -1.171875q0.34375 -0.5 0.859375 -0.796875q0.515625 -0.296875 1.21875 -0.296875q0.703125 0 1.21875 0.296875q0.53125 0.296875 0.890625 0.796875q0.34375 0.5 0.515625 1.171875q0.1875 0.65625 0.1875 1.375l0 0.203125q0 0.71875 -0.171875 1.390625q-0.171875 0.65625 -0.515625 1.15625q-0.359375 0.5 -0.890625 0.796875q-0.515625 0.28125 -1.203125 0.28125q-0.703125 0 -1.234375 -0.28125q-0.53125 -0.296875 -0.875 -0.796875q-0.359375 -0.5 -0.53125 -1.15625q-0.171875 -0.671875 -0.171875 -1.390625zm14.367432 -0.59375l2.609375 5.40625l1.78125 0l0 -0.109375l-2.8125 -5.671875q0.546875 -0.234375 1.0 -0.5625q0.46875 -0.34375 0.796875 -0.78125q0.328125 -0.4375 0.5 -0.96875q0.1875 -0.546875 0.1875 -1.1875q0 -1.0 -0.34375 -1.734375q-0.34375 -0.75 -0.953125 -1.25q-0.625 -0.484375 -1.453125 -0.734375q-0.8125 -0.25 -1.75 -0.265625l-3.875 0l0 13.265625l1.671875 0l0 -5.40625l2.640625 0zm-2.640625 -1.390625l0 -5.078125l2.203125 0q0.625 0 1.125 0.171875q0.515625 0.15625 0.890625 0.484375q0.375 0.328125 0.578125 0.8125q0.21875 0.46875 0.21875 1.109375q0 0.59375 -0.21875 1.0625q-0.21875 0.453125 -0.59375 0.78125q-0.375 0.3125 -0.875 0.484375q-0.5 0.15625 -1.078125 0.171875l-2.25 0zm13.804932 6.984375q1.4375 0 2.421875 -0.578125q0.984375 -0.578125 1.46875 -1.328125l-1.03125 -0.796875q-0.46875 0.59375 -1.171875 0.96875q-0.6875 0.359375 -1.59375 0.359375q-0.6875 0 -1.25 -0.25q-0.5625 -0.265625 -0.96875 -0.71875q-0.390625 -0.40625 -0.609375 -0.953125q-0.21875 -0.546875 -0.28125 -1.265625l0 -0.078125l7.03125 0l0 -0.75q0 -1.03125 -0.265625 -1.90625q-0.25 -0.890625 -0.78125 -1.546875q-0.53125 -0.640625 -1.328125 -1.0q-0.796875 -0.375 -1.859375 -0.375q-0.84375 0 -1.65625 0.34375q-0.796875 0.34375 -1.4375 0.984375q-0.625 0.65625 -1.015625 1.609375q-0.375 0.9375 -0.375 2.125l0 0.390625q0 1.03125 0.34375 1.90625q0.34375 0.875 0.96875 1.5q0.609375 0.640625 1.484375 1.0q0.875 0.359375 1.90625 0.359375zm-0.21875 -8.84375q0.65625 0 1.125 0.234375q0.46875 0.234375 0.765625 0.625q0.3125 0.375 0.484375 0.90625q0.171875 0.515625 0.171875 0.984375l0 0.078125l-5.296875 0q0.09375 -0.6875 0.34375 -1.203125q0.265625 -0.53125 0.625 -0.890625q0.359375 -0.359375 0.8125 -0.546875q0.453125 -0.1875 0.96875 -0.1875zm7.0549927 8.65625l1.6875 0l0 -7.0625q0.171875 -0.328125 0.40625 -0.59375q0.234375 -0.265625 0.515625 -0.453125q0.328125 -0.234375 0.71875 -0.359375q0.40625 -0.140625 0.875 -0.140625q0.546875 0 0.953125 0.125q0.421875 0.125 0.703125 0.40625q0.28125 0.296875 0.421875 0.75q0.15625 0.453125 0.15625 1.109375l0 6.21875l1.6875 0l0 -6.265625q0 -0.96875 -0.25 -1.6875q-0.234375 -0.71875 -0.6875 -1.1875q-0.4375 -0.453125 -1.078125 -0.671875q-0.625 -0.21875 -1.40625 -0.21875q-0.5625 0 -1.078125 0.171875q-0.515625 0.15625 -0.953125 0.4375q-0.296875 0.1875 -0.5625 0.453125q-0.25 0.265625 -0.46875 0.5625l-0.125 -1.453125l-1.515625 0l0 9.859375zm10.883057 -5.015625l0 0.203125q0 1.046875 0.28125 1.96875q0.28125 0.90625 0.796875 1.59375q0.5 0.671875 1.21875 1.0625q0.734375 0.375 1.625 0.375q0.921875 0 1.59375 -0.3125q0.6875 -0.3125 1.1875 -0.90625l0.0625 1.03125l1.546875 0l0 -14.0l-1.6875 0l0 5.125q-0.46875 -0.578125 -1.140625 -0.859375q-0.65625 -0.296875 -1.546875 -0.296875q-0.890625 0 -1.625 0.375q-0.734375 0.359375 -1.234375 1.03125q-0.515625 0.65625 -0.796875 1.59375q-0.28125 0.921875 -0.28125 2.015625zm1.6875 0.203125l0 -0.203125q0 -0.71875 0.15625 -1.359375q0.15625 -0.65625 0.484375 -1.15625q0.3125 -0.5 0.8125 -0.78125q0.515625 -0.296875 1.21875 -0.296875q0.828125 0 1.375 0.390625q0.5625 0.390625 0.890625 0.984375l0 4.578125q-0.328125 0.640625 -0.890625 1.03125q-0.546875 0.375 -1.390625 0.375q-0.703125 0 -1.203125 -0.28125q-0.5 -0.296875 -0.8125 -0.78125q-0.328125 -0.5 -0.484375 -1.140625q-0.15625 -0.640625 -0.15625 -1.359375zm14.179932 5.0q1.4375 0 2.421875 -0.578125q0.984375 -0.578125 1.46875 -1.328125l-1.03125 -0.796875q-0.46875 0.59375 -1.171875 0.96875q-0.6875 0.359375 -1.59375 0.359375q-0.6875 0 -1.25 -0.25q-0.5625 -0.265625 -0.96875 -0.71875q-0.390625 -0.40625 -0.609375 -0.953125q-0.21875 -0.546875 -0.28125 -1.265625l0 -0.078125l7.03125 0l0 -0.75q0 -1.03125 -0.265625 -1.90625q-0.25 -0.890625 -0.78125 -1.546875q-0.53125 -0.640625 -1.328125 -1.0q-0.796875 -0.375 -1.859375 -0.375q-0.84375 0 -1.65625 0.34375q-0.796875 0.34375 -1.4375 0.984375q-0.625 0.65625 -1.015625 1.609375q-0.375 0.9375 -0.375 2.125l0 0.390625q0 1.03125 0.34375 1.90625q0.34375 0.875 0.96875 1.5q0.609375 0.640625 1.484375 1.0q0.875 0.359375 1.90625 0.359375zm-0.21875 -8.84375q0.65625 0 1.125 0.234375q0.46875 0.234375 0.765625 0.625q0.3125 0.375 0.484375 0.90625q0.171875 0.515625 0.171875 0.984375l0 0.078125l-5.296875 0q0.09375 -0.6875 0.34375 -1.203125q0.265625 -0.53125 0.625 -0.890625q0.359375 -0.359375 0.8125 -0.546875q0.453125 -0.1875 0.96875 -0.1875zm13.523682 -1.375q-1.078125 0 -1.921875 0.46875q-0.84375 0.46875 -1.4375 1.265625l-0.015625 -0.234375l-0.078125 -1.328125l-1.59375 0l0 9.859375l1.6875 0l0 -6.328125q0.171875 -0.453125 0.421875 -0.8125q0.25 -0.375 0.578125 -0.625q0.375 -0.296875 0.875 -0.4375q0.5 -0.15625 1.125 -0.15625q0.484375 0 0.921875 0.046875q0.453125 0.046875 0.9375 0.15625l0.234375 -1.640625q-0.265625 -0.109375 -0.765625 -0.171875q-0.5 -0.0625 -0.96875 -0.0625zm9.086243 10.21875q1.4375 0 2.421875 -0.578125q0.984375 -0.578125 1.46875 -1.328125l-1.03125 -0.796875q-0.46875 0.59375 -1.171875 0.96875q-0.6875 0.359375 -1.59375 0.359375q-0.6875 0 -1.25 -0.25q-0.5625 -0.265625 -0.96875 -0.71875q-0.390625 -0.40625 -0.609375 -0.953125q-0.21875 -0.546875 -0.28125 -1.265625l0 -0.078125l7.03125 0l0 -0.75q0 -1.03125 -0.265625 -1.90625q-0.25 -0.890625 -0.78125 -1.546875q-0.53125 -0.640625 -1.328125 -1.0q-0.796875 -0.375 -1.859375 -0.375q-0.84375 0 -1.65625 0.34375q-0.796875 0.34375 -1.4375 0.984375q-0.625 0.65625 -1.015625 1.609375q-0.375 0.9375 -0.375 2.125l0 0.390625q0 1.03125 0.34375 1.90625q0.34375 0.875 0.96875 1.5q0.609375 0.640625 1.484375 1.0q0.875 0.359375 1.90625 0.359375zm-0.21875 -8.84375q0.65625 0 1.125 0.234375q0.46875 0.234375 0.765625 0.625q0.3125 0.375 0.484375 0.90625q0.171875 0.515625 0.171875 0.984375l0 0.078125l-5.296875 0q0.09375 -0.6875 0.34375 -1.203125q0.265625 -0.53125 0.625 -0.890625q0.359375 -0.359375 0.8125 -0.546875q0.453125 -0.1875 0.96875 -0.1875zm13.523682 -1.375q-1.078125 0 -1.921875 0.46875q-0.84375 0.46875 -1.4375 1.265625l-0.015625 -0.234375l-0.078125 -1.328125l-1.59375 0l0 9.859375l1.6875 0l0 -6.328125q0.171875 -0.453125 0.421875 -0.8125q0.25 -0.375 0.578125 -0.625q0.375 -0.296875 0.875 -0.4375q0.5 -0.15625 1.125 -0.15625q0.484375 0 0.921875 0.046875q0.453125 0.046875 0.9375 0.15625l0.234375 -1.640625q-0.265625 -0.109375 -0.765625 -0.171875q-0.5 -0.0625 -0.96875 -0.0625z" fill-rule="nonzero"/><path fill="#d9ead3" d="m453.11548 240.0971l210.96063 0l0 83.433075l-210.96063 0z" fill-rule="evenodd"/><path fill="#000000" fill-opacity="0.0" d="m482.03674 260.8058l165.10236 0l0 42.015747l-165.10236 0z" fill-rule="evenodd"/><path fill="#000000" d="m495.8805 287.72577l1.453125 0l4.1875 -13.265625l-1.796875 0l-2.9375 9.890625l-0.1875 0.65625l-0.203125 -0.640625l-2.90625 -9.90625l-1.8125 0l4.203125 13.265625zm8.195587 -9.859375l0 1.46875l3.359375 0l0 6.9375l-3.359375 0l0 1.453125l8.2655945 0l0 -1.453125l-3.2187195 0l0 -8.40625l-5.046875 0zm3.140625 -2.578125q0 0.40625 0.25 0.6875q0.25 0.265625 0.765625 0.265625q0.5 0 0.75 -0.265625q0.25 -0.28125 0.25 -0.6875q0 -0.234375 -0.078125 -0.421875q-0.0625 -0.1875 -0.203125 -0.328125q-0.125 -0.109375 -0.3125 -0.171875q-0.171875 -0.078125 -0.40625 -0.078125q-0.25 0 -0.4375 0.078125q-0.171875 0.0625 -0.296875 0.171875q-0.140625 0.140625 -0.21875 0.34375q-0.0625 0.1875 -0.0625 0.40625zm7.476837 7.421875l0 0.203125q0 1.046875 0.28125 1.96875q0.28125 0.90625 0.796875 1.59375q0.5 0.671875 1.21875 1.0625q0.734375 0.375 1.625 0.375q0.921875 0 1.59375 -0.3125q0.6875 -0.3125 1.1875 -0.90625l0.0625 1.03125l1.546875 0l0 -14.0l-1.6875 0l0 5.125q-0.46875 -0.578125 -1.140625 -0.859375q-0.65625 -0.296875 -1.546875 -0.296875q-0.890625 0 -1.625 0.375q-0.734375 0.359375 -1.234375 1.03125q-0.515625 0.65625 -0.796875 1.59375q-0.28125 0.921875 -0.28125 2.015625zm1.6875 0.203125l0 -0.203125q0 -0.71875 0.15625 -1.359375q0.15625 -0.65625 0.484375 -1.15625q0.3125 -0.5 0.8125 -0.78125q0.515625 -0.296875 1.21875 -0.296875q0.828125 0 1.375 0.390625q0.5625 0.390625 0.890625 0.984375l0 4.578125q-0.328125 0.640625 -0.890625 1.03125q-0.546875 0.375 -1.390625 0.375q-0.703125 0 -1.203125 -0.28125q-0.5 -0.296875 -0.8125 -0.78125q-0.328125 -0.5 -0.484375 -1.140625q-0.15625 -0.640625 -0.15625 -1.359375zm14.179932 5.0q1.4375 0 2.421875 -0.578125q0.984375 -0.578125 1.46875 -1.328125l-1.03125 -0.796875q-0.46875 0.59375 -1.171875 0.96875q-0.6875 0.359375 -1.59375 0.359375q-0.6875 0 -1.25 -0.25q-0.5625 -0.265625 -0.96875 -0.71875q-0.390625 -0.40625 -0.609375 -0.953125q-0.21875 -0.546875 -0.28125 -1.265625l0 -0.078125l7.03125 0l0 -0.75q0 -1.03125 -0.265625 -1.90625q-0.25 -0.890625 -0.78125 -1.546875q-0.53125 -0.640625 -1.328125 -1.0q-0.796875 -0.375 -1.859375 -0.375q-0.84375 0 -1.65625 0.34375q-0.796875 0.34375 -1.4375 0.984375q-0.625 0.65625 -1.015625 1.609375q-0.375 0.9375 -0.375 2.125l0 0.390625q0 1.03125 0.34375 1.90625q0.34375 0.875 0.96875 1.5q0.609375 0.640625 1.484375 1.0q0.875 0.359375 1.90625 0.359375zm-0.21875 -8.84375q0.65625 0 1.125 0.234375q0.46875 0.234375 0.765625 0.625q0.3125 0.375 0.484375 0.90625q0.171875 0.515625 0.171875 0.984375l0 0.078125l-5.296875 0q0.09375 -0.6875 0.34375 -1.203125q0.265625 -0.53125 0.625 -0.890625q0.359375 -0.359375 0.8125 -0.546875q0.453125 -0.1875 0.96875 -0.1875zm6.5861816 3.640625l0 0.203125q0 1.0625 0.3125 1.96875q0.3125 0.90625 0.890625 1.59375q0.578125 0.671875 1.40625 1.0625q0.84375 0.375 1.890625 0.375q1.03125 0 1.859375 -0.375q0.828125 -0.390625 1.40625 -1.0625q0.578125 -0.6875 0.890625 -1.59375q0.3125 -0.90625 0.3125 -1.96875l0 -0.203125q0 -1.0625 -0.3125 -1.984375q-0.3125 -0.921875 -0.890625 -1.59375q-0.578125 -0.671875 -1.421875 -1.046875q-0.828125 -0.390625 -1.875 -0.390625q-1.03125 0 -1.859375 0.390625q-0.828125 0.375 -1.40625 1.046875q-0.578125 0.671875 -0.890625 1.59375q-0.3125 0.921875 -0.3125 1.984375zm1.6875 0.203125l0 -0.203125q0 -0.71875 0.171875 -1.375q0.171875 -0.671875 0.53125 -1.171875q0.34375 -0.5 0.859375 -0.796875q0.515625 -0.296875 1.21875 -0.296875q0.703125 0 1.21875 0.296875q0.53125 0.296875 0.890625 0.796875q0.34375 0.5 0.515625 1.171875q0.1875 0.65625 0.1875 1.375l0 0.203125q0 0.71875 -0.171875 1.390625q-0.171875 0.65625 -0.515625 1.15625q-0.359375 0.5 -0.890625 0.796875q-0.515625 0.28125 -1.203125 0.28125q-0.703125 0 -1.234375 -0.28125q-0.53125 -0.296875 -0.875 -0.796875q-0.359375 -0.5 -0.53125 -1.15625q-0.171875 -0.671875 -0.171875 -1.390625zm10.679932 4.8125l1.734375 0l1.609375 -9.421875l0.109375 -0.578125l0.09375 0.5625l1.609375 9.4375l1.71875 0l1.609375 -13.265625l-1.59375 0l-0.953125 9.125l-0.0625 0.546875l-0.09375 -0.53125l-1.609375 -9.140625l-1.46875 0l-1.609375 9.125l-0.09375 0.546875l-0.0625 -0.53125l-0.953125 -9.140625l-1.59375 0l1.609375 13.265625zm10.023743 -5.015625l0 0.203125q0 1.0625 0.3125 1.96875q0.3125 0.90625 0.890625 1.59375q0.578125 0.671875 1.40625 1.0625q0.84375 0.375 1.890625 0.375q1.03125 0 1.859375 -0.375q0.828125 -0.390625 1.40625 -1.0625q0.578125 -0.6875 0.890625 -1.59375q0.3125 -0.90625 0.3125 -1.96875l0 -0.203125q0 -1.0625 -0.3125 -1.984375q-0.3125 -0.921875 -0.890625 -1.59375q-0.578125 -0.671875 -1.421875 -1.046875q-0.828125 -0.390625 -1.875 -0.390625q-1.03125 0 -1.859375 0.390625q-0.828125 0.375 -1.40625 1.046875q-0.578125 0.671875 -0.890625 1.59375q-0.3125 0.921875 -0.3125 1.984375zm1.6875 0.203125l0 -0.203125q0 -0.71875 0.171875 -1.375q0.171875 -0.671875 0.53125 -1.171875q0.34375 -0.5 0.859375 -0.796875q0.515625 -0.296875 1.21875 -0.296875q0.703125 0 1.21875 0.296875q0.53125 0.296875 0.890625 0.796875q0.34375 0.5 0.515625 1.171875q0.1875 0.65625 0.1875 1.375l0 0.203125q0 0.71875 -0.171875 1.390625q-0.171875 0.65625 -0.515625 1.15625q-0.359375 0.5 -0.890625 0.796875q-0.515625 0.28125 -1.203125 0.28125q-0.703125 0 -1.234375 -0.28125q-0.53125 -0.296875 -0.875 -0.796875q-0.359375 -0.5 -0.53125 -1.15625q-0.171875 -0.671875 -0.171875 -1.390625zm16.445557 -5.21875q-1.078125 0 -1.921875 0.46875q-0.84375 0.46875 -1.4375 1.265625l-0.015625 -0.234375l-0.078125 -1.328125l-1.59375 0l0 9.859375l1.6875 0l0 -6.328125q0.171875 -0.453125 0.421875 -0.8125q0.25 -0.375 0.578125 -0.625q0.375 -0.296875 0.875 -0.4375q0.5 -0.15625 1.125 -0.15625q0.484375 0 0.921875 0.046875q0.453125 0.046875 0.9375 0.15625l0.234375 -1.640625q-0.265625 -0.109375 -0.765625 -0.171875q-0.5 -0.0625 -0.96875 -0.0625zm7.6799316 5.4375l3.625 4.59375l2.140625 0l-4.609375 -5.75l4.0 -4.109375l-2.046875 0l-3.234375 3.25l-1.109375 1.1875l0 -8.578125l-1.6875 0l0 14.0l1.6875 0l0 -3.40625l1.234375 -1.1875zm12.601807 4.78125q1.4375 0 2.421875 -0.578125q0.984375 -0.578125 1.46875 -1.328125l-1.03125 -0.796875q-0.46875 0.59375 -1.171875 0.96875q-0.6875 0.359375 -1.59375 0.359375q-0.6875 0 -1.25 -0.25q-0.5625 -0.265625 -0.96875 -0.71875q-0.390625 -0.40625 -0.609375 -0.953125q-0.21875 -0.546875 -0.28125 -1.265625l0 -0.078125l7.03125 0l0 -0.75q0 -1.03125 -0.265625 -1.90625q-0.25 -0.890625 -0.78125 -1.546875q-0.53125 -0.640625 -1.328125 -1.0q-0.796875 -0.375 -1.859375 -0.375q-0.84375 0 -1.65625 0.34375q-0.796875 0.34375 -1.4375 0.984375q-0.625 0.65625 -1.015625 1.609375q-0.375 0.9375 -0.375 2.125l0 0.390625q0 1.03125 0.34375 1.90625q0.34375 0.875 0.96875 1.5q0.609375 0.640625 1.484375 1.0q0.875 0.359375 1.90625 0.359375zm-0.21875 -8.84375q0.65625 0 1.125 0.234375q0.46875 0.234375 0.765625 0.625q0.3125 0.375 0.484375 0.90625q0.171875 0.515625 0.171875 0.984375l0 0.078125l-5.296875 0q0.09375 -0.6875 0.34375 -1.203125q0.265625 -0.53125 0.625 -0.890625q0.359375 -0.359375 0.8125 -0.546875q0.453125 -0.1875 0.96875 -0.1875zm13.523743 -1.375q-1.078125 0 -1.921875 0.46875q-0.84375 0.46875 -1.4375 1.265625l-0.015625 -0.234375l-0.078125 -1.328125l-1.59375 0l0 9.859375l1.6875 0l0 -6.328125q0.171875 -0.453125 0.421875 -0.8125q0.25 -0.375 0.578125 -0.625q0.375 -0.296875 0.875 -0.4375q0.5 -0.15625 1.125 -0.15625q0.484375 0 0.921875 0.046875q0.453125 0.046875 0.9375 0.15625l0.234375 -1.640625q-0.265625 -0.109375 -0.765625 -0.171875q-0.5 -0.0625 -0.96875 -0.0625z" fill-rule="nonzero"/><path fill="#d9ead3" d="m52.67454 240.0971l210.96062 0l0 83.433075l-210.96062 0z" fill-rule="evenodd"/><path fill="#000000" fill-opacity="0.0" d="m81.5958 260.8058l165.10236 0l0 42.015747l-165.10236 0z" fill-rule="evenodd"/><path fill="#000000" d="m95.43955 287.72577l1.453125 0l4.1875 -13.265625l-1.796875 0l-2.9375 9.890625l-0.1875 0.65625l-0.203125 -0.640625l-2.90625 -9.90625l-1.8125 0l4.203125 13.265625zm8.195572 -9.859375l0 1.46875l3.359375 0l0 6.9375l-3.359375 0l0 1.453125l8.265625 0l0 -1.453125l-3.21875 0l0 -8.40625l-5.046875 0zm3.140625 -2.578125q0 0.40625 0.25 0.6875q0.25 0.265625 0.765625 0.265625q0.5 0 0.75 -0.265625q0.25 -0.28125 0.25 -0.6875q0 -0.234375 -0.078125 -0.421875q-0.0625 -0.1875 -0.203125 -0.328125q-0.125 -0.109375 -0.3125 -0.171875q-0.171875 -0.078125 -0.40625 -0.078125q-0.25 0 -0.4375 0.078125q-0.171875 0.0625 -0.296875 0.171875q-0.140625 0.140625 -0.21875 0.34375q-0.0625 0.1875 -0.0625 0.40625zm7.476822 7.421875l0 0.203125q0 1.046875 0.28125 1.96875q0.28125 0.90625 0.796875 1.59375q0.5 0.671875 1.21875 1.0625q0.734375 0.375 1.625 0.375q0.921875 0 1.59375 -0.3125q0.6875 -0.3125 1.1875 -0.90625l0.0625 1.03125l1.546875 0l0 -14.0l-1.6875 0l0 5.125q-0.46875 -0.578125 -1.140625 -0.859375q-0.65625 -0.296875 -1.546875 -0.296875q-0.890625 0 -1.625 0.375q-0.734375 0.359375 -1.234375 1.03125q-0.515625 0.65625 -0.796875 1.59375q-0.28125 0.921875 -0.28125 2.015625zm1.6875 0.203125l0 -0.203125q0 -0.71875 0.15625 -1.359375q0.15625 -0.65625 0.484375 -1.15625q0.3125 -0.5 0.8125 -0.78125q0.515625 -0.296875 1.21875 -0.296875q0.828125 0 1.375 0.390625q0.5625 0.390625 0.890625 0.984375l0 4.578125q-0.328125 0.640625 -0.890625 1.03125q-0.546875 0.375 -1.390625 0.375q-0.703125 0 -1.203125 -0.28125q-0.5 -0.296875 -0.8125 -0.78125q-0.328125 -0.5 -0.484375 -1.140625q-0.15625 -0.640625 -0.15625 -1.359375zm14.179939 5.0q1.4375 0 2.421875 -0.578125q0.984375 -0.578125 1.46875 -1.328125l-1.03125 -0.796875q-0.46875 0.59375 -1.171875 0.96875q-0.6875 0.359375 -1.59375 0.359375q-0.6875 0 -1.25 -0.25q-0.5625 -0.265625 -0.9687424 -0.71875q-0.390625 -0.40625 -0.609375 -0.953125q-0.21875 -0.546875 -0.28125 -1.265625l0 -0.078125l7.0312424 0l0 -0.75q0 -1.03125 -0.265625 -1.90625q-0.25 -0.890625 -0.78125 -1.546875q-0.53125 -0.640625 -1.328125 -1.0q-0.796875 -0.375 -1.859375 -0.375q-0.84375 0 -1.65625 0.34375q-0.7968674 0.34375 -1.4374924 0.984375q-0.625 0.65625 -1.015625 1.609375q-0.375 0.9375 -0.375 2.125l0 0.390625q0 1.03125 0.34375 1.90625q0.34375 0.875 0.96875 1.5q0.609375 0.640625 1.4843674 1.0q0.875 0.359375 1.90625 0.359375zm-0.21875 -8.84375q0.65625 0 1.125 0.234375q0.46875 0.234375 0.765625 0.625q0.3125 0.375 0.484375 0.90625q0.171875 0.515625 0.171875 0.984375l0 0.078125l-5.2968674 0q0.09375 -0.6875 0.34375 -1.203125q0.265625 -0.53125 0.6249924 -0.890625q0.359375 -0.359375 0.8125 -0.546875q0.453125 -0.1875 0.96875 -0.1875zm6.586197 3.640625l0 0.203125q0 1.0625 0.3125 1.96875q0.3125 0.90625 0.890625 1.59375q0.578125 0.671875 1.40625 1.0625q0.84375 0.375 1.890625 0.375q1.03125 0 1.859375 -0.375q0.828125 -0.390625 1.40625 -1.0625q0.578125 -0.6875 0.890625 -1.59375q0.3125 -0.90625 0.3125 -1.96875l0 -0.203125q0 -1.0625 -0.3125 -1.984375q-0.3125 -0.921875 -0.890625 -1.59375q-0.578125 -0.671875 -1.421875 -1.046875q-0.828125 -0.390625 -1.875 -0.390625q-1.03125 0 -1.859375 0.390625q-0.828125 0.375 -1.40625 1.046875q-0.578125 0.671875 -0.890625 1.59375q-0.3125 0.921875 -0.3125 1.984375zm1.6875 0.203125l0 -0.203125q0 -0.71875 0.171875 -1.375q0.171875 -0.671875 0.53125 -1.171875q0.34375 -0.5 0.859375 -0.796875q0.515625 -0.296875 1.21875 -0.296875q0.703125 0 1.21875 0.296875q0.53125 0.296875 0.890625 0.796875q0.34375 0.5 0.515625 1.171875q0.1875 0.65625 0.1875 1.375l0 0.203125q0 0.71875 -0.171875 1.390625q-0.171875 0.65625 -0.515625 1.15625q-0.359375 0.5 -0.890625 0.796875q-0.515625 0.28125 -1.203125 0.28125q-0.703125 0 -1.234375 -0.28125q-0.53125 -0.296875 -0.875 -0.796875q-0.359375 -0.5 -0.53125 -1.15625q-0.171875 -0.671875 -0.171875 -1.390625zm10.679947 4.8125l1.734375 0l1.609375 -9.421875l0.109375 -0.578125l0.09375 0.5625l1.609375 9.4375l1.71875 0l1.609375 -13.265625l-1.59375 0l-0.953125 9.125l-0.0625 0.546875l-0.09375 -0.53125l-1.609375 -9.140625l-1.46875 0l-1.609375 9.125l-0.09375 0.546875l-0.0625 -0.53125l-0.953125 -9.140625l-1.59375 0l1.609375 13.265625zm16.961197 -10.03125q-1.078125 0 -1.921875 0.46875q-0.84375 0.46875 -1.4375 1.265625l-0.015625 -0.234375l-0.078125 -1.328125l-1.59375 0l0 9.859375l1.6875 0l0 -6.328125q0.171875 -0.453125 0.421875 -0.8125q0.25 -0.375 0.578125 -0.625q0.375 -0.296875 0.875 -0.4375q0.5 -0.15625 1.125 -0.15625q0.484375 0 0.921875 0.046875q0.453125 0.046875 0.9375 0.15625l0.234375 -1.640625q-0.265625 -0.109375 -0.765625 -0.171875q-0.5 -0.0625 -0.96875 -0.0625zm11.211197 10.03125l1.75 0l0 -0.140625q-0.15625 -0.421875 -0.25 -0.96875q-0.09375 -0.546875 -0.09375 -1.046875l0 -4.578125q0 -0.828125 -0.296875 -1.4375q-0.296875 -0.625 -0.8125 -1.046875q-0.53125 -0.40625 -1.25 -0.609375q-0.71875 -0.203125 -1.5625 -0.203125q-0.921875 0 -1.65625 0.25q-0.71875 0.25 -1.21875 0.65625q-0.5 0.421875 -0.78125 0.953125q-0.265625 0.515625 -0.265625 1.046875l1.6875 0q0 -0.3125 0.140625 -0.59375q0.15625 -0.28125 0.4375 -0.5q0.265625 -0.203125 0.65625 -0.328125q0.40625 -0.140625 0.90625 -0.140625q0.546875 0 0.96875 0.140625q0.4375 0.140625 0.734375 0.390625q0.296875 0.25 0.453125 0.609375q0.171875 0.34375 0.171875 0.796875l0 0.78125l-1.828125 0q-1.03125 0 -1.875 0.203125q-0.828125 0.1875 -1.421875 0.59375q-0.59375 0.40625 -0.921875 1.015625q-0.3125 0.609375 -0.3125 1.421875q0 0.625 0.234375 1.15625q0.25 0.53125 0.6875 0.90625q0.4375 0.40625 1.0625 0.640625q0.640625 0.21875 1.4375 0.21875q0.46875 0 0.890625 -0.109375q0.4375 -0.09375 0.828125 -0.265625q0.375 -0.171875 0.6875 -0.390625q0.3125 -0.234375 0.5625 -0.5q0.03125 0.3125 0.09375 0.609375q0.0625 0.28125 0.15625 0.46875zm-2.984375 -1.28125q-0.484375 0 -0.859375 -0.125q-0.375 -0.140625 -0.625 -0.359375q-0.234375 -0.21875 -0.359375 -0.53125q-0.125 -0.3125 -0.125 -0.671875q0 -0.390625 0.140625 -0.6875q0.140625 -0.296875 0.40625 -0.515625q0.390625 -0.3125 1.03125 -0.453125q0.65625 -0.15625 1.53125 -0.15625l1.5625 0l0 2.0q-0.140625 0.28125 -0.40625 0.5625q-0.25 0.265625 -0.59375 0.46875q-0.34375 0.203125 -0.78125 0.34375q-0.421875 0.125 -0.921875 0.125zm7.695572 5.078125l1.6875 0l0 -4.75q0.171875 0.203125 0.375 0.375q0.21875 0.171875 0.453125 0.3125q0.390625 0.21875 0.875 0.328125q0.5 0.125 1.0625 0.125q0.921875 0 1.640625 -0.375q0.734375 -0.390625 1.234375 -1.0625q0.484375 -0.6875 0.734375 -1.59375q0.265625 -0.921875 0.265625 -1.96875l0 -0.203125q0 -1.09375 -0.265625 -2.015625q-0.25 -0.9375 -0.734375 -1.59375q-0.5 -0.671875 -1.234375 -1.03125q-0.71875 -0.375 -1.671875 -0.375q-0.53125 0 -1.0 0.109375q-0.46875 0.109375 -0.859375 0.328125q-0.265625 0.140625 -0.515625 0.359375q-0.234375 0.203125 -0.421875 0.453125l-0.09375 -1.078125l-1.53125 0l0 13.65625zm6.640625 -8.8125l0 0.203125q0 0.71875 -0.171875 1.375q-0.15625 0.65625 -0.484375 1.15625q-0.328125 0.5 -0.84375 0.796875q-0.5 0.296875 -1.203125 0.296875q-0.4375 0 -0.796875 -0.109375q-0.359375 -0.109375 -0.640625 -0.3125q-0.265625 -0.15625 -0.46875 -0.390625q-0.1875 -0.234375 -0.34375 -0.515625l0 -4.75q0.171875 -0.296875 0.390625 -0.546875q0.234375 -0.265625 0.53125 -0.4375q0.265625 -0.171875 0.59375 -0.265625q0.328125 -0.09375 0.71875 -0.09375q0.71875 0 1.21875 0.296875q0.515625 0.28125 0.84375 0.78125q0.328125 0.5 0.484375 1.15625q0.171875 0.640625 0.171875 1.359375zm4.554947 8.8125l1.6875 0l0 -4.75q0.171875 0.203125 0.375 0.375q0.21875 0.171875 0.453125 0.3125q0.390625 0.21875 0.875 0.328125q0.5 0.125 1.0625 0.125q0.921875 0 1.640625 -0.375q0.734375 -0.390625 1.234375 -1.0625q0.484375 -0.6875 0.734375 -1.59375q0.265625 -0.921875 0.265625 -1.96875l0 -0.203125q0 -1.09375 -0.265625 -2.015625q-0.25 -0.9375 -0.734375 -1.59375q-0.5 -0.671875 -1.234375 -1.03125q-0.71875 -0.375 -1.671875 -0.375q-0.53125 0 -1.0 0.109375q-0.46875 0.109375 -0.859375 0.328125q-0.265625 0.140625 -0.515625 0.359375q-0.234375 0.203125 -0.421875 0.453125l-0.09375 -1.078125l-1.53125 0l0 13.65625zm6.640625 -8.8125l0 0.203125q0 0.71875 -0.171875 1.375q-0.15625 0.65625 -0.484375 1.15625q-0.328125 0.5 -0.84375 0.796875q-0.5 0.296875 -1.203125 0.296875q-0.4375 0 -0.796875 -0.109375q-0.359375 -0.109375 -0.640625 -0.3125q-0.265625 -0.15625 -0.46875 -0.390625q-0.1875 -0.234375 -0.34375 -0.515625l0 -4.75q0.171875 -0.296875 0.390625 -0.546875q0.234375 -0.265625 0.53125 -0.4375q0.265625 -0.171875 0.59375 -0.265625q0.328125 -0.09375 0.71875 -0.09375q0.71875 0 1.21875 0.296875q0.515625 0.28125 0.84375 0.78125q0.328125 0.5 0.484375 1.15625q0.171875 0.640625 0.171875 1.359375zm8.914322 5.203125q1.4375 0 2.421875 -0.578125q0.984375 -0.578125 1.46875 -1.328125l-1.03125 -0.796875q-0.46875 0.59375 -1.171875 0.96875q-0.6875 0.359375 -1.59375 0.359375q-0.6875 0 -1.25 -0.25q-0.5625 -0.265625 -0.96875 -0.71875q-0.390625 -0.40625 -0.609375 -0.953125q-0.21875 -0.546875 -0.28125 -1.265625l0 -0.078125l7.03125 0l0 -0.75q0 -1.03125 -0.265625 -1.90625q-0.25 -0.890625 -0.78125 -1.546875q-0.53125 -0.640625 -1.328125 -1.0q-0.796875 -0.375 -1.859375 -0.375q-0.84375 0 -1.65625 0.34375q-0.796875 0.34375 -1.4375 0.984375q-0.625 0.65625 -1.015625 1.609375q-0.375 0.9375 -0.375 2.125l0 0.390625q0 1.03125 0.34375 1.90625q0.34375 0.875 0.96875 1.5q0.609375 0.640625 1.484375 1.0q0.875 0.359375 1.90625 0.359375zm-0.21875 -8.84375q0.65625 0 1.125 0.234375q0.46875 0.234375 0.765625 0.625q0.3125 0.375 0.484375 0.90625q0.171875 0.515625 0.171875 0.984375l0 0.078125l-5.296875 0q0.09375 -0.6875 0.34375 -1.203125q0.265625 -0.53125 0.625 -0.890625q0.359375 -0.359375 0.8125 -0.546875q0.453125 -0.1875 0.96875 -0.1875zm13.523697 -1.375q-1.078125 0 -1.921875 0.46875q-0.84375 0.46875 -1.4375 1.265625l-0.015625 -0.234375l-0.078125 -1.328125l-1.59375 0l0 9.859375l1.6875 0l0 -6.328125q0.171875 -0.453125 0.421875 -0.8125q0.25 -0.375 0.578125 -0.625q0.375 -0.296875 0.875 -0.4375q0.5 -0.15625 1.125 -0.15625q0.484375 0 0.921875 0.046875q0.453125 0.046875 0.9375 0.15625l0.234375 -1.640625q-0.265625 -0.109375 -0.765625 -0.171875q-0.5 -0.0625 -0.96875 -0.0625z" fill-rule="nonzero"/><path fill="#000000" fill-opacity="0.0" d="m32.356956 47.435696l252.6929 0l0 468.7559l-252.6929 0z" fill-rule="evenodd"/><path stroke="#000000" stroke-width="1.0" stroke-linejoin="round" stroke-linecap="butt" stroke-dasharray="4.0,3.0" d="m32.356956 47.435696l252.6929 0l0 468.7559l-252.6929 0z" fill-rule="evenodd"/><path fill="#000000" fill-opacity="0.0" d="m37.913387 47.435696l376.56693 0l0 42.01575l-376.56693 0z" fill-rule="evenodd"/><path fill="#000000" d="m54.225887 74.35569l-3.203125 -10.453121l-0.078125 0q0.015625 0.3749962 0.046875 1.1249962q0.046875 0.75 0.078125 1.59375q0.046875 0.84375 0.046875 1.546875l0 6.1875l-2.53125 0l0 -13.328121l3.84375 0l3.15625 10.187496l0.0625 0l3.34375 -10.187496l3.828125 0l0 13.328121l-2.625 0l0 -6.3125q0 -0.625 0.03125 -1.4375q0.03125 -0.828125 0.046875 -1.5625q0.03125 -0.75 0.046875 -1.1093712l-0.0625 0l-3.4375 10.421871l-2.59375 0zm16.186596 -10.374996q1.921875 0 2.921875 0.9062462q1.015625 0.90625 1.015625 2.671875l0 6.796875l-1.953125 0l-0.546875 -1.375l-0.0625 0q-0.4375 0.53125 -0.890625 0.890625q-0.453125 0.359375 -1.0625 0.515625q-0.59375 0.15625 -1.453125 0.15625q-0.890625 0 -1.609375 -0.34375q-0.703125 -0.34375 -1.109375 -1.046875q-0.40625 -0.71875 -0.40625 -1.796875q0 -1.609375 1.15625 -2.40625q1.15625 -0.8125 3.453125 -0.90625l1.6875 -0.046875l0 -0.3125q0 -0.921875 -0.40625 -1.28125q-0.40625 -0.375 -1.15625 -0.375q-0.6875 0 -1.421875 0.234375q-0.71875 0.21875 -1.4375 0.53125l-0.8125 -1.921875q0.796875 -0.40625 1.828125 -0.640625q1.046875 -0.24999619 2.265625 -0.24999619zm0.078125 5.703121q-1.3125 0.046875 -1.84375 0.4375q-0.515625 0.390625 -0.515625 1.09375q0 0.65625 0.359375 0.96875q0.359375 0.3125 0.984375 0.3125q0.875 0 1.46875 -0.515625q0.609375 -0.53125 0.609375 -1.5l0 -0.84375l-1.0625 0.046875zm9.393845 -5.515625l0 10.1875l-2.828125 0l0 -10.1875l2.828125 0zm-1.40625 -4.015621q0.625 0 1.078125 0.296875q0.453125 0.28125 0.453125 1.09375q0 0.765625 -0.453125 1.0625q-0.453125 0.296875 -1.078125 0.296875q-0.625 0 -1.078125 -0.296875q-0.453125 -0.296875 -0.453125 -1.0625q0 -0.8125 0.453125 -1.09375q0.453125 -0.296875 1.078125 -0.296875zm9.968842 3.828125q1.671875 0 2.640625 0.8749962q0.96875 0.875 0.96875 2.859375l0 6.640625l-2.796875 0l0 -5.9375q0 -1.09375 -0.40625 -1.640625q-0.390625 -0.5625 -1.234375 -0.5625q-1.265625 0 -1.734375 0.875q-0.453125 0.859375 -0.453125 2.484375l0 4.78125l-2.8125 0l0 -10.1875l2.171875 0l0.390625 1.359375l0.109375 0q0.328125 -0.5 0.796875 -0.84375q0.484375 -0.34375 1.078125 -0.515625q0.59375 -0.18749619 1.28125 -0.18749619zm15.539703 8.343746q0.46875 0 0.890625 -0.09375q0.4375 -0.09375 0.859375 -0.21875l0 2.0625q-0.453125 0.1875 -1.109375 0.328125q-0.65625 0.140625 -1.453125 0.140625q-0.90625 0 -1.625 -0.296875q-0.71875 -0.296875 -1.140625 -1.03125q-0.421875 -0.75 -0.421875 -2.046875l0 -4.90625l-1.328125 0l0 -1.171875l1.53125 -0.9375l0.8125 -2.1406212l1.765625 0l0 2.1562462l2.859375 0l0 2.09375l-2.859375 0l0 4.90625q0 0.578125 0.328125 0.875q0.34375 0.28125 0.890625 0.28125zm6.518692 -9.296871q0 0.828125 -0.046875 1.4531212q-0.046875 0.625 -0.078125 1.0l0.15625 0q0.328125 -0.546875 0.765625 -0.859375q0.453125 -0.328125 1.0 -0.484375q0.5625 -0.15624619 1.171875 -0.15624619q1.109375 0 1.921875 0.3906212q0.828125 0.390625 1.28125 1.203125q0.453125 0.8125 0.453125 2.140625l0 6.640625l-2.8125 0l0 -5.9375q0 -1.09375 -0.390625 -1.640625q-0.390625 -0.5625 -1.234375 -0.5625q-0.8125 0 -1.296875 0.40625q-0.46875 0.390625 -0.6875 1.140625q-0.203125 0.734375 -0.203125 1.8125l0 4.78125l-2.8125 0l0 -14.171871l2.8125 0l0 2.84375zm14.954697 0.953125q0.28125 0 0.59375 0.031246185q0.328125 0.03125 0.515625 0.078125l-0.28125 2.640625q-0.203125 -0.046875 -0.484375 -0.078125q-0.265625 -0.046875 -0.671875 -0.046875q-0.421875 0 -0.859375 0.140625q-0.4375 0.125 -0.8125 0.421875q-0.375 0.296875 -0.609375 0.796875q-0.21875 0.484375 -0.21875 1.21875l0 5.171875l-2.8125 0l0 -10.1875l2.140625 0l0.421875 1.71875l0.125 0q0.296875 -0.546875 0.75 -0.96875q0.453125 -0.4375 1.0 -0.6875q0.5625 -0.24999619 1.203125 -0.24999619zm6.669136 0q1.421875 0 2.4375 0.5312462q1.03125 0.53125 1.578125 1.578125q0.5625 1.03125 0.5625 2.515625l0 1.359375l-6.546875 0q0.03125 1.15625 0.703125 1.828125q0.671875 0.65625 1.921875 0.65625q0.953125 0 1.734375 -0.1875q0.78125 -0.1875 1.609375 -0.5625l0 2.109375q-0.75 0.375 -1.578125 0.546875q-0.828125 0.1875 -2.0625 0.1875q-1.515625 0 -2.6875 -0.5625q-1.15625 -0.5625 -1.8281326 -1.71875q-0.671875 -1.171875 -0.671875 -2.921875q0 -1.796875 0.609375 -2.96875q0.6093826 -1.1875 1.6875076 -1.78125q1.09375 -0.6093712 2.53125 -0.6093712zm0.078125 1.9999962q-0.84375 0 -1.359375 0.53125q-0.515625 0.53125 -0.609375 1.578125l3.84375 0q0 -0.625 -0.21875 -1.078125q-0.203125 -0.46875 -0.625 -0.75q-0.40625 -0.28125 -1.03125 -0.28125zm11.262787 -1.9999962q1.921875 0 2.921875 0.9062462q1.015625 0.90625 1.015625 2.671875l0 6.796875l-1.953125 0l-0.546875 -1.375l-0.0625 0q-0.4375 0.53125 -0.890625 0.890625q-0.453125 0.359375 -1.0625 0.515625q-0.59375 0.15625 -1.453125 0.15625q-0.890625 0 -1.609375 -0.34375q-0.703125 -0.34375 -1.109375 -1.046875q-0.40625 -0.71875 -0.40625 -1.796875q0 -1.609375 1.15625 -2.40625q1.15625 -0.8125 3.453125 -0.90625l1.6875 -0.046875l0 -0.3125q0 -0.921875 -0.40625 -1.28125q-0.40625 -0.375 -1.15625 -0.375q-0.6875 0 -1.421875 0.234375q-0.71875 0.21875 -1.4375 0.53125l-0.8125 -1.921875q0.796875 -0.40625 1.828125 -0.640625q1.046875 -0.24999619 2.265625 -0.24999619zm0.078125 5.703121q-1.3125 0.046875 -1.84375 0.4375q-0.515625 0.390625 -0.515625 1.09375q0 0.65625 0.359375 0.96875q0.359375 0.3125 0.984375 0.3125q0.875 0 1.46875 -0.515625q0.609375 -0.53125 0.609375 -1.5l0 -0.84375l-1.0625 0.046875zm9.893845 4.859375q-1.6875 0 -2.765625 -1.328125q-1.0625 -1.34375 -1.0625 -3.9375q0 -2.625 1.078125 -3.953125q1.09375 -1.3437462 2.84375 -1.3437462q0.71875 0 1.25 0.20312119q0.53125 0.1875 0.921875 0.53125q0.40625 0.328125 0.6875 0.765625l0.09375 0q-0.0625 -0.34375 -0.109375 -0.9375q-0.046875 -0.6093712 -0.046875 -1.1249962l0 -3.234375l2.828125 0l0 14.171871l-2.15625 0l-0.5625 -1.328125l-0.109375 0q-0.265625 0.4375 -0.65625 0.78125q-0.390625 0.328125 -0.9375 0.53125q-0.546875 0.203125 -1.296875 0.203125zm0.984375 -2.265625q1.15625 0 1.625 -0.65625q0.46875 -0.65625 0.46875 -2.015625l0 -0.3125q0 -1.46875 -0.453125 -2.25q-0.4375 -0.78125 -1.65625 -0.78125q-0.921875 0 -1.4375 0.78125q-0.5 0.78125 -0.5 2.28125q0 1.484375 0.5 2.21875q0.515625 0.734375 1.453125 0.734375z" fill-rule="nonzero"/><path fill="#000000" fill-opacity="0.0" d="m423.28348 54.283466l376.56693 0l0 42.015743l-376.56693 0z" fill-rule="evenodd"/><path fill="#000000" d="m450.33035 67.875336l-3.40625 13.328125l-3.203125 0l-1.8125 -7.0q-0.046875 -0.203125 -0.140625 -0.609375q-0.078125 -0.40625 -0.1875 -0.890625q-0.09375 -0.5 -0.171875 -0.9375q-0.078125 -0.4375 -0.109375 -0.671875q-0.015625 0.234375 -0.109375 0.671875q-0.078125 0.4375 -0.171875 0.921875q-0.09375 0.46875 -0.1875 0.890625q-0.09375 0.421875 -0.15625 0.640625l-1.78125 6.984375l-3.21875 0l-3.390625 -13.328125l2.78125 0l1.703125 7.28125q0.0625 0.3125 0.15625 0.78125q0.09375 0.453125 0.1875 0.953125q0.09375 0.484375 0.171875 0.953125q0.09375 0.46875 0.125 0.796875q0.046875 -0.34375 0.109375 -0.796875q0.078125 -0.46875 0.171875 -0.9375q0.09375 -0.484375 0.171875 -0.890625q0.09375 -0.421875 0.171875 -0.671875l1.9375 -7.46875l2.671875 0l1.9375 7.46875q0.046875 0.25 0.140625 0.671875q0.09375 0.40625 0.1875 0.890625q0.09375 0.484375 0.171875 0.953125q0.078125 0.453125 0.109375 0.78125q0.0625 -0.453125 0.171875 -1.09375q0.109375 -0.65625 0.25 -1.296875q0.140625 -0.65625 0.234375 -1.09375l1.703125 -7.28125l2.78125 0zm10.386017 8.21875q0 1.265625 -0.34375 2.265625q-0.34375 0.984375 -1.0 1.65625q-0.640625 0.671875 -1.5625 1.03125q-0.90625 0.34375 -2.0625 0.34375q-1.078125 0 -1.984375 -0.34375q-0.890625 -0.359375 -1.546875 -1.03125q-0.640625 -0.671875 -1.015625 -1.65625q-0.375 -1.0 -0.375 -2.265625q0 -1.703125 0.59375 -2.875q0.609375 -1.171875 1.71875 -1.78125q1.125 -0.609375 2.671875 -0.609375q1.4375 0 2.53125 0.609375q1.109375 0.609375 1.734375 1.78125q0.640625 1.171875 0.640625 2.875zm-7.015625 0q0 0.984375 0.203125 1.703125q0.21875 0.703125 0.671875 1.078125q0.46875 0.375 1.21875 0.375q0.71875 0 1.171875 -0.375q0.46875 -0.375 0.671875 -1.078125q0.203125 -0.71875 0.203125 -1.703125q0 -1.015625 -0.21875 -1.703125q-0.203125 -0.6875 -0.65625 -1.046875q-0.453125 -0.375 -1.1875 -0.375q-1.09375 0 -1.59375 0.8125q-0.484375 0.796875 -0.484375 2.3125zm14.910156 -5.265625q0.28125 0 0.59375 0.03125q0.328125 0.03125 0.515625 0.078125l-0.28125 2.640625q-0.203125 -0.046875 -0.484375 -0.078125q-0.265625 -0.046875 -0.671875 -0.046875q-0.421875 0 -0.859375 0.140625q-0.4375 0.125 -0.8125 0.421875q-0.375 0.296875 -0.609375 0.796875q-0.21875 0.484375 -0.21875 1.21875l0 5.171875l-2.8125 0l0 -10.1875l2.140625 0l0.421875 1.71875l0.125 0q0.296875 -0.546875 0.75 -0.96875q0.453125 -0.4375 1.0 -0.6875q0.5625 -0.25 1.203125 -0.25zm5.5737 2.546875q0 0.578125 -0.046875 1.140625q-0.046875 0.5625 -0.109375 1.140625l0.046875 0q0.1875 -0.25 0.375 -0.515625q0.203125 -0.265625 0.40625 -0.515625q0.203125 -0.265625 0.421875 -0.515625l2.859375 -3.09375l3.140625 0l-4.046875 4.421875l4.28125 5.765625l-3.203125 0l-2.9375 -4.125l-1.1875 0.953125l0 3.171875l-2.78125 0l0 -14.171875l2.78125 0l0 6.34375zm13.035645 -2.546875q1.421875 0 2.4375 0.53125q1.03125 0.53125 1.578125 1.578125q0.5625 1.03125 0.5625 2.515625l0 1.359375l-6.546875 0q0.03125 1.15625 0.703125 1.828125q0.671875 0.65625 1.921875 0.65625q0.953125 0 1.734375 -0.1875q0.78125 -0.1875 1.609375 -0.5625l0 2.109375q-0.75 0.375 -1.578125 0.546875q-0.828125 0.1875 -2.0625 0.1875q-1.515625 0 -2.6875 -0.5625q-1.15625 -0.5625 -1.828125 -1.71875q-0.671875 -1.171875 -0.671875 -2.921875q0 -1.796875 0.609375 -2.96875q0.609375 -1.1875 1.6875 -1.78125q1.09375 -0.609375 2.53125 -0.609375zm0.078125 2.0q-0.84375 0 -1.359375 0.53125q-0.515625 0.53125 -0.609375 1.578125l3.84375 0q0 -0.625 -0.21875 -1.078125q-0.203125 -0.46875 -0.625 -0.75q-0.40625 -0.28125 -1.03125 -0.28125zm12.356537 -2.0q0.28125 0 0.59375 0.03125q0.328125 0.03125 0.515625 0.078125l-0.28125 2.640625q-0.203125 -0.046875 -0.484375 -0.078125q-0.265625 -0.046875 -0.671875 -0.046875q-0.421875 0 -0.859375 0.140625q-0.4375 0.125 -0.8125 0.421875q-0.375 0.296875 -0.609375 0.796875q-0.21875 0.484375 -0.21875 1.21875l0 5.171875l-2.8125 0l0 -10.1875l2.140625 0l0.421875 1.71875l0.125 0q0.296875 -0.546875 0.75 -0.96875q0.453125 -0.4375 1.0 -0.6875q0.5625 -0.25 1.203125 -0.25z" fill-rule="nonzero"/><path fill="#000000" fill-opacity="0.0" d="m267.3832 281.81366l185.73227 0" fill-rule="evenodd"/><path stroke="#000000" stroke-width="1.0" stroke-linejoin="round" stroke-linecap="butt" d="m267.3832 281.81366l179.73227 0" fill-rule="evenodd"/><path fill="#000000" stroke="#000000" stroke-width="1.0" stroke-linecap="butt" d="m447.11548 283.4654l4.5381165 -1.6517334l-4.5381165 -1.6517334z" fill-rule="evenodd"/><path fill="#000000" fill-opacity="0.0" d="m735.4724 179.78215l229.48035 0l0 33.921265l-229.48035 0z" fill-rule="evenodd"/><path fill="#000000" d="m750.37866 198.11465q0 0.765625 -0.390625 1.28125q-0.390625 0.515625 -1.0625 0.78125q-0.65625 0.25 -1.46875 0.25q-0.53125 0 -0.953125 -0.0625q-0.40625 -0.046875 -0.75 -0.125q-0.328125 -0.078125 -0.625 -0.171875l0 -0.5q0.46875 0.1875 1.046875 0.3125q0.59375 0.109375 1.328125 0.109375q0.671875 0 1.203125 -0.1875q0.546875 -0.203125 0.859375 -0.609375q0.328125 -0.421875 0.328125 -1.0625q0 -0.5625 -0.265625 -0.90625q-0.265625 -0.359375 -0.78125 -0.609375q-0.515625 -0.25 -1.265625 -0.484375q-0.515625 -0.171875 -0.953125 -0.359375q-0.4375 -0.203125 -0.75 -0.453125q-0.3125 -0.265625 -0.484375 -0.625q-0.171875 -0.375 -0.171875 -0.921875q0 -0.703125 0.359375 -1.1875q0.375 -0.484375 0.984375 -0.71875q0.625 -0.25 1.390625 -0.25q0.59375 0 1.140625 0.109375q0.546875 0.109375 1.0625 0.34375l-0.171875 0.40625q-0.53125 -0.234375 -1.046875 -0.328125q-0.515625 -0.09375 -1.015625 -0.09375q-0.609375 0 -1.109375 0.1875q-0.5 0.171875 -0.8125 0.5625q-0.296875 0.375 -0.296875 0.953125q0 0.609375 0.265625 0.984375q0.28125 0.359375 0.765625 0.578125q0.5 0.21875 1.125 0.4375q0.765625 0.234375 1.328125 0.515625q0.5625 0.28125 0.875 0.71875q0.3125 0.421875 0.3125 1.125zm4.074951 -4.296875q0.8125 0 1.328125 0.390625q0.53125 0.390625 0.78125 1.0625q0.265625 0.65625 0.265625 1.5l0 0.375l-4.65625 0q0 1.375 0.625 2.125q0.625 0.734375 1.796875 0.734375q0.59375 0 1.015625 -0.09375q0.4375 -0.09375 0.96875 -0.34375l0 0.453125q-0.46875 0.203125 -0.9375 0.296875q-0.453125 0.109375 -1.046875 0.109375q-0.984375 0 -1.640625 -0.40625q-0.640625 -0.421875 -0.953125 -1.15625q-0.296875 -0.734375 -0.296875 -1.6875q0 -0.9375 0.296875 -1.6875q0.3125 -0.75 0.921875 -1.203125q0.625 -0.46875 1.53125 -0.46875zm0 0.421875q-0.953125 0 -1.5625 0.640625q-0.59375 0.640625 -0.703125 1.859375l4.171875 0q0 -0.75 -0.21875 -1.3125q-0.203125 -0.5625 -0.625 -0.875q-0.40625 -0.3125 -1.0625 -0.3125zm6.524414 -0.421875q0.828125 0 1.3125 0.328125q0.484375 0.328125 0.765625 0.84375l0.03125 0l0.0625 -1.046875l0.390625 0l0 6.625q0 0.78125 -0.28125 1.375q-0.265625 0.59375 -0.859375 0.90625q-0.578125 0.328125 -1.546875 0.328125q-0.71875 0 -1.265625 -0.125q-0.546875 -0.125 -0.984375 -0.296875l0 -0.5q0.4375 0.21875 1.015625 0.359375q0.578125 0.140625 1.25 0.140625q1.1875 0 1.6875 -0.59375q0.515625 -0.59375 0.515625 -1.578125l0 -0.46875q0 -0.296875 0.015625 -0.546875q0.015625 -0.265625 0.015625 -0.5625l-0.03125 0q-0.234375 0.703125 -0.8125 1.0625q-0.5625 0.359375 -1.40625 0.359375q-1.21875 0 -1.921875 -0.828125q-0.6875 -0.828125 -0.6875 -2.390625q0 -1.578125 0.6875 -2.484375q0.703125 -0.90625 2.046875 -0.90625zm0.03125 0.421875q-0.78125 0 -1.28125 0.359375q-0.5 0.34375 -0.765625 1.015625q-0.25 0.65625 -0.25 1.59375q0 1.359375 0.5625 2.078125q0.5625 0.71875 1.609375 0.71875q0.671875 0 1.09375 -0.21875q0.421875 -0.21875 0.65625 -0.59375q0.25 -0.375 0.34375 -0.859375q0.109375 -0.484375 0.109375 -0.984375l0 -0.515625q0 -0.78125 -0.203125 -1.359375q-0.203125 -0.578125 -0.640625 -0.90625q-0.4375 -0.328125 -1.234375 -0.328125zm11.126892 -0.421875q0.875 0 1.390625 0.53125q0.53125 0.53125 0.53125 1.640625l0 4.3125l-0.453125 0l0 -4.28125q0 -0.921875 -0.421875 -1.34375q-0.421875 -0.4375 -1.09375 -0.4375q-0.90625 0 -1.453125 0.53125q-0.53125 0.53125 -0.53125 1.703125l0 3.828125l-0.453125 0l0 -4.28125q0 -0.625 -0.203125 -1.0q-0.203125 -0.390625 -0.546875 -0.578125q-0.328125 -0.203125 -0.765625 -0.203125q-0.578125 0 -1.03125 0.25q-0.4375 0.234375 -0.703125 0.734375q-0.25 0.5 -0.25 1.296875l0 3.78125l-0.46875 0l0 -6.359375l0.375 0l0.078125 1.109375l0.03125 0q0.140625 -0.3125 0.390625 -0.59375q0.265625 -0.28125 0.65625 -0.453125q0.390625 -0.1875 0.953125 -0.1875q0.6875 0 1.15625 0.328125q0.484375 0.328125 0.65625 0.953125l0.015625 0q0.25 -0.59375 0.78125 -0.9375q0.546875 -0.34375 1.359375 -0.34375zm6.3656006 0q0.8125 0 1.328125 0.390625q0.53125 0.390625 0.78125 1.0625q0.265625 0.65625 0.265625 1.5l0 0.375l-4.65625 0q0 1.375 0.625 2.125q0.625 0.734375 1.796875 0.734375q0.59375 0 1.015625 -0.09375q0.4375 -0.09375 0.96875 -0.34375l0 0.453125q-0.46875 0.203125 -0.9375 0.296875q-0.453125 0.109375 -1.046875 0.109375q-0.984375 0 -1.640625 -0.40625q-0.640625 -0.421875 -0.953125 -1.15625q-0.296875 -0.734375 -0.296875 -1.6875q0 -0.9375 0.296875 -1.6875q0.3125 -0.75 0.921875 -1.203125q0.625 -0.46875 1.53125 -0.46875zm0 0.421875q-0.953125 0 -1.5625 0.640625q-0.59375 0.640625 -0.703125 1.859375l4.171875 0q0 -0.75 -0.21875 -1.3125q-0.203125 -0.5625 -0.625 -0.875q-0.40625 -0.3125 -1.0625 -0.3125zm6.883789 -0.421875q1.046875 0 1.609375 0.5625q0.578125 0.5625 0.578125 1.765625l0 4.15625l-0.46875 0l0 -4.140625q0 -1.0 -0.453125 -1.453125q-0.453125 -0.46875 -1.3125 -0.46875q-1.03125 0 -1.625 0.625q-0.59375 0.609375 -0.59375 1.875l0 3.5625l-0.46875 0l0 -6.359375l0.375 0l0.078125 1.25l0.03125 0q0.15625 -0.375 0.4375 -0.671875q0.296875 -0.3125 0.734375 -0.5q0.453125 -0.203125 1.078125 -0.203125zm5.85907 6.1875q0.296875 0 0.515625 -0.046875q0.234375 -0.046875 0.421875 -0.09375l0 0.390625q-0.1875 0.078125 -0.4375 0.125q-0.234375 0.046875 -0.53125 0.046875q-0.546875 0 -0.890625 -0.203125q-0.328125 -0.21875 -0.5 -0.625q-0.15625 -0.40625 -0.15625 -1.015625l0 -4.234375l-0.96875 0l0 -0.3125l0.96875 -0.109375l0.140625 -1.53125l0.328125 0l0 1.546875l2.015625 0l0 0.40625l-2.015625 0l0 4.203125q0 0.703125 0.234375 1.078125q0.25 0.375 0.875 0.375zm8.30603 0.296875l-0.453125 0l0 -6.59375q0 -0.359375 0 -0.609375q0 -0.265625 0 -0.46875q0.015625 -0.21875 0.015625 -0.390625q-0.140625 0.125 -0.296875 0.25q-0.140625 0.125 -0.375 0.28125l-1.359375 1.03125l-0.265625 -0.34375l2.34375 -1.71875l0.390625 0l0 8.5625z" fill-rule="nonzero"/><path fill="#000000" fill-opacity="0.0" d="m735.4724 286.65616l229.48035 0l0 33.921265l-229.48035 0z" fill-rule="evenodd"/><path fill="#000000" d="m750.37866 304.98868q0 0.765625 -0.390625 1.28125q-0.390625 0.515625 -1.0625 0.78125q-0.65625 0.25 -1.46875 0.25q-0.53125 0 -0.953125 -0.0625q-0.40625 -0.046875 -0.75 -0.125q-0.328125 -0.078125 -0.625 -0.171875l0 -0.5q0.46875 0.1875 1.046875 0.3125q0.59375 0.109375 1.328125 0.109375q0.671875 0 1.203125 -0.1875q0.546875 -0.203125 0.859375 -0.609375q0.328125 -0.421875 0.328125 -1.0625q0 -0.5625 -0.265625 -0.90625q-0.265625 -0.359375 -0.78125 -0.609375q-0.515625 -0.25 -1.265625 -0.484375q-0.515625 -0.171875 -0.953125 -0.359375q-0.4375 -0.203125 -0.75 -0.453125q-0.3125 -0.265625 -0.484375 -0.625q-0.171875 -0.375 -0.171875 -0.921875q0 -0.703125 0.359375 -1.1875q0.375 -0.484375 0.984375 -0.71875q0.625 -0.25 1.390625 -0.25q0.59375 0 1.140625 0.109375q0.546875 0.109375 1.0625 0.34375l-0.171875 0.40625q-0.53125 -0.234375 -1.046875 -0.328125q-0.515625 -0.09375 -1.015625 -0.09375q-0.609375 0 -1.109375 0.1875q-0.5 0.171875 -0.8125 0.5625q-0.296875 0.375 -0.296875 0.953125q0 0.609375 0.265625 0.984375q0.28125 0.359375 0.765625 0.578125q0.5 0.21875 1.125 0.4375q0.765625 0.234375 1.328125 0.515625q0.5625 0.28125 0.875 0.71875q0.3125 0.421875 0.3125 1.125zm4.074951 -4.296875q0.8125 0 1.328125 0.390625q0.53125 0.390625 0.78125 1.0625q0.265625 0.65625 0.265625 1.5l0 0.375l-4.65625 0q0 1.375 0.625 2.125q0.625 0.734375 1.796875 0.734375q0.59375 0 1.015625 -0.09375q0.4375 -0.09375 0.96875 -0.34375l0 0.453125q-0.46875 0.203125 -0.9375 0.296875q-0.453125 0.109375 -1.046875 0.109375q-0.984375 0 -1.640625 -0.40625q-0.640625 -0.421875 -0.953125 -1.15625q-0.296875 -0.734375 -0.296875 -1.6875q0 -0.9375 0.296875 -1.6875q0.3125 -0.75 0.921875 -1.203125q0.625 -0.46875 1.53125 -0.46875zm0 0.421875q-0.953125 0 -1.5625 0.640625q-0.59375 0.640625 -0.703125 1.859375l4.171875 0q0 -0.75 -0.21875 -1.3125q-0.203125 -0.5625 -0.625 -0.875q-0.40625 -0.3125 -1.0625 -0.3125zm6.524414 -0.421875q0.828125 0 1.3125 0.328125q0.484375 0.328125 0.765625 0.84375l0.03125 0l0.0625 -1.046875l0.390625 0l0 6.625q0 0.78125 -0.28125 1.375q-0.265625 0.59375 -0.859375 0.90625q-0.578125 0.328125 -1.546875 0.328125q-0.71875 0 -1.265625 -0.125q-0.546875 -0.125 -0.984375 -0.296875l0 -0.5q0.4375 0.21875 1.015625 0.359375q0.578125 0.140625 1.25 0.140625q1.1875 0 1.6875 -0.59375q0.515625 -0.59375 0.515625 -1.578125l0 -0.46875q0 -0.296875 0.015625 -0.546875q0.015625 -0.265625 0.015625 -0.5625l-0.03125 0q-0.234375 0.703125 -0.8125 1.0625q-0.5625 0.359375 -1.40625 0.359375q-1.21875 0 -1.921875 -0.828125q-0.6875 -0.828125 -0.6875 -2.390625q0 -1.578125 0.6875 -2.484375q0.703125 -0.90625 2.046875 -0.90625zm0.03125 0.421875q-0.78125 0 -1.28125 0.359375q-0.5 0.34375 -0.765625 1.015625q-0.25 0.65625 -0.25 1.59375q0 1.359375 0.5625 2.078125q0.5625 0.71875 1.609375 0.71875q0.671875 0 1.09375 -0.21875q0.421875 -0.21875 0.65625 -0.59375q0.25 -0.375 0.34375 -0.859375q0.109375 -0.484375 0.109375 -0.984375l0 -0.515625q0 -0.78125 -0.203125 -1.359375q-0.203125 -0.578125 -0.640625 -0.90625q-0.4375 -0.328125 -1.234375 -0.328125zm11.126892 -0.421875q0.875 0 1.390625 0.53125q0.53125 0.53125 0.53125 1.640625l0 4.3125l-0.453125 0l0 -4.28125q0 -0.921875 -0.421875 -1.34375q-0.421875 -0.4375 -1.09375 -0.4375q-0.90625 0 -1.453125 0.53125q-0.53125 0.53125 -0.53125 1.703125l0 3.828125l-0.453125 0l0 -4.28125q0 -0.625 -0.203125 -1.0q-0.203125 -0.390625 -0.546875 -0.578125q-0.328125 -0.203125 -0.765625 -0.203125q-0.578125 0 -1.03125 0.25q-0.4375 0.234375 -0.703125 0.734375q-0.25 0.5 -0.25 1.296875l0 3.78125l-0.46875 0l0 -6.359375l0.375 0l0.078125 1.109375l0.03125 0q0.140625 -0.3125 0.390625 -0.59375q0.265625 -0.28125 0.65625 -0.453125q0.390625 -0.1875 0.953125 -0.1875q0.6875 0 1.15625 0.328125q0.484375 0.328125 0.65625 0.953125l0.015625 0q0.25 -0.59375 0.78125 -0.9375q0.546875 -0.34375 1.359375 -0.34375zm6.3656006 0q0.8125 0 1.328125 0.390625q0.53125 0.390625 0.78125 1.0625q0.265625 0.65625 0.265625 1.5l0 0.375l-4.65625 0q0 1.375 0.625 2.125q0.625 0.734375 1.796875 0.734375q0.59375 0 1.015625 -0.09375q0.4375 -0.09375 0.96875 -0.34375l0 0.453125q-0.46875 0.203125 -0.9375 0.296875q-0.453125 0.109375 -1.046875 0.109375q-0.984375 0 -1.640625 -0.40625q-0.640625 -0.421875 -0.953125 -1.15625q-0.296875 -0.734375 -0.296875 -1.6875q0 -0.9375 0.296875 -1.6875q0.3125 -0.75 0.921875 -1.203125q0.625 -0.46875 1.53125 -0.46875zm0 0.421875q-0.953125 0 -1.5625 0.640625q-0.59375 0.640625 -0.703125 1.859375l4.171875 0q0 -0.75 -0.21875 -1.3125q-0.203125 -0.5625 -0.625 -0.875q-0.40625 -0.3125 -1.0625 -0.3125zm6.883789 -0.421875q1.046875 0 1.609375 0.5625q0.578125 0.5625 0.578125 1.765625l0 4.15625l-0.46875 0l0 -4.140625q0 -1.0 -0.453125 -1.453125q-0.453125 -0.46875 -1.3125 -0.46875q-1.03125 0 -1.625 0.625q-0.59375 0.609375 -0.59375 1.875l0 3.5625l-0.46875 0l0 -6.359375l0.375 0l0.078125 1.25l0.03125 0q0.15625 -0.375 0.4375 -0.671875q0.296875 -0.3125 0.734375 -0.5q0.453125 -0.203125 1.078125 -0.203125zm5.85907 6.1875q0.296875 0 0.515625 -0.046875q0.234375 -0.046875 0.421875 -0.09375l0 0.390625q-0.1875 0.078125 -0.4375 0.125q-0.234375 0.046875 -0.53125 0.046875q-0.546875 0 -0.890625 -0.203125q-0.328125 -0.21875 -0.5 -0.625q-0.15625 -0.40625 -0.15625 -1.015625l0 -4.234375l-0.96875 0l0 -0.3125l0.96875 -0.109375l0.140625 -1.53125l0.328125 0l0 1.546875l2.015625 0l0 0.40625l-2.015625 0l0 4.203125q0 0.703125 0.234375 1.078125q0.25 0.375 0.875 0.375zm10.352905 0.296875l-5.28125 0l0 -0.390625l2.59375 -2.734375q0.59375 -0.625 1.0 -1.125q0.40625 -0.515625 0.609375 -1.03125q0.203125 -0.515625 0.203125 -1.15625q0 -0.875 -0.5 -1.34375q-0.484375 -0.484375 -1.359375 -0.484375q-0.53125 0 -1.0625 0.203125q-0.53125 0.1875 -1.015625 0.578125l-0.25 -0.34375q0.359375 -0.296875 0.75 -0.484375q0.390625 -0.1875 0.796875 -0.28125q0.40625 -0.09375 0.78125 -0.09375q0.703125 0 1.21875 0.28125q0.53125 0.28125 0.828125 0.78125q0.296875 0.5 0.296875 1.171875q0 0.703125 -0.234375 1.28125q-0.234375 0.5625 -0.671875 1.09375q-0.421875 0.53125 -1.03125 1.15625l-2.34375 2.46875l0 0.015625l4.671875 0l0 0.4375z" fill-rule="nonzero"/><path fill="#000000" fill-opacity="0.0" d="m735.4724 389.92126l229.48035 0l0 33.921265l-229.48035 0z" fill-rule="evenodd"/><path fill="#000000" d="m750.37866 408.25375q0 0.765625 -0.390625 1.28125q-0.390625 0.515625 -1.0625 0.78125q-0.65625 0.25 -1.46875 0.25q-0.53125 0 -0.953125 -0.0625q-0.40625 -0.046875 -0.75 -0.125q-0.328125 -0.078125 -0.625 -0.171875l0 -0.5q0.46875 0.1875 1.046875 0.3125q0.59375 0.109375 1.328125 0.109375q0.671875 0 1.203125 -0.1875q0.546875 -0.203125 0.859375 -0.609375q0.328125 -0.421875 0.328125 -1.0625q0 -0.5625 -0.265625 -0.90625q-0.265625 -0.359375 -0.78125 -0.609375q-0.515625 -0.25 -1.265625 -0.484375q-0.515625 -0.171875 -0.953125 -0.359375q-0.4375 -0.203125 -0.75 -0.453125q-0.3125 -0.265625 -0.484375 -0.625q-0.171875 -0.375 -0.171875 -0.921875q0 -0.703125 0.359375 -1.1875q0.375 -0.484375 0.984375 -0.71875q0.625 -0.25 1.390625 -0.25q0.59375 0 1.140625 0.109375q0.546875 0.109375 1.0625 0.34375l-0.171875 0.40625q-0.53125 -0.234375 -1.046875 -0.328125q-0.515625 -0.09375 -1.015625 -0.09375q-0.609375 0 -1.109375 0.1875q-0.5 0.171875 -0.8125 0.5625q-0.296875 0.375 -0.296875 0.953125q0 0.609375 0.265625 0.984375q0.28125 0.359375 0.765625 0.578125q0.5 0.21875 1.125 0.4375q0.765625 0.234375 1.328125 0.515625q0.5625 0.28125 0.875 0.71875q0.3125 0.421875 0.3125 1.125zm4.074951 -4.296875q0.8125 0 1.328125 0.390625q0.53125 0.390625 0.78125 1.0625q0.265625 0.65625 0.265625 1.5l0 0.375l-4.65625 0q0 1.375 0.625 2.125q0.625 0.734375 1.796875 0.734375q0.59375 0 1.015625 -0.09375q0.4375 -0.09375 0.96875 -0.34375l0 0.453125q-0.46875 0.203125 -0.9375 0.296875q-0.453125 0.109375 -1.046875 0.109375q-0.984375 0 -1.640625 -0.40625q-0.640625 -0.421875 -0.953125 -1.15625q-0.296875 -0.734375 -0.296875 -1.6875q0 -0.9375 0.296875 -1.6875q0.3125 -0.75 0.921875 -1.203125q0.625 -0.46875 1.53125 -0.46875zm0 0.421875q-0.953125 0 -1.5625 0.640625q-0.59375 0.640625 -0.703125 1.859375l4.171875 0q0 -0.75 -0.21875 -1.3125q-0.203125 -0.5625 -0.625 -0.875q-0.40625 -0.3125 -1.0625 -0.3125zm6.524414 -0.421875q0.828125 0 1.3125 0.328125q0.484375 0.328125 0.765625 0.84375l0.03125 0l0.0625 -1.046875l0.390625 0l0 6.625q0 0.78125 -0.28125 1.375q-0.265625 0.59375 -0.859375 0.90625q-0.578125 0.328125 -1.546875 0.328125q-0.71875 0 -1.265625 -0.125q-0.546875 -0.125 -0.984375 -0.296875l0 -0.5q0.4375 0.21875 1.015625 0.359375q0.578125 0.140625 1.25 0.140625q1.1875 0 1.6875 -0.59375q0.515625 -0.59375 0.515625 -1.578125l0 -0.46875q0 -0.296875 0.015625 -0.546875q0.015625 -0.265625 0.015625 -0.5625l-0.03125 0q-0.234375 0.703125 -0.8125 1.0625q-0.5625 0.359375 -1.40625 0.359375q-1.21875 0 -1.921875 -0.828125q-0.6875 -0.828125 -0.6875 -2.390625q0 -1.578125 0.6875 -2.484375q0.703125 -0.90625 2.046875 -0.90625zm0.03125 0.421875q-0.78125 0 -1.28125 0.359375q-0.5 0.34375 -0.765625 1.015625q-0.25 0.65625 -0.25 1.59375q0 1.359375 0.5625 2.078125q0.5625 0.71875 1.609375 0.71875q0.671875 0 1.09375 -0.21875q0.421875 -0.21875 0.65625 -0.59375q0.25 -0.375 0.34375 -0.859375q0.109375 -0.484375 0.109375 -0.984375l0 -0.515625q0 -0.78125 -0.203125 -1.359375q-0.203125 -0.578125 -0.640625 -0.90625q-0.4375 -0.328125 -1.234375 -0.328125zm11.126892 -0.421875q0.875 0 1.390625 0.53125q0.53125 0.53125 0.53125 1.640625l0 4.3125l-0.453125 0l0 -4.28125q0 -0.921875 -0.421875 -1.34375q-0.421875 -0.4375 -1.09375 -0.4375q-0.90625 0 -1.453125 0.53125q-0.53125 0.53125 -0.53125 1.703125l0 3.828125l-0.453125 0l0 -4.28125q0 -0.625 -0.203125 -1.0q-0.203125 -0.390625 -0.546875 -0.578125q-0.328125 -0.203125 -0.765625 -0.203125q-0.578125 0 -1.03125 0.25q-0.4375 0.234375 -0.703125 0.734375q-0.25 0.5 -0.25 1.296875l0 3.78125l-0.46875 0l0 -6.359375l0.375 0l0.078125 1.109375l0.03125 0q0.140625 -0.3125 0.390625 -0.59375q0.265625 -0.28125 0.65625 -0.453125q0.390625 -0.1875 0.953125 -0.1875q0.6875 0 1.15625 0.328125q0.484375 0.328125 0.65625 0.953125l0.015625 0q0.25 -0.59375 0.78125 -0.9375q0.546875 -0.34375 1.359375 -0.34375zm6.3656006 0q0.8125 0 1.328125 0.390625q0.53125 0.390625 0.78125 1.0625q0.265625 0.65625 0.265625 1.5l0 0.375l-4.65625 0q0 1.375 0.625 2.125q0.625 0.734375 1.796875 0.734375q0.59375 0 1.015625 -0.09375q0.4375 -0.09375 0.96875 -0.34375l0 0.453125q-0.46875 0.203125 -0.9375 0.296875q-0.453125 0.109375 -1.046875 0.109375q-0.984375 0 -1.640625 -0.40625q-0.640625 -0.421875 -0.953125 -1.15625q-0.296875 -0.734375 -0.296875 -1.6875q0 -0.9375 0.296875 -1.6875q0.3125 -0.75 0.921875 -1.203125q0.625 -0.46875 1.53125 -0.46875zm0 0.421875q-0.953125 0 -1.5625 0.640625q-0.59375 0.640625 -0.703125 1.859375l4.171875 0q0 -0.75 -0.21875 -1.3125q-0.203125 -0.5625 -0.625 -0.875q-0.40625 -0.3125 -1.0625 -0.3125zm6.883789 -0.421875q1.046875 0 1.609375 0.5625q0.578125 0.5625 0.578125 1.765625l0 4.15625l-0.46875 0l0 -4.140625q0 -1.0 -0.453125 -1.453125q-0.453125 -0.46875 -1.3125 -0.46875q-1.03125 0 -1.625 0.625q-0.59375 0.609375 -0.59375 1.875l0 3.5625l-0.46875 0l0 -6.359375l0.375 0l0.078125 1.25l0.03125 0q0.15625 -0.375 0.4375 -0.671875q0.296875 -0.3125 0.734375 -0.5q0.453125 -0.203125 1.078125 -0.203125zm5.85907 6.1875q0.296875 0 0.515625 -0.046875q0.234375 -0.046875 0.421875 -0.09375l0 0.390625q-0.1875 0.078125 -0.4375 0.125q-0.234375 0.046875 -0.53125 0.046875q-0.546875 0 -0.890625 -0.203125q-0.328125 -0.21875 -0.5 -0.625q-0.15625 -0.40625 -0.15625 -1.015625l0 -4.234375l-0.96875 0l0 -0.3125l0.96875 -0.109375l0.140625 -1.53125l0.328125 0l0 1.546875l2.015625 0l0 0.40625l-2.015625 0l0 4.203125q0 0.703125 0.234375 1.078125q0.25 0.375 0.875 0.375zm10.08728 -6.296875q0 0.5625 -0.25 1.0q-0.234375 0.4375 -0.640625 0.71875q-0.390625 0.28125 -0.9375 0.375l0 0.03125q1.015625 0.125 1.546875 0.65625q0.546875 0.53125 0.546875 1.453125q0 0.734375 -0.34375 1.296875q-0.34375 0.5625 -1.015625 0.875q-0.65625 0.3125 -1.65625 0.3125q-0.703125 0 -1.3125 -0.140625q-0.609375 -0.140625 -1.078125 -0.359375l0 -0.46875q0.46875 0.234375 1.09375 0.390625q0.640625 0.15625 1.296875 0.15625q1.265625 0 1.890625 -0.546875q0.625 -0.5625 0.625 -1.515625q0 -0.671875 -0.328125 -1.09375q-0.328125 -0.421875 -0.921875 -0.59375q-0.59375 -0.1875 -1.390625 -0.1875l-0.953125 0l0 -0.421875l0.953125 0q0.65625 0 1.1875 -0.203125q0.546875 -0.21875 0.875 -0.640625q0.328125 -0.4375 0.328125 -1.09375q0 -0.828125 -0.53125 -1.25q-0.53125 -0.421875 -1.40625 -0.421875q-0.453125 0 -0.859375 0.09375q-0.40625 0.078125 -0.78125 0.265625q-0.375 0.171875 -0.75 0.453125l-0.25 -0.34375q0.515625 -0.40625 1.171875 -0.640625q0.65625 -0.25 1.46875 -0.25q1.109375 0 1.765625 0.5625q0.65625 0.546875 0.65625 1.53125z" fill-rule="nonzero"/><path fill="#000000" fill-opacity="0.0" d="m664.0761 281.81366l25.1156 0l0 -106.20474l25.120605 0" fill-rule="evenodd"/><path stroke="#000000" stroke-width="1.0" stroke-linejoin="round" stroke-linecap="butt" d="m664.0761 281.81366l25.1156 0l0 -106.20474l19.120605 0" fill-rule="evenodd"/><path fill="#000000" stroke="#000000" stroke-width="1.0" stroke-linecap="butt" d="m708.3123 177.26065l4.538147 -1.6517334l-4.538147 -1.6517334z" fill-rule="evenodd"/><path fill="#000000" fill-opacity="0.0" d="m664.0761 281.81366l25.1156 0l0 106.20471l25.120605 0" fill-rule="evenodd"/><path stroke="#000000" stroke-width="1.0" stroke-linejoin="round" stroke-linecap="butt" d="m664.0761 281.81366l25.1156 0l0 106.20471l19.120605 0" fill-rule="evenodd"/><path fill="#000000" stroke="#000000" stroke-width="1.0" stroke-linecap="butt" d="m708.3123 389.6701l4.538147 -1.6517334l-4.538147 -1.6517334z" fill-rule="evenodd"/><path fill="#000000" fill-opacity="0.0" d="m664.0761 281.81366l25.1156 0l0 0.06298828l25.120605 0" fill-rule="evenodd"/><path stroke="#000000" stroke-width="1.0" stroke-linejoin="round" stroke-linecap="butt" d="m664.0761 281.81366l25.1156 0l0 0.06298828l19.120605 0" fill-rule="evenodd"/><path fill="#000000" stroke="#000000" stroke-width="1.0" stroke-linecap="butt" d="m708.3123 283.52838l4.538147 -1.6517334l-4.538147 -1.6517334z" fill-rule="evenodd"/></g></svg>