<svg version="1.1" viewBox="0.0 0.0 960.0 540.0" fill="none" stroke="none" stroke-linecap="square" stroke-miterlimit="10" xmlns:xlink="http://www.w3.org/1999/xlink" xmlns="http://www.w3.org/2000/svg"><clipPath id="p.0"><path d="m0 0l960.0 0l0 540.0l-960.0 0l0 -540.0z" clip-rule="nonzero"/></clipPath><g clip-path="url(#p.0)"><path fill="#000000" fill-opacity="0.0" d="m0 0l960.0 0l0 540.0l-960.0 0z" fill-rule="evenodd"/><path shape-rendering="crispEdges" fill="#000000" d="m-2.3307087 0l40.194225 0l0 41.95013l-40.194225 0l0 -41.95013z" fill-rule="nonzero"/><path shape-rendering="crispEdges" fill="#000000" d="m37.863518 0l40.19422 0l0 41.95013l-40.19422 0l0 -41.95013z" fill-rule="nonzero"/><path shape-rendering="crispEdges" fill="#000000" d="m78.05774 0l40.19423 0l0 41.95013l-40.19423 0l0 -41.95013z" fill-rule="nonzero"/><path shape-rendering="crispEdges" fill="#000000" d="m118.25197 0l40.19423 0l0 41.95013l-40.19423 0l0 -41.95013z" fill-rule="nonzero"/><path shape-rendering="crispEdges" fill="#000000" d="m158.4462 0l40.19423 0l0 41.95013l-40.19423 0l0 -41.95013z" fill-rule="nonzero"/><path shape-rendering="crispEdges" fill="#000000" d="m198.64043 0l40.194214 0l0 41.95013l-40.194214 0l0 -41.95013z" fill-rule="nonzero"/><path shape-rendering="crispEdges" fill="#000000" d="m238.83464 0l40.19423 0l0 41.95013l-40.19423 0l0 -41.95013z" fill-rule="nonzero"/><path shape-rendering="crispEdges" fill="#000000" d="m279.02887 0l40.194214 0l0 41.95013l-40.194214 0l0 -41.95013z" fill-rule="nonzero"/><path shape-rendering="crispEdges" fill="#000000" d="m319.22308 0l40.194244 0l0 41.95013l-40.194244 0l0 -41.95013z" fill-rule="nonzero"/><path shape-rendering="crispEdges" fill="#000000" d="m359.41733 0l40.194214 0l0 41.95013l-40.194214 0l0 -41.95013z" fill-rule="nonzero"/><path shape-rendering="crispEdges" fill="#000000" d="m399.61154 0l40.194244 0l0 41.95013l-40.194244 0l0 -41.95013z" fill-rule="nonzero"/><path shape-rendering="crispEdges" fill="#000000" d="m439.8058 0l40.194214 0l0 41.95013l-40.194214 0l0 -41.95013z" fill-rule="nonzero"/><path shape-rendering="crispEdges" fill="#000000" d="m480.0 0l40.194214 0l0 41.95013l-40.194214 0l0 -41.95013z" fill-rule="nonzero"/><path shape-rendering="crispEdges" fill="#000000" d="m520.1942 0l40.194214 0l0 41.95013l-40.194214 0l0 -41.95013z" fill-rule="nonzero"/><path shape-rendering="crispEdges" fill="#000000" d="m560.3884 0l40.194275 0l0 41.95013l-40.194275 0l0 -41.95013z" fill-rule="nonzero"/><path shape-rendering="crispEdges" fill="#000000" d="m600.5827 0l40.194214 0l0 41.95013l-40.194214 0l0 -41.95013z" fill-rule="nonzero"/><path shape-rendering="crispEdges" fill="#000000" d="m640.7769 0l40.194214 0l0 41.95013l-40.194214 0l0 -41.95013z" fill-rule="nonzero"/><path shape-rendering="crispEdges" fill="#000000" d="m680.9711 0l40.194214 0l0 41.95013l-40.194214 0l0 -41.95013z" fill-rule="nonzero"/><path shape-rendering="crispEdges" fill="#000000" d="m721.16534 0l40.194214 0l0 41.95013l-40.194214 0l0 -41.95013z" fill-rule="nonzero"/><path shape-rendering="crispEdges" fill="#000000" d="m761.35956 0l40.194275 0l0 41.95013l-40.194275 0l0 -41.95013z" fill-rule="nonzero"/><path shape-rendering="crispEdges" fill="#000000" d="m801.55383 0l40.194214 0l0 41.95013l-40.194214 0l0 -41.95013z" fill-rule="nonzero"/><path shape-rendering="crispEdges" fill="#000000" d="m841.74805 0l40.194214 0l0 41.95013l-40.194214 0l0 -41.95013z" fill-rule="nonzero"/><path shape-rendering="crispEdges" fill="#000000" d="m881.94226 0l40.194214 0l0 41.95013l-40.194214 0l0 -41.95013z" fill-rule="nonzero"/><path shape-rendering="crispEdges" fill="#000000" d="m922.1365 0l40.194214 0l0 41.95013l-40.194214 0l0 -41.95013z" fill-rule="nonzero"/><path shape-rendering="crispEdges" fill="#000000" d="m-2.3307087 41.95013l40.194225 0l0 41.95013l-40.194225 0l0 -41.95013z" fill-rule="nonzero"/><path shape-rendering="crispEdges" fill="#000000" d="m37.863518 41.95013l40.19422 0l0 41.95013l-40.19422 0l0 -41.95013z" fill-rule="nonzero"/><path shape-rendering="crispEdges" fill="#000000" d="m78.05774 41.95013l40.19423 0l0 41.95013l-40.19423 0l0 -41.95013z" fill-rule="nonzero"/><path shape-rendering="crispEdges" fill="#000000" d="m118.25197 41.95013l40.19423 0l0 41.95013l-40.19423 0l0 -41.95013z" fill-rule="nonzero"/><path shape-rendering="crispEdges" fill="#000000" d="m158.4462 41.95013l40.19423 0l0 41.95013l-40.19423 0l0 -41.95013z" fill-rule="nonzero"/><path shape-rendering="crispEdges" fill="#000000" d="m198.64043 41.95013l40.194214 0l0 41.95013l-40.194214 0l0 -41.95013z" fill-rule="nonzero"/><path shape-rendering="crispEdges" fill="#000000" d="m238.83464 41.95013l40.19423 0l0 41.95013l-40.19423 0l0 -41.95013z" fill-rule="nonzero"/><path shape-rendering="crispEdges" fill="#000000" d="m279.02887 41.95013l40.194214 0l0 41.95013l-40.194214 0l0 -41.95013z" fill-rule="nonzero"/><path shape-rendering="crispEdges" fill="#000000" d="m319.22308 41.95013l40.194244 0l0 41.95013l-40.194244 0l0 -41.95013z" fill-rule="nonzero"/><path shape-rendering="crispEdges" fill="#000000" d="m359.41733 41.95013l40.194214 0l0 41.95013l-40.194214 0l0 -41.95013z" fill-rule="nonzero"/><path shape-rendering="crispEdges" fill="#000000" d="m399.61154 41.95013l40.194244 0l0 41.95013l-40.194244 0l0 -41.95013z" fill-rule="nonzero"/><path shape-rendering="crispEdges" fill="#000000" d="m439.8058 41.95013l40.194214 0l0 41.95013l-40.194214 0l0 -41.95013z" fill-rule="nonzero"/><path shape-rendering="crispEdges" fill="#000000" d="m480.0 41.95013l40.194214 0l0 41.95013l-40.194214 0l0 -41.95013z" fill-rule="nonzero"/><path shape-rendering="crispEdges" fill="#000000" d="m520.1942 41.95013l40.194214 0l0 41.95013l-40.194214 0l0 -41.95013z" fill-rule="nonzero"/><path shape-rendering="crispEdges" fill="#000000" d="m560.3884 41.95013l40.194275 0l0 41.95013l-40.194275 0l0 -41.95013z" fill-rule="nonzero"/><path shape-rendering="crispEdges" fill="#000000" d="m600.5827 41.95013l40.194214 0l0 41.95013l-40.194214 0l0 -41.95013z" fill-rule="nonzero"/><path shape-rendering="crispEdges" fill="#000000" d="m640.7769 41.95013l40.194214 0l0 41.95013l-40.194214 0l0 -41.95013z" fill-rule="nonzero"/><path shape-rendering="crispEdges" fill="#000000" d="m680.9711 41.95013l40.194214 0l0 41.95013l-40.194214 0l0 -41.95013z" fill-rule="nonzero"/><path shape-rendering="crispEdges" fill="#000000" d="m721.16534 41.95013l40.194214 0l0 41.95013l-40.194214 0l0 -41.95013z" fill-rule="nonzero"/><path shape-rendering="crispEdges" fill="#000000" d="m761.35956 41.95013l40.194275 0l0 41.95013l-40.194275 0l0 -41.95013z" fill-rule="nonzero"/><path shape-rendering="crispEdges" fill="#000000" d="m801.55383 41.95013l40.194214 0l0 41.95013l-40.194214 0l0 -41.95013z" fill-rule="nonzero"/><path shape-rendering="crispEdges" fill="#000000" d="m841.74805 41.95013l40.194214 0l0 41.95013l-40.194214 0l0 -41.95013z" fill-rule="nonzero"/><path shape-rendering="crispEdges" fill="#000000" d="m881.94226 41.95013l40.194214 0l0 41.95013l-40.194214 0l0 -41.95013z" fill-rule="nonzero"/><path shape-rendering="crispEdges" fill="#000000" d="m922.1365 41.95013l40.194214 0l0 41.95013l-40.194214 0l0 -41.95013z" fill-rule="nonzero"/><path shape-rendering="crispEdges" fill="#000000" d="m-2.3307087 83.90026l40.194225 0l0 41.950134l-40.194225 0l0 -41.950134z" fill-rule="nonzero"/><path shape-rendering="crispEdges" fill="#000000" d="m37.863518 83.90026l40.19422 0l0 41.950134l-40.19422 0l0 -41.950134z" fill-rule="nonzero"/><path shape-rendering="crispEdges" fill="#000000" d="m78.05774 83.90026l40.19423 0l0 41.950134l-40.19423 0l0 -41.950134z" fill-rule="nonzero"/><path shape-rendering="crispEdges" fill="#000000" d="m118.25197 83.90026l40.19423 0l0 41.950134l-40.19423 0l0 -41.950134z" fill-rule="nonzero"/><path shape-rendering="crispEdges" fill="#000000" d="m158.4462 83.90026l40.19423 0l0 41.950134l-40.19423 0l0 -41.950134z" fill-rule="nonzero"/><path shape-rendering="crispEdges" fill="#000000" d="m198.64043 83.90026l40.194214 0l0 41.950134l-40.194214 0l0 -41.950134z" fill-rule="nonzero"/><path shape-rendering="crispEdges" fill="#000000" d="m238.83464 83.90026l40.19423 0l0 41.950134l-40.19423 0l0 -41.950134z" fill-rule="nonzero"/><path shape-rendering="crispEdges" fill="#000000" d="m279.02887 83.90026l40.194214 0l0 41.950134l-40.194214 0l0 -41.950134z" fill-rule="nonzero"/><path shape-rendering="crispEdges" fill="#000000" d="m319.22308 83.90026l40.194244 0l0 41.950134l-40.194244 0l0 -41.950134z" fill-rule="nonzero"/><path shape-rendering="crispEdges" fill="#000000" d="m359.41733 83.90026l40.194214 0l0 41.950134l-40.194214 0l0 -41.950134z" fill-rule="nonzero"/><path shape-rendering="crispEdges" fill="#000000" d="m399.61154 83.90026l40.194244 0l0 41.950134l-40.194244 0l0 -41.950134z" fill-rule="nonzero"/><path shape-rendering="crispEdges" fill="#000000" d="m439.8058 83.90026l40.194214 0l0 41.950134l-40.194214 0l0 -41.950134z" fill-rule="nonzero"/><path shape-rendering="crispEdges" fill="#000000" d="m480.0 83.90026l40.194214 0l0 41.950134l-40.194214 0l0 -41.950134z" fill-rule="nonzero"/><path shape-rendering="crispEdges" fill="#000000" d="m520.1942 83.90026l40.194214 0l0 41.950134l-40.194214 0l0 -41.950134z" fill-rule="nonzero"/><path shape-rendering="crispEdges" fill="#000000" d="m560.3884 83.90026l40.194275 0l0 41.950134l-40.194275 0l0 -41.950134z" fill-rule="nonzero"/><path shape-rendering="crispEdges" fill="#000000" d="m600.5827 83.90026l40.194214 0l0 41.950134l-40.194214 0l0 -41.950134z" fill-rule="nonzero"/><path shape-rendering="crispEdges" fill="#000000" d="m640.7769 83.90026l40.194214 0l0 41.950134l-40.194214 0l0 -41.950134z" fill-rule="nonzero"/><path shape-rendering="crispEdges" fill="#000000" d="m680.9711 83.90026l40.194214 0l0 41.950134l-40.194214 0l0 -41.950134z" fill-rule="nonzero"/><path shape-rendering="crispEdges" fill="#000000" d="m721.16534 83.90026l40.194214 0l0 41.950134l-40.194214 0l0 -41.950134z" fill-rule="nonzero"/><path shape-rendering="crispEdges" fill="#000000" d="m761.35956 83.90026l40.194275 0l0 41.950134l-40.194275 0l0 -41.950134z" fill-rule="nonzero"/><path shape-rendering="crispEdges" fill="#000000" d="m801.55383 83.90026l40.194214 0l0 41.950134l-40.194214 0l0 -41.950134z" fill-rule="nonzero"/><path shape-rendering="crispEdges" fill="#000000" d="m841.74805 83.90026l40.194214 0l0 41.950134l-40.194214 0l0 -41.950134z" fill-rule="nonzero"/><path shape-rendering="crispEdges" fill="#000000" d="m881.94226 83.90026l40.194214 0l0 41.950134l-40.194214 0l0 -41.950134z" fill-rule="nonzero"/><path shape-rendering="crispEdges" fill="#000000" d="m922.1365 83.90026l40.194214 0l0 41.950134l-40.194214 0l0 -41.950134z" fill-rule="nonzero"/><path shape-rendering="crispEdges" fill="#000000" d="m-2.3307087 125.850395l40.194225 0l0 41.950127l-40.194225 0l0 -41.950127z" fill-rule="nonzero"/><path shape-rendering="crispEdges" fill="#000000" d="m37.863518 125.850395l40.19422 0l0 41.950127l-40.19422 0l0 -41.950127z" fill-rule="nonzero"/><path shape-rendering="crispEdges" fill="#000000" d="m78.05774 125.850395l40.19423 0l0 41.950127l-40.19423 0l0 -41.950127z" fill-rule="nonzero"/><path shape-rendering="crispEdges" fill="#000000" d="m118.25197 125.850395l40.19423 0l0 41.950127l-40.19423 0l0 -41.950127z" fill-rule="nonzero"/><path shape-rendering="crispEdges" fill="#000000" d="m158.4462 125.850395l40.19423 0l0 41.950127l-40.19423 0l0 -41.950127z" fill-rule="nonzero"/><path shape-rendering="crispEdges" fill="#000000" d="m198.64043 125.850395l40.194214 0l0 41.950127l-40.194214 0l0 -41.950127z" fill-rule="nonzero"/><path shape-rendering="crispEdges" fill="#000000" d="m238.83464 125.850395l40.19423 0l0 41.950127l-40.19423 0l0 -41.950127z" fill-rule="nonzero"/><path shape-rendering="crispEdges" fill="#000000" d="m279.02887 125.850395l40.194214 0l0 41.950127l-40.194214 0l0 -41.950127z" fill-rule="nonzero"/><path shape-rendering="crispEdges" fill="#000000" d="m319.22308 125.850395l40.194244 0l0 41.950127l-40.194244 0l0 -41.950127z" fill-rule="nonzero"/><path shape-rendering="crispEdges" fill="#000000" d="m359.41733 125.850395l40.194214 0l0 41.950127l-40.194214 0l0 -41.950127z" fill-rule="nonzero"/><path shape-rendering="crispEdges" fill="#000000" d="m399.61154 125.850395l40.194244 0l0 41.950127l-40.194244 0l0 -41.950127z" fill-rule="nonzero"/><path shape-rendering="crispEdges" fill="#ffffff" d="m439.8058 125.850395l40.194214 0l0 41.950127l-40.194214 0l0 -41.950127z" fill-rule="nonzero"/><path shape-rendering="crispEdges" fill="#ffffff" d="m480.0 125.850395l40.194214 0l0 41.950127l-40.194214 0l0 -41.950127z" fill-rule="nonzero"/><path shape-rendering="crispEdges" fill="#000000" d="m520.1942 125.850395l40.194214 0l0 41.950127l-40.194214 0l0 -41.950127z" fill-rule="nonzero"/><path shape-rendering="crispEdges" fill="#000000" d="m560.3884 125.850395l40.194275 0l0 41.950127l-40.194275 0l0 -41.950127z" fill-rule="nonzero"/><path shape-rendering="crispEdges" fill="#000000" d="m600.5827 125.850395l40.194214 0l0 41.950127l-40.194214 0l0 -41.950127z" fill-rule="nonzero"/><path shape-rendering="crispEdges" fill="#000000" d="m640.7769 125.850395l40.194214 0l0 41.950127l-40.194214 0l0 -41.950127z" fill-rule="nonzero"/><path shape-rendering="crispEdges" fill="#000000" d="m680.9711 125.850395l40.194214 0l0 41.950127l-40.194214 0l0 -41.950127z" fill-rule="nonzero"/><path shape-rendering="crispEdges" fill="#000000" d="m721.16534 125.850395l40.194214 0l0 41.950127l-40.194214 0l0 -41.950127z" fill-rule="nonzero"/><path shape-rendering="crispEdges" fill="#000000" d="m761.35956 125.850395l40.194275 0l0 41.950127l-40.194275 0l0 -41.950127z" fill-rule="nonzero"/><path shape-rendering="crispEdges" fill="#000000" d="m801.55383 125.850395l40.194214 0l0 41.950127l-40.194214 0l0 -41.950127z" fill-rule="nonzero"/><path shape-rendering="crispEdges" fill="#000000" d="m841.74805 125.850395l40.194214 0l0 41.950127l-40.194214 0l0 -41.950127z" fill-rule="nonzero"/><path shape-rendering="crispEdges" fill="#000000" d="m881.94226 125.850395l40.194214 0l0 41.950127l-40.194214 0l0 -41.950127z" fill-rule="nonzero"/><path shape-rendering="crispEdges" fill="#000000" d="m922.1365 125.850395l40.194214 0l0 41.950127l-40.194214 0l0 -41.950127z" fill-rule="nonzero"/><path shape-rendering="crispEdges" fill="#000000" d="m-2.3307087 167.80052l40.194225 0l0 41.950134l-40.194225 0l0 -41.950134z" fill-rule="nonzero"/><path shape-rendering="crispEdges" fill="#000000" d="m37.863518 167.80052l40.19422 0l0 41.950134l-40.19422 0l0 -41.950134z" fill-rule="nonzero"/><path shape-rendering="crispEdges" fill="#000000" d="m78.05774 167.80052l40.19423 0l0 41.950134l-40.19423 0l0 -41.950134z" fill-rule="nonzero"/><path shape-rendering="crispEdges" fill="#000000" d="m118.25197 167.80052l40.19423 0l0 41.950134l-40.19423 0l0 -41.950134z" fill-rule="nonzero"/><path shape-rendering="crispEdges" fill="#000000" d="m158.4462 167.80052l40.19423 0l0 41.950134l-40.19423 0l0 -41.950134z" fill-rule="nonzero"/><path shape-rendering="crispEdges" fill="#000000" d="m198.64043 167.80052l40.194214 0l0 41.950134l-40.194214 0l0 -41.950134z" fill-rule="nonzero"/><path shape-rendering="crispEdges" fill="#000000" d="m238.83464 167.80052l40.19423 0l0 41.950134l-40.19423 0l0 -41.950134z" fill-rule="nonzero"/><path shape-rendering="crispEdges" fill="#000000" d="m279.02887 167.80052l40.194214 0l0 41.950134l-40.194214 0l0 -41.950134z" fill-rule="nonzero"/><path shape-rendering="crispEdges" fill="#000000" d="m319.22308 167.80052l40.194244 0l0 41.950134l-40.194244 0l0 -41.950134z" fill-rule="nonzero"/><path shape-rendering="crispEdges" fill="#000000" d="m359.41733 167.80052l40.194214 0l0 41.950134l-40.194214 0l0 -41.950134z" fill-rule="nonzero"/><path shape-rendering="crispEdges" fill="#ffffff" d="m399.61154 167.80052l40.194244 0l0 41.950134l-40.194244 0l0 -41.950134z" fill-rule="nonzero"/><path shape-rendering="crispEdges" fill="#ffffff" d="m439.8058 167.80052l40.194214 0l0 41.950134l-40.194214 0l0 -41.950134z" fill-rule="nonzero"/><path shape-rendering="crispEdges" fill="#ffffff" d="m480.0 167.80052l40.194214 0l0 41.950134l-40.194214 0l0 -41.950134z" fill-rule="nonzero"/><path shape-rendering="crispEdges" fill="#ffffff" d="m520.1942 167.80052l40.194214 0l0 41.950134l-40.194214 0l0 -41.950134z" fill-rule="nonzero"/><path shape-rendering="crispEdges" fill="#000000" d="m560.3884 167.80052l40.194275 0l0 41.950134l-40.194275 0l0 -41.950134z" fill-rule="nonzero"/><path shape-rendering="crispEdges" fill="#000000" d="m600.5827 167.80052l40.194214 0l0 41.950134l-40.194214 0l0 -41.950134z" fill-rule="nonzero"/><path shape-rendering="crispEdges" fill="#000000" d="m640.7769 167.80052l40.194214 0l0 41.950134l-40.194214 0l0 -41.950134z" fill-rule="nonzero"/><path shape-rendering="crispEdges" fill="#000000" d="m680.9711 167.80052l40.194214 0l0 41.950134l-40.194214 0l0 -41.950134z" fill-rule="nonzero"/><path shape-rendering="crispEdges" fill="#000000" d="m721.16534 167.80052l40.194214 0l0 41.950134l-40.194214 0l0 -41.950134z" fill-rule="nonzero"/><path shape-rendering="crispEdges" fill="#000000" d="m761.35956 167.80052l40.194275 0l0 41.950134l-40.194275 0l0 -41.950134z" fill-rule="nonzero"/><path shape-rendering="crispEdges" fill="#000000" d="m801.55383 167.80052l40.194214 0l0 41.950134l-40.194214 0l0 -41.950134z" fill-rule="nonzero"/><path shape-rendering="crispEdges" fill="#000000" d="m841.74805 167.80052l40.194214 0l0 41.950134l-40.194214 0l0 -41.950134z" fill-rule="nonzero"/><path shape-rendering="crispEdges" fill="#000000" d="m881.94226 167.80052l40.194214 0l0 41.950134l-40.194214 0l0 -41.950134z" fill-rule="nonzero"/><path shape-rendering="crispEdges" fill="#000000" d="m922.1365 167.80052l40.194214 0l0 41.950134l-40.194214 0l0 -41.950134z" fill-rule="nonzero"/><path shape-rendering="crispEdges" fill="#000000" d="m-2.3307087 209.75066l40.194225 0l0 41.950134l-40.194225 0l0 -41.950134z" fill-rule="nonzero"/><path shape-rendering="crispEdges" fill="#000000" d="m37.863518 209.75066l40.19422 0l0 41.950134l-40.19422 0l0 -41.950134z" fill-rule="nonzero"/><path shape-rendering="crispEdges" fill="#000000" d="m78.05774 209.75066l40.19423 0l0 41.950134l-40.19423 0l0 -41.950134z" fill-rule="nonzero"/><path shape-rendering="crispEdges" fill="#000000" d="m118.25197 209.75066l40.19423 0l0 41.950134l-40.19423 0l0 -41.950134z" fill-rule="nonzero"/><path shape-rendering="crispEdges" fill="#000000" d="m158.4462 209.75066l40.19423 0l0 41.950134l-40.19423 0l0 -41.950134z" fill-rule="nonzero"/><path shape-rendering="crispEdges" fill="#000000" d="m198.64043 209.75066l40.194214 0l0 41.950134l-40.194214 0l0 -41.950134z" fill-rule="nonzero"/><path shape-rendering="crispEdges" fill="#000000" d="m238.83464 209.75066l40.19423 0l0 41.950134l-40.19423 0l0 -41.950134z" fill-rule="nonzero"/><path shape-rendering="crispEdges" fill="#000000" d="m279.02887 209.75066l40.194214 0l0 41.950134l-40.194214 0l0 -41.950134z" fill-rule="nonzero"/><path shape-rendering="crispEdges" fill="#000000" d="m319.22308 209.75066l40.194244 0l0 41.950134l-40.194244 0l0 -41.950134z" fill-rule="nonzero"/><path shape-rendering="crispEdges" fill="#ffffff" d="m359.41733 209.75066l40.194214 0l0 41.950134l-40.194214 0l0 -41.950134z" fill-rule="nonzero"/><path shape-rendering="crispEdges" fill="#ffffff" d="m399.61154 209.75066l40.194244 0l0 41.950134l-40.194244 0l0 -41.950134z" fill-rule="nonzero"/><path shape-rendering="crispEdges" fill="#ffffff" d="m439.8058 209.75066l40.194214 0l0 41.950134l-40.194214 0l0 -41.950134z" fill-rule="nonzero"/><path shape-rendering="crispEdges" fill="#ffffff" d="m480.0 209.75066l40.194214 0l0 41.950134l-40.194214 0l0 -41.950134z" fill-rule="nonzero"/><path shape-rendering="crispEdges" fill="#ffffff" d="m520.1942 209.75066l40.194214 0l0 41.950134l-40.194214 0l0 -41.950134z" fill-rule="nonzero"/><path shape-rendering="crispEdges" fill="#ffffff" d="m560.3884 209.75066l40.194275 0l0 41.950134l-40.194275 0l0 -41.950134z" fill-rule="nonzero"/><path shape-rendering="crispEdges" fill="#000000" d="m600.5827 209.75066l40.194214 0l0 41.950134l-40.194214 0l0 -41.950134z" fill-rule="nonzero"/><path shape-rendering="crispEdges" fill="#000000" d="m640.7769 209.75066l40.194214 0l0 41.950134l-40.194214 0l0 -41.950134z" fill-rule="nonzero"/><path shape-rendering="crispEdges" fill="#000000" d="m680.9711 209.75066l40.194214 0l0 41.950134l-40.194214 0l0 -41.950134z" fill-rule="nonzero"/><path shape-rendering="crispEdges" fill="#000000" d="m721.16534 209.75066l40.194214 0l0 41.950134l-40.194214 0l0 -41.950134z" fill-rule="nonzero"/><path shape-rendering="crispEdges" fill="#000000" d="m761.35956 209.75066l40.194275 0l0 41.950134l-40.194275 0l0 -41.950134z" fill-rule="nonzero"/><path shape-rendering="crispEdges" fill="#000000" d="m801.55383 209.75066l40.194214 0l0 41.950134l-40.194214 0l0 -41.950134z" fill-rule="nonzero"/><path shape-rendering="crispEdges" fill="#000000" d="m841.74805 209.75066l40.194214 0l0 41.950134l-40.194214 0l0 -41.950134z" fill-rule="nonzero"/><path shape-rendering="crispEdges" fill="#000000" d="m881.94226 209.75066l40.194214 0l0 41.950134l-40.194214 0l0 -41.950134z" fill-rule="nonzero"/><path shape-rendering="crispEdges" fill="#000000" d="m922.1365 209.75066l40.194214 0l0 41.950134l-40.194214 0l0 -41.950134z" fill-rule="nonzero"/><path shape-rendering="crispEdges" fill="#000000" d="m-2.3307087 251.70079l40.194225 0l0 41.95012l-40.194225 0l0 -41.95012z" fill-rule="nonzero"/><path shape-rendering="crispEdges" fill="#000000" d="m37.863518 251.70079l40.19422 0l0 41.95012l-40.19422 0l0 -41.95012z" fill-rule="nonzero"/><path shape-rendering="crispEdges" fill="#000000" d="m78.05774 251.70079l40.19423 0l0 41.95012l-40.19423 0l0 -41.95012z" fill-rule="nonzero"/><path shape-rendering="crispEdges" fill="#000000" d="m118.25197 251.70079l40.19423 0l0 41.95012l-40.19423 0l0 -41.95012z" fill-rule="nonzero"/><path shape-rendering="crispEdges" fill="#000000" d="m158.4462 251.70079l40.19423 0l0 41.95012l-40.19423 0l0 -41.95012z" fill-rule="nonzero"/><path shape-rendering="crispEdges" fill="#000000" d="m198.64043 251.70079l40.194214 0l0 41.95012l-40.194214 0l0 -41.95012z" fill-rule="nonzero"/><path shape-rendering="crispEdges" fill="#000000" d="m238.83464 251.70079l40.19423 0l0 41.95012l-40.19423 0l0 -41.95012z" fill-rule="nonzero"/><path shape-rendering="crispEdges" fill="#000000" d="m279.02887 251.70079l40.194214 0l0 41.95012l-40.194214 0l0 -41.95012z" fill-rule="nonzero"/><path shape-rendering="crispEdges" fill="#000000" d="m319.22308 251.70079l40.194244 0l0 41.95012l-40.194244 0l0 -41.95012z" fill-rule="nonzero"/><path shape-rendering="crispEdges" fill="#ffffff" d="m359.41733 251.70079l40.194214 0l0 41.95012l-40.194214 0l0 -41.95012z" fill-rule="nonzero"/><path shape-rendering="crispEdges" fill="#ffffff" d="m399.61154 251.70079l40.194244 0l0 41.95012l-40.194244 0l0 -41.95012z" fill-rule="nonzero"/><path shape-rendering="crispEdges" fill="#ffffff" d="m439.8058 251.70079l40.194214 0l0 41.95012l-40.194214 0l0 -41.95012z" fill-rule="nonzero"/><path shape-rendering="crispEdges" fill="#ffffff" d="m480.0 251.70079l40.194214 0l0 41.95012l-40.194214 0l0 -41.95012z" fill-rule="nonzero"/><path shape-rendering="crispEdges" fill="#ffffff" d="m520.1942 251.70079l40.194214 0l0 41.95012l-40.194214 0l0 -41.95012z" fill-rule="nonzero"/><path shape-rendering="crispEdges" fill="#ffffff" d="m560.3884 251.70079l40.194275 0l0 41.95012l-40.194275 0l0 -41.95012z" fill-rule="nonzero"/><path shape-rendering="crispEdges" fill="#000000" d="m600.5827 251.70079l40.194214 0l0 41.95012l-40.194214 0l0 -41.95012z" fill-rule="nonzero"/><path shape-rendering="crispEdges" fill="#000000" d="m640.7769 251.70079l40.194214 0l0 41.95012l-40.194214 0l0 -41.95012z" fill-rule="nonzero"/><path shape-rendering="crispEdges" fill="#000000" d="m680.9711 251.70079l40.194214 0l0 41.95012l-40.194214 0l0 -41.95012z" fill-rule="nonzero"/><path shape-rendering="crispEdges" fill="#000000" d="m721.16534 251.70079l40.194214 0l0 41.95012l-40.194214 0l0 -41.95012z" fill-rule="nonzero"/><path shape-rendering="crispEdges" fill="#000000" d="m761.35956 251.70079l40.194275 0l0 41.95012l-40.194275 0l0 -41.95012z" fill-rule="nonzero"/><path shape-rendering="crispEdges" fill="#000000" d="m801.55383 251.70079l40.194214 0l0 41.95012l-40.194214 0l0 -41.95012z" fill-rule="nonzero"/><path shape-rendering="crispEdges" fill="#000000" d="m841.74805 251.70079l40.194214 0l0 41.95012l-40.194214 0l0 -41.95012z" fill-rule="nonzero"/><path shape-rendering="crispEdges" fill="#000000" d="m881.94226 251.70079l40.194214 0l0 41.95012l-40.194214 0l0 -41.95012z" fill-rule="nonzero"/><path shape-rendering="crispEdges" fill="#000000" d="m922.1365 251.70079l40.194214 0l0 41.95012l-40.194214 0l0 -41.95012z" fill-rule="nonzero"/><path shape-rendering="crispEdges" fill="#000000" d="m-2.3307087 293.6509l40.194225 0l0 41.950134l-40.194225 0l0 -41.950134z" fill-rule="nonzero"/><path shape-rendering="crispEdges" fill="#000000" d="m37.863518 293.6509l40.19422 0l0 41.950134l-40.19422 0l0 -41.950134z" fill-rule="nonzero"/><path shape-rendering="crispEdges" fill="#000000" d="m78.05774 293.6509l40.19423 0l0 41.950134l-40.19423 0l0 -41.950134z" fill-rule="nonzero"/><path shape-rendering="crispEdges" fill="#000000" d="m118.25197 293.6509l40.19423 0l0 41.950134l-40.19423 0l0 -41.950134z" fill-rule="nonzero"/><path shape-rendering="crispEdges" fill="#000000" d="m158.4462 293.6509l40.19423 0l0 41.950134l-40.19423 0l0 -41.950134z" fill-rule="nonzero"/><path shape-rendering="crispEdges" fill="#000000" d="m198.64043 293.6509l40.194214 0l0 41.950134l-40.194214 0l0 -41.950134z" fill-rule="nonzero"/><path shape-rendering="crispEdges" fill="#000000" d="m238.83464 293.6509l40.19423 0l0 41.950134l-40.19423 0l0 -41.950134z" fill-rule="nonzero"/><path shape-rendering="crispEdges" fill="#000000" d="m279.02887 293.6509l40.194214 0l0 41.950134l-40.194214 0l0 -41.950134z" fill-rule="nonzero"/><path shape-rendering="crispEdges" fill="#000000" d="m319.22308 293.6509l40.194244 0l0 41.950134l-40.194244 0l0 -41.950134z" fill-rule="nonzero"/><path shape-rendering="crispEdges" fill="#000000" d="m359.41733 293.6509l40.194214 0l0 41.950134l-40.194214 0l0 -41.950134z" fill-rule="nonzero"/><path shape-rendering="crispEdges" fill="#ffffff" d="m399.61154 293.6509l40.194244 0l0 41.950134l-40.194244 0l0 -41.950134z" fill-rule="nonzero"/><path shape-rendering="crispEdges" fill="#ffffff" d="m439.8058 293.6509l40.194214 0l0 41.950134l-40.194214 0l0 -41.950134z" fill-rule="nonzero"/><path shape-rendering="crispEdges" fill="#ffffff" d="m480.0 293.6509l40.194214 0l0 41.950134l-40.194214 0l0 -41.950134z" fill-rule="nonzero"/><path shape-rendering="crispEdges" fill="#ffffff" d="m520.1942 293.6509l40.194214 0l0 41.950134l-40.194214 0l0 -41.950134z" fill-rule="nonzero"/><path shape-rendering="crispEdges" fill="#000000" d="m560.3884 293.6509l40.194275 0l0 41.950134l-40.194275 0l0 -41.950134z" fill-rule="nonzero"/><path shape-rendering="crispEdges" fill="#000000" d="m600.5827 293.6509l40.194214 0l0 41.950134l-40.194214 0l0 -41.950134z" fill-rule="nonzero"/><path shape-rendering="crispEdges" fill="#000000" d="m640.7769 293.6509l40.194214 0l0 41.950134l-40.194214 0l0 -41.950134z" fill-rule="nonzero"/><path shape-rendering="crispEdges" fill="#000000" d="m680.9711 293.6509l40.194214 0l0 41.950134l-40.194214 0l0 -41.950134z" fill-rule="nonzero"/><path shape-rendering="crispEdges" fill="#000000" d="m721.16534 293.6509l40.194214 0l0 41.950134l-40.194214 0l0 -41.950134z" fill-rule="nonzero"/><path shape-rendering="crispEdges" fill="#000000" d="m761.35956 293.6509l40.194275 0l0 41.950134l-40.194275 0l0 -41.950134z" fill-rule="nonzero"/><path shape-rendering="crispEdges" fill="#000000" d="m801.55383 293.6509l40.194214 0l0 41.950134l-40.194214 0l0 -41.950134z" fill-rule="nonzero"/><path shape-rendering="crispEdges" fill="#000000" d="m841.74805 293.6509l40.194214 0l0 41.950134l-40.194214 0l0 -41.950134z" fill-rule="nonzero"/><path shape-rendering="crispEdges" fill="#000000" d="m881.94226 293.6509l40.194214 0l0 41.950134l-40.194214 0l0 -41.950134z" fill-rule="nonzero"/><path shape-rendering="crispEdges" fill="#000000" d="m922.1365 293.6509l40.194214 0l0 41.950134l-40.194214 0l0 -41.950134z" fill-rule="nonzero"/><path shape-rendering="crispEdges" fill="#000000" d="m-2.3307087 335.60104l40.194225 0l0 41.950134l-40.194225 0l0 -41.950134z" fill-rule="nonzero"/><path shape-rendering="crispEdges" fill="#000000" d="m37.863518 335.60104l40.19422 0l0 41.950134l-40.19422 0l0 -41.950134z" fill-rule="nonzero"/><path shape-rendering="crispEdges" fill="#000000" d="m78.05774 335.60104l40.19423 0l0 41.950134l-40.19423 0l0 -41.950134z" fill-rule="nonzero"/><path shape-rendering="crispEdges" fill="#000000" d="m118.25197 335.60104l40.19423 0l0 41.950134l-40.19423 0l0 -41.950134z" fill-rule="nonzero"/><path shape-rendering="crispEdges" fill="#000000" d="m158.4462 335.60104l40.19423 0l0 41.950134l-40.19423 0l0 -41.950134z" fill-rule="nonzero"/><path shape-rendering="crispEdges" fill="#000000" d="m198.64043 335.60104l40.194214 0l0 41.950134l-40.194214 0l0 -41.950134z" fill-rule="nonzero"/><path shape-rendering="crispEdges" fill="#000000" d="m238.83464 335.60104l40.19423 0l0 41.950134l-40.19423 0l0 -41.950134z" fill-rule="nonzero"/><path shape-rendering="crispEdges" fill="#000000" d="m279.02887 335.60104l40.194214 0l0 41.950134l-40.194214 0l0 -41.950134z" fill-rule="nonzero"/><path shape-rendering="crispEdges" fill="#000000" d="m319.22308 335.60104l40.194244 0l0 41.950134l-40.194244 0l0 -41.950134z" fill-rule="nonzero"/><path shape-rendering="crispEdges" fill="#000000" d="m359.41733 335.60104l40.194214 0l0 41.950134l-40.194214 0l0 -41.950134z" fill-rule="nonzero"/><path shape-rendering="crispEdges" fill="#000000" d="m399.61154 335.60104l40.194244 0l0 41.950134l-40.194244 0l0 -41.950134z" fill-rule="nonzero"/><path shape-rendering="crispEdges" fill="#ffffff" d="m439.8058 335.60104l40.194214 0l0 41.950134l-40.194214 0l0 -41.950134z" fill-rule="nonzero"/><path shape-rendering="crispEdges" fill="#ffffff" d="m480.0 335.60104l40.194214 0l0 41.950134l-40.194214 0l0 -41.950134z" fill-rule="nonzero"/><path shape-rendering="crispEdges" fill="#000000" d="m520.1942 335.60104l40.194214 0l0 41.950134l-40.194214 0l0 -41.950134z" fill-rule="nonzero"/><path shape-rendering="crispEdges" fill="#000000" d="m560.3884 335.60104l40.194275 0l0 41.950134l-40.194275 0l0 -41.950134z" fill-rule="nonzero"/><path shape-rendering="crispEdges" fill="#000000" d="m600.5827 335.60104l40.194214 0l0 41.950134l-40.194214 0l0 -41.950134z" fill-rule="nonzero"/><path shape-rendering="crispEdges" fill="#000000" d="m640.7769 335.60104l40.194214 0l0 41.950134l-40.194214 0l0 -41.950134z" fill-rule="nonzero"/><path shape-rendering="crispEdges" fill="#000000" d="m680.9711 335.60104l40.194214 0l0 41.950134l-40.194214 0l0 -41.950134z" fill-rule="nonzero"/><path shape-rendering="crispEdges" fill="#000000" d="m721.16534 335.60104l40.194214 0l0 41.950134l-40.194214 0l0 -41.950134z" fill-rule="nonzero"/><path shape-rendering="crispEdges" fill="#000000" d="m761.35956 335.60104l40.194275 0l0 41.950134l-40.194275 0l0 -41.950134z" fill-rule="nonzero"/><path shape-rendering="crispEdges" fill="#000000" d="m801.55383 335.60104l40.194214 0l0 41.950134l-40.194214 0l0 -41.950134z" fill-rule="nonzero"/><path shape-rendering="crispEdges" fill="#000000" d="m841.74805 335.60104l40.194214 0l0 41.950134l-40.194214 0l0 -41.950134z" fill-rule="nonzero"/><path shape-rendering="crispEdges" fill="#000000" d="m881.94226 335.60104l40.194214 0l0 41.950134l-40.194214 0l0 -41.950134z" fill-rule="nonzero"/><path shape-rendering="crispEdges" fill="#000000" d="m922.1365 335.60104l40.194214 0l0 41.950134l-40.194214 0l0 -41.950134z" fill-rule="nonzero"/><path shape-rendering="crispEdges" fill="#000000" d="m-2.3307087 377.55118l40.194225 0l0 41.950134l-40.194225 0l0 -41.950134z" fill-rule="nonzero"/><path shape-rendering="crispEdges" fill="#000000" d="m37.863518 377.55118l40.19422 0l0 41.950134l-40.19422 0l0 -41.950134z" fill-rule="nonzero"/><path shape-rendering="crispEdges" fill="#000000" d="m78.05774 377.55118l40.19423 0l0 41.950134l-40.19423 0l0 -41.950134z" fill-rule="nonzero"/><path shape-rendering="crispEdges" fill="#000000" d="m118.25197 377.55118l40.19423 0l0 41.950134l-40.19423 0l0 -41.950134z" fill-rule="nonzero"/><path shape-rendering="crispEdges" fill="#000000" d="m158.4462 377.55118l40.19423 0l0 41.950134l-40.19423 0l0 -41.950134z" fill-rule="nonzero"/><path shape-rendering="crispEdges" fill="#000000" d="m198.64043 377.55118l40.194214 0l0 41.950134l-40.194214 0l0 -41.950134z" fill-rule="nonzero"/><path shape-rendering="crispEdges" fill="#000000" d="m238.83464 377.55118l40.19423 0l0 41.950134l-40.19423 0l0 -41.950134z" fill-rule="nonzero"/><path shape-rendering="crispEdges" fill="#000000" d="m279.02887 377.55118l40.194214 0l0 41.950134l-40.194214 0l0 -41.950134z" fill-rule="nonzero"/><path shape-rendering="crispEdges" fill="#000000" d="m319.22308 377.55118l40.194244 0l0 41.950134l-40.194244 0l0 -41.950134z" fill-rule="nonzero"/><path shape-rendering="crispEdges" fill="#000000" d="m359.41733 377.55118l40.194214 0l0 41.950134l-40.194214 0l0 -41.950134z" fill-rule="nonzero"/><path shape-rendering="crispEdges" fill="#000000" d="m399.61154 377.55118l40.194244 0l0 41.950134l-40.194244 0l0 -41.950134z" fill-rule="nonzero"/><path shape-rendering="crispEdges" fill="#000000" d="m439.8058 377.55118l40.194214 0l0 41.950134l-40.194214 0l0 -41.950134z" fill-rule="nonzero"/><path shape-rendering="crispEdges" fill="#000000" d="m480.0 377.55118l40.194214 0l0 41.950134l-40.194214 0l0 -41.950134z" fill-rule="nonzero"/><path shape-rendering="crispEdges" fill="#000000" d="m520.1942 377.55118l40.194214 0l0 41.950134l-40.194214 0l0 -41.950134z" fill-rule="nonzero"/><path shape-rendering="crispEdges" fill="#000000" d="m560.3884 377.55118l40.194275 0l0 41.950134l-40.194275 0l0 -41.950134z" fill-rule="nonzero"/><path shape-rendering="crispEdges" fill="#000000" d="m600.5827 377.55118l40.194214 0l0 41.950134l-40.194214 0l0 -41.950134z" fill-rule="nonzero"/><path shape-rendering="crispEdges" fill="#000000" d="m640.7769 377.55118l40.194214 0l0 41.950134l-40.194214 0l0 -41.950134z" fill-rule="nonzero"/><path shape-rendering="crispEdges" fill="#000000" d="m680.9711 377.55118l40.194214 0l0 41.950134l-40.194214 0l0 -41.950134z" fill-rule="nonzero"/><path shape-rendering="crispEdges" fill="#000000" d="m721.16534 377.55118l40.194214 0l0 41.950134l-40.194214 0l0 -41.950134z" fill-rule="nonzero"/><path shape-rendering="crispEdges" fill="#000000" d="m761.35956 377.55118l40.194275 0l0 41.950134l-40.194275 0l0 -41.950134z" fill-rule="nonzero"/><path shape-rendering="crispEdges" fill="#000000" d="m801.55383 377.55118l40.194214 0l0 41.950134l-40.194214 0l0 -41.950134z" fill-rule="nonzero"/><path shape-rendering="crispEdges" fill="#000000" d="m841.74805 377.55118l40.194214 0l0 41.950134l-40.194214 0l0 -41.950134z" fill-rule="nonzero"/><path shape-rendering="crispEdges" fill="#000000" d="m881.94226 377.55118l40.194214 0l0 41.950134l-40.194214 0l0 -41.950134z" fill-rule="nonzero"/><path shape-rendering="crispEdges" fill="#000000" d="m922.1365 377.55118l40.194214 0l0 41.950134l-40.194214 0l0 -41.950134z" fill-rule="nonzero"/><path shape-rendering="crispEdges" fill="#000000" d="m-2.3307087 419.5013l40.194225 0l0 41.950134l-40.194225 0l0 -41.950134z" fill-rule="nonzero"/><path shape-rendering="crispEdges" fill="#000000" d="m37.863518 419.5013l40.19422 0l0 41.950134l-40.19422 0l0 -41.950134z" fill-rule="nonzero"/><path shape-rendering="crispEdges" fill="#000000" d="m78.05774 419.5013l40.19423 0l0 41.950134l-40.19423 0l0 -41.950134z" fill-rule="nonzero"/><path shape-rendering="crispEdges" fill="#000000" d="m118.25197 419.5013l40.19423 0l0 41.950134l-40.19423 0l0 -41.950134z" fill-rule="nonzero"/><path shape-rendering="crispEdges" fill="#000000" d="m158.4462 419.5013l40.19423 0l0 41.950134l-40.19423 0l0 -41.950134z" fill-rule="nonzero"/><path shape-rendering="crispEdges" fill="#000000" d="m198.64043 419.5013l40.194214 0l0 41.950134l-40.194214 0l0 -41.950134z" fill-rule="nonzero"/><path shape-rendering="crispEdges" fill="#000000" d="m238.83464 419.5013l40.19423 0l0 41.950134l-40.19423 0l0 -41.950134z" fill-rule="nonzero"/><path shape-rendering="crispEdges" fill="#000000" d="m279.02887 419.5013l40.194214 0l0 41.950134l-40.194214 0l0 -41.950134z" fill-rule="nonzero"/><path shape-rendering="crispEdges" fill="#000000" d="m319.22308 419.5013l40.194244 0l0 41.950134l-40.194244 0l0 -41.950134z" fill-rule="nonzero"/><path shape-rendering="crispEdges" fill="#000000" d="m359.41733 419.5013l40.194214 0l0 41.950134l-40.194214 0l0 -41.950134z" fill-rule="nonzero"/><path shape-rendering="crispEdges" fill="#000000" d="m399.61154 419.5013l40.194244 0l0 41.950134l-40.194244 0l0 -41.950134z" fill-rule="nonzero"/><path shape-rendering="crispEdges" fill="#000000" d="m439.8058 419.5013l40.194214 0l0 41.950134l-40.194214 0l0 -41.950134z" fill-rule="nonzero"/><path shape-rendering="crispEdges" fill="#000000" d="m480.0 419.5013l40.194214 0l0 41.950134l-40.194214 0l0 -41.950134z" fill-rule="nonzero"/><path shape-rendering="crispEdges" fill="#000000" d="m520.1942 419.5013l40.194214 0l0 41.950134l-40.194214 0l0 -41.950134z" fill-rule="nonzero"/><path shape-rendering="crispEdges" fill="#000000" d="m560.3884 419.5013l40.194275 0l0 41.950134l-40.194275 0l0 -41.950134z" fill-rule="nonzero"/><path shape-rendering="crispEdges" fill="#000000" d="m600.5827 419.5013l40.194214 0l0 41.950134l-40.194214 0l0 -41.950134z" fill-rule="nonzero"/><path shape-rendering="crispEdges" fill="#000000" d="m640.7769 419.5013l40.194214 0l0 41.950134l-40.194214 0l0 -41.950134z" fill-rule="nonzero"/><path shape-rendering="crispEdges" fill="#000000" d="m680.9711 419.5013l40.194214 0l0 41.950134l-40.194214 0l0 -41.950134z" fill-rule="nonzero"/><path shape-rendering="crispEdges" fill="#000000" d="m721.16534 419.5013l40.194214 0l0 41.950134l-40.194214 0l0 -41.950134z" fill-rule="nonzero"/><path shape-rendering="crispEdges" fill="#000000" d="m761.35956 419.5013l40.194275 0l0 41.950134l-40.194275 0l0 -41.950134z" fill-rule="nonzero"/><path shape-rendering="crispEdges" fill="#000000" d="m801.55383 419.5013l40.194214 0l0 41.950134l-40.194214 0l0 -41.950134z" fill-rule="nonzero"/><path shape-rendering="crispEdges" fill="#000000" d="m841.74805 419.5013l40.194214 0l0 41.950134l-40.194214 0l0 -41.950134z" fill-rule="nonzero"/><path shape-rendering="crispEdges" fill="#000000" d="m881.94226 419.5013l40.194214 0l0 41.950134l-40.194214 0l0 -41.950134z" fill-rule="nonzero"/><path shape-rendering="crispEdges" fill="#000000" d="m922.1365 419.5013l40.194214 0l0 41.950134l-40.194214 0l0 -41.950134z" fill-rule="nonzero"/><path shape-rendering="crispEdges" fill="#000000" d="m-2.3307087 461.45145l40.194225 0l0 41.950134l-40.194225 0l0 -41.950134z" fill-rule="nonzero"/><path shape-rendering="crispEdges" fill="#000000" d="m37.863518 461.45145l40.19422 0l0 41.950134l-40.19422 0l0 -41.950134z" fill-rule="nonzero"/><path shape-rendering="crispEdges" fill="#000000" d="m78.05774 461.45145l40.19423 0l0 41.950134l-40.19423 0l0 -41.950134z" fill-rule="nonzero"/><path shape-rendering="crispEdges" fill="#000000" d="m118.25197 461.45145l40.19423 0l0 41.950134l-40.19423 0l0 -41.950134z" fill-rule="nonzero"/><path shape-rendering="crispEdges" fill="#000000" d="m158.4462 461.45145l40.19423 0l0 41.950134l-40.19423 0l0 -41.950134z" fill-rule="nonzero"/><path shape-rendering="crispEdges" fill="#000000" d="m198.64043 461.45145l40.194214 0l0 41.950134l-40.194214 0l0 -41.950134z" fill-rule="nonzero"/><path shape-rendering="crispEdges" fill="#000000" d="m238.83464 461.45145l40.19423 0l0 41.950134l-40.19423 0l0 -41.950134z" fill-rule="nonzero"/><path shape-rendering="crispEdges" fill="#000000" d="m279.02887 461.45145l40.194214 0l0 41.950134l-40.194214 0l0 -41.950134z" fill-rule="nonzero"/><path shape-rendering="crispEdges" fill="#000000" d="m319.22308 461.45145l40.194244 0l0 41.950134l-40.194244 0l0 -41.950134z" fill-rule="nonzero"/><path shape-rendering="crispEdges" fill="#000000" d="m359.41733 461.45145l40.194214 0l0 41.950134l-40.194214 0l0 -41.950134z" fill-rule="nonzero"/><path shape-rendering="crispEdges" fill="#000000" d="m399.61154 461.45145l40.194244 0l0 41.950134l-40.194244 0l0 -41.950134z" fill-rule="nonzero"/><path shape-rendering="crispEdges" fill="#000000" d="m439.8058 461.45145l40.194214 0l0 41.950134l-40.194214 0l0 -41.950134z" fill-rule="nonzero"/><path shape-rendering="crispEdges" fill="#000000" d="m480.0 461.45145l40.194214 0l0 41.950134l-40.194214 0l0 -41.950134z" fill-rule="nonzero"/><path shape-rendering="crispEdges" fill="#000000" d="m520.1942 461.45145l40.194214 0l0 41.950134l-40.194214 0l0 -41.950134z" fill-rule="nonzero"/><path shape-rendering="crispEdges" fill="#000000" d="m560.3884 461.45145l40.194275 0l0 41.950134l-40.194275 0l0 -41.950134z" fill-rule="nonzero"/><path shape-rendering="crispEdges" fill="#000000" d="m600.5827 461.45145l40.194214 0l0 41.950134l-40.194214 0l0 -41.950134z" fill-rule="nonzero"/><path shape-rendering="crispEdges" fill="#000000" d="m640.7769 461.45145l40.194214 0l0 41.950134l-40.194214 0l0 -41.950134z" fill-rule="nonzero"/><path shape-rendering="crispEdges" fill="#000000" d="m680.9711 461.45145l40.194214 0l0 41.950134l-40.194214 0l0 -41.950134z" fill-rule="nonzero"/><path shape-rendering="crispEdges" fill="#000000" d="m721.16534 461.45145l40.194214 0l0 41.950134l-40.194214 0l0 -41.950134z" fill-rule="nonzero"/><path shape-rendering="crispEdges" fill="#000000" d="m761.35956 461.45145l40.194275 0l0 41.950134l-40.194275 0l0 -41.950134z" fill-rule="nonzero"/><path shape-rendering="crispEdges" fill="#000000" d="m801.55383 461.45145l40.194214 0l0 41.950134l-40.194214 0l0 -41.950134z" fill-rule="nonzero"/><path shape-rendering="crispEdges" fill="#000000" d="m841.74805 461.45145l40.194214 0l0 41.950134l-40.194214 0l0 -41.950134z" fill-rule="nonzero"/><path shape-rendering="crispEdges" fill="#000000" d="m881.94226 461.45145l40.194214 0l0 41.950134l-40.194214 0l0 -41.950134z" fill-rule="nonzero"/><path shape-rendering="crispEdges" fill="#000000" d="m922.1365 461.45145l40.194214 0l0 41.950134l-40.194214 0l0 -41.950134z" fill-rule="nonzero"/><path shape-rendering="crispEdges" fill="#000000" d="m-2.3307087 503.40158l40.194225 0l0 41.950104l-40.194225 0l0 -41.950104z" fill-rule="nonzero"/><path shape-rendering="crispEdges" fill="#000000" d="m37.863518 503.40158l40.19422 0l0 41.950104l-40.19422 0l0 -41.950104z" fill-rule="nonzero"/><path shape-rendering="crispEdges" fill="#000000" d="m78.05774 503.40158l40.19423 0l0 41.950104l-40.19423 0l0 -41.950104z" fill-rule="nonzero"/><path shape-rendering="crispEdges" fill="#000000" d="m118.25197 503.40158l40.19423 0l0 41.950104l-40.19423 0l0 -41.950104z" fill-rule="nonzero"/><path shape-rendering="crispEdges" fill="#000000" d="m158.4462 503.40158l40.19423 0l0 41.950104l-40.19423 0l0 -41.950104z" fill-rule="nonzero"/><path shape-rendering="crispEdges" fill="#000000" d="m198.64043 503.40158l40.194214 0l0 41.950104l-40.194214 0l0 -41.950104z" fill-rule="nonzero"/><path shape-rendering="crispEdges" fill="#000000" d="m238.83464 503.40158l40.19423 0l0 41.950104l-40.19423 0l0 -41.950104z" fill-rule="nonzero"/><path shape-rendering="crispEdges" fill="#000000" d="m279.02887 503.40158l40.194214 0l0 41.950104l-40.194214 0l0 -41.950104z" fill-rule="nonzero"/><path shape-rendering="crispEdges" fill="#000000" d="m319.22308 503.40158l40.194244 0l0 41.950104l-40.194244 0l0 -41.950104z" fill-rule="nonzero"/><path shape-rendering="crispEdges" fill="#000000" d="m359.41733 503.40158l40.194214 0l0 41.950104l-40.194214 0l0 -41.950104z" fill-rule="nonzero"/><path shape-rendering="crispEdges" fill="#000000" d="m399.61154 503.40158l40.194244 0l0 41.950104l-40.194244 0l0 -41.950104z" fill-rule="nonzero"/><path shape-rendering="crispEdges" fill="#000000" d="m439.8058 503.40158l40.194214 0l0 41.950104l-40.194214 0l0 -41.950104z" fill-rule="nonzero"/><path shape-rendering="crispEdges" fill="#000000" d="m480.0 503.40158l40.194214 0l0 41.950104l-40.194214 0l0 -41.950104z" fill-rule="nonzero"/><path shape-rendering="crispEdges" fill="#000000" d="m520.1942 503.40158l40.194214 0l0 41.950104l-40.194214 0l0 -41.950104z" fill-rule="nonzero"/><path shape-rendering="crispEdges" fill="#000000" d="m560.3884 503.40158l40.194275 0l0 41.950104l-40.194275 0l0 -41.950104z" fill-rule="nonzero"/><path shape-rendering="crispEdges" fill="#000000" d="m600.5827 503.40158l40.194214 0l0 41.950104l-40.194214 0l0 -41.950104z" fill-rule="nonzero"/><path shape-rendering="crispEdges" fill="#000000" d="m640.7769 503.40158l40.194214 0l0 41.950104l-40.194214 0l0 -41.950104z" fill-rule="nonzero"/><path shape-rendering="crispEdges" fill="#000000" d="m680.9711 503.40158l40.194214 0l0 41.950104l-40.194214 0l0 -41.950104z" fill-rule="nonzero"/><path shape-rendering="crispEdges" fill="#000000" d="m721.16534 503.40158l40.194214 0l0 41.950104l-40.194214 0l0 -41.950104z" fill-rule="nonzero"/><path shape-rendering="crispEdges" fill="#000000" d="m761.35956 503.40158l40.194275 0l0 41.950104l-40.194275 0l0 -41.950104z" fill-rule="nonzero"/><path shape-rendering="crispEdges" fill="#000000" d="m801.55383 503.40158l40.194214 0l0 41.950104l-40.194214 0l0 -41.950104z" fill-rule="nonzero"/><path shape-rendering="crispEdges" fill="#000000" d="m841.74805 503.40158l40.194214 0l0 41.950104l-40.194214 0l0 -41.950104z" fill-rule="nonzero"/><path shape-rendering="crispEdges" fill="#000000" d="m881.94226 503.40158l40.194214 0l0 41.950104l-40.194214 0l0 -41.950104z" fill-rule="nonzero"/><path shape-rendering="crispEdges" fill="#000000" d="m922.1365 503.40158l40.194214 0l0 41.950104l-40.194214 0l0 -41.950104z" fill-rule="nonzero"/><path stroke="#434343" stroke-width="1.0" stroke-linecap="butt" d="m-2.3307087 -0.49868765l0 546.34906" fill-rule="nonzero"/><path stroke="#434343" stroke-width="1.0" stroke-linecap="butt" d="m37.863518 -0.49868765l0 546.34906" fill-rule="nonzero"/><path stroke="#434343" stroke-width="1.0" stroke-linecap="butt" d="m78.05774 -0.49868765l0 546.34906" fill-rule="nonzero"/><path stroke="#434343" stroke-width="1.0" stroke-linecap="butt" d="m118.25197 -0.49868765l0 546.34906" fill-rule="nonzero"/><path stroke="#434343" stroke-width="1.0" stroke-linecap="butt" d="m158.4462 -0.49868765l0 546.34906" fill-rule="nonzero"/><path stroke="#434343" stroke-width="1.0" stroke-linecap="butt" d="m198.64043 -0.49868765l0 546.34906" fill-rule="nonzero"/><path stroke="#434343" stroke-width="1.0" stroke-linecap="butt" d="m238.83464 -0.49868765l0 546.34906" fill-rule="nonzero"/><path stroke="#434343" stroke-width="1.0" stroke-linecap="butt" d="m279.02887 -0.49868765l0 546.34906" fill-rule="nonzero"/><path stroke="#434343" stroke-width="1.0" stroke-linecap="butt" d="m319.22308 -0.49868765l0 546.34906" fill-rule="nonzero"/><path stroke="#434343" stroke-width="1.0" stroke-linecap="butt" d="m359.41733 -0.49868765l0 546.34906" fill-rule="nonzero"/><path stroke="#434343" stroke-width="1.0" stroke-linecap="butt" d="m399.61154 -0.49868765l0 546.34906" fill-rule="nonzero"/><path stroke="#434343" stroke-width="1.0" stroke-linecap="butt" d="m439.8058 -0.49868765l0 546.34906" fill-rule="nonzero"/><path stroke="#434343" stroke-width="1.0" stroke-linecap="butt" d="m480.0 -0.49868765l0 546.34906" fill-rule="nonzero"/><path stroke="#434343" stroke-width="1.0" stroke-linecap="butt" d="m520.1942 -0.49868765l0 546.34906" fill-rule="nonzero"/><path stroke="#434343" stroke-width="1.0" stroke-linecap="butt" d="m560.3884 -0.49868765l0 546.34906" fill-rule="nonzero"/><path stroke="#434343" stroke-width="1.0" stroke-linecap="butt" d="m600.5827 -0.49868765l0 546.34906" fill-rule="nonzero"/><path stroke="#434343" stroke-width="1.0" stroke-linecap="butt" d="m640.7769 -0.49868765l0 546.34906" fill-rule="nonzero"/><path stroke="#434343" stroke-width="1.0" stroke-linecap="butt" d="m680.9711 -0.49868765l0 546.34906" fill-rule="nonzero"/><path stroke="#434343" stroke-width="1.0" stroke-linecap="butt" d="m721.16534 -0.49868765l0 546.34906" fill-rule="nonzero"/><path stroke="#434343" stroke-width="1.0" stroke-linecap="butt" d="m761.35956 -0.49868765l0 546.34906" fill-rule="nonzero"/><path stroke="#434343" stroke-width="1.0" stroke-linecap="butt" d="m801.55383 -0.49868765l0 546.34906" fill-rule="nonzero"/><path stroke="#434343" stroke-width="1.0" stroke-linecap="butt" d="m841.74805 -0.49868765l0 546.34906" fill-rule="nonzero"/><path stroke="#434343" stroke-width="1.0" stroke-linecap="butt" d="m881.94226 -0.49868765l0 546.34906" fill-rule="nonzero"/><path stroke="#434343" stroke-width="1.0" stroke-linecap="butt" d="m922.1365 -0.49868765l0 546.34906" fill-rule="nonzero"/><path stroke="#434343" stroke-width="1.0" stroke-linecap="butt" d="m962.3307 -0.49868765l0 546.34906" fill-rule="nonzero"/><path stroke="#434343" stroke-width="1.0" stroke-linecap="butt" d="m-2.8293962 0l965.6588 0" fill-rule="nonzero"/><path stroke="#434343" stroke-width="1.0" stroke-linecap="butt" d="m-2.8293962 41.95013l965.6588 0" fill-rule="nonzero"/><path stroke="#434343" stroke-width="1.0" stroke-linecap="butt" d="m-2.8293962 83.90026l965.6588 0" fill-rule="nonzero"/><path stroke="#434343" stroke-width="1.0" stroke-linecap="butt" d="m-2.8293962 125.850395l965.6588 0" fill-rule="nonzero"/><path stroke="#434343" stroke-width="1.0" stroke-linecap="butt" d="m-2.8293962 167.80052l965.6588 0" fill-rule="nonzero"/><path stroke="#434343" stroke-width="1.0" stroke-linecap="butt" d="m-2.8293962 209.75066l965.6588 0" fill-rule="nonzero"/><path stroke="#434343" stroke-width="1.0" stroke-linecap="butt" d="m-2.8293962 251.70079l965.6588 0" fill-rule="nonzero"/><path stroke="#434343" stroke-width="1.0" stroke-linecap="butt" d="m-2.8293962 293.6509l965.6588 0" fill-rule="nonzero"/><path stroke="#434343" stroke-width="1.0" stroke-linecap="butt" d="m-2.8293962 335.60104l965.6588 0" fill-rule="nonzero"/><path stroke="#434343" stroke-width="1.0" stroke-linecap="butt" d="m-2.8293962 377.55118l965.6588 0" fill-rule="nonzero"/><path stroke="#434343" stroke-width="1.0" stroke-linecap="butt" d="m-2.8293962 419.5013l965.6588 0" fill-rule="nonzero"/><path stroke="#434343" stroke-width="1.0" stroke-linecap="butt" d="m-2.8293962 461.45145l965.6588 0" fill-rule="nonzero"/><path stroke="#434343" stroke-width="1.0" stroke-linecap="butt" d="m-2.8293962 503.40158l965.6588 0" fill-rule="nonzero"/><path stroke="#434343" stroke-width="1.0" stroke-linecap="butt" d="m-2.8293962 545.3517l965.6588 0" fill-rule="nonzero"/></g></svg>