<svg version="1.1" viewBox="0.0 0.0 960.0 288.0" fill="none" stroke="none" stroke-linecap="square" stroke-miterlimit="10" xmlns:xlink="http://www.w3.org/1999/xlink" xmlns="http://www.w3.org/2000/svg"><clipPath id="p.0"><path d="m0 0l960.0 0l0 288.0l-960.0 0l0 -288.0z" clip-rule="nonzero"/></clipPath><g clip-path="url(#p.0)"><path fill="#ffffff" d="m0 0l960.0 0l0 288.0l-960.0 0z" fill-rule="evenodd"/><path fill="#000000" fill-opacity="0.0" d="m1.0262467 142.71638c14.506118 0 27.164684 -11.238098 41.58268 -12.8346405c12.750633 -1.411911 26.516747 -0.4200592 37.989502 -6.160103c8.202538 -4.103897 8.649796 -17.212845 16.427818 -22.073494c12.143158 -7.588501 27.692513 -7.3029556 41.582672 -10.78215c10.081238 -2.5251389 22.428177 -16.590202 29.776917 -9.24147c7.102173 7.102173 4.0101624 19.733902 7.1863403 29.262466c10.963226 32.88965 11.990524 68.31647 19.509186 102.16011c4.365082 19.648453 10.141724 64.57698 27.207352 53.905502c11.382446 -7.117676 10.330063 -25.160934 11.808395 -38.503937c3.730957 -33.674194 3.6752625 -68.47232 14.372711 -100.61942c2.526352 -7.5919876 8.325745 -20.500023 15.916016 -17.968498c10.2213745 3.4090576 20.4758 9.04071 27.207336 17.454063c2.8228455 3.5281143 4.383484 13.176689 8.2152405 10.782158c15.121704 -9.449875 14.933502 -38.746475 32.341187 -42.61155c17.106018 -3.7981033 25.542908 27.277435 27.721802 44.66404c2.092743 16.699402 11.105682 31.776428 16.427826 47.742783c2.7857666 8.357315 4.079376 22.12735 12.834625 23.102356c14.606384 1.6266327 15.381836 -25.252274 20.53543 -39.015747c3.2758179 -8.74852 10.661316 -15.695557 13.346466 -24.643036c1.7904358 -5.966049 1.229065 -14.42984 6.67453 -17.454071c13.046143 -7.245384 20.927979 21.85347 33.881897 29.262466c16.117828 9.218597 42.844543 -4.853424 54.931793 9.24147c6.82489 7.9585266 3.6259155 30.506088 13.86084 28.233597c31.34375 -6.9593353 30.344543 -59.36786 56.46985 -78.0315c18.43689 -13.17112 32.71045 44.483467 54.92914 40.042c13.129944 -2.624649 19.340454 -19.168839 31.317566 -25.154861c12.100891 -6.0478745 26.401428 -6.784706 38.501343 -12.8346405c21.230286 -10.61515 41.513733 -24.626572 64.685 -29.774277c10.943787 -2.4312592 17.623596 -18.841072 28.748047 -17.454071c13.521362 1.6858444 19.69757 20.31646 23.614197 33.367455c14.075012 46.900826 6.8447876 100.75497 30.288696 143.74539c4.606201 8.446747 8.421265 21.398346 17.968506 22.587921c10.280518 1.2809753 12.936768 -16.773132 15.916016 -26.695526c11.601929 -38.64026 4.3117676 -81.83948 18.480286 -119.614174c3.1446533 -8.383865 10.109375 -17.88691 18.994751 -18.994751c10.134216 -1.2635345 20.925415 7.156891 26.181091 15.913391" fill-rule="evenodd"/><path stroke="#6f42c1" stroke-width="2.0" stroke-linejoin="round" stroke-linecap="butt" d="m1.0262467 142.71638c14.506118 0 27.164684 -11.238098 41.58268 -12.8346405c12.750633 -1.411911 26.516747 -0.4200592 37.989502 -6.160103c8.202538 -4.103897 8.649796 -17.212845 16.427818 -22.073494c12.143158 -7.588501 27.692513 -7.3029556 41.582672 -10.78215c10.081238 -2.5251389 22.428177 -16.590202 29.776917 -9.24147c7.102173 7.102173 4.0101624 19.733902 7.1863403 29.262466c10.963226 32.88965 11.990524 68.31647 19.509186 102.16011c4.365082 19.648453 10.141724 64.57698 27.207352 53.905502c11.382446 -7.117676 10.330063 -25.160934 11.808395 -38.503937c3.730957 -33.674194 3.6752625 -68.47232 14.372711 -100.61942c2.526352 -7.5919876 8.325745 -20.500023 15.916016 -17.968498c10.2213745 3.4090576 20.4758 9.04071 27.207336 17.454063c2.8228455 3.5281143 4.383484 13.176689 8.2152405 10.782158c15.121704 -9.449875 14.933502 -38.746475 32.341187 -42.61155c17.106018 -3.7981033 25.542908 27.277435 27.721802 44.66404c2.092743 16.699402 11.105682 31.776428 16.427826 47.742783c2.7857666 8.357315 4.079376 22.12735 12.834625 23.102356c14.606384 1.6266327 15.381836 -25.252274 20.53543 -39.015747c3.2758179 -8.74852 10.661316 -15.695557 13.346466 -24.643036c1.7904358 -5.966049 1.229065 -14.42984 6.67453 -17.454071c13.046143 -7.245384 20.927979 21.85347 33.881897 29.262466c16.117828 9.218597 42.844543 -4.853424 54.931793 9.24147c6.82489 7.9585266 3.6259155 30.506088 13.86084 28.233597c31.34375 -6.9593353 30.344543 -59.36786 56.46985 -78.0315c18.43689 -13.17112 32.71045 44.483467 54.92914 40.042c13.129944 -2.624649 19.340454 -19.168839 31.317566 -25.154861c12.100891 -6.0478745 26.401428 -6.784706 38.501343 -12.8346405c21.230286 -10.61515 41.513733 -24.626572 64.685 -29.774277c10.943787 -2.4312592 17.623596 -18.841072 28.748047 -17.454071c13.521362 1.6858444 19.69757 20.31646 23.614197 33.367455c14.075012 46.900826 6.8447876 100.75497 30.288696 143.74539c4.606201 8.446747 8.421265 21.398346 17.968506 22.587921c10.280518 1.2809753 12.936768 -16.773132 15.916016 -26.695526c11.601929 -38.64026 4.3117676 -81.83948 18.480286 -119.614174c3.1446533 -8.383865 10.109375 -17.88691 18.994751 -18.994751c10.134216 -1.2635345 20.925415 7.156891 26.181091 15.913391" fill-rule="evenodd"/><path fill="#000000" fill-opacity="0.0" d="m0 143.74278l960.0 0" fill-rule="evenodd"/><path stroke="#6f42c1" stroke-width="1.0" stroke-linejoin="round" stroke-linecap="butt" stroke-dasharray="4.0,3.0" d="m0 143.74278l954.0 0" fill-rule="evenodd"/><path fill="#6f42c1" stroke="#6f42c1" stroke-width="1.0" stroke-linecap="butt" d="m954.0 145.39452l4.538086 -1.6517334l-4.538086 -1.6517334z" fill-rule="evenodd"/></g></svg>