<svg version="1.1" viewBox="0.0 0.0 960.0 720.0" fill="none" stroke="none" stroke-linecap="square" stroke-miterlimit="10" xmlns:xlink="http://www.w3.org/1999/xlink" xmlns="http://www.w3.org/2000/svg"><clipPath id="p.0"><path d="m0 0l960.0 0l0 720.0l-960.0 0l0 -720.0z" clip-rule="nonzero"/></clipPath><g clip-path="url(#p.0)"><path fill="#ffffff" d="m0 0l960.0 0l0 720.0l-960.0 0z" fill-rule="evenodd"/><path fill="#000000" fill-opacity="0.0" d="m155.1181 138.15749l0 443.68506" fill-rule="evenodd"/><path stroke="#000000" stroke-width="3.283464566929134" stroke-linejoin="round" stroke-linecap="butt" d="m155.1181 157.85826l0 423.98425" fill-rule="evenodd"/><path fill="#000000" stroke="#000000" stroke-width="3.283464566929134" stroke-linecap="butt" d="m160.54152 157.85826l-5.423416 -14.900681l-5.423401 14.900681z" fill-rule="evenodd"/><path fill="#000000" fill-opacity="0.0" d="m155.1181 581.8373l649.7638 0" fill-rule="evenodd"/><path stroke="#000000" stroke-width="3.283464566929134" stroke-linejoin="round" stroke-linecap="butt" d="m155.1181 581.8373l630.063 0" fill-rule="evenodd"/><path fill="#000000" stroke="#000000" stroke-width="3.283464566929134" stroke-linecap="butt" d="m785.1811 587.2607l14.900696 -5.423401l-14.900696 -5.423401z" fill-rule="evenodd"/><path fill="#000000" fill-opacity="0.0" d="m210.07349 597.9659l502.07874 0l0 61.417297l-502.07874 0z" fill-rule="evenodd"/><path fill="#000000" d="m432.22037 640.24585l-3.109375 0l0 -22.0l-7.734375 0l0 -2.75l18.546875 0l0 2.75l-7.703125 0l0 22.0zm14.08139 -18.578125l0 18.578125l-3.046875 0l0 -18.578125l3.046875 0zm-1.5 -6.96875q0.703125 0 1.234375 0.46875q0.53125 0.46875 0.53125 1.484375q0 0.96875 -0.53125 1.453125q-0.53125 0.484375 -1.234375 0.484375q-0.75 0 -1.28125 -0.484375q-0.515625 -0.484375 -0.515625 -1.453125q0 -1.015625 0.515625 -1.484375q0.53125 -0.46875 1.28125 -0.46875zm27.76944 6.625q3.15625 0 4.703125 1.609375q1.5625 1.609375 1.5625 5.21875l0 12.09375l-3.015625 0l0 -11.953125q0 -2.1875 -0.921875 -3.296875q-0.90625 -1.109375 -2.859375 -1.109375q-2.703125 0 -3.859375 1.5625q-1.15625 1.5625 -1.15625 4.53125l0 10.265625l-3.015625 0l0 -11.953125q0 -1.453125 -0.421875 -2.4375q-0.40625 -1.0 -1.25 -1.484375q-0.828125 -0.484375 -2.140625 -0.484375q-1.875 0 -2.953125 0.78125q-1.0625 0.78125 -1.53125 2.28125q-0.46875 1.484375 -0.46875 3.65625l0 9.640625l-3.046875 0l0 -18.578125l2.453125 0l0.453125 2.53125l0.171875 0q0.59375 -0.96875 1.4375 -1.609375q0.84375 -0.640625 1.875 -0.953125q1.046875 -0.3125 2.15625 -0.3125q2.15625 0 3.59375 0.765625q1.4375 0.765625 2.09375 2.359375l0.171875 0q0.9375 -1.59375 2.546875 -2.359375q1.609375 -0.765625 3.421875 -0.765625zm19.2005 0q2.390625 0 4.09375 1.046875q1.71875 1.03125 2.640625 2.921875q0.921875 1.890625 0.921875 4.421875l0 1.828125l-12.71875 0q0.0625 3.15625 1.609375 4.8125q1.546875 1.640625 4.3125 1.640625q1.765625 0 3.125 -0.328125q1.375 -0.328125 2.84375 -0.953125l0 2.671875q-1.421875 0.609375 -2.8125 0.90625q-1.390625 0.296875 -3.296875 0.296875q-2.625 0 -4.65625 -1.0625q-2.03125 -1.078125 -3.15625 -3.203125q-1.125 -2.140625 -1.125 -5.234375q0 -3.046875 1.015625 -5.21875q1.03125 -2.1875 2.875 -3.359375q1.859375 -1.1875 4.328125 -1.1875zm-0.046875 2.5q-2.171875 0 -3.4375 1.40625q-1.265625 1.390625 -1.515625 3.890625l9.46875 0q0 -1.59375 -0.484375 -2.765625q-0.484375 -1.1875 -1.484375 -1.859375q-0.984375 -0.671875 -2.546875 -0.671875z" fill-rule="nonzero"/><path fill="#000000" fill-opacity="0.0" d="m74.52231 620.5092l0 -502.07877l61.417328 0l0 502.07877z" fill-rule="evenodd"/><path fill="#000000" d="m92.05231 513.0388q0 -4.8593445 1.90625 -7.0780945q1.90625 -2.21875 5.375 -2.21875q1.53125 0 2.9375 0.515625q1.390625 0.5 2.5 1.640625q1.109375 1.140625 1.75 3.046875q0.640625 1.90625 0.640625 4.6718445l0 2.84375l9.640625 0l0 3.125l-24.75 0l0 -6.546875zm2.671875 0.265625l0 3.15625l9.78125 0l0 -2.484375q0 -2.3593445 -0.5 -3.9218445q-0.515625 -1.5625 -1.625 -2.3125q-1.109375 -0.765625 -2.90625 -0.765625q-2.390625 0 -3.5625 1.53125q-1.1875 1.515625 -1.1875 4.7968445zm3.15625 -21.451416q0 -2.390625 1.046875 -4.09375q1.03125 -1.71875 2.921875 -2.640625q1.890625 -0.921875 4.421875 -0.921875l1.828125 0l0 12.71875q3.15625 -0.0625 4.8125 -1.609375q1.640625 -1.546875 1.640625 -4.3125q0 -1.765625 -0.328125 -3.125q-0.328125 -1.375 -0.953125 -2.84375l2.671875 0q0.609375 1.421875 0.90625 2.8125q0.296875 1.390625 0.296875 3.296875q0 2.625 -1.0625 4.65625q-1.078125 2.03125 -3.203125 3.15625q-2.140625 1.125 -5.234375 1.125q-3.046875 0 -5.21875 -1.015625q-2.1875 -1.03125 -3.359375 -2.875q-1.1875 -1.859375 -1.1875 -4.328125zm2.5 0.046875q0 2.171875 1.40625 3.4375q1.390625 1.265625 3.890625 1.515625l0 -9.46875q-1.59375 0 -2.765625 0.484375q-1.1875 0.484375 -1.859375 1.484375q-0.671875 0.984375 -0.671875 2.546875zm-2.5 -21.077393q0 -0.515625 0.0625 -1.125q0.046875 -0.609375 0.140625 -1.0625l2.8125 0.390625q-0.109375 0.4375 -0.171875 0.984375q-0.078125 0.53125 -0.078125 1.015625q0 1.078125 0.453125 2.046875q0.453125 0.96875 1.265625 1.734375q0.8125 0.765625 1.96875 1.203125q1.140625 0.421875 2.5625 0.421875l9.90625 0l0 3.046875l-18.578125 0l0 -2.484375l3.40625 -0.34375l0 -0.140625q-1.046875 -0.59375 -1.890625 -1.421875q-0.859375 -0.828125 -1.359375 -1.90625q-0.5 -1.078125 -0.5 -2.359375zm19.265625 -12.40097q0 2.453125 -1.0 4.375q-1.0 1.921875 -3.109375 3.015625q-2.125 1.09375 -5.421875 1.09375q-3.421875 0 -5.5625 -1.140625q-2.15625 -1.140625 -3.15625 -3.09375q-1.015625 -1.96875 -1.015625 -4.46875q0 -1.421875 0.296875 -2.734375q0.296875 -1.3125 0.703125 -2.140625l2.53125 0.921875q-0.3125 0.84375 -0.578125 1.953125q-0.28125 1.109375 -0.28125 2.078125q0 1.859375 0.796875 3.078125q0.796875 1.21875 2.359375 1.8125q1.546875 0.578125 3.875 0.578125q2.21875 0 3.78125 -0.578125q1.5625 -0.59375 2.359375 -1.765625q0.796875 -1.1875 0.796875 -2.953125q0 -1.53125 -0.3125 -2.6875q-0.3125 -1.15625 -0.765625 -2.125l2.703125 0q0.484375 0.921875 0.734375 2.0625q0.265625 1.125 0.265625 2.71875zm-19.265625 -16.369385q0 -2.390625 1.046875 -4.09375q1.03125 -1.71875 2.921875 -2.640625q1.890625 -0.921875 4.421875 -0.921875l1.828125 0l0 12.71875q3.15625 -0.0625 4.8125 -1.609375q1.640625 -1.546875 1.640625 -4.3125q0 -1.765625 -0.328125 -3.125q-0.328125 -1.375 -0.953125 -2.84375l2.671875 0q0.609375 1.421875 0.90625 2.8125q0.296875 1.390625 0.296875 3.296875q0 2.625 -1.0625 4.65625q-1.078125 2.03125 -3.203125 3.15625q-2.140625 1.125 -5.234375 1.125q-3.046875 0 -5.21875 -1.015625q-2.1875 -1.03125 -3.359375 -2.875q-1.1875 -1.859375 -1.1875 -4.328125zm2.5 0.046875q0 2.171875 1.40625 3.4375q1.390625 1.265625 3.890625 1.515625l0 -9.46875q-1.59375 0 -2.765625 0.484375q-1.1875 0.484375 -1.859375 1.484375q-0.671875 0.984375 -0.671875 2.546875zm-2.15625 -15.468018l18.578125 0l0 3.046875l-18.578125 0l0 -3.046875zm-6.96875 1.5q0 -0.703125 0.46875 -1.234375q0.46875 -0.53125 1.484375 -0.53125q0.96875 0 1.453125 0.53125q0.484375 0.53125 0.484375 1.234375q0 0.75 -0.484375 1.28125q-0.484375 0.515625 -1.453125 0.515625q-1.015625 0 -1.484375 -0.515625q-0.46875 -0.53125 -0.46875 -1.28125zm25.546875 -11.472565l-18.578125 7.03125l0 -3.25l10.953125 -3.953125q0.765625 -0.28125 1.703125 -0.59375q0.9375 -0.3125 1.78125 -0.546875q0.84375 -0.25 1.4375 -0.359375l0 -0.140625q-0.59375 -0.125 -1.453125 -0.390625q-0.875 -0.265625 -1.796875 -0.59375q-0.9375 -0.328125 -1.671875 -0.5625l-10.953125 -3.953125l0 -3.265625l18.578125 7.078125l0 3.5zm-18.921875 -20.699158q0 -2.390625 1.046875 -4.09375q1.03125 -1.71875 2.921875 -2.640625q1.890625 -0.921875 4.421875 -0.921875l1.828125 0l0 12.71875q3.15625 -0.0625 4.8125 -1.609375q1.640625 -1.546875 1.640625 -4.3125q0 -1.765625 -0.328125 -3.125q-0.328125 -1.375 -0.953125 -2.84375l2.671875 0q0.609375 1.421875 0.90625 2.8125q0.296875 1.390625 0.296875 3.296875q0 2.625 -1.0625 4.65625q-1.078125 2.03125 -3.203125 3.15625q-2.140625 1.125 -5.234375 1.125q-3.046875 0 -5.21875 -1.015625q-2.1875 -1.03125 -3.359375 -2.875q-1.1875 -1.859375 -1.1875 -4.328125zm2.5 0.046875q0 2.171875 1.40625 3.4375q1.390625 1.265625 3.890625 1.515625l0 -9.46875q-1.59375 0 -2.765625 0.484375q-1.1875 0.484375 -1.859375 1.484375q-0.671875 0.984375 -0.671875 2.546875zm16.765625 -18.999268q0 3.46875 -2.40625 5.546875q-2.40625 2.078125 -7.1875 2.078125q-4.78125 0 -7.21875 -2.09375q-2.453125 -2.09375 -2.453125 -5.5625q0 -1.453125 0.375 -2.53125q0.359375 -1.078125 0.984375 -1.875q0.609375 -0.796875 1.375 -1.34375l0 -0.21875q-0.453125 0.046875 -1.328125 0.140625q-0.890625 0.078125 -1.40625 0.078125l-7.421875 0l0 -3.0625l26.34375 0l0 2.46875l-2.5 0.453125l0 0.140625q0.796875 0.546875 1.4375 1.34375q0.640625 0.796875 1.03125 1.890625q0.375 1.09375 0.375 2.546875zm-2.53125 -0.484375q0 -2.953125 -1.609375 -4.140625q-1.609375 -1.203125 -4.875 -1.203125l-0.546875 0q-3.46875 0 -5.3125 1.15625q-1.859375 1.140625 -1.859375 4.21875q0 2.46875 1.96875 3.703125q1.953125 1.21875 5.234375 1.21875q3.328125 0 5.171875 -1.21875q1.828125 -1.234375 1.828125 -3.734375zm2.53125 -29.839874q0 3.46875 -2.40625 5.546875q-2.40625 2.078125 -7.1875 2.078125q-4.78125 0 -7.21875 -2.09375q-2.453125 -2.09375 -2.453125 -5.5625q0 -1.453125 0.375 -2.53125q0.359375 -1.078125 0.984375 -1.875q0.609375 -0.796875 1.375 -1.34375l0 -0.21875q-0.453125 0.046875 -1.328125 0.140625q-0.890625 0.078125 -1.40625 0.078125l-7.421875 0l0 -3.0625l26.34375 0l0 2.46875l-2.5 0.453125l0 0.140625q0.796875 0.546875 1.4375 1.34375q0.640625 0.796875 1.03125 1.890625q0.375 1.09375 0.375 2.546875zm-2.53125 -0.484375q0 -2.953125 -1.609375 -4.140625q-1.609375 -1.203125 -4.875 -1.203125l-0.546875 0q-3.46875 0 -5.3125 1.15625q-1.859375 1.140625 -1.859375 4.21875q0 2.46875 1.96875 3.703125q1.953125 1.21875 5.234375 1.21875q3.328125 0 5.171875 -1.21875q1.828125 -1.234375 1.828125 -3.734375zm-16.390625 -17.297974l18.578125 0l0 3.046875l-18.578125 0l0 -3.046875zm-6.96875 1.5q0 -0.703125 0.46875 -1.234375q0.46875 -0.53125 1.484375 -0.53125q0.96875 0 1.453125 0.53125q0.484375 0.53125 0.484375 1.234375q0 0.75 -0.484375 1.28125q-0.484375 0.515625 -1.453125 0.515625q-1.015625 0 -1.484375 -0.515625q-0.46875 -0.53125 -0.46875 -1.28125zm9.328125 -15.941345l0 4.671875l16.21875 0l0 3.046875l-16.21875 0l0 3.265625l-1.421875 0l-1.046875 -3.265625l-1.0625 0q-2.390625 0 -3.875 -0.703125q-1.5 -0.71875 -2.1875 -2.0625q-0.703125 -1.359375 -0.703125 -3.265625q0 -1.109375 0.203125 -2.015625q0.1875 -0.921875 0.421875 -1.578125l2.390625 0.796875q-0.171875 0.546875 -0.34375 1.28125q-0.171875 0.71875 -0.171875 1.484375q0 1.53125 1.03125 2.28125q1.015625 0.734375 3.203125 0.734375l1.203125 0l0 -4.671875l2.359375 0zm0 -11.921875l0 4.671875l16.21875 0l0 3.046875l-16.21875 0l0 3.265625l-1.421875 0l-1.046875 -3.265625l-1.0625 0q-2.390625 0 -3.875 -0.703125q-1.5 -0.71875 -2.1875 -2.0625q-0.703125 -1.359375 -0.703125 -3.265625q0 -1.109375 0.203125 -2.015625q0.1875 -0.921875 0.421875 -1.578125l2.390625 0.796875q-0.171875 0.546875 -0.34375 1.28125q-0.171875 0.71875 -0.171875 1.484375q0 1.53125 1.03125 2.28125q1.015625 0.734375 3.203125 0.734375l1.203125 0l0 -4.671875l2.359375 0zm-2.359375 -6.421875l18.578125 0l0 3.046875l-18.578125 0l0 -3.046875zm-6.96875 1.5q0 -0.703125 0.46875 -1.234375q0.46875 -0.53125 1.484375 -0.53125q0.96875 0 1.453125 0.53125q0.484375 0.53125 0.484375 1.234375q0 0.75 -0.484375 1.28125q-0.484375 0.515625 -1.453125 0.515625q-1.015625 0 -1.484375 -0.515625q-0.46875 -0.53125 -0.46875 -1.28125zm25.890625 -14.831726q0 2.453125 -1.0 4.375q-1.0 1.921875 -3.109375 3.015625q-2.125 1.09375 -5.421875 1.09375q-3.421875 0 -5.5625 -1.140625q-2.15625 -1.140625 -3.15625 -3.09375q-1.015625 -1.96875 -1.015625 -4.46875q0 -1.421875 0.296875 -2.734375q0.296875 -1.3125 0.703125 -2.140625l2.53125 0.921875q-0.3125 0.84375 -0.578125 1.953125q-0.28125 1.109375 -0.28125 2.078125q0 1.859375 0.796875 3.078125q0.796875 1.21875 2.359375 1.8125q1.546875 0.578125 3.875 0.578125q2.21875 0 3.78125 -0.578125q1.5625 -0.59375 2.359375 -1.765625q0.796875 -1.1875 0.796875 -2.953125q0 -1.53125 -0.3125 -2.6875q-0.3125 -1.15625 -0.765625 -2.125l2.703125 0q0.484375 0.921875 0.734375 2.0625q0.265625 1.125 0.265625 2.71875zm-18.921875 -24.713135l18.578125 0l0 2.5l-2.453125 0.4375l0 0.140625q0.96875 0.59375 1.59375 1.53125q0.609375 0.9375 0.90625 2.046875q0.296875 1.109375 0.296875 2.3125q0 2.21875 -0.703125 3.734375q-0.71875 1.5 -2.203125 2.265625q-1.5 0.765625 -3.84375 0.765625l-12.171875 0l0 -3.09375l11.953125 0q2.21875 0 3.328125 -1.0q1.109375 -1.0 1.109375 -3.125q0 -2.078125 -0.78125 -3.265625q-0.78125 -1.203125 -2.28125 -1.703125q-1.515625 -0.5 -3.65625 -0.5l-9.671875 0l0 -3.046875zm18.578125 -8.948853l0 3.046875l-26.34375 0l0 -3.046875l26.34375 0zm-2.15625 -12.097534q0 -0.6875 -0.109375 -1.40625q-0.125 -0.734375 -0.265625 -1.1875l2.328125 0q0.234375 0.484375 0.390625 1.390625q0.15625 0.890625 0.15625 1.734375q0 1.453125 -0.5 2.6875q-0.5 1.21875 -1.75 1.984375q-1.25 0.765625 -3.5 0.765625l-10.8125 0l0 2.640625l-1.453125 0l-1.21875 -2.671875l-3.953125 -1.21875l0 -1.796875l4.265625 0l0 -5.375l2.359375 0l0 5.375l10.75 0q1.6875 0 2.5 -0.8125q0.8125 -0.8125 0.8125 -2.109375zm-16.421875 -3.3859253l0 -3.265625l10.578125 -4.015625q0.9375 -0.34375 1.796875 -0.640625q0.859375 -0.296875 1.6875 -0.53125q0.8125 -0.25 1.5625 -0.390625l0 -0.140625q-0.859375 -0.203125 -2.265625 -0.65625q-1.40625 -0.453125 -2.828125 -0.9375l-10.53125 -3.765625l0 -3.296875l21.140625 8.0q1.734375 0.65625 3.03125 1.546875q1.296875 0.875 2.0 2.140625q0.71875 1.265625 0.71875 3.078125q0 0.828125 -0.09375 1.453125q-0.078125 0.625 -0.171875 1.078125l-2.4375 0q0.078125 -0.390625 0.140625 -0.921875q0.078125 -0.546875 0.078125 -1.125q0 -1.078125 -0.40625 -1.859375q-0.390625 -0.78125 -1.140625 -1.328125q-0.75 -0.5625 -1.75 -0.9375l-2.46875 -0.96875l-18.640625 7.484375z" fill-rule="nonzero"/><path fill="#000000" fill-opacity="0.0" d="m164.4567 196.13387c157.77164 0 236.65747 89.779526 315.5433 179.55904c78.8858 89.77954 157.77167 179.55905 315.54333 179.55905" fill-rule="evenodd"/><path stroke="#9900ff" stroke-width="8.0" stroke-linejoin="round" stroke-linecap="butt" d="m164.4567 196.13387c157.77164 0 236.65747 89.779526 315.5433 179.55904c78.8858 89.77954 157.77167 179.55905 315.54333 179.55905" fill-rule="evenodd"/><path fill="#000000" fill-opacity="0.0" d="m165.92914 572.12335c157.77164 0 236.65747 -89.77951 315.5433 -179.55905c78.88583 -89.77951 157.77164 -179.55905 315.5433 -179.55905" fill-rule="evenodd"/><path stroke="#f1c232" stroke-width="8.0" stroke-linejoin="round" stroke-linecap="butt" d="m165.92914 572.12335c157.77164 0 236.65747 -89.77951 315.5433 -179.55905c78.88583 -89.77951 157.77164 -179.55905 315.5433 -179.55905" fill-rule="evenodd"/><path fill="#000000" fill-opacity="0.0" d="m194.38583 118.43044l502.0787 0l0 71.08662l-502.0787 0z" fill-rule="evenodd"/><path fill="#9900ff" d="m208.08896 168.39044l5.296875 0l2.53125 -16.375l0.234375 -1.53125l0.234375 1.53125l2.640625 16.375l5.296875 0l4.203125 -30.328125l-5.375 0l-2.0625 17.0l-0.140625 1.265625l-0.1875 -1.25l-2.546875 -17.015625l-4.1875 0l-2.390625 16.890625l-0.1875 1.25l-0.140625 -1.1875l-2.03125 -16.953125l-5.34375 0l4.15625 30.328125zm34.76979 0.421875q3.265625 0 5.65625 -1.265625q2.40625 -1.28125 3.5 -2.84375l-2.890625 -3.125q-1.0 1.296875 -2.609375 1.9375q-1.59375 0.640625 -3.3125 0.640625q-1.203125 0 -2.234375 -0.375q-1.015625 -0.375 -1.796875 -1.0625q-0.765625 -0.65625 -1.234375 -1.484375q-0.453125 -0.828125 -0.75 -2.171875l0 -0.0625l15.296875 0l0 -2.453125q0 -2.484375 -0.6875 -4.53125q-0.6875 -2.0625 -2.0 -3.515625q-1.34375 -1.453125 -3.25 -2.25q-1.90625 -0.8125 -4.34375 -0.8125q-2.34375 0 -4.34375 0.859375q-2.0 0.84375 -3.453125 2.390625q-1.46875 1.546875 -2.28125 3.6875q-0.8125 2.125 -0.8125 4.703125l0 0.828125q0 2.28125 0.828125 4.265625q0.828125 1.984375 2.34375 3.453125q1.515625 1.46875 3.640625 2.328125q2.125 0.859375 4.734375 0.859375zm-0.6875 -18.6875q1.09375 0 1.9375 0.34375q0.84375 0.34375 1.4375 0.921875q0.578125 0.609375 0.90625 1.421875q0.34375 0.8125 0.34375 1.734375l0 0.453125l-9.5 0q0.203125 -1.109375 0.625 -2.0q0.421875 -0.890625 1.046875 -1.546875q0.59375 -0.640625 1.40625 -0.984375q0.8125 -0.34375 1.796875 -0.34375zm35.660416 7.234375l0 -0.4375q0 -2.046875 -0.375 -3.828125q-0.359375 -1.796875 -1.109375 -3.234375q-0.484375 -0.90625 -1.109375 -1.65625q-0.625 -0.765625 -1.390625 -1.3125q-0.953125 -0.703125 -2.171875 -1.078125q-1.21875 -0.375 -2.6875 -0.375q-1.0625 0 -1.96875 0.21875q-0.90625 0.21875 -1.671875 0.65625q-0.53125 0.296875 -1.015625 0.703125q-0.484375 0.40625 -0.890625 0.875l0 -11.5l-5.796875 0l0 32.0l5.203125 0l0.28125 -2.390625q0.34375 0.453125 0.734375 0.84375q0.40625 0.375 0.859375 0.6875q0.859375 0.625 1.921875 0.953125q1.078125 0.328125 2.390625 0.328125q1.4375 0 2.625 -0.375q1.203125 -0.359375 2.171875 -1.046875q1.0625 -0.734375 1.84375 -1.828125q0.78125 -1.109375 1.25 -2.46875q0.4375 -1.21875 0.671875 -2.671875q0.234375 -1.453125 0.234375 -3.0625zm-5.796875 -0.4375l0 0.4375q0 0.859375 -0.078125 1.671875q-0.0625 0.8125 -0.234375 1.5q-0.203125 0.9375 -0.609375 1.6875q-0.40625 0.734375 -1.0625 1.1875q-0.453125 0.34375 -1.078125 0.53125q-0.625 0.1875 -1.390625 0.1875q-0.90625 0 -1.609375 -0.203125q-0.6875 -0.21875 -1.203125 -0.609375q-0.4375 -0.3125 -0.765625 -0.734375q-0.3125 -0.4375 -0.5625 -0.953125l0 -8.984375q0.1875 -0.390625 0.40625 -0.734375q0.234375 -0.34375 0.5 -0.609375q0.5625 -0.5625 1.34375 -0.859375q0.796875 -0.296875 1.84375 -0.296875q0.765625 0 1.375 0.1875q0.609375 0.171875 1.078125 0.53125q0.734375 0.5625 1.09375 1.234375q0.375 0.671875 0.59375 1.53125q0.1875 0.734375 0.265625 1.5625q0.09375 0.828125 0.09375 1.734375zm31.7229 7.921875l-0.015625 -11.953125l-10.859375 0l0 4.375l5.015625 0l-0.015625 5.5q-0.234375 0.265625 -0.6875 0.515625q-0.4375 0.234375 -1.015625 0.421875q-0.59375 0.1875 -1.265625 0.296875q-0.65625 0.09375 -1.34375 0.09375q-1.125 -0.015625 -2.015625 -0.359375q-0.875 -0.34375 -1.546875 -1.015625q-0.390625 -0.390625 -0.71875 -0.890625q-0.3125 -0.515625 -0.5625 -1.125q-0.40625 -1.046875 -0.625 -2.390625q-0.21875 -1.359375 -0.21875 -3.0l0 -4.171875q0 -1.3125 0.15625 -2.4375q0.15625 -1.125 0.453125 -2.03125q0.375 -1.1875 0.9375 -2.0625q0.578125 -0.875 1.296875 -1.421875q0.53125 -0.390625 1.15625 -0.59375q0.625 -0.21875 1.296875 -0.21875q1.21875 0 2.109375 0.328125q0.890625 0.3125 1.46875 0.96875q0.515625 0.578125 0.8125 1.4375q0.3125 0.84375 0.453125 1.953125l5.71875 0q-0.234375 -2.1875 -0.984375 -3.9375q-0.734375 -1.75 -2.046875 -2.984375q-1.3125 -1.203125 -3.21875 -1.84375q-1.90625 -0.65625 -4.46875 -0.65625q-1.65625 0 -3.15625 0.46875q-1.5 0.453125 -2.765625 1.34375q-1.09375 0.796875 -2.0 1.890625q-0.90625 1.078125 -1.59375 2.421875q-0.71875 1.53125 -1.125 3.390625q-0.390625 1.859375 -0.390625 4.03125l0 4.125q0 2.265625 0.40625 4.203125q0.40625 1.9375 1.203125 3.484375q0.6875 1.390625 1.671875 2.484375q0.984375 1.078125 2.203125 1.828125q1.21875 0.71875 2.6875 1.109375q1.46875 0.390625 3.140625 0.390625q1.90625 0 3.578125 -0.359375q1.671875 -0.359375 3.015625 -0.9375q1.34375 -0.5625 2.3125 -1.265625q0.984375 -0.71875 1.546875 -1.40625zm10.972931 -7.578125l4.515625 0q2.484375 0 4.484375 -0.703125q2.0 -0.703125 3.421875 -1.984375q1.390625 -1.25 2.140625 -2.96875q0.765625 -1.734375 0.765625 -3.78125q0 -2.1875 -0.765625 -3.96875q-0.75 -1.796875 -2.140625 -3.09375q-1.421875 -1.265625 -3.421875 -1.984375q-2.0 -0.71875 -4.484375 -0.71875l-10.359375 0l0 30.328125l5.84375 0l0 -11.125zm0 -4.75l0 -9.703125l4.515625 0q1.25 0 2.171875 0.40625q0.921875 0.390625 1.546875 1.078125q0.59375 0.6875 0.890625 1.609375q0.3125 0.90625 0.3125 1.96875q0 0.921875 -0.3125 1.765625q-0.296875 0.84375 -0.890625 1.484375q-0.625 0.640625 -1.546875 1.015625q-0.921875 0.375 -2.171875 0.375l-4.515625 0zm39.582275 -14.453125l-5.8125 0l-0.03125 20.09375q-0.015625 1.484375 -0.3125 2.609375q-0.28125 1.125 -0.875 1.875q-0.53125 0.734375 -1.359375 1.09375q-0.828125 0.359375 -1.890625 0.359375q-0.96875 0 -1.71875 -0.34375q-0.75 -0.34375 -1.265625 -1.03125q-0.5625 -0.75 -0.84375 -1.890625q-0.28125 -1.140625 -0.3125 -2.671875l-0.015625 -20.09375l-5.859375 0l-0.015625 20.09375q0 2.546875 0.71875 4.546875q0.71875 1.984375 2.03125 3.328125q1.3125 1.359375 3.15625 2.078125q1.84375 0.703125 4.125 0.703125q2.4375 0 4.34375 -0.703125q1.90625 -0.71875 3.25 -2.09375q1.3125 -1.359375 2.0 -3.328125q0.703125 -1.984375 0.703125 -4.53125l-0.015625 -20.09375z" fill-rule="nonzero"/><path fill="#000000" fill-opacity="0.0" d="m339.4147 125.04724l502.0787 0l0 71.086624l-502.0787 0z" fill-rule="evenodd"/><path fill="#f1c232" d="m606.8153 175.00725l5.296875 0l2.53125 -16.375l0.234375 -1.53125l0.234375 1.53125l2.640625 16.375l5.296875 0l4.203125 -30.328125l-5.375 0l-2.0625 17.0l-0.140625 1.265625l-0.1875 -1.25l-2.546875 -17.015625l-4.1875 0l-2.390625 16.890625l-0.1875 1.25l-0.140625 -1.1875l-2.03125 -16.953125l-5.34375 0l4.15625 30.328125zm34.769775 0.421875q3.265625 0 5.65625 -1.265625q2.40625 -1.28125 3.5 -2.84375l-2.890625 -3.125q-1.0 1.296875 -2.609375 1.9375q-1.59375 0.640625 -3.3125 0.640625q-1.203125 0 -2.234375 -0.375q-1.015625 -0.375 -1.796875 -1.0625q-0.765625 -0.65625 -1.234375 -1.484375q-0.453125 -0.828125 -0.75 -2.171875l0 -0.0625l15.296875 0l0 -2.453125q0 -2.484375 -0.6875 -4.53125q-0.6875 -2.0625 -2.0 -3.515625q-1.34375 -1.453125 -3.25 -2.25q-1.90625 -0.8125 -4.34375 -0.8125q-2.34375 0 -4.34375 0.859375q-2.0 0.84375 -3.453125 2.390625q-1.46875 1.546875 -2.28125 3.6875q-0.8125 2.125 -0.8125 4.703125l0 0.828125q0 2.28125 0.828125 4.265625q0.828125 1.984375 2.34375 3.453125q1.515625 1.46875 3.640625 2.328125q2.125 0.859375 4.734375 0.859375zm-0.6875 -18.6875q1.09375 0 1.9375 0.34375q0.84375 0.34375 1.4375 0.921875q0.578125 0.609375 0.90625 1.421875q0.34375 0.8125 0.34375 1.734375l0 0.453125l-9.5 0q0.203125 -1.109375 0.625 -2.0q0.421875 -0.890625 1.046875 -1.546875q0.59375 -0.640625 1.40625 -0.984375q0.8125 -0.34375 1.796875 -0.34375zm35.66046 7.234375l0 -0.4375q0 -2.046875 -0.375 -3.828125q-0.359375 -1.796875 -1.109375 -3.234375q-0.484375 -0.90625 -1.109375 -1.65625q-0.625 -0.765625 -1.390625 -1.3125q-0.953125 -0.703125 -2.171875 -1.078125q-1.21875 -0.375 -2.6875 -0.375q-1.0625 0 -1.96875 0.21875q-0.90625 0.21875 -1.671875 0.65625q-0.53125 0.296875 -1.015625 0.703125q-0.484375 0.40625 -0.890625 0.875l0 -11.5l-5.796875 0l0 32.0l5.203125 0l0.28125 -2.390625q0.34375 0.453125 0.734375 0.84375q0.40625 0.375 0.859375 0.6875q0.859375 0.625 1.921875 0.953125q1.078125 0.328125 2.390625 0.328125q1.4375 0 2.625 -0.375q1.203125 -0.359375 2.171875 -1.046875q1.0625 -0.734375 1.84375 -1.828125q0.78125 -1.109375 1.25 -2.46875q0.4375 -1.21875 0.671875 -2.671875q0.234375 -1.453125 0.234375 -3.0625zm-5.796875 -0.4375l0 0.4375q0 0.859375 -0.078125 1.671875q-0.0625 0.8125 -0.234375 1.5q-0.203125 0.9375 -0.609375 1.6875q-0.40625 0.734375 -1.0625 1.1875q-0.453125 0.34375 -1.078125 0.53125q-0.625 0.1875 -1.390625 0.1875q-0.90625 0 -1.609375 -0.203125q-0.6875 -0.21875 -1.203125 -0.609375q-0.4375 -0.3125 -0.765625 -0.734375q-0.3125 -0.4375 -0.5625 -0.953125l0 -8.984375q0.1875 -0.390625 0.40625 -0.734375q0.234375 -0.34375 0.5 -0.609375q0.5625 -0.5625 1.34375 -0.859375q0.796875 -0.296875 1.84375 -0.296875q0.765625 0 1.375 0.1875q0.609375 0.171875 1.078125 0.53125q0.734375 0.5625 1.09375 1.234375q0.375 0.671875 0.59375 1.53125q0.1875 0.734375 0.265625 1.5625q0.09375 0.828125 0.09375 1.734375zm31.926025 1.96875l-5.84375 0q-0.09375 1.375 -0.46875 2.359375q-0.375 0.96875 -1.015625 1.59375q-0.640625 0.625 -1.5625 0.921875q-0.921875 0.296875 -2.0625 0.296875q-0.859375 0 -1.5625 -0.203125q-0.6875 -0.203125 -1.25 -0.609375q-0.515625 -0.375 -0.921875 -0.9375q-0.40625 -0.5625 -0.703125 -1.296875q-0.40625 -1.0625 -0.609375 -2.484375q-0.203125 -1.421875 -0.203125 -3.234375l0 -4.125q0 -1.34375 0.125 -2.5q0.125 -1.15625 0.40625 -2.109375q0.34375 -1.234375 0.9375 -2.15625q0.59375 -0.921875 1.453125 -1.421875q0.5 -0.296875 1.09375 -0.4375q0.59375 -0.15625 1.28125 -0.15625q1.28125 0 2.203125 0.34375q0.9375 0.34375 1.5625 1.015625q0.609375 0.6875 0.921875 1.71875q0.328125 1.015625 0.40625 2.359375l5.84375 0q-0.21875 -2.375 -1.015625 -4.265625q-0.78125 -1.890625 -2.15625 -3.203125q-1.375 -1.3125 -3.328125 -2.015625q-1.9375 -0.71875 -4.4375 -0.71875q-1.6875 0 -3.15625 0.4375q-1.46875 0.421875 -2.703125 1.203125q-1.375 0.9375 -2.453125 2.296875q-1.078125 1.359375 -1.75 3.078125q-0.578125 1.421875 -0.875 3.078125q-0.296875 1.65625 -0.296875 3.484375l0 4.09375q0 1.953125 0.328125 3.703125q0.328125 1.75 0.921875 3.203125q0.625 1.453125 1.53125 2.671875q0.90625 1.203125 2.078125 2.0625q1.265625 0.90625 2.859375 1.40625q1.59375 0.484375 3.46875 0.484375q2.375 0 4.328125 -0.6875q1.96875 -0.703125 3.375 -2.0q1.421875 -1.296875 2.265625 -3.125q0.84375 -1.828125 0.984375 -4.125zm3.9572754 -1.96875l0 0.4375q0 2.46875 0.703125 4.5625q0.71875 2.09375 2.09375 3.640625q1.359375 1.53125 3.34375 2.40625q1.984375 0.859375 4.53125 0.859375q2.515625 0 4.484375 -0.859375q1.984375 -0.875 3.34375 -2.40625q1.359375 -1.546875 2.0625 -3.640625q0.703125 -2.09375 0.703125 -4.5625l0 -0.4375q0 -2.46875 -0.703125 -4.5625q-0.703125 -2.09375 -2.0625 -3.625q-1.375 -1.546875 -3.359375 -2.421875q-1.96875 -0.875 -4.515625 -0.875q-2.53125 0 -4.5 0.875q-1.96875 0.875 -3.328125 2.421875q-1.375 1.53125 -2.09375 3.625q-0.703125 2.09375 -0.703125 4.5625zm5.796875 0.4375l0 -0.4375q0 -1.375 0.265625 -2.609375q0.28125 -1.234375 0.859375 -2.171875q0.578125 -0.9375 1.484375 -1.46875q0.921875 -0.546875 2.21875 -0.546875q1.3125 0 2.21875 0.546875q0.921875 0.53125 1.515625 1.46875q0.5625 0.9375 0.828125 2.171875q0.265625 1.234375 0.265625 2.609375l0 0.4375q0 1.40625 -0.265625 2.65625q-0.265625 1.234375 -0.828125 2.140625q-0.59375 0.9375 -1.515625 1.484375q-0.90625 0.546875 -2.171875 0.546875q-1.3125 0 -2.25 -0.546875q-0.921875 -0.546875 -1.5 -1.484375q-0.578125 -0.90625 -0.859375 -2.140625q-0.265625 -1.25 -0.265625 -2.65625zm19.988525 -0.40625l0 0.4375q0 2.453125 0.609375 4.546875q0.609375 2.09375 1.75 3.625q1.125 1.515625 2.75 2.390625q1.640625 0.859375 3.703125 0.859375q1.890625 0 3.328125 -0.734375q1.4375 -0.734375 2.5 -2.046875l0.296875 2.359375l5.234375 0l0 -32.0l-5.8125 0l0 11.484375q-1.046875 -1.171875 -2.390625 -1.796875q-1.34375 -0.640625 -3.109375 -0.640625q-2.109375 0 -3.75 0.84375q-1.625 0.828125 -2.765625 2.34375q-1.15625 1.515625 -1.75 3.640625q-0.59375 2.125 -0.59375 4.6875zm5.796875 0.4375l0 -0.4375q0 -1.40625 0.25 -2.640625q0.25 -1.25 0.796875 -2.1875q0.53125 -0.921875 1.390625 -1.453125q0.875 -0.53125 2.09375 -0.53125q1.484375 0 2.453125 0.640625q0.984375 0.640625 1.578125 1.78125l0 9.125q-0.59375 1.125 -1.578125 1.765625q-0.984375 0.640625 -2.484375 0.640625q-1.234375 0 -2.09375 -0.515625q-0.84375 -0.515625 -1.390625 -1.4375q-0.53125 -0.890625 -0.78125 -2.109375q-0.234375 -1.21875 -0.234375 -2.640625zm31.347961 11.421875q3.265625 0 5.65625 -1.265625q2.40625 -1.28125 3.5 -2.84375l-2.890625 -3.125q-1.0 1.296875 -2.609375 1.9375q-1.59375 0.640625 -3.3125 0.640625q-1.203125 0 -2.234375 -0.375q-1.015625 -0.375 -1.796875 -1.0625q-0.765625 -0.65625 -1.234375 -1.484375q-0.453125 -0.828125 -0.75 -2.171875l0 -0.0625l15.296875 0l0 -2.453125q0 -2.484375 -0.6875 -4.53125q-0.6875 -2.0625 -2.0 -3.515625q-1.34375 -1.453125 -3.25 -2.25q-1.90625 -0.8125 -4.34375 -0.8125q-2.34375 0 -4.34375 0.859375q-2.0 0.84375 -3.453125 2.390625q-1.46875 1.546875 -2.28125 3.6875q-0.8125 2.125 -0.8125 4.703125l0 0.828125q0 2.28125 0.828125 4.265625q0.828125 1.984375 2.34375 3.453125q1.515625 1.46875 3.640625 2.328125q2.125 0.859375 4.734375 0.859375zm-0.6875 -18.6875q1.09375 0 1.9375 0.34375q0.84375 0.34375 1.4375 0.921875q0.578125 0.609375 0.90625 1.421875q0.34375 0.8125 0.34375 1.734375l0 0.453125l-9.5 0q0.203125 -1.109375 0.625 -2.0q0.421875 -0.890625 1.046875 -1.546875q0.59375 -0.640625 1.40625 -0.984375q0.8125 -0.34375 1.796875 -0.34375zm25.31665 14.0625q-1.390625 0 -2.296875 -0.5625q-0.90625 -0.5625 -1.421875 -1.5q-0.546875 -0.921875 -0.75 -2.140625q-0.203125 -1.21875 -0.203125 -2.53125l0 -0.625q0 -1.28125 0.21875 -2.484375q0.21875 -1.21875 0.75 -2.15625q0.53125 -0.9375 1.421875 -1.5q0.890625 -0.5625 2.265625 -0.5625q0.9375 0 1.71875 0.328125q0.796875 0.3125 1.359375 0.859375q0.5625 0.546875 0.859375 1.296875q0.296875 0.75 0.25 1.578125l5.453125 0q0.046875 -2.0 -0.671875 -3.609375q-0.703125 -1.625 -1.96875 -2.765625q-1.296875 -1.125 -3.0625 -1.75q-1.765625 -0.625 -3.859375 -0.625q-2.59375 0 -4.5625 0.90625q-1.96875 0.890625 -3.296875 2.421875q-1.34375 1.546875 -2.015625 3.625q-0.65625 2.0625 -0.65625 4.4375l0 0.625q0 2.375 0.671875 4.453125q0.6875 2.0625 2.015625 3.609375q1.3125 1.546875 3.28125 2.4375q1.984375 0.875 4.609375 0.875q1.9375 0 3.671875 -0.609375q1.75 -0.625 3.0625 -1.703125q1.3125 -1.078125 2.0625 -2.578125q0.765625 -1.5 0.71875 -3.25l-5.453125 0q0.046875 0.78125 -0.28125 1.4375q-0.328125 0.640625 -0.90625 1.09375q-0.578125 0.46875 -1.359375 0.71875q-0.765625 0.25 -1.625 0.25zm30.1604 -1.984375q0 0.515625 -0.265625 0.953125q-0.25 0.4375 -0.765625 0.78125q-0.546875 0.328125 -1.390625 0.53125q-0.84375 0.1875 -1.96875 0.1875q-0.9375 0 -1.828125 -0.1875q-0.875 -0.1875 -1.5625 -0.59375q-0.6875 -0.40625 -1.125 -1.0625q-0.4375 -0.65625 -0.5 -1.5625l-5.515625 0q0 1.375 0.671875 2.734375q0.671875 1.359375 1.984375 2.421875q1.3125 1.09375 3.265625 1.765625q1.953125 0.65625 4.484375 0.65625q2.3125 0 4.1875 -0.5q1.875 -0.515625 3.203125 -1.4375q1.3125 -0.921875 2.03125 -2.171875q0.71875 -1.265625 0.71875 -2.765625q0 -1.625 -0.71875 -2.796875q-0.71875 -1.1875 -1.984375 -2.015625q-1.265625 -0.8125 -3.015625 -1.328125q-1.75 -0.515625 -3.796875 -0.859375q-1.421875 -0.203125 -2.34375 -0.484375q-0.90625 -0.28125 -1.421875 -0.640625q-0.546875 -0.328125 -0.75 -0.75q-0.203125 -0.4375 -0.203125 -0.9375q0 -0.5 0.234375 -0.9375q0.234375 -0.453125 0.703125 -0.78125q0.5 -0.375 1.28125 -0.578125q0.796875 -0.21875 1.859375 -0.21875q1.25 0 2.125 0.3125q0.890625 0.3125 1.40625 0.828125q0.375 0.40625 0.5625 0.890625q0.1875 0.484375 0.1875 1.046875l5.796875 0q0 -1.5625 -0.6875 -2.890625q-0.6875 -1.328125 -1.984375 -2.3125q-1.3125 -0.953125 -3.1875 -1.5q-1.875 -0.5625 -4.21875 -0.5625q-2.25 0 -4.046875 0.5625q-1.78125 0.5625 -3.03125 1.515625q-1.25 0.96875 -1.921875 2.234375q-0.671875 1.265625 -0.671875 2.671875q0 1.4375 0.65625 2.546875q0.65625 1.09375 1.828125 1.921875q1.171875 0.859375 2.796875 1.453125q1.640625 0.59375 3.609375 0.984375q1.5625 0.296875 2.578125 0.59375q1.03125 0.28125 1.65625 0.609375q0.609375 0.359375 0.84375 0.765625q0.234375 0.390625 0.234375 0.90625z" fill-rule="nonzero"/></g></svg>